<svg xmlns="http://www.w3.org/2000/svg" viewBox="0 0 295.239 295.239"><path d="M261.905 97.619h-80.952c-18.376 0-33.333-14.957-33.333-33.333s14.957-33.333 33.333-33.333c1.824 0 3.638.148 5.429.443 6.638-17.29 23.381-29.014 42.19-29.014 19.014 0 36.114 12.148 42.529 29.867 14.143 4.048 24.138 17.09 24.138 32.038-.001 18.375-14.958 33.332-33.334 33.332z" fill="#f9ba48"/><path d="M288.486 157.967c-16.652-8.329-35.3-12.729-53.919-12.729h-60.043l-53.967-38.095H74.219l38.095 38.095H73.238l-42.857-38.095H2.195L21.062 149.6l-6.776 1.129v16.005l3.043 2.176c21.933 15.667 47.776 23.948 74.729 23.948h10.733L67.948 227.7l4.867 3.214a28.97 28.97 0 0 1 4.257 3.438l1.39 1.362h27.814l60.714-42.857h66.381c16.424 0 32.405-3.281 47.495-9.748l6.971-2.986a12.212 12.212 0 0 0 7.4-11.229 12.15 12.15 0 0 0-6.751-10.927zm-191.277-41.3h20.329l40.476 28.571h-32.233l-28.572-28.571zm-80.357 0h9.91l32.143 28.571h-6.557c-3.4 0-6.824.286-10.176.843l-11.405 1.9-13.915-31.314zm267.234 54.7l-6.971 2.986c-13.905 5.962-28.614 8.981-43.743 8.981h-52.89l7.981-5.633-5.495-7.781-79.714 56.271h-20.33l49.014-49.014-6.733-6.733-12.89 12.89H92.057c-24.567 0-48.138-7.433-68.248-21.505v-3.033l19.929-3.324a52.775 52.775 0 0 1 8.61-.71h182.219c17.152 0 34.324 4.052 49.657 11.719a2.694 2.694 0 0 1-.138 4.886z" fill="#333"/><path d="M85.714 292.857H28.571C12.814 292.857 0 280.043 0 264.286c0-13.99 10.3-25.838 23.91-28.081 6.695-11.952 19.452-19.538 33.233-19.538 18.105 0 33.61 12.805 37.257 30.257 9.048 3.529 15.124 12.214 15.124 22.124 0 13.128-10.681 23.809-23.81 23.809z" fill="#f9ba48"/><path fill="#333" d="M161.905 245.238h95.238v9.524h-95.238zM142.857 245.238h9.524v9.524h-9.524zM42.857 35.714h76.19v9.524h-76.19zM23.81 35.714h9.524v9.524H23.81zM23.81 59.524h71.429v9.524H23.81zM4.762 59.524h9.524v9.524H4.762z"/></svg>