<svg xmlns="http://www.w3.org/2000/svg" viewBox="0 0 72.9 16.7"><path fill="#20366A" stroke="#36B3B6" stroke-width=".25" stroke-miterlimit="10" d="M64.5 16.3H8.4C4.1 16.3.6 12.8.6 8.5S4.1.7 8.4.7h56.1c4.3 0 7.8 3.5 7.8 7.8s-3.5 7.8-7.8 7.8z"/><path fill="#FFF" d="M8.5 5.3c-.5-.3-.6-.9-.2-1.4.3-.5 1-.6 1.4-.3s.6 1 .3 1.4c-.4.5-1 .6-1.5.3zm5.5 6.9h-3.6c-.8 0-1.4-.6-1.5-1.3L7.8 6h-1l1 5c.2 1.3 1.3 2.2 2.5 2.2H14v-1zm.1-2.1h-2.5L11.1 8c.8.5 1.7.8 2.6.6v-1c-.8.2-1.8-.1-2.4-.6l-.8-.7c-.1-.1-.3-.2-.4-.2-.2-.1-.4-.1-.6-.1-.6.1-1 .7-.9 1.4l.7 3c.1.7.8 1.3 1.5 1.3h3.5l2 1.5.8-.8-3-2.3z"/><text transform="translate(-24.875 159.25)" fill="#FFF" font-family="'CaviarDreams-Bold'" font-size="52">Business</text><g fill="#FFF"><path d="M19.8 4.3h4.3v1.5h-2.8v1.4h2.8v1.4h-2.8v2.1h2.8v1.5h-4.3V4.3zM31.1 7.6l-1.2.7c-.2-.2-.5-.4-.7-.5-.2-.1-.5-.1-.8-.1-.5 0-1 .2-1.3.5-.3.3-.5.7-.5 1.3 0 .5.2.9.5 1.2.3.3.8.5 1.3.5.7 0 1.2-.2 1.5-.7l1.2.8c-.6.8-1.5 1.2-2.7 1.2-1 0-1.8-.3-2.4-.9-.6-.6-.9-1.3-.9-2.1 0-.6.1-1.1.4-1.6.3-.5.7-.8 1.2-1.1.5-.3 1.1-.4 1.7-.4.6 0 1.1.1 1.6.3s.8.4 1.1.9zM35.2 6.2c.6 0 1.1.1 1.6.4s.9.6 1.1 1.1c.3.5.4 1 .4 1.5 0 .6-.1 1.1-.4 1.5-.3.5-.6.9-1.1 1.1-.5.3-1 .4-1.6.4-.8 0-1.6-.3-2.1-.9-.6-.6-.9-1.3-.9-2.2 0-.9.3-1.7 1-2.3.5-.3 1.2-.6 2-.6zm0 1.4c-.5 0-.8.2-1.1.5-.3.3-.5.7-.5 1.2s.1.9.4 1.2c.3.3.7.5 1.1.5.5 0 .8-.2 1.1-.5s.5-.7.5-1.2-.1-.9-.4-1.2-.7-.5-1.1-.5zM39.5 6.4H41V7c.3-.3.6-.5.9-.6s.5-.2.8-.2c.6 0 1.1.2 1.5.6.3.3.5.9.5 1.5v3.9h-1.4V9.7c0-.7 0-1.2-.1-1.4-.2-.3-.3-.4-.4-.5-.2-.1-.3-.2-.6-.2s-.6.1-.8.3-.3.4-.4.8c0 .2-.1.6-.1 1.2v2.3h-1.5V6.4zM48.8 6.2c.6 0 1.1.1 1.6.4s.9.6 1.1 1.1c.3.5.4 1 .4 1.5 0 .6-.1 1.1-.4 1.5-.3.5-.6.9-1.1 1.1-.5.3-1 .4-1.6.4-.8 0-1.6-.3-2.1-.9-.6-.6-.9-1.3-.9-2.2 0-.9.3-1.7 1-2.3.6-.3 1.2-.6 2-.6zm0 1.4c-.5 0-.8.2-1.1.5-.3.3-.5.7-.5 1.2s.1.9.4 1.2c.3.3.7.5 1.1.5.5 0 .8-.2 1.1-.5s.5-.7.5-1.2 0-.9-.3-1.2-.7-.5-1.2-.5zM53.1 6.4h1.5v.7c.3-.3.5-.5.8-.6.3-.1.6-.2 1-.2s.7.1 1 .3c.3.2.5.4.7.8.2-.3.5-.6.9-.8.3-.2.7-.3 1.1-.3.4 0 .8.1 1.1.3.3.2.5.4.7.8.1.2.1.7.1 1.4v3.4h-1.5v-3c0-.7-.1-1.1-.2-1.3s-.4-.4-.7-.4c-.3 0-.5.1-.7.2-.2.1-.3.3-.4.6-.1.3-.1.7-.1 1.2v2.6h-1.5V9.4c0-.5 0-.9-.1-1.1s-.2-.4-.3-.5c-.2-.1-.3-.2-.6-.2-.2 0-.5.1-.7.2-.2.1-.3.3-.4.6-.1.3-.1.7-.1 1.2v2.6h-1.5V6.4zM62.8 6.4h1.5l1.5 3.7 1.7-3.7H69l-3.7 8h-1.5l1.2-2.6-2.2-5.4z"/></g></svg>