<svg xmlns="http://www.w3.org/2000/svg" xmlns:xlink="http://www.w3.org/1999/xlink" viewBox="0 0 54 54"><switch><g><image overflow="visible" width="20" height="20" xlink:href="flight-det.png" transform="translate(77 61)"/><path fill="#F8F9FB" d="M42 54H12C5.4 54 0 48.6 0 42V12C0 5.4 5.4 0 12 0h30c6.6 0 12 5.4 12 12v30c0 6.6-5.4 12-12 12z"/><defs><path id="a" d="M9.3 18h36.2v21H9.3z"/></defs><clipPath id="b"><use xlink:href="#a" overflow="visible"/></clipPath><path clip-path="url(#b)" fill="#1CA39F" d="M25.7 18.7c.5-.5 1.1-.7 1.8-.7.6 0 1.3.2 1.8.7l15.5 15.5c1 1 1 2.6 0 3.6s-2.6 1-3.6 0L27.5 24.1 13.8 37.8c-1 1-2.6 1-3.6 0s-1-2.6 0-3.6l15.5-15.5zm0 0"/></g></switch></svg>