<svg xmlns="http://www.w3.org/2000/svg" viewBox="0 0 72.9 16.7"><path fill="#20366A" stroke="#36B3B6" stroke-width=".25" stroke-miterlimit="10" d="M64.5 16.3H8.4C4.1 16.3.6 12.8.6 8.5S4.1.7 8.4.7h56.1c4.3 0 7.8 3.5 7.8 7.8s-3.5 7.8-7.8 7.8z"/><path fill="#FFF" d="M7.5 5.3c-.5-.3-.6-.9-.2-1.4.3-.5 1-.6 1.4-.3s.6 1 .3 1.4c-.4.5-1 .6-1.5.3zm5.5 6.9H9.3c-.8 0-1.4-.6-1.5-1.3L6.8 6h-1l1 5c.2 1.3 1.3 2.2 2.5 2.2H13v-1zm.1-2.1h-2.5L10.1 8c.8.5 1.7.8 2.6.6v-1c-.8.2-1.8-.1-2.4-.6l-.9-.7c-.1-.1-.2-.2-.3-.2-.2-.1-.4-.1-.6-.1-.6.1-1 .7-.9 1.4l.7 3c.1.7.8 1.3 1.5 1.3h3.5l2 1.5.8-.8-3-2.3z"/><g fill="#FFF"><path d="M76.7 27v-8.6H78c.8 0 1.4.1 1.7.2.5.1.9.4 1.2.8s.5.8.5 1.3c0 .3-.1.6-.2.9s-.4.5-.7.8c.5.2.9.6 1.1.9s.4.8.4 1.3-.1.9-.4 1.3-.6.7-1 .9-.8.2-1.5.2h-2.4zm1.6-7.1v1.8h.4c.4 0 .7-.1.9-.3.2-.2.3-.4.3-.7 0-.3-.1-.5-.3-.6-.2-.2-.5-.2-.8-.2h-.5zm0 3.3v2.2h.4c.7 0 1.1-.1 1.4-.3s.4-.4.4-.8-.1-.7-.4-.9c-.3-.2-.7-.3-1.4-.3h-.4zM83.5 20.6h1.6v3.1c0 .6 0 1 .1 1.2.1.2.2.4.4.5.2.1.4.2.7.2s.5-.1.7-.2.3-.3.4-.6c.1-.2.1-.6.1-1.2v-3.1h1.6v2.7c0 1.1-.1 1.9-.3 2.3-.2.5-.5.9-.9 1.2s-.9.4-1.6.4c-.7 0-1.3-.2-1.7-.5s-.7-.7-.9-1.3c-.1-.4-.2-1.1-.2-2.1v-2.6zM94.6 21.5l-1 1c-.4-.4-.8-.6-1.1-.6-.2 0-.3 0-.4.1s-.2.2-.2.3c0 .1 0 .2.1.2s.2.2.5.3l.6.3c.6.3 1 .6 1.3.9s.3.7.3 1.1c0 .6-.2 1-.6 1.4s-1 .6-1.7.6c-.9 0-1.7-.4-2.2-1.1l1-1.1c.2.2.4.4.7.5s.5.2.7.2c.2 0 .4-.1.5-.2s.2-.2.2-.4-.2-.5-.7-.7l-.5-.3c-1-.5-1.5-1.2-1.5-2 0-.5.2-.9.6-1.3s.9-.5 1.5-.5c.4 0 .8.1 1.2.3s.4.6.7 1zM96.6 18c.3 0 .5.1.7.3.2.2.3.4.3.7 0 .3-.1.5-.3.7s-.4.3-.7.3c-.3 0-.5-.1-.7-.3s-.3-.5-.3-.7c0-.3.1-.5.3-.7s.4-.3.7-.3zm-.8 2.6h1.6V27h-1.6v-6.4zM98.8 20.6h1.6v.7c.4-.3.7-.5 1-.6.3-.1.6-.2.9-.2.6 0 1.2.2 1.6.7.4.4.6.9.6 1.7V27h-1.6v-2.8c0-.8 0-1.3-.1-1.5-.1-.3-.2-.4-.4-.6s-.4-.2-.6-.2c-.3 0-.6.1-.8.3-.2.2-.4.5-.5.9 0 .2-.1.6-.1 1.3V27h-1.6v-6.4zM112.4 24.2h-5.1c.1.5.3.8.6 1.1s.7.4 1.2.4c.6 0 1.1-.2 1.5-.6l1.3.6c-.3.5-.7.8-1.2 1.1s-1 .3-1.7.3c-1 0-1.8-.3-2.4-.9s-.9-1.4-.9-2.4.3-1.8.9-2.4 1.4-1 2.4-1 1.8.3 2.4 1 .9 1.5.9 2.5l.1.3zm-1.6-1.2c-.1-.4-.3-.6-.6-.9s-.7-.3-1.1-.3c-.4 0-.8.1-1.2.4-.2.2-.4.4-.6.8h3.5zM117.6 21.5l-1 1c-.4-.4-.8-.6-1.1-.6-.2 0-.3 0-.4.1s-.2.2-.2.3c0 .1 0 .2.1.2s.2.2.5.3l.6.3c.6.3 1 .6 1.3.9s.3.7.3 1.1c0 .6-.2 1-.6 1.4s-1 .6-1.7.6c-.9 0-1.7-.4-2.2-1.1l1-1.1c.2.2.4.4.7.5s.5.2.7.2c.2 0 .4-.1.5-.2s.2-.2.2-.4-.2-.5-.7-.7l-.5-.3c-1-.5-1.5-1.2-1.5-2 0-.5.2-.9.6-1.3s.9-.5 1.5-.5c.4 0 .8.1 1.2.3s.4.6.7 1zM122.9 21.5l-1 1c-.4-.4-.8-.6-1.1-.6-.2 0-.3 0-.4.1s-.2.2-.2.3c0 .1 0 .2.1.2s.2.2.5.3l.6.3c.6.3 1 .6 1.3.9s.3.7.3 1.1c0 .6-.2 1-.6 1.4s-1 .6-1.7.6c-.9 0-1.7-.4-2.2-1.1l1-1.1c.2.2.4.4.7.5s.5.2.7.2c.2 0 .4-.1.5-.2s.2-.2.2-.4-.2-.5-.7-.7l-.5-.3c-1-.5-1.5-1.2-1.5-2 0-.5.2-.9.6-1.3s.9-.5 1.5-.5c.4 0 .8.1 1.2.3s.4.6.7 1z"/></g><g fill="#FFF"><path d="M18.1 4.6h4.3v1.6h-2.6v1.6h2.6v1.6h-2.6v3.9h-1.6V4.6zM24.2 4.2c.3 0 .5.1.7.3.2.2.3.4.3.7 0 .3-.1.5-.3.7s-.4.3-.7.3c-.3 0-.5-.1-.7-.3s-.3-.5-.3-.7c0-.3.1-.5.3-.7s.5-.3.7-.3zm-.8 2.6H25v6.4h-1.6V6.8zM26.1 6.8h1.4v.8c.1-.3.3-.6.6-.7s.5-.2.8-.2c.2 0 .4.1.7.2l-.5 1.4c-.2-.1-.3-.1-.5-.1s-.5.2-.6.5-.3.9-.3 1.8v2.9h-1.6V6.8zM34.2 7.7l-1 1c-.4-.4-.8-.6-1.1-.6-.2 0-.3 0-.4.1s-.2.2-.2.3c0 .1 0 .2.1.2s.2.2.5.3l.6.3c.6.3 1 .6 1.3.9s.3.7.3 1.1c0 .6-.2 1-.6 1.4s-1 .6-1.7.6c-.9 0-1.7-.4-2.2-1.1l1-1.1c.2.2.4.4.7.5s.5.2.7.2c.2 0 .4-.1.5-.2s.2-.2.2-.4-.2-.5-.7-.7l-.5-.3c-1-.5-1.5-1.2-1.5-2 0-.5.2-.9.6-1.3s.9-.5 1.5-.5c.4 0 .8.1 1.2.3s.5.7.7 1zM35.8 4.5h1.6v2.3h.9v1.4h-.9v5h-1.6v-5H35V6.8h.8V4.5zM45.5 8.1l-1.3.7c-.3-.3-.5-.4-.7-.5s-.5-.2-.9-.2c-.6 0-1.1.2-1.5.5-.4.4-.6.8-.6 1.4 0 .5.2 1 .5 1.3.4.3.8.5 1.4.5.7 0 1.3-.2 1.7-.7l1.3.9c-.7.9-1.6 1.3-2.9 1.3-1.1 0-2-.3-2.6-1s-1-1.4-1-2.3c0-.6.2-1.2.5-1.7s.7-.9 1.3-1.2 1.2-.4 1.9-.4c.6 0 1.2.1 1.7.4s.8.6 1.2 1zM46.7 4.4h1.6v8.8h-1.6V4.4zM54.5 6.8h1.6v6.4h-1.6v-.7c-.3.3-.6.5-.9.6s-.7.2-1 .2c-.8 0-1.5-.3-2.1-1-.6-.6-.9-1.4-.9-2.4s.3-1.8.9-2.4 1.3-.9 2.1-.9c.4 0 .7.1 1.1.2s.6.4.9.7v-.7zm-1.7 1.3c-.5 0-.9.2-1.2.5-.4.4-.5.9-.5 1.4 0 .6.2 1 .5 1.4.3.4.7.5 1.2.5s.9-.2 1.2-.5c.3-.3.5-.8.5-1.4 0-.6-.2-1-.5-1.3-.3-.4-.7-.6-1.2-.6zM61.6 7.7l-1 1c-.4-.4-.8-.6-1.1-.6-.2 0-.3 0-.4.1s-.2.2-.2.3c0 .1 0 .2.1.2s.2.2.5.3l.6.3c.6.3 1 .6 1.3.9s.3.7.3 1.1c0 .6-.2 1-.6 1.4s-1 .6-1.7.6c-.9 0-1.7-.4-2.2-1.1l1-1.1c.2.2.4.4.7.5s.5.2.7.2c.2 0 .4-.1.5-.2s.2-.2.2-.4-.2-.5-.7-.7H59c-1-.5-1.5-1.2-1.5-2 0-.5.2-.9.6-1.3s.9-.5 1.5-.5c.4 0 .8.1 1.2.3s.5.4.8.7zM66.9 7.7l-1 1c-.4-.4-.8-.6-1.1-.6-.2 0-.3 0-.4.1s-.2.2-.2.3c0 .1 0 .2.1.2s.2.2.5.3l.6.3c.6.3 1 .6 1.3.9s.3.8.3 1.2c0 .6-.2 1-.6 1.4s-1 .6-1.7.6c-.9 0-1.7-.4-2.2-1.1l1-1.1c.2.2.4.4.7.5s.5.2.7.2c.2 0 .4-.1.5-.2s.2-.2.2-.4-.2-.5-.7-.7l-.5-.3c-1-.5-1.5-1.2-1.5-2 0-.5.2-.9.6-1.3s.9-.5 1.5-.5c.4 0 .8.1 1.2.3s.4.6.7.9z"/></g></svg>