<svg xmlns="http://www.w3.org/2000/svg" xmlns:xlink="http://www.w3.org/1999/xlink" viewBox="0 0 760 760"><path d="M735.799 616.099a63.81 63.81 0 0 1-1.348 45.572s-1.846-20.586-11.429-25.199c-9.583-4.615-15.723 8.162-25.305 3.549-9.583-4.615-3.407-17.39-12.954-22.005l-.036-.035c-9.547-4.544-15.723 8.199-25.305 3.584-9.583-4.613-3.407-17.425-12.99-22.04-9.582-4.613-26.866 6.743-26.866 6.743 12.183-22.057 36.195-34.892 61.304-32.767 25.109 2.123 46.623 18.808 54.929 42.598zm0 0" fill="#d81f2a"/><path d="M603.416 715.828a302.654 302.654 0 0 1 31.942-1.633c.995 0 1.987 0 2.983.035a282.41 282.41 0 0 1 46.705 4.083c26.37 4.755 44.4 13.167 45.997 22.856-5.358 3.975-5.785 12.067-15.829 12.067-13.344 0-13.344-14.197-26.653-14.197s-13.309 14.197-26.618 14.197-13.309-14.197-26.618-14.197-13.309 14.197-26.618 14.197-13.309-14.197-26.618-14.197-13.275 14.197-26.584 14.197c-10.043 0-10.469-8.091-15.829-12.067 1.952-11.748 27.967-21.616 63.74-25.341zm0 0" fill="#a88967"/><path d="M603.416 692.9H589.22a7.075 7.075 0 0 1-5.714-2.908c-.248-.213-.532-.391-.78-.639l-15.049-15.049a7.102 7.102 0 0 1 10.044-10.043l14.444 14.444h103.527a7.032 7.032 0 0 1 5.573 2.767c.24.158.464.336.674.534l15.047 15.046a7.1 7.1 0 0 1 0 10.044 7.102 7.102 0 0 1-10.043 0L692.749 692.9h-89.333zm0 0" fill="#8a8890"/><path d="M585.671 582.88c0 7.84-6.355 14.196-14.196 14.196-7.84 0-14.196-6.356-14.196-14.196s6.356-14.196 14.196-14.196c7.841-.001 14.196 6.355 14.196 14.196zm0 0" fill="#feda46"/><path d="M571.474 600.625c9.802 0 17.746-7.946 17.746-17.746s-7.944-17.746-17.746-17.746c-9.8 0-17.746 7.946-17.746 17.746.013 9.797 7.952 17.734 17.746 17.746zm0-28.393c5.882 0 10.647 4.767 10.647 10.647s-4.766 10.647-10.647 10.647c-5.88 0-10.647-4.767-10.647-10.647s4.767-10.647 10.647-10.647zm0 0M571.474 561.585a3.55 3.55 0 0 0 3.549-3.549V543.84a3.55 3.55 0 0 0-7.098 0v14.196a3.55 3.55 0 0 0 3.549 3.549zm0 0M551.398 567.82a3.548 3.548 0 1 0 5.019-5.018l-10.037-10.036a3.547 3.547 0 0 0-5.986 1.567 3.549 3.549 0 0 0 .967 3.452l10.037 10.035zm0 0M532.434 586.429h14.196a3.55 3.55 0 0 0 0-7.098h-14.196a3.55 3.55 0 0 0 0 7.098zm0 0M551.398 597.939l-10.037 10.036a3.55 3.55 0 1 0 5.019 5.018l10.037-10.036a3.55 3.55 0 1 0-5.019-5.018zm0 0M567.925 607.723v14.197a3.55 3.55 0 0 0 7.098 0v-14.197a3.55 3.55 0 0 0-7.098 0zm0 0M586.534 597.939a3.55 3.55 0 0 0 0 5.019l10.037 10.036a3.549 3.549 0 0 0 5.018-5.018l-10.037-10.036a3.545 3.545 0 0 0-5.018-.001zm0 0M592.769 582.88a3.55 3.55 0 0 0 3.549 3.549h14.196a3.55 3.55 0 0 0 0-7.098h-14.196a3.548 3.548 0 0 0-3.549 3.549zm0 0"/><defs><path id="a" d="M528.885 540.29h214.278v216.496H528.885z"/></defs><clipPath id="b"><use xlink:href="#a" overflow="visible"/></clipPath><path d="M589.043 568.86a3.55 3.55 0 0 0 2.509-1.039l10.037-10.036a3.549 3.549 0 0 0-5.018-5.018l-10.037 10.036a3.549 3.549 0 0 0 2.509 6.057zm0 0M738.283 735.49a17.03 17.03 0 0 0-5.27.782c-5.303-9.583-22.534-16.621-44.418-20.863v-18.958h2.691l13.153 13.157c4.157 4.159 10.9 4.159 15.058 0 4.159-4.159 4.159-10.9 0-15.059l-15.058-15.053a7.18 7.18 0 0 0-.671-.586 10.551 10.551 0 0 0-8.076-3.752H661.1l24.825-51.487a19.266 19.266 0 0 1 1.828 6.033c.912 4.653 2.042 10.441 8.426 13.522 6.384 3.081 11.623.355 15.832-1.825 4.017-2.086 6.442-3.194 9.479-1.731 6.308 3.041 8.994 17.511 9.438 22.338a3.547 3.547 0 0 0 3.535 3.237 3.549 3.549 0 0 0 3.275-2.184c13.256-31.772.369-68.424-29.852-84.912l3.156-6.553a3.546 3.546 0 0 0-.172-3.627 3.546 3.546 0 0 0-6.216.548l-3.156 6.547c-31.72-13.354-68.406-.627-85.04 29.5a3.546 3.546 0 0 0 .704 4.312 3.545 3.545 0 0 0 4.353.362c4.046-2.657 17.037-9.582 23.378-6.509 3.042 1.466 3.684 4.054 4.558 8.5.911 4.653 2.052 10.446 8.443 13.526 6.393 3.081 11.623.355 15.832-1.82a19.559 19.559 0 0 1 5.781-2.306l-26.291 54.528H593.63l-13.411-13.408a10.647 10.647 0 1 0-15.056 15.055l15.056 15.059c.248.243.511.472.787.681a10.675 10.675 0 0 0 8.213 3.906h10.647v16.231c-29.928 3.509-55.493 11.526-62.161 23.591a17.162 17.162 0 0 0-5.272-.782 3.55 3.55 0 0 0 0 7.098c4.785 0 6.305 2.211 8.604 5.557a16.094 16.094 0 0 0 14.465 8.639 20.441 20.441 0 0 0 15.893-8.219c3.119-3.34 5.591-5.977 10.705-5.977s7.585 2.637 10.715 5.977a20.442 20.442 0 0 0 15.893 8.219 20.455 20.455 0 0 0 15.897-8.219c3.129-3.34 5.604-5.977 10.718-5.977s7.592 2.637 10.725 5.977a19.483 19.483 0 0 0 31.796 0c3.129-3.34 5.604-5.977 10.718-5.977s7.596 2.637 10.729 5.977a20.466 20.466 0 0 0 15.921 8.219 16.108 16.108 0 0 0 14.464-8.635c2.293-3.346 3.812-5.561 8.606-5.561a3.55 3.55 0 0 0 .001-7.098zm-67.82-118.859c-4.017 2.088-6.438 3.196-9.483 1.733-3.045-1.462-3.684-4.057-4.558-8.5-.915-4.653-2.052-10.448-8.439-13.529a23.609 23.609 0 0 0-17.501.603c17.919-20.064 46.953-25.842 71.189-14.169 24.234 11.675 37.813 37.981 33.29 64.499a23.492 23.492 0 0 0-10.387-13.99 13.233 13.233 0 0 0-5.818-1.381 21.869 21.869 0 0 0-10.015 3.194c-4.018 2.086-6.438 3.194-9.476 1.733-3.038-1.463-3.674-4.046-4.544-8.49-.908-4.653-2.04-10.446-8.426-13.522-6.384-3.079-11.626-.346-15.832 1.819zm11.034 97.524a290.468 290.468 0 0 0-37.545-3.388l6.909-14.318h30.636v17.706zm-92.277-24.802a3.513 3.513 0 0 1-2.838-1.459 4.324 4.324 0 0 0-.831-.813c-.104-.078-.213-.149-.308-.237l-15.059-15.06a3.548 3.548 0 0 1 5.019-5.017l14.452 14.448a3.55 3.55 0 0 0 2.509 1.04h103.531a3.515 3.515 0 0 1 2.783 1.395c.177.227.381.429.607.606l.338.256 15.058 15.053a3.551 3.551 0 0 1-5.021 5.022l-14.196-14.195a3.553 3.553 0 0 0-2.506-1.04H589.22zm17.745 7.096h36.016l-6.856 14.196h-.767c-9.486 0-19.087.44-28.393 1.296v-15.492zm116.853 47.676c-2.307 3.35-3.826 5.561-8.604 5.561-5.124 0-7.597-2.637-10.729-5.977a19.493 19.493 0 0 0-31.803 0c-3.144 3.34-5.615 5.977-10.732 5.977-5.118 0-7.592-2.637-10.722-5.977a19.487 19.487 0 0 0-31.8 0c-3.13 3.34-5.601 5.977-10.718 5.977s-7.585-2.637-10.715-5.977a20.438 20.438 0 0 0-15.893-8.219 20.447 20.447 0 0 0-15.893 8.219c-3.13 3.34-5.601 5.977-10.705 5.977-4.783 0-6.303-2.211-8.603-5.557a30.836 30.836 0 0 0-3.194-4.093c4.934-11.011 41.18-22.291 91.651-22.291 50.473 0 86.705 11.271 91.671 22.288a30.21 30.21 0 0 0-3.211 4.092zm0 0" clip-path="url(#b)"/><path d="M695.517 595.613a45.978 45.978 0 0 1 23.537 26.367 3.554 3.554 0 0 0 2.693 2.404 3.547 3.547 0 1 0 4.001-4.757 53.004 53.004 0 0 0-27.15-30.405 3.547 3.547 0 1 0-3.081 6.388v.003zm0 0"/><path fill="#e9eff4" d="M75.019 124h370.56v579.17H75.019z"/><path d="M505.019 41.394l-28.848 83.952a16.781 16.781 0 0 1-15.856 11.312H60.219a16.75 16.75 0 0 1-15.856-11.312L15.515 41.394C11.771 30.498 19.851 19.17 31.371 19.17h457.792c11.52 0 19.6 11.328 15.856 22.224z" fill="#e24c4b"/><path d="M330.827 574.866V722.21c0 5.6-4.32 9.92-9.92 9.92h-121.28c-5.6 0-9.92-4.32-9.92-9.92V574.866c0-5.6 4.32-9.92 9.92-9.92h121.28c5.6 0 9.92 4.32 9.92 9.92z" fill="#3f4448"/><g fill="#fff"><path d="M142.699 103.538V52.306h10.352v20.16h20.272v-20.16h10.336v51.232h-10.336v-22.4h-20.272v22.4h-10.352zM192.267 78.226c0-5.216.784-9.6 2.336-13.136 1.168-2.608 2.752-4.944 4.768-7.024s4.224-3.616 6.624-4.608c3.2-1.36 6.88-2.032 11.04-2.032 7.552 0 13.584 2.336 18.112 7.024s6.8 11.2 6.8 19.536c0 8.272-2.256 14.736-6.752 19.408-4.496 4.672-10.512 7.008-18.032 7.008-7.616 0-13.68-2.32-18.176-6.976-4.48-4.64-6.72-11.04-6.72-19.2zm10.656-.336c0 5.808 1.344 10.192 4.016 13.2 2.672 2.992 6.08 4.496 10.208 4.496s7.504-1.488 10.16-4.448c2.64-2.976 3.968-7.424 3.968-13.376 0-5.872-1.296-10.256-3.856-13.136-2.576-2.896-6-4.336-10.256-4.336s-7.696 1.456-10.304 4.384c-2.64 2.912-3.936 7.312-3.936 13.216zM261.563 103.538v-42.56h-15.2v-8.672h40.72v8.672h-15.168v42.56h-10.352zM293.739 103.538V52.306h37.984v8.672h-27.648v11.36h25.728v8.624h-25.728v13.952h28.624v8.624h-38.96zM341.771 103.538V52.722h10.352v42.176h25.712v8.624h-36.064v.016z"/></g><g fill="#6dafe0"><path d="M167.371 390.21v39.44c0 5.552-4.352 9.904-9.904 9.904h-39.584c-5.552 0-9.904-4.352-9.904-9.904v-39.44c0-5.552 4.352-9.904 9.904-9.904h39.584c5.552.016 9.904 4.368 9.904 9.904zM249.099 390.21v39.44c0 5.552-4.352 9.904-9.904 9.904h-39.6c-5.552 0-9.904-4.352-9.904-9.904v-39.44c0-5.552 4.352-9.904 9.904-9.904h39.6c5.552.016 9.904 4.368 9.904 9.904zM330.827 390.21v39.44c0 5.552-4.352 9.904-9.904 9.904h-39.6c-5.552 0-9.904-4.352-9.904-9.904v-39.44c0-5.552 4.352-9.904 9.904-9.904h39.6c5.552.016 9.904 4.368 9.904 9.904zM412.555 390.21v39.44c0 5.552-4.352 9.904-9.904 9.904h-39.6c-5.552 0-9.904-4.352-9.904-9.904v-39.44c0-5.552 4.352-9.904 9.904-9.904h39.6c5.552.016 9.904 4.368 9.904 9.904zM167.371 168.21v39.44c0 5.552-4.352 9.904-9.904 9.904h-39.584c-5.552 0-9.904-4.352-9.904-9.904v-39.44c0-5.552 4.352-9.904 9.904-9.904h39.584c5.552.016 9.904 4.368 9.904 9.904zM249.099 168.21v39.44c0 5.552-4.352 9.904-9.904 9.904h-39.6c-5.552 0-9.904-4.352-9.904-9.904v-39.44c0-5.552 4.352-9.904 9.904-9.904h39.6c5.552.016 9.904 4.368 9.904 9.904zM330.827 168.21v39.44c0 5.552-4.352 9.904-9.904 9.904h-39.6c-5.552 0-9.904-4.352-9.904-9.904v-39.44c0-5.552 4.352-9.904 9.904-9.904h39.6c5.552.016 9.904 4.368 9.904 9.904zM412.555 168.21v39.44c0 5.552-4.352 9.904-9.904 9.904h-39.6c-5.552 0-9.904-4.352-9.904-9.904v-39.44c0-5.552 4.352-9.904 9.904-9.904h39.6c5.552.016 9.904 4.368 9.904 9.904zM167.403 242.21v39.44c0 5.552-4.352 9.904-9.904 9.904h-39.584c-5.552 0-9.904-4.352-9.904-9.904v-39.44c0-5.552 4.352-9.904 9.904-9.904h39.584c5.552.016 9.904 4.368 9.904 9.904zM412.587 242.21v39.44c0 5.552-4.352 9.904-9.904 9.904h-39.6c-5.552 0-9.904-4.352-9.904-9.904v-39.44c0-5.552 4.352-9.904 9.904-9.904h39.6c5.552.016 9.904 4.368 9.904 9.904zM168.371 314.21v39.44c0 5.552-4.352 9.904-9.904 9.904h-39.584c-5.552 0-9.904-4.352-9.904-9.904v-39.44c0-5.552 4.352-9.904 9.904-9.904h39.584c5.552.016 9.904 4.368 9.904 9.904zM413.555 314.21v39.44c0 5.552-4.352 9.904-9.904 9.904h-39.6c-5.552 0-9.904-4.352-9.904-9.904v-39.44c0-5.552 4.352-9.904 9.904-9.904h39.6c5.552.016 9.904 4.368 9.904 9.904zM167.371 470.21v39.44c0 5.552-4.352 9.904-9.904 9.904h-39.584c-5.552 0-9.904-4.352-9.904-9.904v-39.44c0-5.552 4.352-9.904 9.904-9.904h39.584c5.552 0 9.904 4.352 9.904 9.904zM249.099 470.21v39.44c0 5.552-4.352 9.904-9.904 9.904h-39.6c-5.552 0-9.904-4.352-9.904-9.904v-39.44c0-5.552 4.352-9.904 9.904-9.904h39.6c5.552 0 9.904 4.352 9.904 9.904zM330.827 470.21v39.44c0 5.552-4.352 9.904-9.904 9.904h-39.6c-5.552 0-9.904-4.352-9.904-9.904v-39.44c0-5.552 4.352-9.904 9.904-9.904h39.6c5.552 0 9.904 4.352 9.904 9.904zM412.555 470.21v39.44c0 5.552-4.352 9.904-9.904 9.904h-39.6c-5.552 0-9.904-4.352-9.904-9.904v-39.44c0-5.552 4.352-9.904 9.904-9.904h39.6c5.552 0 9.904 4.352 9.904 9.904zM167.371 550.194v39.44c0 5.552-4.352 9.904-9.904 9.904h-39.584c-5.552 0-9.904-4.352-9.904-9.904v-39.44c0-5.552 4.352-9.904 9.904-9.904h39.584c5.552 0 9.904 4.352 9.904 9.904zM412.555 550.194v39.44c0 5.552-4.352 9.904-9.904 9.904h-39.6c-5.552 0-9.904-4.352-9.904-9.904v-39.44c0-5.552 4.352-9.904 9.904-9.904h39.6c5.552 0 9.904 4.352 9.904 9.904zM167.371 630.178v39.44c0 5.552-4.352 9.904-9.904 9.904h-39.584c-5.552 0-9.904-4.352-9.904-9.904v-39.44c0-5.552 4.352-9.904 9.904-9.904h39.584c5.552 0 9.904 4.352 9.904 9.904zM412.555 630.178v39.44c0 5.552-4.352 9.904-9.904 9.904h-39.6c-5.552 0-9.904-4.352-9.904-9.904v-39.44c0-5.552 4.352-9.904 9.904-9.904h39.6c5.552 0 9.904 4.352 9.904 9.904zM192.267 236h138.56v123.554h-138.56z"/></g><path d="M516.267 727.17c0 13.248-10.752 24-24 24h-464c-13.248 0-24-10.752-24-24s10.752-24 24-24h464c13.248 0 24 10.752 24 24z" fill="#8dc640"/></svg>