<svg xmlns="http://www.w3.org/2000/svg" viewBox="0 0 460.7 136.7"><g fill="#febc12"><circle cx="92.6" cy="69.2" r="62.7"/><circle cx="-842.6" cy="25" r="49.2"/></g><path d="M-848.1 68c-.2-9.7-.9-19.4-.4-29 .2-3.7 2.6-7.7 4.9-10.9 3.1-4.2 6.7-7.4 10.3-11.2 2.5 8.7-8.9 48.6-14.8 51.1zm-40.4-42.4c1.5-1.1 3-2.7 4.7-3.1 15.1-4.1 29.8-9.9 45.8-10.2.5 0 1 .1 2 .9l-16.6 13.2c-1.4 1.1-3.6 1.6-5.5 1.6l-30-1.2c-.2-.4-.3-.8-.4-1.2zm35.6 44.9c-1.5-1.2-3.3-2.2-4.5-3.7a186.46 186.46 0 0 1-9-12.9c-4.3-6.8-11.4-10.2-17.2-15.1-2.6-2.2-6.6-3.3-6.7-8.3l24.9 11.9a5.32 5.32 0 0 1 2.3 2.4l11.1 24.9c-.3.3-.6.6-.9.8zm-159.5 129.7c7.7-8.3 15-17 23.2-24.6 3.2-3 8.4-4.4 13-5.1 6-1 11.6-.7 17.8-1-5.1 9.3-47.1 33.4-54 30.7zm.6-68.3c2.2.4 4.6.2 6.5 1.2 16 8.8 32.9 16 46.5 28.6.4.4.8.8.9 2.4l-24.6-2.4c-2.1-.3-4.4-1.6-5.9-3.1-8.1-8.3-16.1-16.9-24-25.4.2-.4.4-.9.6-1.3zm-6.7 66.5c-.3-2.2-1-4.5-.8-6.7.7-6.1 1.7-12.2 3-18.2 1.9-9.1-1.3-17.8-2.2-26.6-.4-3.9-2.8-8.1 1.2-12.4l11.1 30.2c.4 1.2.4 2.8 0 3.9l-11 29.8c-.4.1-.8 0-1.3 0z" fill="#e6e7e8"/><path fill="#f1f2f2" stroke="#fbb040" stroke-width="2" stroke-miterlimit="10" d="M162.8 8.2c-3.9-4.8-11.4-5.6-16.9-3.6-8 2.9-14.3 8.9-21.2 13.6-4 2.7-7.9 5.5-11.7 8.4L92.2 42.3l-23.1-6.8 15.2 12.8-17.2 12.9L7.2 43l53.6 46.2c-.1-.1 10.1-6.5 10.6-6.9l35.6-23 37.3-24.2c7.7-5 28.4-14.7 18.5-26.9z"/><path d="M123.9 73.2c0 .7 0 1.3-.1 1.8l-.3 1.2c-.1.3-.3.5-.5.7-.2.1-.4.2-.6.2h-15.3v12.6h14.3c.2 0 .4.1.6.2s.3.3.5.6c.1.3.2.7.3 1.2s.1 1.1.1 1.8 0 1.3-.1 1.8l-.3 1.2c-.1.3-.3.5-.5.7-.2.1-.4.2-.6.2h-14.3v17.4c0 .3-.1.5-.2.7s-.4.4-.8.5l-1.5.3c-.6.1-1.4.1-2.3.1s-1.7 0-2.3-.1l-1.5-.3c-.4-.1-.6-.3-.8-.5s-.2-.4-.2-.7V72.3c0-1.1.3-1.8.8-2.3s1.2-.7 2-.7h22c.2 0 .4.1.6.2s.3.3.5.7c.1.3.2.7.3 1.2.2.5.2 1.1.2 1.8zm16.3 41.7c0 .2-.1.5-.2.6-.1.2-.4.3-.7.5-.3.1-.8.2-1.4.3s-1.3.1-2.2.1-1.6 0-2.2-.1l-1.4-.3c-.3-.1-.6-.3-.7-.5s-.2-.4-.2-.6V67.3c0-.2.1-.5.2-.7s.4-.4.7-.5.8-.2 1.4-.3 1.3-.1 2.2-.1l2.2.1 1.4.3c.3.1.6.3.7.5s.2.4.2.7v47.6zm18.9-43.2c0 1.8-.4 3.1-1.1 3.8s-2.1 1-4.2 1c-2 0-3.4-.3-4.1-1s-1.1-1.9-1.1-3.6c0-1.8.4-3.1 1.1-3.8s2.1-1.1 4.2-1.1c2 0 3.4.3 4.1 1s1.1 2 1.1 3.7zm-.7 43.2c0 .2-.1.5-.2.6-.1.2-.4.3-.7.5-.3.1-.8.2-1.4.3s-1.3.1-2.2.1-1.6 0-2.2-.1l-1.4-.3c-.3-.1-.6-.3-.7-.5s-.2-.4-.2-.6V82.7c0-.2.1-.5.2-.6s.4-.3.7-.5c.3-.1.8-.2 1.4-.3s1.3-.1 2.2-.1l2.2.1 1.4.3c.3.1.6.3.7.5s.2.4.2.6v32.2zm38.1-30c0 1.2-.1 2-.4 2.6s-.6.8-1 .8h-3.8c.5.6.9 1.2 1.1 2 .2.7.3 1.5.3 2.3 0 1.9-.3 3.5-.9 5s-1.5 2.7-2.7 3.7-2.6 1.8-4.2 2.3-3.5.8-5.5.8c-1 0-2-.1-3-.4-.9-.3-1.7-.5-2.2-.9-.3.3-.5.7-.8 1.1-.2.4-.3.9-.3 1.4 0 .7.3 1.3.9 1.7s1.5.7 2.6.7l7.8.3c1.8.1 3.5.3 4.9.8 1.4.4 2.6 1.1 3.6 1.9s1.7 1.8 2.2 2.9.8 2.4.8 3.9c0 1.6-.3 3.1-1 4.5s-1.7 2.6-3.1 3.7c-1.4 1-3.1 1.9-5.3 2.5-2.1.6-4.6.9-7.4.9-2.7 0-5.1-.2-7-.7-1.9-.4-3.5-1-4.8-1.8-1.2-.8-2.1-1.7-2.7-2.8s-.8-2.2-.8-3.5c0-.8.1-1.6.3-2.3s.5-1.4.9-2.1.9-1.3 1.5-1.9 1.2-1.2 2-1.7c-1-.6-1.8-1.3-2.4-2.3s-.8-2-.8-3.1c0-1.4.3-2.7 1-3.9s1.5-2.2 2.5-3.2c-.8-.8-1.5-1.9-2-3s-.8-2.6-.8-4.4c0-1.9.3-3.6 1-5 .7-1.5 1.6-2.7 2.8-3.8 1.2-1 2.6-1.8 4.2-2.3s3.4-.8 5.4-.8c1 0 2 .1 2.9.2s1.8.3 2.6.5h10.2c.4 0 .7.3 1 .8.3.4.4 1.3.4 2.6zm-9.5 33.3c0-1.1-.4-1.9-1.3-2.5s-2.1-.9-3.6-.9l-6.5-.2-1.5 1.3c-.4.4-.7.8-.9 1.2l-.5 1.1c-.1.3-.1.7-.1 1.1 0 1.2.6 2.1 1.8 2.7s2.9.9 5.1.9c1.4 0 2.5-.1 3.5-.4.9-.3 1.7-.6 2.3-1.1s1-1 1.2-1.5c.4-.5.5-1.1.5-1.7zm-2.1-25.7c0-1.7-.5-3.1-1.4-4-1-1-2.3-1.4-4.1-1.4-.9 0-1.7.2-2.3.5-.7.3-1.2.7-1.7 1.2-.4.5-.8 1.1-1 1.8s-.3 1.4-.3 2.2c0 1.6.5 2.9 1.4 3.9 1 1 2.3 1.4 4 1.4.9 0 1.7-.1 2.4-.4s1.2-.7 1.7-1.2c.4-.5.8-1.1 1-1.8.1-.8.3-1.5.3-2.2zm48.4 22.4c0 .2-.1.5-.2.6-.1.2-.4.3-.7.5-.3.1-.8.2-1.4.3s-1.3.1-2.2.1-1.6 0-2.2-.1l-1.4-.3c-.3-.1-.6-.3-.7-.5s-.2-.4-.2-.6V96.5c0-1.6-.1-2.8-.3-3.7s-.6-1.7-1-2.3-1-1.1-1.7-1.5c-.7-.3-1.5-.5-2.4-.5-1.2 0-2.3.4-3.5 1.3-1.2.8-2.4 2.1-3.7 3.7v21.4c0 .2-.1.5-.2.6-.1.2-.4.3-.7.5-.3.1-.8.2-1.4.3s-1.3.1-2.2.1-1.6 0-2.2-.1l-1.4-.3c-.3-.1-.6-.3-.7-.5s-.2-.4-.2-.6V67.3c0-.2.1-.5.2-.7s.4-.4.7-.5.8-.2 1.4-.3 1.3-.1 2.2-.1l2.2.1 1.4.3c.3.1.6.3.7.5s.2.4.2.7v17.8c1.6-1.5 3.2-2.7 4.8-3.5s3.3-1.1 5.1-1.1c2.2 0 4 .4 5.5 1.1s2.7 1.7 3.7 3c.9 1.3 1.6 2.7 2 4.4s.6 3.7.6 6.1v19.8zm27.4-3.2c0 1.1-.1 1.9-.2 2.4-.1.6-.3 1-.5 1.2s-.5.4-1 .6c-.4.2-.9.3-1.5.5l-1.8.3c-.7.1-1.3.1-2 .1-1.8 0-3.4-.2-4.7-.7s-2.4-1.2-3.3-2.1c-.9-1-1.5-2.1-1.9-3.6-.4-1.4-.6-3.2-.6-5.1V88.8h-3.9c-.5 0-.8-.3-1-.8-.2-.6-.4-1.5-.4-2.8 0-.7 0-1.3.1-1.8s.1-.9.3-1.1c.1-.3.3-.5.5-.6s.4-.2.6-.2h3.8v-7.2c0-.2.1-.5.2-.7s.4-.4.7-.5.8-.2 1.4-.3 1.3-.1 2.2-.1l2.2.1 1.4.3c.3.1.6.3.7.5s.2.4.2.7v7.2h7c.2 0 .5.1.6.2.2.1.3.3.5.6.1.3.2.7.3 1.1.1.5.1 1.1.1 1.8 0 1.3-.1 2.3-.4 2.8-.2.6-.6.8-1 .8h-7v15.1c0 1.8.3 3.1.8 4 .6.9 1.5 1.3 3 1.3.5 0 .9 0 1.3-.1l1-.3.8-.3c.2-.1.4-.1.6-.1.1 0 .3 0 .4.1s.2.3.3.5c.1.3.1.6.2 1-.1.4 0 1 0 1.7zm29.2-6c0 1.8-.3 3.4-1 4.8s-1.7 2.6-2.9 3.5c-1.3.9-2.7 1.6-4.4 2.1s-3.6.7-5.6.7c-1.2 0-2.4-.1-3.5-.3s-2.1-.4-2.9-.7l-2.2-.8c-.6-.2-1-.6-1.3-.8-.3-.3-.5-.7-.6-1.2s-.2-1.3-.2-2.4c0-.7 0-1.3.1-1.7 0-.4.1-.8.2-1 .1-.3.2-.4.4-.5.1-.1.3-.1.5-.1.3 0 .7.2 1.2.5s1.2.6 1.9 1c.8.4 1.7.7 2.7 1s2.2.5 3.5.5c.8 0 1.5-.1 2.2-.3.6-.2 1.2-.4 1.7-.7s.8-.7 1.1-1.2c.2-.5.4-1 .4-1.7s-.2-1.3-.7-1.9c-.4-.5-1-1-1.8-1.4-.7-.4-1.6-.7-2.5-1.1l-2.9-1.1c-1-.4-1.9-.9-2.9-1.4a9.58 9.58 0 0 1-2.5-2c-.7-.8-1.3-1.7-1.8-2.8-.4-1.1-.7-2.4-.7-3.9s.3-3 .9-4.2c.6-1.3 1.5-2.4 2.6-3.3s2.5-1.6 4.1-2.1 3.5-.8 5.5-.8c1 0 2 .1 2.9.2 1 .1 1.8.3 2.6.5s1.4.5 2 .7c.5.3.9.5 1.1.7l.5.5c.1.2.2.4.2.7s.1.6.1.9c0 .4.1.8.1 1.4 0 .7 0 1.2-.1 1.6 0 .4-.1.7-.2 1-.1.2-.2.4-.3.5s-.3.1-.5.1-.6-.1-1-.4c-.5-.3-1-.5-1.7-.8s-1.5-.6-2.4-.8c-.9-.3-1.9-.4-3.1-.4-.8 0-1.5.1-2.1.3s-1.1.4-1.5.7-.7.7-.9 1.1-.3.9-.3 1.4c0 .7.2 1.4.7 1.9s1.1 1 1.8 1.3c.7.4 1.6.7 2.5 1.1 1 .3 1.9.7 2.9 1.1s1.9.9 2.9 1.4 1.8 1.2 2.5 2 1.3 1.7 1.8 2.8c.7 1.1.9 2.4.9 3.8zm63-13.7c0 4.3-.6 8-1.7 11s-2.7 5.5-4.8 7.5c-2.1 1.9-4.6 3.3-7.6 4.2s-6.6 1.4-10.7 1.4h-11.2c-.8 0-1.5-.2-2-.7s-.8-1.2-.8-2.3V72.3c0-1.1.3-1.8.8-2.3s1.2-.7 2-.7h12c4.2 0 7.7.5 10.6 1.5s5.3 2.4 7.3 4.3 3.5 4.3 4.5 7.1 1.6 6.1 1.6 9.8zm-9.9.3c0-2.2-.3-4.3-.8-6.2s-1.3-3.6-2.5-5c-1.1-1.4-2.6-2.5-4.4-3.3s-4.2-1.2-7.1-1.2h-4.8v31.8h5c2.6 0 4.8-.3 6.6-1s3.3-1.7 4.5-3.1 2.1-3.1 2.7-5.1c.5-1.8.8-4.2.8-6.9zm46.9 5.5c0 1.1-.2 1.9-.7 2.5-.5.5-1.2.8-2 .8h-19.6c0 1.4.2 2.6.5 3.7s.8 2.1 1.6 2.9c.7.8 1.6 1.4 2.7 1.8s2.5.6 4 .6c1.6 0 3-.1 4.2-.3s2.2-.5 3.1-.8l2.2-.8c.6-.2 1-.3 1.4-.3.2 0 .4 0 .5.1s.3.2.4.5c.1.2.2.5.2.9s.1.9.1 1.5v1.4c0 .4-.1.7-.1 1s-.1.5-.2.7-.2.4-.4.5c-.2.2-.6.4-1.3.7s-1.6.6-2.7.8c-1.1.3-2.3.5-3.7.7s-2.9.3-4.5.3c-2.9 0-5.4-.4-7.5-1.1-2.2-.7-4-1.8-5.4-3.3s-2.5-3.3-3.2-5.6c-.7-2.2-1.1-4.9-1.1-7.9 0-2.9.4-5.5 1.1-7.8s1.8-4.3 3.3-5.9c1.4-1.6 3.1-2.8 5.2-3.7 2-.8 4.3-1.3 6.9-1.3 2.7 0 5 .4 6.9 1.2s3.5 1.9 4.7 3.3 2.1 3.1 2.7 5 .9 4 .9 6.3v1.6zm-8.8-2.6c.1-2.6-.4-4.6-1.5-6-1.1-1.5-2.8-2.2-5.1-2.2-1.2 0-2.2.2-3 .7-.9.4-1.6 1-2.1 1.8-.6.7-1 1.6-1.3 2.6s-.5 2.1-.5 3.2h13.5zm39 10.5c0 1.8-.3 3.4-1 4.8s-1.7 2.6-2.9 3.5c-1.3.9-2.7 1.6-4.4 2.1s-3.6.7-5.6.7c-1.2 0-2.4-.1-3.5-.3s-2.1-.4-2.9-.7l-2.2-.8c-.6-.2-1-.6-1.3-.8-.3-.3-.5-.7-.6-1.2s-.2-1.3-.2-2.4c0-.7 0-1.3.1-1.7 0-.4.1-.8.2-1 .1-.3.2-.4.4-.5.1-.1.3-.1.5-.1.3 0 .7.2 1.2.5s1.2.6 1.9 1c.8.4 1.7.7 2.7 1s2.2.5 3.5.5c.8 0 1.5-.1 2.2-.3.6-.2 1.2-.4 1.7-.7s.8-.7 1.1-1.2c.2-.5.4-1 .4-1.7s-.2-1.3-.7-1.9c-.4-.5-1-1-1.8-1.4-.7-.4-1.6-.7-2.5-1.1l-2.9-1.1c-1-.4-1.9-.9-2.9-1.4a9.58 9.58 0 0 1-2.5-2c-.7-.8-1.3-1.7-1.8-2.8-.4-1.1-.7-2.4-.7-3.9s.3-3 .9-4.2c.6-1.3 1.5-2.4 2.6-3.3s2.5-1.6 4.1-2.1 3.5-.8 5.5-.8c1 0 2 .1 2.9.2 1 .1 1.8.3 2.6.5s1.4.5 2 .7c.5.3.9.5 1.1.7l.5.5c.1.2.2.4.2.7s.1.6.1.9c0 .4.1.8.1 1.4 0 .7 0 1.2-.1 1.6 0 .4-.1.7-.2 1-.1.2-.2.4-.3.5s-.3.1-.5.1-.6-.1-1-.4c-.5-.3-1-.5-1.7-.8s-1.5-.6-2.4-.8c-.9-.3-1.9-.4-3.1-.4-.8 0-1.5.1-2.1.3s-1.1.4-1.5.7-.7.7-.9 1.1-.3.9-.3 1.4c0 .7.2 1.4.7 1.9s1.1 1 1.8 1.3c.7.4 1.6.7 2.5 1.1 1 .3 1.9.7 2.9 1.1s1.9.9 2.9 1.4 1.8 1.2 2.5 2 1.3 1.7 1.8 2.8c.6 1.1.9 2.4.9 3.8zm36.8 9.2c0 .2-.1.5-.2.6-.1.2-.4.3-.7.4s-.8.2-1.4.3-1.4.1-2.3.1c-1 0-1.8 0-2.4-.1-.6 0-1.1-.1-1.5-.2s-.7-.3-.9-.5-.4-.4-.6-.8l-10.7-17v17.1c0 .2-.1.5-.2.6-.1.2-.4.3-.7.5-.3.1-.8.2-1.4.3s-1.3.1-2.2.1-1.6 0-2.2-.1l-1.4-.3c-.3-.1-.6-.3-.7-.5s-.2-.4-.2-.6V67.3c0-.2.1-.5.2-.7s.4-.4.7-.5.8-.2 1.4-.3 1.3-.1 2.2-.1l2.2.1 1.4.3c.3.1.6.3.7.5s.2.4.2.7v28.3l9.5-12.8c.2-.3.4-.5.7-.8.2-.2.6-.4 1-.5l1.5-.3c.6-.1 1.3-.1 2.3-.1l2.3.1 1.5.3c.4.1.6.3.8.5s.2.4.2.7c0 .4-.1.7-.3 1.2-.2.4-.5.8-.8 1.3l-9.4 10.7 10.9 16.9c.3.5.5.9.6 1.2-.2.3-.1.6-.1.9z"/><text transform="translate(-830.091 56.416)" font-family="'Calibri-Bold'" font-size="74">Flight Desk</text><path d="M60.9 113.3c0 .5 0 .8-.1 1s-.1.4-.2.5-.2.2-.4.3-.4.1-.6.2-.5.1-.8.1h-.9c-.8 0-1.4-.1-2-.3s-1-.5-1.4-.9-.6-.9-.8-1.5-.3-1.3-.3-2.2v-7h-1.6c-.2 0-.3-.1-.4-.4-.1-.2-.2-.6-.2-1.2v-.8c0-.2.1-.4.1-.5.1-.1.1-.2.2-.3s.2-.1.3-.1h1.6v-3.1c0-.1 0-.2.1-.3s.2-.2.3-.2c.1-.1.3-.1.6-.1h1.8c.3 0 .4.1.6.1.1.1.2.1.3.2s.1.2.1.3v3.1h3c.1 0 .2 0 .3.1s.1.1.2.3c.1.1.1.3.1.5v.8c0 .6-.1 1-.2 1.2s-.3.4-.4.4h-3v6.4c0 .7.1 1.3.4 1.7.2.4.7.6 1.3.6.2 0 .4 0 .6-.1.2 0 .3-.1.4-.1s.2-.1.3-.1.2-.1.2-.1c.1 0 .1 0 .2.1.1 0 .1.1.1.2s.1.3.1.4.1.5.1.8zm15.8 1.3c0 .1 0 .2-.1.3s-.2.1-.3.2-.3.1-.6.1h-1.8c-.3 0-.4-.1-.6-.1-.1-.1-.2-.1-.3-.2s-.1-.2-.1-.3v-7.8c0-.7 0-1.2-.1-1.6s-.2-.7-.4-1-.4-.5-.7-.6-.6-.2-1-.2c-.5 0-1 .2-1.5.5-.5.4-1 .9-1.6 1.6v9.1c0 .1 0 .2-.1.3s-.2.1-.3.2-.3.1-.6.1h-1.8c-.2 0-.4-.1-.6-.1-.1-.1-.3-.1-.3-.2-.1-.1-.1-.2-.1-.3V94.4c0-.1 0-.2.1-.3s.2-.2.3-.2c.1-.1.3-.1.6-.1h1.8c.2 0 .4.1.6.1.1.1.3.1.3.2s.1.2.1.3v7.6c.7-.7 1.3-1.1 2-1.5.7-.3 1.4-.5 2.2-.5.9 0 1.7.2 2.4.5.6.3 1.2.7 1.6 1.3.4.5.7 1.2.9 1.9s.3 1.6.3 2.6v8.3zm16.5-7.2c0 .5-.1.8-.3 1s-.5.3-.9.3h-8.3c0 .6.1 1.1.2 1.6s.4.9.7 1.2.7.6 1.2.8 1 .3 1.7.3 1.3 0 1.8-.1l1.3-.3c.4-.1.7-.2.9-.3s.4-.1.6-.1c.1 0 .2 0 .2.1s.1.1.2.2c0 .1.1.2.1.4v1.6c0 .1-.1.2-.1.3s-.1.2-.2.2c-.1.1-.2.2-.5.3s-.7.2-1.1.4l-1.6.3c-.6.1-1.2.1-1.9.1-1.2 0-2.3-.2-3.2-.5s-1.7-.8-2.3-1.4-1.1-1.4-1.4-2.4-.5-2.1-.5-3.3.2-2.3.5-3.3.8-1.8 1.4-2.5 1.3-1.2 2.2-1.6 1.8-.5 2.9-.5 2.1.2 2.9.5 1.5.8 2 1.4.9 1.3 1.2 2.1c.2.8.4 1.7.4 2.7v.5zm-3.8-1.1c0-1.1-.2-1.9-.7-2.6s-1.2-.9-2.2-.9c-.5 0-.9.1-1.3.3s-.7.4-.9.7-.4.7-.6 1.1c-.1.4-.2.9-.2 1.4h5.9z"/></svg>