<?xml version="1.0" encoding="iso-8859-1"?>
<!-- Generator: Adobe Illustrator 18.0.0, SVG Export Plug-In . SVG Version: 6.00 Build 0)  -->
<!DOCTYPE svg PUBLIC "-//W3C//DTD SVG 1.1//EN" "http://www.w3.org/Graphics/SVG/1.1/DTD/svg11.dtd">
<svg version="1.1" id="Layer_1" xmlns="http://www.w3.org/2000/svg" xmlns:xlink="http://www.w3.org/1999/xlink" x="0px" y="0px"
	 viewBox="0 0 16 16" style="enable-background:new 0 0 16 16;" xml:space="preserve">
<g>
	<path style="fill:#188989;" d="M8,0C3.602,0,0,3.602,0,8c0,4.398,3.602,8,8,8c4.398,0,8-3.602,8-8C16,3.602,12.398,0,8,0L8,0z
		 M12,8.801H8.801V12H7.199V8.801H4V7.199h3.199V4h1.602v3.199H12V8.801z M12,8.801"/>
</g>
<g style="display:none;">
	<path style="display:inline;fill:#444444;" d="M7.997,0.1c-4.344,0-7.897,3.554-7.897,7.897c0,4.35,3.554,7.904,7.897,7.904
		c4.35,0,7.904-3.554,7.904-7.904C15.9,3.653,12.347,0.1,7.997,0.1L7.997,0.1z M12.934,8.986H3.059V7.014h9.875V8.986z
		 M12.934,8.986"/>
</g>
</svg>
