<?xml version="1.0" encoding="utf-8"?>
<!-- Generator: Adobe Illustrator 24.0.1, SVG Export Plug-In . SVG Version: 6.00 Build 0)  -->
<svg version="1.1" id="Layer_1" xmlns="http://www.w3.org/2000/svg" xmlns:xlink="http://www.w3.org/1999/xlink" x="0px" y="0px"
	 viewBox="0 0 220 100" style="enable-background:new 0 0 220 100;" xml:space="preserve">
<style type="text/css">
	.st0{opacity:0.48;}
	.st1{fill:none;stroke:#F2F2F2;stroke-width:0.25;stroke-miterlimit:10;}
	.st2{fill:none;stroke:#F1F2F2;stroke-width:0.25;stroke-miterlimit:10;}
	.st3{fill:none;stroke:#F0F1F2;stroke-width:0.25;stroke-miterlimit:10;}
	.st4{fill:none;stroke:#EFF1F2;stroke-width:0.25;stroke-miterlimit:10;}
	.st5{fill:none;stroke:#EEF1F2;stroke-width:0.25;stroke-miterlimit:10;}
	.st6{fill:none;stroke:#EDF0F2;stroke-width:0.25;stroke-miterlimit:10;}
	.st7{fill:none;stroke:#ECF0F2;stroke-width:0.25;stroke-miterlimit:10;}
	.st8{fill:none;stroke:#EBF0F2;stroke-width:0.25;stroke-miterlimit:10;}
	.st9{fill:none;stroke:#EAEFF2;stroke-width:0.25;stroke-miterlimit:10;}
	.st10{fill:none;stroke:#E9EFF2;stroke-width:0.25;stroke-miterlimit:10;}
	.st11{fill:none;stroke:#E8EFF2;stroke-width:0.25;stroke-miterlimit:10;}
	.st12{fill:none;stroke:#E7EEF2;stroke-width:0.25;stroke-miterlimit:10;}
	.st13{fill:none;stroke:#E6EEF2;stroke-width:0.25;stroke-miterlimit:10;}
	.st14{fill:none;stroke:#E5EEF2;stroke-width:0.25;stroke-miterlimit:10;}
	.st15{fill:none;stroke:#E4EDF2;stroke-width:0.25;stroke-miterlimit:10;}
	.st16{fill:none;stroke:#E3EDF2;stroke-width:0.25;stroke-miterlimit:10;}
	.st17{fill:none;stroke:#E2EDF2;stroke-width:0.25;stroke-miterlimit:10;}
	.st18{fill:none;stroke:#E1ECF2;stroke-width:0.25;stroke-miterlimit:10;}
	.st19{fill:none;stroke:#E0ECF2;stroke-width:0.25;stroke-miterlimit:10;}
	.st20{fill:none;stroke:#DFECF2;stroke-width:0.25;stroke-miterlimit:10;}
	.st21{fill:none;stroke:#DEEBF2;stroke-width:0.25;stroke-miterlimit:10;}
	.st22{fill:none;stroke:#DDEBF2;stroke-width:0.25;stroke-miterlimit:10;}
	.st23{fill:none;stroke:#DCEBF2;stroke-width:0.25;stroke-miterlimit:10;}
	.st24{fill:none;stroke:#DBEAF2;stroke-width:0.25;stroke-miterlimit:10;}
	.st25{fill:none;stroke:#DAEAF2;stroke-width:0.25;stroke-miterlimit:10;}
	.st26{fill:none;stroke:#D9EAF2;stroke-width:0.25;stroke-miterlimit:10;}
	.st27{fill:none;stroke:#D8E9F2;stroke-width:0.25;stroke-miterlimit:10;}
	.st28{fill:none;stroke:#D7E9F2;stroke-width:0.25;stroke-miterlimit:10;}
	.st29{fill:none;stroke:#FFDCD8;stroke-miterlimit:10;}
	.st30{fill:none;stroke:#67A3A1;stroke-width:0.5;stroke-miterlimit:10;}
	.st31{fill:#B0D3D5;}
	.st32{fill:#F3F3F3;}
	.st33{fill:#F5F6F7;}
	.st34{fill:#E5E9EA;}
	.st35{fill:#FEB238;}
	.st36{fill:#CFE4E5;}
	.st37{fill:#FFDCD8;}
	.st38{fill:#3A3E54;}
	.st39{fill:#FFFFFF;}
	.st40{fill:#F7CBC9;}
	.st41{fill:none;stroke:#222244;stroke-width:5;stroke-miterlimit:10;}
	.st42{fill:#161633;}
	.st43{fill:#222244;}
	.st44{fill:none;stroke:#B6C2C4;stroke-width:2;stroke-miterlimit:10;}
	.st45{fill:#B6C2C4;}
	.st46{fill:#D4DADC;}
	.st47{fill:none;stroke:#D4DADC;stroke-width:2;stroke-miterlimit:10;}
	.st48{fill:#4D5068;}
	.st49{fill:#E89721;}
	.st50{fill:#2D3244;}
	.st51{fill:#F2A536;}
	.st52{fill:#7CB6B9;}
	.st53{fill:#FFBF61;}
	.st54{fill:#67A3A1;}
	.st55{fill:#518E8B;}
	.st56{fill-rule:evenodd;clip-rule:evenodd;fill:#67A3A1;}
	.st57{fill:#A1C9C9;}
	.st58{fill-rule:evenodd;clip-rule:evenodd;fill:#FFDCD8;}
	.st59{fill-rule:evenodd;clip-rule:evenodd;fill:#F7CBC9;}
	.st60{fill:#565970;}
	.st61{fill:#FFD9A0;}
</style>
<g class="st0">
	<path class="st1" d="M0,55.3c0,0,41.5,26.2,81-19C114-1.3,156.3,0,156.3,0"/>
	<path class="st2" d="M0,54.7c0,0,41,25.8,79.8-18.8c32.3-37.1,74-35.8,74-35.8"/>
	<path class="st2" d="M0,54c0,0,40.6,25.5,78.6-18.7C110.2-1.2,151.3,0,151.3,0"/>
	<path class="st3" d="M0,53.4c0,0,40.1,25.1,77.4-18.6C108.2-1.3,148.8,0,148.8,0"/>
	<path class="st3" d="M0,52.8c0,0,39.6,24.8,76.1-18.4C106.3-1.3,146.3,0,146.3,0"/>
	<path class="st4" d="M0,52.1c0,0,39.1,24.4,74.9-18.3c29.4-35.2,69-33.8,69-33.8"/>
	<path class="st4" d="M0,51.5c0,0,38.7,24.1,73.7-18.2C102.4-1.4,141.4,0,141.4,0"/>
	<path class="st5" d="M0,50.9c0,0,38.2,23.8,72.4-18.1C100.4-1.4,138.9,0,138.9,0"/>
	<path class="st6" d="M0,50.2c0,0,37.7,23.4,71.2-17.9C98.5-1.4,136.4,0,136.4,0"/>
	<path class="st6" d="M0,49.6c0,0,37.3,23.1,70-17.8C96.6-1.4,134,0,134,0"/>
	<path class="st7" d="M0,48.9c0,0,36.8,22.8,68.8-17.7C94.6-1.5,131.5,0,131.5,0"/>
	<path class="st7" d="M0,48.3c0,0,36.3,22.4,67.5-17.5C92.7-1.5,129,0,129,0"/>
	<path class="st8" d="M0,47.7c0,0,35.9,22.1,66.3-17.4C90.8-1.5,126.5,0,126.5,0"/>
	<path class="st8" d="M0,47c0,0,35.4,21.7,65.1-17.3C88.8-1.5,124,0,124,0"/>
	<path class="st9" d="M0,46.4c0,0,34.9,21.4,63.8-17.2C86.9-1.5,121.6,0,121.6,0"/>
	<path class="st10" d="M0,45.8c0,0,34.5,21.1,62.6-17C84.9-1.5,119.1,0,119.1,0"/>
	<path class="st10" d="M0,45.1c0,0,34,20.8,61.4-16.9C83-1.5,116.6,0,116.6,0"/>
	<path class="st11" d="M0,44.5c0,0,33.6,20.4,60.2-16.8C81.1-1.5,114.1,0,114.1,0"/>
	<path class="st11" d="M0,43.9c0,0,33.1,20.1,58.9-16.6C79.1-1.5,111.7,0,111.7,0"/>
	<path class="st12" d="M0,43.2c0,0,32.6,19.8,57.7-16.5C77.2-1.5,109.2,0,109.2,0"/>
	<path class="st12" d="M0,42.6c0,0,32.2,19.5,56.5-16.4C75.3-1.6,106.7,0,106.7,0"/>
	<path class="st13" d="M0,42c0,0,31.7,19.1,55.2-16.2C73.4-1.6,104.2,0,104.2,0"/>
	<path class="st14" d="M0,41.3c0,0,31.3,18.8,54-16.1C71.4-1.6,101.7,0,101.7,0"/>
	<path class="st14" d="M0,40.7c0,0,30.8,18.5,52.8-16C69.5-1.6,99.3,0,99.3,0"/>
	<path class="st15" d="M0,40c0,0,30.3,18.2,51.5-15.9C67.6-1.5,96.8,0,96.8,0"/>
	<path class="st15" d="M0,39.4c0,0,29.9,17.9,50.3-15.7C65.7-1.5,94.3,0,94.3,0"/>
	<path class="st16" d="M0,38.8c0,0,29.4,17.6,49.1-15.6C63.7-1.5,91.8,0,91.8,0"/>
	<path class="st17" d="M0,38.1c0,0,29,17.3,47.9-15.5C61.8-1.5,89.3,0,89.3,0"/>
	<path class="st17" d="M0,37.5c0,0,28.5,17,46.6-15.3C59.9-1.5,86.9,0,86.9,0"/>
	<path class="st18" d="M0,36.9c0,0,28.1,16.7,45.4-15.2C58-1.5,84.4,0,84.4,0"/>
	<path class="st18" d="M0,36.2c0,0,27.7,16.4,44.2-15.1C56.1-1.5,81.9,0,81.9,0"/>
	<path class="st19" d="M0,35.6c0,0,27.2,16.1,42.9-15C54.2-1.5,79.4,0,79.4,0"/>
	<path class="st19" d="M0,35c0,0,26.8,15.8,41.7-14.8C52.3-1.5,77,0,77,0"/>
	<path class="st20" d="M0,34.3c0,0,26.4,15.5,40.5-14.7c9.9-21,34-19.6,34-19.6"/>
	<path class="st21" d="M0,33.7c0,0,25.9,15.2,39.3-14.6C48.5-1.4,72,0,72,0"/>
	<path class="st21" d="M0,33c0,0,25.5,14.9,38-14.4C46.6-1.4,69.5,0,69.5,0"/>
	<path class="st22" d="M0,32.4c0,0,25.1,14.6,36.8-14.3C44.7-1.4,67,0,67,0"/>
	<path class="st22" d="M0,31.8c0,0,24.7,14.3,35.6-14.2C42.8-1.3,64.6,0,64.6,0"/>
	<path class="st23" d="M0,31.1c0,0,24.3,14.1,34.3-14C40.9-1.3,62.1,0,62.1,0"/>
	<path class="st23" d="M0,30.5c0,0,23.9,13.8,33.1-13.9C39-1.3,59.6,0,59.6,0"/>
	<path class="st24" d="M0,29.9c0,0,23.6,13.5,31.9-13.8C37.2-1.2,57.1,0,57.1,0"/>
	<path class="st25" d="M0,29.2c0,0,23.2,13.2,30.7-13.7C35.3-1.2,54.7,0,54.7,0"/>
	<path class="st25" d="M0,28.6c0,0,22.8,13,29.4-13.5C33.5-1.2,52.2,0,52.2,0"/>
	<path class="st26" d="M0,28c0,0,22.5,12.7,28.2-13.4C31.6-1.1,49.7,0,49.7,0"/>
	<path class="st26" d="M0,27.3c0,0,22.2,12.4,27-13.3C29.8-1.1,47.2,0,47.2,0"/>
	<path class="st27" d="M0,26.7c0,0,21.9,12.2,25.7-13.1C28-1.1,44.7,0,44.7,0"/>
	<path class="st27" d="M0,26.1c0,0,21.6,11.9,24.5-13C26.1-1,42.3,0,42.3,0"/>
	<path class="st28" d="M0,25.4c0,0,21.4,11.6,23.3-12.9C24.3-1,39.8,0,39.8,0"/>
</g>
<polygon class="st29" points="112.8,24.6 102.5,34.9 116.6,38.7 "/>
<polygon class="st1" points="38,67.9 29.9,74.6 39.8,78.2 "/>
<polygon class="st1" points="212.4,72.3 204.4,79 214.2,82.6 "/>
<circle class="st1" cx="92.8" cy="78.6" r="3.3"/>
<circle class="st1" cx="201.6" cy="93" r="3.3"/>
<circle class="st29" cx="66.5" cy="94.3" r="24.3"/>
<g>
	<path class="st30" d="M56.3,85.6c2-1.1,3.9-2.2,5.9-3.3c-1.3-1.1-2.5-2.1-3.8-3.2c0.2-0.3,0.3-0.6,0.5-0.8c0.1-0.1,0.3-0.1,0.4-0.1
		c2.3,0.5,4.7,0.9,7,1.4c0.3,0.1,0.6,0,0.8-0.1c1.8-1,3.5-1.9,5.3-2.9c0.6-0.3,1.2-0.5,1.9-0.4c0.5,0.1,0.7,0.4,0.5,0.9
		c-0.3,0.6-0.7,1.2-1.3,1.5c-4.1,2.2-8.2,4.5-12.4,6.7c-0.4,0.2-0.8,0.3-1.2,0.3c-1.1,0.1-2.2,0.1-3.3,0.2
		C56.6,85.8,56.5,85.7,56.3,85.6C56.3,85.7,56.3,85.7,56.3,85.6z"/>
	<path class="st30" d="M54.2,83.8c0.4-0.7,0.4-0.7,1.1-0.5c0.9,0.3,1.8,0.5,2.8,0.8c-0.4,0.3-0.8,0.5-1.2,0.7
		c-0.9,0.5-0.9,0.5-1.7-0.2C54.9,84.4,54.5,84.1,54.2,83.8z"/>
</g>
<path class="st31" d="M95.8,64.1c0-0.3,0-0.5,0-0.7c0-0.1,0.1-0.2,0.2-0.3c0.8-0.5,1.7-0.9,2.5-1.3c0.2-0.1,0.3-0.2,0.2-0.4
	c-0.1-0.9-0.2-1.9-0.2-2.8c0-0.4-0.1-0.9-0.1-1.3c0-0.2,0-0.3-0.1-0.6c-0.7,0.1-1.4,0.2-2.1,0.3c-1.7,0.3-3.4,0.7-5.2,1.1
	c-0.1,0-0.2,0-0.3,0c-0.1-0.5-0.1-0.6,0.3-0.9c0.8-0.5,1.6-0.9,2.4-1.4c0.2-0.1,0.3-0.3,0.3-0.5s0-0.5,0-0.7s0.1-0.4,0.4-0.4
	c0.2,0,0.4,0,0.7,0c0.3,0,0.4,0.3,0.4,0.6c0.5-0.3,0.9-0.5,1.3-0.7s0.9-0.5,1.3-0.7c0.2-0.1,0.3-0.2,0.3-0.4c0-0.8,0-1.5,0-2.3
	c0-1,0.2-1.9,0.8-2.8c0.4-0.6,0.8-0.6,1.2,0c0.4,0.7,0.6,1.4,0.7,2.2c0.1,0.9,0.1,1.8,0.1,2.7c0,0.1,0.1,0.2,0.1,0.3
	c0.9,0.6,1.8,1.2,2.7,1.8l0,0c0.1-0.2,0.2-0.5,0.3-0.5c0.3-0.1,0.7,0,1,0c0.1,0,0.1,0.1,0.1,0.2c0,0.1,0,0.1,0,0.2
	c-0.2,0.7,0.2,1.1,0.8,1.4c0.6,0.3,1.2,0.7,1.9,1c0.4,0.2,0.5,0.5,0.4,0.9c-0.4-0.1-0.9-0.2-1.3-0.3c-1.7-0.3-3.3-0.7-5-1
	c-0.4-0.1-0.8-0.1-1.2-0.1c-0.1,0-0.2,0.1-0.2,0.2c-0.1,1.5-0.2,3-0.3,4.6c0,0.1,0.1,0.3,0.2,0.3c0.8,0.4,1.6,0.8,2.3,1.2
	c0.3,0.2,0.5,0.4,0.4,0.7c0,0.1,0,0.3,0,0.4c-1.1-0.3-2.2-0.5-3.3-0.8c-0.2,0.7-0.4,1.3-0.6,1.9h-0.1c-0.2-0.6-0.4-1.2-0.6-1.9
	C98,63.6,96.9,63.8,95.8,64.1z"/>
<path class="st32" d="M28.4,91.5c0-0.1-0.1-0.2-0.1-0.3c0,0,0-0.1,0.1-0.1c0.3-0.3,0.6-0.7,0.9-1c0.1-0.1,0.1-0.1,0.1-0.2
	c-0.2-0.4-0.4-0.8-0.5-1.2c-0.1-0.2-0.2-0.4-0.2-0.6c0-0.1-0.1-0.2-0.1-0.3c-0.3,0.2-0.6,0.3-0.9,0.4c-0.7,0.4-1.4,0.8-2.2,1.3
	c0,0-0.1,0-0.1,0.1c-0.1-0.2-0.1-0.3,0-0.4c0.3-0.3,0.6-0.7,0.9-1c0.1-0.1,0.1-0.2,0.1-0.3c0-0.1-0.1-0.2-0.1-0.3
	c0-0.1,0-0.2,0.1-0.2s0.2-0.1,0.3-0.1c0.2,0,0.2,0.1,0.3,0.2c0.2-0.2,0.3-0.4,0.5-0.5c0.2-0.2,0.3-0.4,0.5-0.5
	c0.1-0.1,0.1-0.1,0.1-0.2c-0.1-0.3-0.2-0.7-0.3-1c-0.1-0.5-0.2-0.9-0.1-1.4c0.1-0.3,0.3-0.4,0.5-0.2c0.3,0.2,0.5,0.5,0.6,0.9
	c0.2,0.4,0.3,0.8,0.5,1.2l0.1,0.1c0.5,0.1,1,0.3,1.5,0.4l0,0c0-0.1,0-0.2,0.1-0.3c0.1-0.1,0.3-0.1,0.5-0.1c0,0,0.1,0,0.1,0.1v0.1
	c0,0.4,0.2,0.5,0.6,0.5c0.3,0,0.7,0.1,1,0.2c0.2,0,0.3,0.1,0.3,0.4c-0.2,0-0.4,0.1-0.6,0.1c-0.8,0.1-1.6,0.2-2.4,0.3
	c-0.2,0-0.4,0.1-0.5,0.1l-0.1,0.1c0.2,0.7,0.3,1.4,0.5,2.1l0.1,0.1c0.4,0.1,0.8,0.1,1.2,0.2c0.2,0,0.3,0.1,0.3,0.3
	c0,0.1,0,0.1,0.1,0.2c-0.5,0-1.1,0.1-1.6,0.1c0,0.3,0,0.6,0,0.9c0,0,0,0-0.1,0c-0.2-0.3-0.3-0.5-0.5-0.8
	C29.3,91,28.9,91.3,28.4,91.5z"/>
<path class="st32" d="M72,44.3L72,44.3h-0.4l0,0c-3.2,0.1-5.7,2.7-5.7,5.9s2.6,5.9,5.9,5.9c3.2,0,5.9-2.6,5.9-5.9
	C77.7,47,75.2,44.4,72,44.3z M66.3,50.4h2.1c0,0.9,0.1,1.8,0.4,2.6h-1.7C66.6,52.3,66.3,51.4,66.3,50.4z M72,47.7v-3
	c1.3,0.1,2.1,1.4,2.6,3H72z M74.6,48.1c0.1,0.6,0.2,1.2,0.2,1.9H72v-1.9H74.6z M71.6,44.7v3H69C69.5,46.1,70.3,44.8,71.6,44.7z
	 M71.6,48.1V50h-2.8c0-0.6,0.1-1.3,0.2-1.9H71.6z M68.4,50h-2.1c0-0.7,0.2-1.3,0.4-1.9h1.9C68.4,48.7,68.4,49.4,68.4,50z M68.8,50.4
	h2.8V53h-2.5C68.9,52.2,68.8,51.3,68.8,50.4z M71.6,53.4v2.3c-1.1-0.1-1.8-1-2.3-2.3H71.6z M72,55.7v-2.3h2.3
	c-0.1,0.2-0.2,0.4-0.3,0.6C73.7,54.8,73,55.6,72,55.7z M72,53v-2.6h2.8c0,0.9-0.2,1.8-0.4,2.6H72z M75.2,50.4h2.1
	c0,1-0.3,1.9-0.8,2.6h-1.7C75.1,52.2,75.2,51.3,75.2,50.4z M75.2,50c0-0.6-0.1-1.3-0.2-1.9h1.8V48c0.3,0.6,0.4,1.3,0.4,1.9L75.2,50
	L75.2,50z M76.7,47.7H75c-0.3-1.1-0.8-2.1-1.5-2.8C74.9,45.4,76.1,46.4,76.7,47.7z M70.1,45c-0.3,0.3-0.7,0.7-0.9,1.2
	c-0.2,0.5-0.4,1-0.5,1.5h-1.8C67.5,46.4,68.7,45.4,70.1,45z M67.3,53.4h1.5c0.3,0.8,0.7,1.5,1.2,2C69,55.1,68,54.4,67.3,53.4z
	 M73.5,55.4c0.5-0.5,1-1.2,1.2-2h1.5C75.6,54.4,74.6,55.1,73.5,55.4z"/>
<path class="st32" d="M15.5,77.6L15.5,77.6h-0.3l0,0c-2.5,0.1-4.4,2.1-4.4,4.6s2.1,4.6,4.6,4.6s4.6-2.1,4.6-4.6
	C19.9,79.7,17.9,77.6,15.5,77.6z M11,82.3h1.6c0,0.7,0.1,1.4,0.3,2h-1.3C11.3,83.7,11,83,11,82.3z M15.5,80.2v-2.4
	c1,0.1,1.7,1.1,2,2.4H15.5z M17.5,80.5c0.1,0.5,0.2,1,0.2,1.5h-2.2v-1.5H17.5z M15.1,77.9v2.4h-2C13.5,78.9,14.2,78,15.1,77.9z
	 M15.1,80.5V82h-2.2c0-0.5,0.1-1,0.2-1.5H15.1z M12.6,82H11c0-0.5,0.1-1,0.3-1.5h1.4C12.7,81,12.6,81.5,12.6,82z M12.9,82.3h2.2v2
	h-1.9C13,83.7,12.9,83,12.9,82.3z M15.1,84.7v1.8c-0.8-0.1-1.4-0.8-1.8-1.8H15.1z M15.5,86.4v-1.8h1.8c-0.1,0.2-0.1,0.3-0.2,0.5
	C16.8,85.7,16.3,86.4,15.5,86.4z M15.5,84.3v-2h2.2c0,0.7-0.1,1.4-0.3,2H15.5z M18,82.3h1.6c0,0.7-0.2,1.4-0.6,2h-1.3
	C17.9,83.7,18,83,18,82.3z M18,82c0-0.5-0.1-1-0.2-1.5h1.4v-0.1c0.2,0.5,0.3,1,0.3,1.5L18,82L18,82z M19.1,80.2h-1.4
	c-0.2-0.9-0.6-1.7-1.1-2.2C17.7,78.4,18.6,79.2,19.1,80.2z M14,78.1c-0.3,0.2-0.5,0.6-0.7,1s-0.3,0.8-0.4,1.2h-1.4
	C12,79.2,12.9,78.4,14,78.1z M11.8,84.7H13c0.2,0.6,0.5,1.2,1,1.6C13.1,85.9,12.3,85.4,11.8,84.7z M16.6,86.2c0.4-0.4,0.7-0.9,1-1.6
	h1.2C18.3,85.4,17.5,85.9,16.6,86.2z"/>
<path class="st31" d="M154.7,89L154.7,89h-0.3l0,0c-2.2,0.1-4,1.9-4,4.2c0,2.3,1.9,4.2,4.2,4.2s4.2-1.9,4.2-4.2
	C158.7,90.9,156.9,89.1,154.7,89z M150.7,93.3h1.5c0,0.6,0.1,1.3,0.3,1.9h-1.2C150.9,94.6,150.7,94,150.7,93.3z M154.7,91.4v-2.1
	c0.9,0.1,1.5,1,1.8,2.1H154.7z M156.6,91.7c0.1,0.4,0.1,0.9,0.1,1.3h-2v-1.3H156.6z M154.4,89.3v2.1h-1.8
	C152.9,90.3,153.5,89.4,154.4,89.3z M154.4,91.7V93h-2c0-0.5,0.1-0.9,0.1-1.3H154.4z M152.1,93.1h-1.5c0-0.5,0.1-0.9,0.3-1.3h1.3
	C152.2,92.1,152.1,92.6,152.1,93.1z M152.4,93.3h2v1.9h-1.7C152.5,94.6,152.4,94,152.4,93.3z M154.4,95.5v1.6
	c-0.8-0.1-1.3-0.7-1.6-1.6H154.4z M154.7,97.1v-1.6h1.6c-0.1,0.2-0.1,0.3-0.2,0.4C155.9,96.4,155.4,97,154.7,97.1z M154.7,95.2v-1.9
	h2c0,0.7-0.1,1.3-0.3,1.9H154.7z M157,93.3h1.5c0,0.7-0.2,1.3-0.5,1.9h-1.2C156.9,94.6,157,94,157,93.3z M157,93.1
	c0-0.4-0.1-0.9-0.1-1.3h1.3v-0.1c0.2,0.4,0.3,0.9,0.3,1.4H157z M158,91.4h-1.2c-0.2-0.8-0.5-1.5-1-2C156.7,89.8,157.6,90.5,158,91.4
	z M153.3,89.5c-0.2,0.2-0.5,0.5-0.6,0.9c-0.2,0.3-0.3,0.7-0.4,1.1h-1.2C151.5,90.5,152.3,89.8,153.3,89.5z M151.4,95.5h1.1
	c0.2,0.6,0.5,1.1,0.9,1.4C152.5,96.6,151.9,96.1,151.4,95.5z M155.8,96.9c0.4-0.3,0.7-0.8,0.9-1.4h1.1
	C157.2,96.1,156.5,96.6,155.8,96.9z"/>
<path class="st32" d="M77.4,91.3L77.4,91.3h-0.3l0,0c-2.2,0.1-4,1.9-4,4.2c0,2.3,1.9,4.2,4.2,4.2c2.3,0,4.2-1.9,4.2-4.2
	C81.5,93.2,79.7,91.4,77.4,91.3z M73.4,95.6h1.5c0,0.6,0.1,1.3,0.3,1.9H74C73.6,96.9,73.4,96.3,73.4,95.6z M77.4,93.7v-2.1
	c0.9,0.1,1.5,1,1.8,2.1H77.4z M79.3,94c0.1,0.4,0.1,0.9,0.1,1.3h-2V94H79.3z M77.2,91.6v2.1h-1.8C75.6,92.6,76.3,91.7,77.2,91.6z
	 M77.2,94v1.3h-2c0-0.5,0.1-0.9,0.1-1.3H77.2z M74.9,95.3h-1.5c0-0.5,0.1-0.9,0.3-1.3H75C74.9,94.4,74.9,94.9,74.9,95.3z M75.1,95.6
	h2v1.9h-1.7C75.2,96.9,75.1,96.2,75.1,95.6z M77.2,97.7v1.6c-0.8-0.1-1.3-0.7-1.6-1.6H77.2z M77.4,99.4v-1.6H79c0,0.1,0,0.2-0.1,0.4
	C78.6,98.7,78.2,99.3,77.4,99.4z M77.4,97.5v-1.9h2c0,0.7-0.1,1.3-0.3,1.9H77.4z M79.7,95.6h1.5c0,0.7-0.2,1.3-0.5,1.9h-1.2
	C79.6,96.9,79.7,96.2,79.7,95.6z M79.7,95.3c0-0.4-0.1-0.9-0.1-1.3h1.3v-0.1c0.2,0.4,0.3,0.9,0.3,1.4H79.7z M80.8,93.7h-1.2
	c-0.2-0.8-0.5-1.5-1-2C79.5,92.1,80.3,92.8,80.8,93.7z M76.1,91.8c-0.2,0.2-0.5,0.5-0.6,0.9c-0.2,0.3-0.3,0.7-0.4,1.1h-1.2
	C74.3,92.8,75.1,92.1,76.1,91.8z M74.1,97.7h1.1c0.2,0.6,0.5,1.1,0.9,1.4C75.3,98.9,74.6,98.4,74.1,97.7z M78.5,99.2
	c0.4-0.3,0.7-0.8,0.9-1.4h1.1C80,98.4,79.3,98.9,78.5,99.2z"/>
<g>
	<g>
		<g>
			<g>
				<g>
					<g>
						<g>
							<g>
								<path class="st33" d="M210.1,83.9c0-5.4-0.7-10.8-2-16c-0.5-2-1.6-4.1-1.8-6.2c-0.2-2.2,1.1-4.2,1.2-6.4
									c0.4-5.4-1.3-11.4-5.6-15.3c-1.7-1.6-3.7-2.8-6.1-3.3c-2.5-0.5-6,0.6-8.3-0.3c-2.2-0.8-3.8-2.7-5.8-3.8
									c-2.3-1.3-5.1-2.2-7.8-2.9c-3.5-0.9-7.2-0.5-10.8-1.2c-3.2-0.6-5.8-2.8-9.2-2.8c-5,0-9.3,3.8-11,9.2c-0.9,2.7-5.5,5-8,6.3
									c-3.5,1.8-8.1,1.4-11.2,3.8c-4.3,3.3-6.2,8.4-6.2,13.4c0,4,2.7,7.6,2.5,11.6c-0.2,4.6-1.3,9.1-1.3,13.7
									C118.8,83.9,210.1,83.9,210.1,83.9z"/>
								<path class="st34" d="M209.8,84.3c0-1.3-20.7-2.4-46.3-2.4c-25.6,0-46.3,1.1-46.3,2.4c0,1.3,20.7,2.4,46.3,2.4
									C189.1,86.7,209.8,85.6,209.8,84.3z"/>
							</g>
						</g>
					</g>
					<g>
						<g>
							<path class="st31" d="M210.2,61c-0.5-0.3-1.2-0.2-1.8,0.1c-0.8,0.4-1.5,1.1-2,1.9c-0.4,0.5-0.7,1-0.9,1.7
								c-0.1,0.1-0.2,0.3-0.3,0.4l0,0c0,0.1-0.2,0.3-0.5,0.8c-0.1-0.2-0.1-0.5,0-1c0.3-0.6,0.9-1.1,1.3-1.6c0.6-0.8,1.3-1.8,1.3-2.9
								c0-0.5-0.2-0.9-0.8-0.9c-0.6,0-1.1,0.5-1.5,1c-0.5,0.8-0.7,1.8-0.7,2.7c0,0.6,0,1.2,0.2,1.9c-0.1,0.4-0.1,0.8,0,1l0.1,0
								c-0.6,1-1.8,2.7-3.2,4.7c0-0.2,0-0.5,0.1-1c0.3-0.6,0.9-1.1,1.3-1.6c0.6-0.8,1.3-1.8,1.3-2.9c0-0.5-0.2-0.9-0.8-0.9
								c-0.6,0-1.1,0.5-1.5,1c-0.5,0.8-0.7,1.8-0.7,2.7c0,0.6,0,1.2,0.2,1.9c-0.1,0.4-0.1,0.8,0,1c-0.5,0.6-0.9,1.3-1.5,1.9
								c-0.4,0.5-0.8,1-1.2,1.5c0.3-0.7,0.7-1.4,0.9-2.2c0.6-0.8,1.2-1.7,1.2-2.7c0-0.2-0.1-0.4-0.2-0.6c0.5-2.1,0.9-4.3,1.2-6.3
								c0.2-0.1,0.5-0.3,0.8-0.6c0.6-0.3,1.1-0.6,1.5-1.1c0.7-0.6,1.3-1.4,1.6-2.3c0.2-0.6,0.3-1.3-0.1-1.8c-0.3-0.4-0.8-0.3-1.2,0
								c-0.9,0.7-1.1,1.8-1.4,2.8c-0.2,0.7-0.2,1.4-0.4,2c-0.3,0.4-0.6,0.6-0.7,0.7c0-0.4,0.1-0.7,0.1-1.1c0.2-1.7,0.3-3.3,0.4-4.6
								c0.2-0.1,0.4-0.4,0.6-0.7c0.5-0.4,0.9-0.9,1.3-1.4c0.5-0.8,1-1.7,1-2.6c0.1-0.6,0-1.3-0.5-1.7c-0.4-0.3-0.9-0.1-1.2,0.3
								c-0.7,0.8-0.7,2-0.7,3.1c0,0.7,0.1,1.4,0,2.1c-0.2,0.4-0.3,0.6-0.5,0.7c0.2-2.6,0.2-4.4,0.2-4.5l0,0c0-0.2,0.1-0.5,0.1-0.7
								c0.4-0.6,0.9-1,1.3-1.6c0.6-0.8,1.4-1.7,1.4-2.8c0-0.5-0.2-1-0.7-0.9c-0.6,0-1.2,0.5-1.5,1c-0.5,0.8-0.7,1.7-0.8,2.7
								c-0.1,0.6,0,1.2,0.1,1.9c0,0.2-0.1,0.3-0.1,0.5l0,0c0,0.1,0,0.4,0,0.9c-0.1-0.1-0.3-0.4-0.5-0.9c0-0.7,0.2-1.4,0.2-2
								c0.1-1,0.2-2.2-0.4-3.1c-0.2-0.4-0.7-0.7-1.1-0.4c-0.5,0.3-0.7,1-0.7,1.6c0,0.9,0.3,1.8,0.8,2.7c0.3,0.6,0.6,1.1,1.1,1.5
								c0.2,0.4,0.3,0.7,0.5,0.9l0-0.1c0,1.2-0.1,3.2-0.3,5.6c-0.1-0.1-0.3-0.4-0.5-0.9c0-0.7,0.2-1.4,0.2-2c0.1-1,0.2-2.2-0.4-3.1
								c-0.2-0.4-0.7-0.7-1.1-0.4c-0.5,0.3-0.7,1-0.7,1.6c0,0.9,0.3,1.8,0.8,2.7c0.3,0.6,0.6,1.1,1.1,1.5c0.2,0.4,0.3,0.7,0.5,0.8
								c-0.1,0.8-0.2,1.6-0.2,2.4c-0.1,0.8-0.2,1.7-0.4,2.6c-0.1-0.1-0.3-0.4-0.5-0.9c0-0.7,0.2-1.4,0.2-2c0.1-1,0.2-2.2-0.4-3.1
								c-0.2-0.4-0.7-0.7-1.1-0.4c-0.5,0.3-0.7,1-0.7,1.6c0,0.9,0.3,1.8,0.8,2.7c0.3,0.6,0.6,1.1,1.1,1.5c0.2,0.4,0.3,0.7,0.5,0.8
								c-0.2,1-0.4,2.1-0.6,3.2c-0.2-0.1-0.4-0.3-0.7-0.8c-0.2-0.7-0.1-1.4-0.2-2c-0.1-1-0.2-2.2-1-3c-0.3-0.3-0.8-0.5-1.2-0.2
								c-0.4,0.4-0.5,1.2-0.4,1.7c0.2,0.9,0.7,1.7,1.3,2.4c0.4,0.5,0.8,0.9,1.4,1.2c0.2,0.4,0.5,0.6,0.7,0.7
								c-0.1,0.4-0.2,0.8-0.3,1.2c-0.1-0.1-0.3-0.1-0.4-0.1c-0.6,0-1.1,0.5-1.5,1c-0.5,0.8-0.7,1.8-0.7,2.7c0,0.6,0,1.2,0.2,1.9
								c-0.1,0.4-0.1,0.7,0,1c0,0.1-0.1,0.1-0.1,0.2c-1.2,1.4-2.5,2.8-3.8,4.1c0-0.2,0-0.5,0.1-1c0.3-0.6,0.9-1.1,1.3-1.6
								c0.6-0.8,1.3-1.8,1.3-2.9c0-0.5-0.2-0.9-0.8-0.9c-0.6,0-1.1,0.5-1.5,1c-0.5,0.8-0.7,1.8-0.7,2.7c0,0.6,0,1.2,0.2,1.9
								c-0.1,0.4-0.1,0.7,0,1c-0.6,0.6-1.3,1.2-1.9,1.7c0.1,0,0.1,0.1,0.2,0.1c1.2-0.9,2.3-2,3.4-3.1c0.1,0,0.1,0,0.2,0
								c0.2,0,0.5-0.1,0.7-0.1c0.6,0.1,1.3,0,1.9-0.1c0.9-0.2,1.8-0.5,2.5-1.1c0.4-0.4,0.9-1,0.8-1.6c-0.1-0.5-0.6-0.7-1-0.6
								c-1.1,0.1-1.9,1-2.6,1.7c-0.5,0.5-0.9,1.1-1.4,1.5c-0.4,0.2-0.7,0.2-0.9,0.2c0.7-0.8,1.4-1.5,2.1-2.3l0,0
								c0.1-0.1,0.1-0.2,0.2-0.3c0.4-0.5,0.8-0.9,1.1-1.4c0.1,0,0.2,0,0.2,0c0.2,0,0.5-0.1,0.7-0.1c0.6,0.1,1.3,0,1.9-0.1
								c0.9-0.2,1.8-0.5,2.5-1.1c0.4-0.4,0.9-1,0.8-1.6c-0.1-0.5-0.6-0.7-1-0.6c-1.1,0.1-1.9,1-2.6,1.7c-0.5,0.5-0.9,1.1-1.4,1.5
								c-0.5,0.2-0.8,0.2-1,0.2c0.2-0.3,0.5-0.6,0.7-0.9c1-1.3,2-2.6,2.7-3.8c0.2,0,0.5-0.2,0.9-0.3c0.6-0.1,1.2-0.3,1.8-0.5
								c0.8-0.4,1.7-0.9,2.2-1.7c0.3-0.5,0.6-1.1,0.4-1.7c-0.2-0.5-0.7-0.5-1.1-0.4c-1,0.4-1.6,1.4-2.2,2.3c-0.4,0.6-0.6,1.2-1,1.8
								c-0.3,0.2-0.6,0.3-0.8,0.4c1.5-2.2,2.4-3.7,2.5-3.7l0,0c0.1-0.2,0.3-0.4,0.4-0.5c0.6-0.3,1.3-0.4,1.9-0.7
								c1-0.4,2.1-0.8,2.6-1.7C210.6,61.8,210.7,61.3,210.2,61z M198.3,73.9c0.3-0.5,0.6-0.8,1-1.2c-0.3,0.8-0.7,1.5-1,2.1
								C198.2,74.6,198.2,74.3,198.3,73.9z"/>
							<g>
								<path class="st35" d="M194,81.6l0.6,0.1c0.2-0.3,0.4-0.7,0.7-1c0.4-0.5,0.7-1,1.1-1.4c0.9-1,1.8-1.8,3.2-2
									c0.2,0,0.4-0.1,0.6-0.2c0.2-0.1,0.3-0.3,0.3-0.6c0-0.2-0.2-0.2-0.4-0.2c0,0,0,0-0.1,0c0,0-0.1,0-0.1,0
									c-0.1,0-0.2,0.1-0.3,0.1c-0.1,0.1-0.2,0.1-0.4,0.2c-0.6,0.3-1.1,0.7-1.5,1.1c-0.3,0.2-0.5,0.4-0.7,0.7
									c0.2-0.3,0.4-0.6,0.6-0.9c0.2-0.4,0.5-0.8,0.7-1.3c0.3-0.6,0.5-1.1,0.6-1.8c0-0.1,0-0.3,0.1-0.4c0-0.1,0-0.2,0-0.3
									c0,0,0-0.1,0-0.1c0,0,0,0,0-0.1c0-0.1-0.1-0.3-0.3-0.3c-0.2,0-0.4,0.2-0.5,0.4c-0.1,0.2-0.1,0.4,0,0.6
									c0.2,1.4-0.3,2.5-1.1,3.6c-0.2,0.3-0.4,0.5-0.6,0.8c-0.1,0.1-0.1,0.2-0.2,0.3c0.1-0.1,0.1-0.2,0.1-0.3
									c0.3-0.6,0.5-1.1,0.6-1.8c0-0.1,0-0.3,0.1-0.4c0-0.1,0-0.2,0-0.3c0,0,0-0.1,0-0.1c0,0,0,0,0-0.1c0-0.1-0.1-0.3-0.3-0.3
									c-0.2,0-0.4,0.2-0.5,0.4c-0.1,0.2-0.1,0.4,0,0.6c0.2,1.3-0.3,2.4-1.1,3.5c-0.2,0.2-0.4,0.4-0.5,0.7
									c-0.1,0.2-0.3,0.4-0.4,0.5c0,0,0,0,0,0.1c0,0,0,0,0-0.1c0.3-0.6,0.5-1.1,0.6-1.8c0-0.1,0-0.3,0.1-0.4c0-0.1,0-0.2,0-0.3
									c0,0,0-0.1,0-0.1c0,0,0,0,0-0.1c0-0.1-0.1-0.3-0.3-0.3c-0.2,0-0.4,0.2-0.5,0.4c-0.1,0.2-0.1,0.4,0,0.6
									C194.3,80.3,194.2,81,194,81.6z"/>
								<path class="st35" d="M197,80.7c0.2,0,0.4-0.1,0.6-0.2c0.2-0.1,0.3-0.3,0.3-0.6c0-0.2-0.2-0.2-0.4-0.2c0,0,0,0-0.1,0
									c0,0-0.1,0-0.1,0c-0.1,0-0.2,0.1-0.3,0.1c-0.1,0.1-0.2,0.1-0.4,0.2c-0.6,0.3-1.1,0.7-1.5,1.1c-0.2,0.2-0.4,0.4-0.6,0.6
									l0.3,0C195.5,81.2,196.2,80.8,197,80.7z"/>
								<path class="st35" d="M198.4,75.1C198.4,75,198.3,75,198.4,75.1C198.4,75,198.4,75,198.4,75.1C198.4,75,198.4,75,198.4,75.1
									z"/>
								<path class="st35" d="M198.7,77.3C198.7,77.3,198.7,77.3,198.7,77.3C198.7,77.3,198.7,77.3,198.7,77.3
									C198.7,77.3,198.7,77.3,198.7,77.3z"/>
								<path class="st35" d="M196.2,80.7C196.2,80.7,196.2,80.7,196.2,80.7C196.2,80.7,196.2,80.7,196.2,80.7
									C196.2,80.7,196.2,80.7,196.2,80.7z"/>
								<path class="st35" d="M196.5,77.5C196.5,77.5,196.5,77.5,196.5,77.5C196.5,77.5,196.5,77.5,196.5,77.5
									C196.5,77.5,196.5,77.5,196.5,77.5z"/>
								<path class="st35" d="M194.4,80.4C194.4,80.4,194.4,80.4,194.4,80.4C194.4,80.4,194.4,80.4,194.4,80.4
									C194.4,80.4,194.4,80.4,194.4,80.4z"/>
								<path class="st35" d="M200.6,81.7C200.6,81.7,200.6,81.6,200.6,81.7c-0.1,0-0.1-0.1-0.1-0.1c-0.1,0-0.2,0-0.3,0
									c-0.1,0-0.3,0-0.4,0c-0.6,0-1.2,0.1-1.9,0.2c-0.3,0.1-0.6,0.1-1,0.2l0.7,0.1c0.7-0.1,1.3,0,2,0.3c0.2,0.1,0.4,0.1,0.6,0.1
									c0.2,0,0.4-0.2,0.5-0.3C200.9,81.9,200.7,81.8,200.6,81.7z"/>
								<path class="st35" d="M204.4,79.9C204.4,79.8,204.4,79.8,204.4,79.9c-0.1,0-0.1-0.1-0.1-0.1c-0.1,0-0.2,0-0.3,0
									c-0.1,0-0.3,0-0.4,0c-0.6,0-1.2,0.1-1.9,0.2c-0.3,0.1-0.6,0.1-1,0.2c0.3-0.2,0.7-0.3,1-0.5c0.4-0.2,0.8-0.5,1.2-0.8
									c0.5-0.4,1-0.8,1.4-1.2c0.1-0.1,0.2-0.2,0.2-0.3c0.1-0.1,0.1-0.2,0.2-0.2c0,0,0,0,0-0.1c0,0,0,0,0-0.1c0-0.2,0-0.3-0.1-0.4
									c-0.2-0.1-0.5,0-0.6,0.2c-0.2,0.1-0.2,0.3-0.3,0.5c-0.5,1.3-1.5,2-2.7,2.6c-0.3,0.1-0.6,0.3-0.9,0.4c-0.1,0-0.2,0.1-0.3,0.1
									c0.1-0.1,0.2-0.1,0.3-0.2c0.5-0.4,1-0.8,1.4-1.2c0.1-0.1,0.2-0.2,0.2-0.3c0.1-0.1,0.1-0.2,0.2-0.2c0,0,0,0,0-0.1
									c0,0,0,0,0-0.1c0-0.2,0-0.3-0.1-0.4c-0.2-0.1-0.5,0-0.6,0.2c-0.2,0.1-0.2,0.3-0.3,0.5c-0.5,1.3-1.4,2-2.6,2.6
									c-0.3,0.1-0.5,0.2-0.8,0.3c-0.2,0.1-0.4,0.2-0.6,0.3c0,0,0,0-0.1,0c0,0,0,0,0.1,0c0.5-0.4,1-0.8,1.4-1.2
									c0.1-0.1,0.2-0.2,0.2-0.3c0.1-0.1,0.1-0.2,0.2-0.2c0,0,0,0,0-0.1c0,0,0,0,0-0.1c0-0.2,0-0.3-0.1-0.4c-0.2-0.1-0.5,0-0.6,0.2
									c-0.2,0.1-0.2,0.3-0.3,0.5c-0.3,0.9-0.9,1.5-1.6,1.9l0.7,0.1c0.4-0.2,0.8-0.4,1.2-0.6c0.6-0.3,1.1-0.5,1.7-0.7
									c1.3-0.5,2.4-0.7,3.7-0.2c0.2,0.1,0.4,0.1,0.6,0.1c0.2,0,0.4-0.2,0.5-0.3C204.7,80.1,204.5,79.9,204.4,79.9z"/>
								<path class="st35" d="M203.6,77.9C203.6,77.9,203.6,77.9,203.6,77.9C203.6,77.9,203.6,77.9,203.6,77.9
									C203.6,77.9,203.6,77.9,203.6,77.9z"/>
								<path class="st35" d="M202.8,80C202.8,80,202.8,80,202.8,80C202.8,80,202.8,80.1,202.8,80C202.8,80.1,202.8,80,202.8,80z"/>
								<path class="st35" d="M200.8,79.2C200.8,79.2,200.8,79.2,200.8,79.2C200.8,79.2,200.8,79.2,200.8,79.2
									C200.8,79.2,200.8,79.2,200.8,79.2z"/>
								<path class="st35" d="M197.5,80.7C197.5,80.7,197.5,80.7,197.5,80.7C197.6,80.7,197.6,80.7,197.5,80.7
									C197.6,80.7,197.5,80.7,197.5,80.7z"/>
							</g>
						</g>
						<g>
							<path class="st36" d="M126.8,77.4c0.3,0.1,0.5,0.1,0.7,0.1c0.1,0,0.2,0,0.2,0c0.4,0.4,0.8,0.9,1.2,1.3
								c0.1,0.1,0.1,0.2,0.2,0.2l0,0c0.7,0.7,1.5,1.5,2.2,2.2c-0.2,0-0.5,0-0.9-0.1c-0.6-0.4-1-0.9-1.5-1.4
								c-0.8-0.7-1.7-1.5-2.7-1.5c-0.5,0-1,0.1-1,0.7c0,0.6,0.4,1.2,0.9,1.5c0.7,0.5,1.7,0.8,2.6,0.9c0.6,0.1,1.2,0.1,1.9,0
								c0.3,0.1,0.5,0.1,0.7,0.1c0.1,0,0.1,0,0.2,0c1.1,1,2.3,2,3.4,2.8l0.4,0c-0.7-0.5-1.4-1-2.1-1.6c0.1-0.2,0-0.6-0.1-1
								c0.1-0.6,0.1-1.3,0-1.9c-0.1-0.9-0.4-1.9-0.9-2.6c-0.3-0.5-0.9-1-1.5-0.9c-0.5,0-0.7,0.5-0.7,1c0,1.1,0.8,2,1.5,2.8
								c0.4,0.5,1,1,1.4,1.5c0.1,0.5,0.2,0.8,0.1,1c-1.4-1.2-2.8-2.5-4-3.8c0-0.1-0.1-0.1-0.1-0.2c0.1-0.2,0-0.6-0.1-1
								c0.1-0.6,0.1-1.3,0-1.9c-0.1-0.9-0.4-1.9-0.9-2.6c-0.3-0.5-0.9-1-1.5-0.9c-0.2,0-0.3,0.1-0.4,0.2c-0.1-0.4-0.2-0.8-0.4-1.2
								c0.2-0.1,0.4-0.4,0.7-0.8c0.5-0.4,1-0.8,1.3-1.3c0.5-0.7,1-1.6,1.1-2.5c0.1-0.6,0-1.3-0.5-1.7c-0.4-0.4-0.9-0.1-1.2,0.2
								c-0.7,0.8-0.8,2-0.8,3c0,0.7,0.1,1.4-0.1,2.1c-0.3,0.5-0.5,0.7-0.7,0.8c-0.3-1-0.6-2.1-0.8-3.1c0.2-0.2,0.3-0.5,0.5-0.9
								c0.4-0.5,0.8-1,1-1.6c0.4-0.8,0.7-1.8,0.6-2.7c0-0.6-0.3-1.3-0.8-1.6c-0.5-0.3-0.9,0.1-1.1,0.5c-0.5,0.9-0.3,2.1-0.2,3.1
								c0.1,0.7,0.4,1.3,0.4,2c-0.1,0.5-0.3,0.7-0.4,0.9c-0.2-0.9-0.4-1.8-0.5-2.6c-0.2-0.8-0.3-1.6-0.4-2.4
								c0.2-0.2,0.3-0.5,0.5-0.9c0.4-0.5,0.8-1,1-1.6c0.4-0.8,0.7-1.8,0.6-2.7c0-0.6-0.3-1.3-0.8-1.6c-0.5-0.3-0.9,0.1-1.1,0.5
								c-0.5,0.9-0.3,2.1-0.2,3.1c0.1,0.7,0.4,1.3,0.4,2c-0.1,0.5-0.3,0.7-0.4,0.9c-0.4-2.4-0.6-4.4-0.7-5.6l0,0.1
								c0.2-0.2,0.4-0.5,0.5-0.9c0.4-0.5,0.8-1,1-1.6c0.4-0.8,0.7-1.8,0.6-2.7c0-0.6-0.3-1.3-0.8-1.6c-0.5-0.3-0.9,0.1-1.1,0.5
								c-0.5,0.9-0.3,2.1-0.2,3.1c0.1,0.7,0.4,1.3,0.4,2c-0.1,0.5-0.3,0.8-0.4,0.9c0-0.5-0.1-0.8-0.1-0.9l0,0c0-0.2-0.1-0.4-0.1-0.5
								c0.1-0.6,0.1-1.2,0-1.9c-0.1-0.9-0.4-1.9-1-2.6c-0.4-0.5-0.9-0.9-1.5-0.9c-0.5,0-0.7,0.5-0.7,1c0.1,1.1,0.9,2,1.5,2.7
								c0.5,0.5,1,0.9,1.4,1.5c0.1,0.2,0.1,0.4,0.1,0.7l0,0c0,0,0.1,1.8,0.5,4.4c-0.1-0.1-0.3-0.3-0.5-0.7c-0.1-0.7-0.1-1.4-0.1-2.1
								c-0.1-1-0.2-2.2-0.9-3c-0.3-0.4-0.8-0.6-1.2-0.2c-0.5,0.4-0.5,1.2-0.4,1.7c0.2,0.9,0.7,1.8,1.2,2.5c0.4,0.5,0.8,1,1.3,1.3
								c0.2,0.3,0.4,0.6,0.6,0.7c0.2,1.4,0.4,2.9,0.7,4.6c0.1,0.4,0.1,0.7,0.2,1.1c-0.2-0.1-0.4-0.2-0.8-0.6c-0.3-0.6-0.4-1.3-0.6-2
								c-0.3-1-0.7-2.1-1.6-2.7c-0.4-0.3-0.9-0.4-1.2,0.1c-0.4,0.5-0.2,1.2,0,1.8c0.4,0.8,1,1.6,1.8,2.1c0.5,0.4,1,0.7,1.6,1
								c0.3,0.3,0.6,0.5,0.8,0.6c0.4,2,0.9,4.1,1.6,6.2c-0.1,0.2-0.1,0.4-0.1,0.6c0,1,0.7,1.9,1.4,2.6c0.3,0.8,0.7,1.5,1.1,2.1
								c-0.5-0.5-0.9-1-1.3-1.4c-0.6-0.6-1.1-1.2-1.6-1.8c0.1-0.2,0.1-0.6,0-1c0.1-0.6,0.1-1.3,0-1.9c-0.1-0.9-0.4-1.9-0.9-2.6
								c-0.3-0.5-0.9-1-1.5-0.9c-0.5,0-0.7,0.5-0.7,1c0,1.1,0.8,2,1.5,2.8c0.4,0.5,1,1,1.4,1.5c0.1,0.5,0.2,0.8,0.1,1
								c-1.6-1.9-2.8-3.5-3.5-4.4l0.1,0c0.1-0.2,0.1-0.6,0-1c0.1-0.6,0.1-1.3,0-1.9c-0.1-0.9-0.4-1.9-0.9-2.6
								c-0.3-0.5-0.9-1-1.5-0.9c-0.5,0-0.7,0.5-0.7,1c0,1.1,0.8,2,1.5,2.8c0.4,0.5,1,1,1.4,1.5c0.1,0.5,0.2,0.8,0.1,1
								c-0.3-0.4-0.5-0.7-0.5-0.7l0,0c-0.1-0.1-0.2-0.3-0.4-0.4c-0.2-0.6-0.6-1.1-1-1.6c-0.6-0.7-1.3-1.4-2.2-1.7
								c-0.5-0.2-1.3-0.3-1.8,0c-0.4,0.3-0.3,0.8-0.1,1.2c0.6,0.9,1.7,1.2,2.7,1.5c0.7,0.2,1.4,0.3,2,0.6c0.2,0.1,0.3,0.3,0.5,0.5
								l0,0c0,0,1.1,1.5,2.7,3.6c-0.2,0-0.4-0.1-0.8-0.3c-0.5-0.5-0.8-1.2-1.1-1.7c-0.6-0.8-1.3-1.8-2.3-2.1c-0.4-0.1-1-0.1-1.1,0.4
								c-0.2,0.6,0.2,1.3,0.5,1.7c0.6,0.7,1.5,1.2,2.3,1.5c0.6,0.2,1.2,0.4,1.8,0.4c0.3,0.2,0.6,0.3,0.9,0.3c0.9,1.1,1.9,2.3,3,3.6
								c0.2,0.3,0.5,0.5,0.7,0.8c-0.2,0-0.5,0-1-0.1c-0.6-0.4-1-0.9-1.5-1.4c-0.8-0.7-1.7-1.5-2.7-1.5c-0.5,0-1,0.1-1,0.7
								c0,0.6,0.4,1.2,0.9,1.5c0.7,0.5,1.7,0.8,2.6,0.9C125.5,77.5,126.1,77.5,126.8,77.4z M127.7,76.1c0.4,0.4,0.8,0.7,1,1.2
								c0.1,0.4,0.1,0.7,0.1,0.9C128.4,77.6,128,76.9,127.7,76.1z"/>
							<path class="st37" d="M127.8,83.1c0.9-1.8,0.9-4,0.7-6c-0.3-3.5-1.1-7.2-3.7-9.6c-0.3-0.3-0.8-0.6-1.2-0.4
								c-0.1,0.1-0.2,0.2-0.3,0.3c-0.6,0.8-0.7,1.9-0.6,2.9c0.1,1,0.5,1.9,0.9,2.9c1.1,2.6,2.3,5.3,3.4,7.9c0.1,0.2,0.2,0.5,0.3,0.8
								c-1.2-2.6-2.8-5.1-4.6-7.3c-1.8-2.2-4.1-4.2-6.9-4.6c-0.6-0.1-1.3-0.1-1.6,0.5c-0.3,0.6,0.1,1.3,0.5,1.8
								c1.3,1.5,2.8,2.8,4.4,4c2.3,1.8,4.5,3.6,6.8,5.4c-3.1-2-6.6-3.9-10.1-4.2c-0.5,0-1,0-1.3,0.3c-0.3,0.4-0.3,1,0,1.4
								c0.3,0.4,0.8,0.6,1.3,0.9c3.5,1.6,7.2,2.3,11,3L127.8,83.1z"/>
						</g>
					</g>
				</g>
			</g>
		</g>
	</g>
	<g>
		<g>
			<g>
				<path class="st38" d="M184.3,27.6c0-1.1-0.9-2-2-2h-38.5c-1.1,0-2,0.9-2,2v54.6c0,1.1,0.9,2,2,2h38.5c1.1,0,2-0.9,2-2V27.6z"/>
				<rect x="143.7" y="30.2" class="st39" width="38.6" height="49.4"/>
				<g>
					<g>
						<g>
							<rect x="143.5" y="30.7" class="st40" width="38.8" height="2.3"/>
							<g>
								<path class="st37" d="M149.8,31.8c0-0.3-0.3-0.6-0.6-0.6c-0.3,0-0.6,0.3-0.6,0.6c0,0.3,0.3,0.6,0.6,0.6
									C149.5,32.4,149.8,32.1,149.8,31.8z"/>
								<path class="st37" d="M147.9,31.8c0-0.3-0.3-0.6-0.6-0.6c-0.3,0-0.6,0.3-0.6,0.6c0,0.3,0.3,0.6,0.6,0.6
									C147.7,32.4,147.9,32.1,147.9,31.8z"/>
								<path class="st37" d="M145.9,31.8c0-0.3-0.3-0.6-0.6-0.6c-0.3,0-0.6,0.3-0.6,0.6c0,0.3,0.3,0.6,0.6,0.6
									C145.7,32.4,145.9,32.1,145.9,31.8z"/>
							</g>
							<path class="st37" d="M172.5,31.8c0-0.3-0.2-0.5-0.5-0.5h-20.5c-0.3,0-0.5,0.2-0.5,0.5l0,0c0,0.3,0.2,0.5,0.5,0.5H172
								C172.3,32.3,172.5,32.1,172.5,31.8L172.5,31.8z"/>
						</g>
					</g>
				</g>
				<rect x="143.4" y="30.4" class="st41" width="38.8" height="49.6"/>
				<g>
					<path class="st42" d="M163.8,27.8c0-0.5-0.4-0.8-0.8-0.8s-0.8,0.4-0.8,0.8c0,0.5,0.4,0.8,0.8,0.8S163.8,28.3,163.8,27.8z"/>
					<path class="st43" d="M168.7,81.6c0-0.3-0.2-0.5-0.5-0.5h-10.4c-0.3,0-0.5,0.2-0.5,0.5l0,0c0,0.3,0.2,0.5,0.5,0.5h10.4
						C168.5,82.1,168.7,81.9,168.7,81.6L168.7,81.6z"/>
				</g>
			</g>
			<g>
				<g>
					<path class="st44" d="M161,56.1c0-0.8-0.8-1.5-1.7-1.5c-0.9,0-1.7,0.7-1.7,1.5c0,0.8,0.8,1.5,1.7,1.5
						C160.3,57.6,161,56.9,161,56.1z"/>
					<path class="st44" d="M160.2,55.9h-0.6v-0.6c0-0.1-0.1-0.3-0.3-0.3c-0.2,0-0.3,0.1-0.3,0.3v0.6h-0.5c-0.2,0-0.3,0.2-0.3,0.3
						c0,0.1,0.1,0.3,0.3,0.3h0.5v0.4c0,0.1,0.1,0.3,0.3,0.3c0.2,0,0.3-0.1,0.3-0.3v-0.4h0.6c0.2,0,0.3-0.2,0.3-0.3
						C160.5,56,160.3,55.9,160.2,55.9z"/>
					<path class="st44" d="M151.7,56.1c0-0.8-0.8-1.5-1.7-1.5c-0.9,0-1.7,0.7-1.7,1.5c0,0.8,0.8,1.5,1.7,1.5
						C151,57.6,151.7,56.9,151.7,56.1z"/>
					<path class="st44" d="M151.1,56.1c0-0.2-0.1-0.3-0.3-0.3h-1.6c-0.2,0-0.3,0.1-0.3,0.3v0c0,0.2,0.1,0.3,0.3,0.3h1.6
						C150.9,56.5,151.1,56.3,151.1,56.1L151.1,56.1z"/>
				</g>
				<g>
					<path class="st45" d="M154.8,54.6h0.2v1.9h0.3v0.2H155v0.9h-0.2v-0.9h-1.3L154.8,54.6z M154.8,54.9l-1,1.6h1V54.9z"/>
				</g>
				<g>
					<g>
						<g>
							<path class="st46" d="M163.9,66c3.6,0,7.3,0,10.9,0c6.4,0,6.4-10,0-10c-3.6,0-7.3,0-10.9,0C157.4,56,157.4,66,163.9,66
								L163.9,66z"/>
						</g>
					</g>
					<g>
						<g>
							<path class="st46" d="M147.7,66c4.2,0,8.5,0,12.7,0c6.4,0,6.4-10,0-10c-4.2,0-8.5,0-12.7,0C141.3,56,141.3,66,147.7,66
								L147.7,66z"/>
						</g>
					</g>
					<g>
						<g>
							<path class="st46" d="M171.2,68.1c2.6,0,5.3,0,7.9,0c2.6,0,5.1-2.3,5-5c-0.1-2.7-2.2-5-5-5c-2.6,0-5.3,0-7.9,0
								c-2.6,0-5.1,2.3-5,5C166.4,65.8,168.4,68.1,171.2,68.1L171.2,68.1z"/>
						</g>
					</g>
					<g>
						<g>
							<path class="st46" d="M155.8,68.1c4,0,8,0,12,0c6.4,0,6.4-10,0-10c-4,0-8,0-12,0C149.3,58.1,149.3,68.1,155.8,68.1
								L155.8,68.1z"/>
						</g>
					</g>
					<g>
						<g>
							<path class="st46" d="M147.7,68.1c1.5,0,3,0,4.6,0c2.6,0,5.1-2.3,5-5c-0.1-2.7-2.2-5-5-5c-1.5,0-3,0-4.6,0
								c-2.6,0-5.1,2.3-5,5C142.9,65.8,144.9,68.1,147.7,68.1L147.7,68.1z"/>
						</g>
					</g>
					<g>
						<g>
							<path class="st46" d="M163.6,70.1c5.2,0,10.4,0,15.5,0c6.4,0,6.4-10,0-10c-5.2,0-10.4,0-15.5,0
								C157.2,60.1,157.2,70.1,163.6,70.1L163.6,70.1z"/>
						</g>
					</g>
					<g>
						<g>
							<path class="st46" d="M153.9,70.1c2.1,0,4.1,0,6.2,0c2.6,0,5.1-2.3,5-5c-0.1-2.7-2.2-5-5-5c-2.1,0-4.1,0-6.2,0
								c-2.6,0-5.1,2.3-5,5C149.1,67.9,151.1,70.1,153.9,70.1L153.9,70.1z"/>
						</g>
					</g>
					<g>
						<g>
							<path class="st46" d="M173.5,72.2c1.9,0,3.7,0,5.6,0c2.6,0,5.1-2.3,5-5c-0.1-2.7-2.2-5-5-5c-1.9,0-3.7,0-5.6,0
								c-2.6,0-5.1,2.3-5,5C168.7,69.9,170.7,72.2,173.5,72.2L173.5,72.2z"/>
						</g>
					</g>
					<g>
						<g>
							<path class="st46" d="M147.7,72.2c7.5,0,14.9,0,22.4,0c6.4,0,6.4-10,0-10c-7.5,0-14.9,0-22.4,0
								C141.3,62.2,141.3,72.2,147.7,72.2L147.7,72.2z"/>
						</g>
					</g>
				</g>
				<path class="st47" d="M164.4,37.9c0-1.3-1.2-2.4-2.6-2.4h-13.3c-1.4,0-2.6,1.1-2.6,2.4V50c0,1.3,1.2,2.4,2.6,2.4h13.3
					c1.4,0,2.6-1.1,2.6-2.4V37.9z"/>
				<path class="st47" d="M179.5,37.5c0-0.9-0.8-1.6-1.8-1.6h-9.2c-1,0-1.8,0.7-1.8,1.6v8.4c0,0.9,0.8,1.6,1.8,1.6h9.2
					c1,0,1.8-0.7,1.8-1.6V37.5z"/>
			</g>
			<g>
				<path class="st34" d="M157.9,50.3c-0.2-0.4-0.5-0.8-0.7-1.3c0,0,0,0,0,0v-0.6h-0.3c0,0,0,0,0,0c-0.3-0.7-0.6-1.4-0.7-2.2
					c0.2-0.1,0.2-0.3-0.1-0.3c-0.1-0.6-0.7-6.3-0.6-6.3h0.1c0.1-0.1,0.2-0.6,0.2-0.6c0-0.1,0-0.1-0.1-0.1c0,0,0,0,0-0.1v-0.1
					c0-0.1-0.1-0.1-0.2-0.1h-0.1c0,0,0,0,0-0.1c0-0.1-0.1-0.1-0.1-0.1h0v-0.7c0,0,0,0,0-0.1v-0.7h-0.1v0.7c0,0,0,0,0,0.1v0.7h-0.1
					c-0.1,0-0.1,0-0.1,0.1c0,0,0,0,0,0.1h-0.1c-0.1,0-0.2,0.1-0.2,0.1v0.1c0,0,0,0,0,0.1c-0.1,0-0.1,0.1-0.1,0.1
					c0,0,0.1,0.5,0.2,0.6c0,0,0.1,0,0.1,0c0,2.1-0.2,4.2-0.6,6.3c-0.3,0-0.3,0.2-0.1,0.3c0,0.7-0.4,1.6-0.7,2.2c0,0,0,0,0,0h-0.3V49
					c0,0,0,0,0,0c-0.3,0.6-0.6,1.1-0.8,1.5v0.8h0.9c0-1,0.9-1.7,1.9-1.7c0,0,0,0,0,0h0c1,0,1.9,0.8,1.9,1.7h0.8V50.3z M154.5,48.4
					C154.5,48.4,154.5,48.3,154.5,48.4c0.1-0.2,0.3-1.2,0.3-1.5h0.8c0,0,0.2,1.2,0.3,1.5c0,0,0,0,0,0H154.5z"/>
			</g>
			<g>
				<path class="st34" d="M171.1,43.3c0,0-0.1,0.3,0,0.4c0,0,0.1,0.1,0.4,0l0.7,1.1c0,0,0.2-0.1,0.2-0.3l-0.1-1.3l1.3-1.3l1.7,2.6
					c0,0,0.1,0.1,0.2,0c0,0,0.2-0.1,0.1-0.4l-0.7-3.5l1.2-1.2c0,0,0.5-0.6,0.2-1c0,0-0.4-0.3-1.1,0.3l-1.1,1.1l-3.6-0.7
					c0,0-0.3,0-0.3,0.3l2.6,1.7l-1.3,1.3l-1.4,0c0,0-0.2,0.1-0.2,0.2L171.1,43.3z"/>
			</g>
			<g>
				<path class="st39" d="M188.2,49c0-1.8-1.5-3.3-3.3-3.3h-18c-1.8,0-3.3,1.5-3.3,3.3v0c0,1.8,1.5,3.3,3.3,3.3h18
					C186.8,52.3,188.2,50.8,188.2,49L188.2,49z"/>
				<g>
					<path class="st40" d="M185,52.5h-18c-1.9,0-3.4-1.5-3.4-3.4v0c0-1.9,1.5-3.4,3.4-3.4h18c1.9,0,3.4,1.5,3.4,3.4v0
						C188.4,50.9,186.9,52.5,185,52.5z M167,45.9c-1.7,0-3.1,1.4-3.1,3.1v0c0,1.7,1.4,3.1,3.1,3.1h18c1.7,0,3.1-1.4,3.1-3.1v0
						c0-1.7-1.4-3.1-3.1-3.1H167z"/>
				</g>
				<path class="st37" d="M186,49.9l-0.9-0.9c0.3-0.4,0.2-0.9-0.1-1.3c-0.4-0.4-1.1-0.4-1.5,0c-0.4,0.4-0.4,1.1,0,1.5
					c0.3,0.3,0.9,0.4,1.3,0.2l0.9,0.9c0.1,0.1,0.2,0.1,0.3,0C186.1,50.1,186.1,50,186,49.9z M183.8,48.9c-0.2-0.2-0.2-0.6,0-0.9
					c0.2-0.2,0.6-0.2,0.9,0c0.2,0.2,0.2,0.6,0,0.9C184.5,49.2,184.1,49.2,183.8,48.9z"/>
				<g>
					<g>
						<path class="st37" d="M182.2,46.2c0,0,0,0.4,0.1,0.9c0,0.3,0,0.6,0,0.9c0,0.2,0,0.3,0,0.5c0,0.2,0,0.4,0,0.5
							c0,0.2,0,0.4,0,0.5c0,0.2,0,0.3,0,0.5c0,0.3,0,0.6,0,0.9c0,0.5-0.1,0.9-0.1,0.9s0-0.4-0.1-0.9c0-0.3,0-0.6,0-0.9
							c0-0.2,0-0.3,0-0.5c0-0.2,0-0.4,0-0.5c0-0.2,0-0.4,0-0.5c0-0.2,0-0.3,0-0.5c0-0.3,0-0.6,0-0.9
							C182.1,46.6,182.2,46.2,182.2,46.2z"/>
					</g>
				</g>
				<g>
					<path class="st45" d="M166.4,49.1c-0.1-0.1-0.2-0.1-0.2-0.1c-0.1-0.1-0.1-0.1-0.1-0.2c0-0.1,0-0.2,0.1-0.2
						c0.1-0.1,0.1-0.1,0.2-0.1c0.1,0,0.1,0,0.2,0.1c0.1,0.1,0.1,0.1,0.1,0.2v0l-0.1,0c0-0.1,0-0.1-0.1-0.1c0,0-0.1,0-0.1,0
						c-0.1,0-0.1,0-0.1,0.1c0,0-0.1,0.1-0.1,0.1c0,0.1,0,0.1,0.1,0.1c0,0,0.1,0.1,0.1,0.1c0.1,0.1,0.2,0.1,0.2,0.2
						c0.1,0.1,0.1,0.2,0.1,0.3c0,0.1,0,0.2-0.1,0.3c-0.1,0.1-0.2,0.1-0.3,0.1s-0.2,0-0.3-0.1c-0.1-0.1-0.1-0.1-0.1-0.2l0.1,0
						c0,0.1,0,0.1,0.1,0.2c0,0,0.1,0.1,0.2,0.1c0.1,0,0.1,0,0.2-0.1c0,0,0.1-0.1,0.1-0.2c0-0.1,0-0.1-0.1-0.2
						C166.6,49.2,166.5,49.2,166.4,49.1z"/>
					<path class="st45" d="M167.5,49.5c0.1,0.1,0.2,0.1,0.4,0.1c0.2,0,0.3-0.1,0.4-0.2c0,0,0,0,0,0l0.1,0c0,0,0,0.1-0.1,0.1
						c-0.1,0.1-0.3,0.2-0.5,0.2c-0.2,0-0.4-0.1-0.5-0.2c-0.1-0.1-0.2-0.3-0.2-0.5c0-0.2,0.1-0.4,0.2-0.5c0.1-0.1,0.3-0.2,0.5-0.2
						c0.2,0,0.3,0,0.4,0.1c0,0,0,0,0.1,0.1c0,0,0,0,0,0l-0.1,0.1L167.5,49.5z M168.2,48.7c-0.1-0.1-0.2-0.1-0.3-0.1
						c-0.2,0-0.3,0.1-0.4,0.2c-0.1,0.1-0.2,0.2-0.2,0.4c0,0.1,0,0.2,0.1,0.3L168.2,48.7z"/>
					<path class="st45" d="M170.2,49.8H170v-0.2c0,0,0,0.1-0.1,0.1c-0.1,0.1-0.3,0.2-0.5,0.2c-0.2,0-0.4-0.1-0.5-0.2
						c-0.1-0.1-0.2-0.3-0.2-0.5c0-0.2,0.1-0.4,0.2-0.5c0.1-0.1,0.3-0.2,0.5-0.2c0.2,0,0.4,0.1,0.5,0.2c0,0,0,0.1,0.1,0.1v-0.2h0.1
						V49.8z M170,49.2V49c0-0.1-0.1-0.2-0.2-0.3c-0.1-0.1-0.2-0.2-0.4-0.2c-0.2,0-0.3,0.1-0.4,0.2c-0.1,0.1-0.2,0.2-0.2,0.4
						c0,0.2,0.1,0.3,0.2,0.4c0.1,0.1,0.2,0.2,0.4,0.2c0.2,0,0.3-0.1,0.4-0.2C170,49.4,170,49.3,170,49.2z"/>
					<path class="st45" d="M170.7,48.5h0.1v0.2c0,0,0.1-0.1,0.1-0.1c0.1-0.1,0.2-0.2,0.3-0.2v0.1c-0.1,0-0.1,0-0.2,0.1
						c-0.1,0.1-0.2,0.2-0.2,0.4v0.6h-0.1V48.5z"/>
					<path class="st45" d="M172.6,49.5l0.1,0c0,0,0,0.1-0.1,0.1c-0.1,0.1-0.3,0.2-0.5,0.2c-0.2,0-0.4-0.1-0.5-0.2
						c-0.1-0.1-0.2-0.3-0.2-0.5c0-0.2,0.1-0.4,0.2-0.5c0.1-0.1,0.3-0.2,0.5-0.2c0.2,0,0.4,0.1,0.5,0.2c0,0,0.1,0.1,0.1,0.1l-0.1,0
						c0,0,0,0,0,0c-0.1-0.1-0.2-0.2-0.4-0.2c-0.2,0-0.3,0.1-0.4,0.2c-0.1,0.1-0.2,0.2-0.2,0.4c0,0.2,0.1,0.3,0.2,0.4
						c0.1,0.1,0.2,0.2,0.4,0.2C172.3,49.7,172.4,49.6,172.6,49.5C172.6,49.5,172.6,49.5,172.6,49.5z"/>
					<path class="st45" d="M173.1,47.8h0.1v0.8c0.1-0.1,0.2-0.1,0.3-0.1c0.1,0,0.3,0,0.4,0.1c0.1,0.1,0.1,0.2,0.1,0.3v0.8H174V49
						c0-0.1,0-0.2-0.1-0.3c-0.1-0.1-0.2-0.1-0.3-0.1c-0.1,0-0.2,0-0.3,0.1c0,0-0.1,0.1-0.1,0.1v1h-0.1V47.8z"/>
				</g>
			</g>
		</g>
	</g>
	<g>
		<g>
			<g>
				<g>
					<path class="st35" d="M130.9,36.3c0,0-2.5-0.4-2.5-1.3c-0.1-2.2,2.9-7.2,2.9-7.2l3,1.5L130.9,36.3z"/>
					<path class="st48" d="M135.9,26.9c0,0,1.3-0.8,0.9-1.5c-0.5-0.8,0.3-1.5-1.3-1.6c-1.5-0.1-1.7,0.2-2.6,0.3
						c-0.9,0.1-2.4,0.2-3.1,1.5c-0.7,1.3,0.3,4.8,0.3,4.8L135.9,26.9z"/>
					<path class="st35" d="M135.8,25.5c0.2,0.4,0.4,0.9,0.5,1.3c0.2,0.8-0.3,1.3-0.2,2c0,0.4,0.4,0.8,0.3,1.2
						c-0.1,0.5-0.7,0.3-0.7,0.4c0,0-0.7,1.8-0.7,1.8c-0.2,0.4-0.7,0.6-1.1,0.4c0,0-1.9-0.9-1.9-0.9c-1.1-0.5-0.7-1.9-0.8-2.9
						c-0.1-0.8-1.1-1.5,0-2.1c0.1-0.1,0.8-0.1,0.9,0c0.2,0.2,0.3,0.9,0.4,1.3c0,0,0.1,0,0.1,0C132.8,27.4,133.6,24.9,135.8,25.5z"/>
					<path class="st49" d="M132.8,32.2c0,0-1.7-0.8-2-1.8c0,0,1.2,2.4,1.9,2.3L132.8,32.2z"/>
					<path class="st48" d="M135.8,30.8c0,0-0.1,1.6-0.5,1.9c-0.5,0.4-0.7,0.6-1.3,0.4c-0.6-0.2-3-1-2.7-2.5c0-0.2,0-0.5,0.1-0.7
						c0.1-0.2,0.2-0.2,0.3-0.3c0.2-0.3,0.2-0.6,0.3-0.9c0.1-0.3,0-1.9,0.4-2.1c0.3-0.1,0.5,0.3,0.3,1.1c-0.2,0.8-0.4,1.9,0.2,2.1
						C133.6,30.1,135.3,29.8,135.8,30.8z"/>
					<path class="st48" d="M136.3,26.6c0,0-2.1,1.1-3.1,0.5c-1-0.5-0.5-1.7-0.5-1.7S137.1,24.1,136.3,26.6z"/>
				</g>
				<g>
					
						<rect x="131.1" y="80.1" transform="matrix(0.9999 1.419243e-02 -1.419243e-02 0.9999 1.1835 -1.8705)" class="st35" width="2.7" height="4.8"/>
					<g>
						
							<rect x="127.3" y="79.3" transform="matrix(0.9901 0.1407 -0.1407 0.9901 12.7683 -17.2892)" class="st35" width="2.7" height="4.8"/>
						<path class="st50" d="M137,50.9c-0.6,4.3-1.3,8.7-1.9,13.1c-0.5,4-1.9,7.7-3,11.5c-0.1,0.4-1.9,6.7-2.1,6.7l-3.1-0.4
							c1.1-6.2,2.5-12.3,2.6-18.6c0-1.6,0.3-3.2,0.1-4.8c-0.1-1.5-1.1-2.7-1.4-4.2c-0.2-1.2,0-2.2,0.3-3.4L137,50.9z"/>
						<path class="st31" d="M126.6,84l0.3-2l2.9,0.4l0.7-0.8l3.6,1.9c0.3,0.2,0.5,0.6,0.5,1.1l-0.1,0.4L126.6,84z"/>
					</g>
					<path class="st38" d="M136.8,50.9c-0.1,4.4-0.2,8.8-0.2,13.2c0,4-0.9,7.9-1.5,11.8c-0.1,0.5-1.1,6.9-1.2,6.9l-3.1,0
						c0.4-6.3,1-12.5,0.3-18.8c-0.2-1.6-0.1-3.2-0.5-4.7c-0.3-1.5-1.4-2.5-1.9-4c-0.4-1.2-0.3-2.2-0.1-3.4L136.8,50.9z"/>
					<path class="st51" d="M140.4,43l0-0.1c0,0,0.8-0.4,0.8-0.4c0.1,0-1.2-1.5-1.7-1.4c-0.5,0-1.1,0.6-1.5,0.9h-1.2l-1,0.5v1.5h2.1
						c0,0,1.2,0.7,1.6,0.6c0.2,0,0.6-0.4,0.6-0.4l0.4,0.1c0.2,0,0.4-0.1,0.5-0.2l0.1-0.2l0.4,0c0.2,0,0.3-0.1,0.3-0.3l0-0.3
						c0,0,0.3-0.1,0.4-0.2c0.1-0.1,0.1-0.5,0.1-0.5l-0.6,0.2l-2.3,1.3l-0.5-0.2L140.4,43z"/>
					<polygon class="st35" points="137.2,43.2 137.4,41.9 136.8,41.9 135.8,42.4 135.8,43.9 137.2,43.9 					"/>
					<path class="st37" d="M127.9,33.6c-0.5-0.1-1.1,1.3-1.2,1.7c-0.2,1.1,0.1,2.1,0.2,3.2c0.1,1.7,0.3,3.4,0.4,5.1
						c0.2,3.3,0.5,6.7,0.8,10c0.1,0.7,5.3-0.8,8.8-1.2c0.3-0.1,0-3.8-0.1-4.2c-0.1-4.3-0.1-9-3.2-12.4c-0.2-0.2-2-1.9-1.8-2.2
						c-0.4,0.6-1.1,0.8-1.8,0.6C130.2,34.2,128,33.6,127.9,33.6z"/>
					<path class="st38" d="M144.4,41.4l-5.1,2.7c-0.1,0.1-0.3,0-0.3-0.1l-0.1-0.1c-0.1-0.1,0-0.3,0.1-0.3l5.1-2.7
						c0.1-0.1,0.3,0,0.3,0.1l0.1,0.1C144.6,41.2,144.6,41.4,144.4,41.4z"/>
					<path class="st31" d="M130.6,85.1l0-2l3,0l0.6-0.9l3.8,1.5c0.4,0.2,0.6,0.6,0.6,1l0,0.4H130.6z"/>
				</g>
			</g>
			<path class="st40" d="M131.9,33.6c0,0-2-0.5-2.7-1.8c0,0-1.4,1.5-1.5,1.9c-0.1,0.3,4.6,2.5,4.6,2.5L131.9,33.6z"/>
			<polygon class="st40" points="131.9,33.6 133.5,35.3 131.9,34.3 			"/>
			<path class="st35" d="M131.9,40.7c-0.3,0.1,1.3,2.3,1.7,2.4c0.8,0.3,2.1,0.1,2.9,0.2c1.6,0.1,3.3,0.2,4.9,0.3l0.2-0.5
				c0.2-0.4,0.6-0.6,1-0.6c0.5,0,1.1-0.4,1.6-0.2c0.5,0.2,0.8,0.5,0.4,0.9c0.4,0.6-0.3,1-0.3,1.6c0,0,0,0,0,0c0,0.2-0.2,0.4-0.3,0.5
				c-1.1,0.6-2.1,0.2-3.3,0.3c-1,0.1-2,0.3-3,0.4c-1.3,0.2-2.6,0.4-3.9,0.6c-1.5,0.2-1.9-0.6-2.7-1.8c-0.1-0.2-1.8-2.9-2-2.8
				C129.1,42,131.9,40.7,131.9,40.7z"/>
			<path class="st40" d="M129,42.3l3.3-1.5l-1.6-4.7c-0.5-1.1-1.8-1.6-2.9-1.2h0c-1.1,0.5-1.6,1.8-1.2,2.9L129,42.3z"/>
		</g>
		<g>
			<g>
				<path class="st52" d="M185.4,34.3l-4.1-7.2c0,0,0.1-1.2,0.1-1.3c0.1-1.6-2.7-0.9-3.6-0.5c0.2,0.1,0.8,0.4,0.9,0.6
					c0,0,0.7,1.6,0.7,1.6s0.7,0.9,0.7,0.9c0.8,2.3,1,5.8,2.8,7.6c0.6,0.6,6.6,2.6,6.6,2.6c0,0,0.8-3,0.8-3L185.4,34.3z"/>
				<path class="st40" d="M191.2,34.6l-2.8,0.3l-0.9,3.4c0,0,2.6,1.5,3,1.6C190.8,40.1,193.7,35.3,191.2,34.6z"/>
			</g>
			<g>
				<g>
					<path class="st53" d="M197.3,24.5c0,0,3.4-0.8,2.7,2.7c-0.7,3.5-4.4,9.4-4.8,9.5c-0.5,0.1-0.5,0.1-0.5,0.1
						S195.7,26.1,197.3,24.5z"/>
					
						<rect x="188.9" y="80" transform="matrix(-0.9999 1.422304e-02 -1.422304e-02 -0.9999 381.5892 162.0843)" class="st52" width="2.7" height="4.8"/>
					<g>
						
							<rect x="194.1" y="79.2" transform="matrix(-0.9901 0.1407 -0.1407 -0.9901 400.3089 134.9249)" class="st52" width="2.7" height="4.8"/>
						<path class="st50" d="M187,50.9c0.6,4.3,1.3,8.7,1.9,13.1c0.5,4,1.9,7.7,3,11.5c0.1,0.4,1.9,6.7,2.1,6.7l3.1-0.4
							c-1.1-6.2-2.5-12.3-2.6-18.6c0-1.6-0.3-3.2-0.1-4.8c0.1-1.5,1.1-2.7,1.4-4.2c0.2-1.2,0-2.2-0.3-3.4L187,50.9z"/>
						<path class="st37" d="M197.4,84l-0.3-2l-2.9,0.4l-0.7-0.8l-3.6,1.9c-0.3,0.2-0.5,0.6-0.5,1.1l0.1,0.4L197.4,84z"/>
					</g>
					<path class="st35" d="M195.6,22.2c1.6,0.5,2.5,2.2,2.2,3.8c-0.3,1.3-1.1,2.9-3.1,5c0,0-3.3-3.1-3.3-3.1
						c-0.2-0.2-0.4-1.2-0.5-1.5c-0.2-0.8-0.7-1.5-0.8-2.3c-0.2-1.3,1.7-2.1,2.8-2.3C193.8,21.7,194.7,21.9,195.6,22.2z"/>
					<path class="st52" d="M192.2,35c0,0,2.4,0.2,2.7-0.6c0.6-2.1-1-7.4-1-7.4l-3.2,0.7L192.2,35z"/>
					<path class="st38" d="M187.3,51.5L183.5,69l5.5,13c0,0,2.7-0.2,2.7-0.2c2-0.2-2.3-11.6-3-12.5c-0.4-0.5,2.4-5.9,2.7-6.5
						c0.6-1.6,1.3-3.2,1.9-4.8l1-0.8c0.8-0.6,1.3-1.6,1.3-2.7v-4L187.3,51.5z"/>
					<path class="st52" d="M190.2,23.8c-0.3,0.3-0.6,0.7-0.8,1.1c-0.4,0.7,0,1.3-0.3,2c-0.1,0.4-0.6,0.6-0.6,1
						c-0.1,0.5,0.5,0.4,0.6,0.5c0,0,0.3,1.9,0.3,1.9c0.1,0.4,0.5,0.7,0.9,0.6l1.9-0.4c0.9-0.2,1.5-1.1,1.4-2l-0.1-0.5
						c0,0,0.2,0.3,0.6-0.7c0.2-0.4,0.3-1,0-1.3c-0.1-0.1-0.7-0.3-0.8-0.2c-0.2,0.1-0.5,0.8-0.6,1.1c0,0-0.1,0-0.1,0
						C192.6,26.3,192.4,23.7,190.2,23.8z"/>
					<path class="st37" d="M196.1,33.6c0.5-0.1,1.1,1.3,1.2,1.7c0.2,1.1-0.1,2.1-0.2,3.2c-0.1,1.7-0.3,3.4-0.4,5.1
						c-0.2,3.3-0.5,6.7-0.8,10c-0.1,0.7-5.3-0.8-8.8-1.2c-0.3-0.1,0-3.8,0.1-4.2c0.1-4.3,0.1-9,3.2-12.4c0.2-0.2,2-1.9,1.8-2.2
						c0.4,0.6,1.1,0.8,1.8,0.6C193.9,34.2,196.1,33.6,196.1,33.6z"/>
					<path class="st37" d="M192,85l0-2l-3,0l-0.6-0.9l-3.8,1.5c-0.4,0.2-0.6,0.6-0.6,1l0,0.4H192z"/>
					<path class="st52" d="M192.6,38.9l-2.1,4.1l-2.9-3.2c-0.2,0.1-0.5,0.1-0.6-0.2c0,0,0,0,0-0.1c0,0,0,0,0,0c0,0-0.1,0-0.1-0.1
						c0,0-0.1-0.1-0.1-0.1c0,0-0.1,0-0.1-0.1c-0.2-0.1-0.4-0.2-0.5-0.4c0-0.1-0.1-0.2-0.1-0.3h-1.2l0.4,1.9c1,1.6,2,3.4,3.1,5
						c1.6,2.3,2.9,2.3,4.4-0.2c1.1-1.8,1.8-3.6,2.7-5.5C195.4,39.9,192.6,38.9,192.6,38.9z"/>
					<path class="st53" d="M190.6,23c-0.1,0-0.2-0.1-0.3,0c-0.6,0.1-1,0.9-0.6,1.4c0.6,0.7,0.6,1.6,1.1,2.4c0.6,1,1.7,1.2,2.8,1.4
						c1.7,0.4,3.1-0.1,3.9-1.7c-1.8-0.4-3.9-0.8-5.4-2C191.7,24.1,191.2,23.2,190.6,23z"/>
					<path class="st54" d="M191.4,30.8c0,0,1.8-0.3,2.3-1.2c0,0-1.7,2-2.3,1.7L191.4,30.8z"/>
				</g>
				<path class="st40" d="M192.1,33.6c0,0,2-0.5,2.7-1.8c0,0,1.4,1.5,1.5,1.9c0.1,0.3-4.6,2.5-4.6,2.5L192.1,33.6z"/>
				<polygon class="st40" points="192.1,33.6 190.6,35.3 192.1,34.3 				"/>
				<path class="st40" d="M195,42.3l-3.3-1.6l1.7-4.7c0.5-1.1,1.8-1.6,2.9-1.1h0c1.1,0.5,1.6,1.8,1.1,2.9L195,42.3z"/>
			</g>
			<path class="st52" d="M187.9,41.5c-0.1-0.3,0-0.5,0.2-0.6c-1.4-1.6-2.6-7.7-2.8-7.6c-0.5,0.1-0.8,0.6-0.7,1.1l0.4,1.4l-0.3,0.3
				c-0.2,0.3-0.3,0.6-0.2,1l0.2,0.7l0,2.1c0,0.6,0.3,1.1,0.8,1.6l1.1,0.9c0,0,0.6-0.3,1.2-0.6C188,41.7,188,41.6,187.9,41.5z"/>
		</g>
	</g>
	<g>
		<g>
			<g>
				<g>
					<path class="st55" d="M149.1,66.9c0.4-1.3,1.6-2.2,3-2.2c1.4,0,2.6,0.9,3,2.2h1.5c-0.5-2-2.3-3.6-4.4-3.6c-2.2,0-4,1.6-4.4,3.6
						H149.1z"/>
				</g>
			</g>
			<g>
				<path class="st56" d="M161.7,66.5c0-0.1,0-0.3,0-0.4h-22.1c-0.7,0-1.2,0.5-1.2,1.2v17.1c0,0.7,0.5,1.2,1.2,1.2h24.7
					c0.7,0,1.2-0.5,1.2-1.2V69.7c-0.2,0-0.3,0-0.5,0C163.2,69.8,161.7,68.3,161.7,66.5z"/>
			</g>
			<g>
				<path class="st57" d="M164.3,66.1h-2.5c0,0.1,0,0.3,0,0.4c0,1.8,1.5,3.2,3.2,3.2c0.2,0,0.3,0,0.5,0v-2.4
					C165.4,66.6,164.9,66.1,164.3,66.1z"/>
			</g>
			<g>
				<path class="st57" d="M139.5,66.1h2.5c0,0.1,0,0.3,0,0.4c0,1.8-1.5,3.2-3.2,3.2c-0.2,0-0.3,0-0.5,0v-2.4
					C138.3,66.6,138.9,66.1,139.5,66.1z"/>
			</g>
			<g>
				<path class="st57" d="M139.5,85.6h2.5c0-0.1,0-0.3,0-0.4c0-1.8-1.5-3.2-3.2-3.2c-0.2,0-0.3,0-0.5,0v2.4
					C138.3,85.1,138.9,85.6,139.5,85.6z"/>
			</g>
			<g>
				<path class="st57" d="M164.3,85.6h-2.5c0-0.1,0-0.3,0-0.4c0-1.8,1.5-3.2,3.2-3.2c0.2,0,0.3,0,0.5,0v2.4
					C165.4,85.1,164.9,85.6,164.3,85.6z"/>
			</g>
			<g>
				<g>
					<g>
						<path class="st55" d="M147.4,66.7c0-0.3-0.3-0.6-0.6-0.6H145c-0.3,0-0.6,0.3-0.6,0.6v4.5c0,0.3,0.3,0.6,0.6,0.6h1.7
							c0.3,0,0.6-0.3,0.6-0.6V66.7z"/>
					</g>
					<g>
						<path class="st52" d="M146.6,66.6c0-0.3-0.1-0.5-0.3-0.5h-0.8c-0.2,0-0.3,0.2-0.3,0.5v3.7c0,0.3,0.1,0.5,0.3,0.5h0.8
							c0.2,0,0.3-0.2,0.3-0.5V66.6z"/>
					</g>
				</g>
				<g>
					<g>
						<path class="st55" d="M159.4,66.7c0-0.3-0.3-0.6-0.6-0.6h-1.7c-0.3,0-0.6,0.3-0.6,0.6v4.5c0,0.3,0.3,0.6,0.6,0.6h1.7
							c0.3,0,0.6-0.3,0.6-0.6V66.7z"/>
					</g>
					<g>
						<path class="st52" d="M158.6,66.6c0-0.3-0.1-0.5-0.3-0.5h-0.8c-0.2,0-0.3,0.2-0.3,0.5v3.7c0,0.3,0.1,0.5,0.3,0.5h0.8
							c0.2,0,0.3-0.2,0.3-0.5V66.6z"/>
					</g>
				</g>
			</g>
			<g>
				<g>
					<path class="st58" d="M143.9,76.8c0-0.2,3.9-0.9,3.9-1.1c-0.1-0.2-3.9,0.9-4,0.7c-0.1-0.2,3.1-2.5,3-2.7
						c-0.1-0.2-3.1,2.5-3.3,2.3c-0.2-0.1,1.7-3.6,1.5-3.7c-0.2-0.1-1.7,3.6-2,3.5c-0.2-0.1,0-4-0.3-4c-0.2,0,0,4-0.3,4
						c-0.2,0.1-1.8-3.6-2-3.5c-0.2,0.1,1.7,3.6,1.5,3.7c-0.2,0.1-3.2-2.5-3.3-2.3c-0.1,0.2,3.1,2.5,3,2.7c-0.1,0.2-3.9-0.9-4-0.7
						c-0.1,0.2,3.9,0.9,3.9,1.1c0,0.2-3.9,0.9-3.9,1.1c0.1,0.2,3.9-0.9,4-0.7c0.1,0.2-3.1,2.5-3,2.7c0.1,0.2,3.1-2.5,3.3-2.3
						c0.2,0.1-1.7,3.6-1.5,3.7c0.2,0.1,1.7-3.6,2-3.5c0.2,0.1,0,4,0.3,4c0.2,0,0-4,0.3-4c0.2-0.1,1.8,3.6,2,3.5
						c0.2-0.1-1.7-3.6-1.5-3.7c0.2-0.1,3.2,2.5,3.3,2.3c0.1-0.2-3.1-2.5-3-2.7c0.1-0.2,3.9,0.9,4,0.7
						C147.8,77.7,143.9,77,143.9,76.8z"/>
				</g>
				<g>
					<circle class="st59" cx="142.8" cy="76.8" r="2.7"/>
				</g>
				<g>
					<path class="st39" d="M141.8,77.6c0,0-0.1,0.2,0,0.2c0,0,0,0,0.2,0l0.3,0.5c0,0,0.1,0,0.1-0.1l0-0.6l0.6-0.6l0.8,1.2
						c0,0,0,0,0.1,0c0,0,0.1-0.1,0-0.2l-0.3-1.6l0.6-0.6c0,0,0.2-0.3,0.1-0.4c0,0-0.2-0.1-0.5,0.2l-0.5,0.5l-1.7-0.3
						c0,0-0.1,0-0.1,0.1l1.2,0.8l-0.6,0.6l-0.6,0c0,0-0.1,0-0.1,0.1L141.8,77.6z"/>
				</g>
			</g>
			<g>
				<g>
					<path class="st55" d="M156.5,77.8c-0.1-0.2-0.3-0.3-0.5-0.3l-10.4,3.2c-0.2,0.1-0.3,0.3-0.3,0.5l0.8,2.7
						c0.1,0.2,0.3,0.3,0.5,0.3L157,81c0.2-0.1,0.3-0.3,0.3-0.5L156.5,77.8z"/>
				</g>
				<g>
					<path class="st39" d="M147.6,82.7c0,0.1,0,0.1,0,0.1c0,0,0,0.1,0,0.1c0,0,0,0.1,0,0.1c0,0,0,0-0.1,0c0,0,0,0-0.1,0
						c0,0,0,0-0.1,0c0,0,0,0-0.1,0c0,0,0,0,0,0c0,0,0,0,0,0c0,0,0,0,0,0c0,0,0,0,0,0c0,0,0,0,0,0c0,0,0,0,0-0.1c0,0,0-0.1,0-0.1
						l-0.4-1.4c-0.1,0-0.1,0.1-0.2,0.1c-0.1,0-0.1,0.1-0.2,0.2c0,0.1-0.1,0.1-0.1,0.2c0,0.1,0,0.2,0,0.3c0,0,0,0.1,0,0.1
						s0,0.1,0.1,0.1c0,0,0,0,0.1,0.1c0,0,0,0,0.1,0c0,0,0,0,0,0c0,0,0,0,0,0c0,0,0,0,0,0.1c0,0,0,0,0,0.1c0,0,0,0,0,0c0,0,0,0,0,0
						c0,0,0,0,0,0c0,0,0,0,0,0c0,0,0,0-0.1,0c0,0-0.1-0.1-0.1-0.1c0,0-0.1-0.1-0.1-0.1c0-0.1-0.1-0.1-0.1-0.2c0-0.1,0-0.2,0-0.3
						c0-0.1,0.1-0.2,0.1-0.3c0.1-0.1,0.1-0.2,0.2-0.2c0.1-0.1,0.2-0.1,0.3-0.2c0,0,0.1,0,0.1,0c0,0,0.1,0,0.1,0c0,0,0.1,0,0.1,0
						c0,0,0.1,0,0.1,0c0,0,0,0,0,0c0,0,0,0,0,0c0,0,0,0,0,0c0,0,0,0,0,0c0,0,0,0,0,0c0,0,0,0,0,0c0,0,0,0,0,0c0,0,0,0,0,0
						c0,0,0,0,0,0c0,0,0,0,0,0c0,0,0,0,0,0c0,0,0,0,0,0c0,0,0,0,0,0c0,0-0.1,0-0.1,0c0,0-0.1,0-0.1,0c0,0-0.1,0-0.1,0L147.6,82.7z"
						/>
					<path class="st39" d="M148.5,82.6C148.4,82.6,148.4,82.7,148.5,82.6c-0.1,0-0.2,0-0.2,0c0,0-0.1,0-0.1-0.1c0,0,0-0.1-0.1-0.1
						c0-0.1,0-0.2,0-0.3c0-0.1,0-0.2,0-0.3l-0.2,0.1l0,0c0,0,0,0.1,0,0.1c0,0,0,0.1,0,0.1c0,0,0,0.1,0,0.1c0,0,0,0.1,0,0.1
						c0,0,0,0,0,0.1c0,0,0,0-0.1,0c0,0,0,0-0.1,0c0,0,0,0,0-0.1c0,0,0-0.1,0-0.1c0,0,0-0.1,0-0.1c0,0,0-0.1,0-0.1c0,0,0-0.1,0-0.1
						c0,0-0.1,0-0.1,0c0,0,0,0-0.1-0.1c0,0,0,0,0,0c0,0,0,0,0,0c0,0,0,0,0,0c0,0,0,0,0,0c0,0,0,0,0,0c0,0,0,0,0.1,0c0,0,0,0,0.1,0
						c0,0,0,0,0,0.1c0,0,0,0,0.1,0c0,0,0,0,0,0c0,0,0,0,0,0c0,0,0,0,0,0l0.1,0c0,0,0,0,0,0c0,0,0,0,0.1,0c0,0,0,0,0,0c0,0,0,0,0,0
						c0,0,0,0,0,0c0,0,0,0,0,0.1c0,0,0,0.1,0,0.1c0,0,0,0.1,0,0.1c0,0,0,0.1,0,0.1c0,0,0,0.1,0,0.1c0,0,0,0,0,0c0,0,0,0,0,0
						c0,0,0,0,0,0c0,0,0,0,0,0c0,0,0,0,0.1,0c0,0,0-0.1,0-0.1c0,0,0-0.1,0-0.1c0,0,0-0.1,0-0.1c0,0,0,0,0-0.1c0,0,0,0,0,0
						c0,0,0,0,0,0c0,0,0,0,0,0c0,0,0,0,0,0c0,0,0,0,0,0c0,0,0,0,0,0c0,0,0,0,0,0c0,0,0,0.1,0,0.1c0,0.1,0,0.1,0,0.1
						c0,0,0,0.1-0.1,0.1C148.6,82.6,148.5,82.6,148.5,82.6z"/>
					<path class="st39" d="M149.3,82.2C149.4,82.2,149.4,82.2,149.3,82.2c0.1-0.1,0.1-0.1,0.1-0.1c0,0,0-0.1,0-0.1c0,0,0-0.1,0-0.1
						c0,0,0,0,0-0.1c0,0,0,0,0,0c0,0,0,0,0,0c0,0,0,0,0,0c0,0,0,0,0,0c0,0,0,0,0,0c0,0,0,0,0,0c0,0,0,0,0,0c0,0,0,0.1,0,0.1
						c0,0.1,0,0.1,0,0.1c0,0,0,0.1-0.1,0.1c0,0-0.1,0.1-0.1,0.1c0,0-0.1,0-0.1,0c0,0-0.1,0-0.1,0c0,0,0,0.1-0.1,0.1
						c0,0-0.1,0.1-0.1,0.1c0,0-0.1,0-0.1,0c0,0-0.1,0-0.1-0.1c0,0-0.1-0.1-0.1-0.1c0,0,0-0.1-0.1-0.1c0-0.1,0-0.2,0-0.3
						c0-0.1,0-0.2,0.1-0.3c0-0.1,0.1-0.1,0.1-0.2c0.1-0.1,0.1-0.1,0.2-0.1c0,0,0.1,0,0.1,0c0,0,0,0,0.1,0.1c0,0,0,0,0,0c0,0,0,0,0,0
						c0,0,0,0,0,0c0,0,0,0,0,0c0,0-0.1,0-0.1,0.1c0,0-0.1,0.1-0.1,0.1c0,0.1,0,0.1,0,0.2c0,0.1,0,0.2,0,0.2c0,0.1,0,0.1,0.1,0.1
						c0,0,0.1,0,0.1,0c0,0,0.1,0,0.1-0.1c0,0,0-0.1,0-0.1l-0.1-0.4c0,0,0,0,0,0c0,0,0,0,0,0c0,0,0,0,0,0c0,0,0,0,0,0c0,0,0,0,0,0
						c0,0,0,0,0,0c0,0,0.1,0,0.1,0c0,0,0.1,0,0.1,0.1l0.1,0.4c0,0,0,0,0,0C149.2,82.2,149.2,82.2,149.3,82.2
						C149.3,82.2,149.3,82.2,149.3,82.2C149.3,82.2,149.3,82.2,149.3,82.2z"/>
					<path class="st39" d="M149.3,81.4C149.3,81.4,149.3,81.4,149.3,81.4C149.3,81.4,149.2,81.3,149.3,81.4c0-0.1,0-0.1,0-0.1
						c0,0,0,0,0,0c0,0,0.1,0,0.1,0c0,0,0.1,0,0.1,0.1l0.2,0.7c0,0,0,0,0,0.1c0,0,0,0,0,0c0,0,0.1,0,0.1-0.1c0,0,0-0.1,0.1-0.1
						c0,0,0-0.1,0-0.2c0-0.1,0-0.1,0-0.2c0,0,0-0.1-0.1-0.1c0,0,0-0.1-0.1-0.1c0,0,0,0,0,0c0,0,0,0,0,0c0,0,0,0,0,0c0,0,0,0,0,0
						c0,0,0,0,0,0c0,0,0,0,0,0c0,0,0,0,0,0c0,0,0,0,0,0c0,0,0.1,0,0.1,0c0,0,0.1,0,0.1,0.1c0,0,0.1,0.1,0.1,0.1c0,0,0.1,0.1,0.1,0.1
						c0,0.1,0,0.2,0,0.2c0,0.1,0,0.2,0,0.2c0,0.1-0.1,0.1-0.1,0.2c0,0.1-0.1,0.1-0.2,0.1c0,0-0.1,0-0.1,0c0,0-0.1,0-0.1,0
						c0,0,0,0-0.1-0.1c0,0,0-0.1,0-0.1L149.3,81.4z"/>
					<path class="st39" d="M150.7,81.1c0,0,0,0.1,0,0.1c0,0.1,0,0.1,0,0.2c0,0.1,0,0.1-0.1,0.2c0,0-0.1,0.1-0.1,0.1c0,0,0,0,0.1,0
						c0,0,0,0,0.1,0c0,0,0,0,0.1,0c0,0,0.1,0,0.1,0c0,0,0.1,0,0.1-0.1c0,0,0.1-0.1,0.1-0.1c0,0,0-0.1,0-0.1c0,0,0-0.1,0-0.1
						c0,0,0-0.1,0-0.1c0,0,0,0,0.1,0c0,0,0,0,0.1,0c0,0,0,0,0,0.1c0,0,0,0.1,0,0.1c0,0,0,0.1,0,0.1c0,0,0,0.1,0,0.1
						c0,0,0,0.1-0.1,0.1c0,0-0.1,0.1-0.1,0.1c0,0-0.1,0.1-0.2,0.1c-0.1,0-0.1,0-0.2,0c-0.1,0-0.1,0-0.2-0.1c-0.1,0-0.1-0.1-0.1-0.1
						c0-0.1-0.1-0.1-0.1-0.2c0-0.1,0-0.2,0-0.2c0-0.1,0-0.1,0-0.2c0-0.1,0-0.1,0.1-0.2c0,0,0.1-0.1,0.1-0.1c0,0,0.1,0,0.1,0
						c0,0,0.1,0,0.1,0C150.6,80.9,150.6,81,150.7,81.1C150.7,81,150.7,81.1,150.7,81.1z M150.4,81.5
						C150.4,81.5,150.4,81.5,150.4,81.5C150.4,81.5,150.4,81.5,150.4,81.5C150.4,81.5,150.4,81.5,150.4,81.5
						c0.1-0.1,0.1-0.1,0.1-0.1c0,0,0-0.1,0-0.1c0,0,0-0.1,0-0.1c0,0,0,0,0-0.1c0,0,0,0,0,0c0,0,0,0,0,0c0,0,0,0,0,0.1
						c0,0,0,0.1,0,0.1c0,0,0,0.1,0,0.1C150.3,81.4,150.4,81.4,150.4,81.5C150.4,81.5,150.4,81.5,150.4,81.5z"/>
					<path class="st39" d="M151.5,81.2C151.5,81.2,151.5,81.2,151.5,81.2C151.5,81.2,151.5,81.1,151.5,81.2
						C151.5,81.1,151.6,81.1,151.5,81.2c0.1-0.1,0.1-0.1,0.1-0.1c0,0,0,0,0,0c0,0,0,0,0,0c0,0,0,0.1,0,0.1c0,0.1,0,0.1,0,0.2
						c0,0,0,0.1-0.1,0.1c0,0-0.1,0.1-0.1,0.1c0,0-0.1,0-0.1,0c0,0-0.1,0-0.1,0c0,0-0.1,0-0.1-0.1c0,0,0-0.1-0.1-0.1l-0.3-1.1
						c0,0,0-0.1,0-0.1c0,0,0-0.1,0-0.1c0,0,0-0.1,0.1-0.1c0,0,0,0,0.1-0.1c0,0,0.1,0,0.1,0c0,0,0.1,0,0.1,0c0,0,0,0,0.1,0.1
						c0,0,0,0.1,0,0.1c0,0,0,0.1,0,0.1c0,0,0,0.1,0,0.1c0,0.1,0,0.1,0,0.2c0,0.1,0,0.1,0,0.2c0,0.1,0,0.1,0,0.2c0,0.1,0,0.1,0,0.2
						c0,0.1,0,0.1,0,0.1c0,0,0,0.1,0,0.1l0,0.1c0,0,0,0.1,0.1,0.1c0,0,0.1,0,0.1,0c0,0,0.1,0,0.1-0.1c0,0,0-0.1,0-0.1
						C151.5,81.4,151.5,81.4,151.5,81.2C151.5,81.3,151.5,81.3,151.5,81.2z M151,81C151,80.9,151,80.9,151,81c0-0.1,0-0.1,0-0.2
						c0,0,0-0.1,0-0.1c0,0,0-0.1,0-0.1c0,0,0-0.1,0-0.1c0,0,0-0.1,0-0.1c0-0.1-0.1-0.1-0.1-0.2c0,0,0,0-0.1,0c0,0,0,0,0,0
						c0,0,0,0,0,0c0,0,0,0,0,0c0,0,0,0,0,0L151,81z"/>
					<path class="st39" d="M153.5,80.6c0,0,0,0.1,0,0.1c0,0.1,0,0.1,0,0.1c0,0,0,0.1-0.1,0.1c0,0-0.1,0.1-0.1,0.1c0,0-0.1,0-0.1,0
						c0,0-0.1,0-0.1,0c0,0,0,0-0.1-0.1c0,0,0-0.1,0-0.1l-0.2-0.5c0,0,0,0,0-0.1c0,0,0,0,0,0c0,0,0,0,0,0c0,0,0,0,0,0
						c0,0,0,0-0.1,0.1c0,0,0,0.1,0,0.1c0,0,0,0.1,0,0.1c0,0.1,0,0.1,0,0.2l0.1,0.4c0,0,0,0,0,0c0,0,0,0,0,0c0,0,0,0,0,0c0,0,0,0,0,0
						c0,0,0,0,0,0c0,0,0,0,0,0c0,0,0,0,0,0c0,0,0,0,0-0.1l-0.2-0.6c0,0,0,0,0-0.1c0,0,0,0,0,0c0,0,0,0,0,0c0,0,0,0,0,0
						c0,0,0,0,0,0.1c0,0,0,0.1,0,0.1c0,0,0,0.1,0,0.1c0,0.1,0,0.1,0,0.2l0.1,0.4c0,0,0,0,0,0c0,0,0,0,0,0c0,0,0,0,0,0c0,0,0,0,0,0
						c0,0,0,0,0,0c0,0,0,0,0,0c0,0,0,0,0,0c0,0,0,0,0-0.1l-0.2-0.8c0,0,0,0,0,0c0,0,0,0,0,0c0,0,0,0,0,0c0,0,0,0,0,0
						c0,0,0.1,0,0.1,0c0,0,0,0,0.1,0.1l0,0.1c0,0,0-0.1,0-0.1c0,0,0-0.1,0-0.1c0,0,0-0.1,0.1-0.1c0,0,0,0,0.1,0c0,0,0.1,0,0.1,0
						c0,0,0.1,0,0.1,0c0,0,0,0,0.1,0.1c0,0,0,0.1,0,0.1c0,0,0-0.1,0-0.1c0,0,0-0.1,0-0.1c0,0,0-0.1,0.1-0.1c0,0,0,0,0.1,0
						c0,0,0.1,0,0.1,0c0,0,0.1,0,0.1,0c0,0,0,0,0.1,0.1c0,0,0,0.1,0,0.1l0.2,0.5c0,0,0,0,0,0c0,0,0,0,0,0c0,0,0,0,0,0c0,0,0,0,0,0
						c0,0,0,0,0.1,0c0,0,0-0.1,0-0.1c0,0,0-0.1,0-0.1c0,0,0-0.1,0-0.1c0,0,0,0,0-0.1c0,0,0,0,0,0C153.4,80.5,153.4,80.5,153.5,80.6
						C153.5,80.6,153.5,80.6,153.5,80.6C153.5,80.6,153.5,80.6,153.5,80.6C153.5,80.6,153.5,80.6,153.5,80.6
						C153.5,80.6,153.5,80.6,153.5,80.6C153.5,80.6,153.5,80.6,153.5,80.6z"/>
					<path class="st39" d="M154.3,80.3C154.3,80.3,154.3,80.3,154.3,80.3C154.3,80.3,154.3,80.3,154.3,80.3
						C154.3,80.3,154.3,80.3,154.3,80.3c0.1-0.1,0.1-0.1,0.1-0.1c0,0,0,0,0,0c0,0,0,0,0,0.1c0,0,0,0.1,0,0.1c0,0,0,0.1,0,0.1
						c0,0,0,0.1-0.1,0.1c0,0-0.1,0-0.1,0.1c0,0,0,0-0.1,0c0,0,0,0-0.1,0c0,0.1,0,0.1-0.1,0.2c0,0-0.1,0.1-0.2,0.1
						c-0.1,0-0.1,0-0.2,0c-0.1,0-0.1,0-0.1-0.1c0,0-0.1-0.1-0.1-0.1c0-0.1-0.1-0.1-0.1-0.2c0-0.1,0-0.2,0-0.3c0-0.1,0-0.1,0-0.2
						c0-0.1,0-0.1,0-0.1c0,0,0-0.1,0-0.1c0,0,0,0,0.1,0c0,0,0,0,0,0c0,0,0,0,0,0.1c0,0,0,0,0,0.1c0,0,0,0,0,0.1c0,0,0,0.1,0,0.1
						c0,0,0,0.1,0,0.1c0,0,0,0.1,0,0.2c0,0.1,0,0.1,0.1,0.1c0,0,0,0.1,0.1,0.1c0,0,0,0,0.1,0c0,0,0,0,0.1,0c0,0,0.1,0,0.1-0.1
						c0,0,0-0.1,0-0.1c-0.1,0-0.1-0.1-0.2-0.1c-0.1-0.1-0.1-0.1-0.1-0.2c0,0,0-0.1,0-0.1c0,0,0-0.1,0-0.1c0,0,0-0.1,0-0.1
						c0,0,0,0,0.1-0.1c0,0,0.1,0,0.1,0c0,0,0.1,0,0.1,0.1c0,0,0.1,0.1,0.1,0.1c0,0,0,0.1,0.1,0.2c0,0,0,0.1,0,0.1c0,0,0,0.1,0,0.1
						c0,0,0,0,0,0c0,0,0,0,0,0c0,0,0,0,0.1,0c0,0,0,0,0-0.1C154.3,80.4,154.3,80.4,154.3,80.3C154.3,80.4,154.3,80.3,154.3,80.3z
						 M153.7,80.2c0,0.1,0,0.1,0.1,0.1c0,0,0.1,0.1,0.1,0.1c0,0,0-0.1,0-0.1c0,0,0-0.1,0-0.1C153.8,80.2,153.8,80.2,153.7,80.2
						c0.1-0.1,0.1-0.1,0-0.1c0,0,0,0,0,0C153.7,80.1,153.7,80.2,153.7,80.2z"/>
					<path class="st39" d="M155,80.6C154.9,80.6,154.9,80.6,155,80.6c-0.1,0-0.2,0-0.2,0c0,0-0.1,0-0.1-0.1c0,0,0-0.1-0.1-0.1
						c0-0.1,0-0.2,0-0.3c0-0.1,0-0.2,0-0.3l-0.2,0.1l0,0c0,0,0,0.1,0,0.1c0,0,0,0.1,0,0.1c0,0,0,0.1,0,0.1c0,0,0,0.1,0,0.1
						c0,0,0,0,0,0.1c0,0,0,0-0.1,0c0,0,0,0-0.1,0c0,0,0,0,0-0.1c0,0,0-0.1,0-0.1c0,0,0-0.1,0-0.1c0,0,0-0.1,0-0.1c0,0,0-0.1,0-0.1
						c0,0-0.1,0-0.1,0c0,0,0,0-0.1-0.1c0,0,0,0,0,0c0,0,0,0,0,0c0,0,0,0,0,0c0,0,0,0,0,0c0,0,0,0,0,0c0,0,0,0,0.1,0c0,0,0,0,0.1,0
						c0,0,0,0,0,0.1c0,0,0,0,0.1,0c0,0,0,0,0,0c0,0,0,0,0,0c0,0,0,0,0,0l0.1,0c0,0,0,0,0,0c0,0,0,0,0.1,0c0,0,0,0,0,0c0,0,0,0,0,0
						c0,0,0,0,0,0c0,0,0,0,0,0.1c0,0,0,0.1,0,0.1c0,0,0,0.1,0,0.1c0,0,0,0.1,0,0.1c0,0,0,0.1,0,0.1c0,0,0,0,0,0c0,0,0,0,0,0
						c0,0,0,0,0,0c0,0,0,0,0,0c0,0,0,0,0.1,0c0,0,0-0.1,0-0.1c0,0,0-0.1,0-0.1c0,0,0-0.1,0-0.1c0,0,0,0,0-0.1c0,0,0,0,0,0
						c0,0,0,0,0,0c0,0,0,0,0,0c0,0,0,0,0,0c0,0,0,0,0,0c0,0,0,0,0,0c0,0,0,0,0,0c0,0,0,0.1,0,0.1c0,0.1,0,0.1,0,0.1
						c0,0,0,0.1-0.1,0.1C155.1,80.6,155,80.6,155,80.6z"/>
					<path class="st39" d="M155.5,79.6c0,0,0,0.1,0,0.1c0,0.1,0,0.1,0,0.2c0,0.1,0,0.1-0.1,0.2c0,0-0.1,0.1-0.1,0.1c0,0,0,0,0.1,0
						c0,0,0,0,0.1,0c0,0,0,0,0.1,0c0,0,0.1,0,0.1,0c0,0,0.1,0,0.1-0.1c0,0,0.1-0.1,0.1-0.1c0,0,0-0.1,0-0.1c0,0,0-0.1,0-0.1
						c0,0,0-0.1,0-0.1c0,0,0,0,0.1,0c0,0,0,0,0.1,0c0,0,0,0,0,0.1c0,0,0,0.1,0,0.1c0,0,0,0.1,0,0.1c0,0,0,0.1,0,0.1
						c0,0,0,0.1-0.1,0.1c0,0-0.1,0.1-0.1,0.1c0,0-0.1,0.1-0.2,0.1c-0.1,0-0.1,0-0.2,0c-0.1,0-0.1,0-0.2-0.1c-0.1,0-0.1-0.1-0.1-0.1
						c0-0.1-0.1-0.1-0.1-0.2c0-0.1,0-0.2,0-0.2c0-0.1,0-0.1,0-0.2c0-0.1,0-0.1,0.1-0.2c0,0,0.1-0.1,0.1-0.1c0,0,0.1,0,0.1,0
						c0,0,0.1,0,0.1,0C155.4,79.4,155.4,79.5,155.5,79.6C155.5,79.5,155.5,79.6,155.5,79.6z M155.2,80C155.2,80,155.2,80,155.2,80
						C155.2,80,155.2,80,155.2,80C155.2,80,155.3,80,155.2,80c0.1-0.1,0.1-0.1,0.1-0.1c0,0,0-0.1,0-0.1c0,0,0-0.1,0-0.1
						c0,0,0,0,0-0.1c0,0,0,0,0,0c0,0,0,0,0,0c0,0,0,0,0,0.1c0,0,0,0.1,0,0.1c0,0,0,0.1,0,0.1S155.2,79.9,155.2,80
						C155.2,80,155.2,80,155.2,80z"/>
				</g>
			</g>
		</g>
		<g>
			<path class="st31" d="M174.1,76.5c0-0.1-0.1-0.2-0.2-0.2h-6.1c-0.1,0-0.2,0.1-0.2,0.2l1,8.2c0,0.1,0.1,0.2,0.2,0.2h4
				c0.1,0,0.2-0.1,0.2-0.2L174.1,76.5z"/>
			<polygon class="st52" points="173.2,83.1 173.7,79.3 168,79.3 168.5,83.1 			"/>
			<polygon class="st38" points="174.1,76.3 173.3,75.3 168.4,75.3 167.6,76.3 			"/>
			<path class="st60" d="M174.3,76.4c0-0.1-0.1-0.2-0.2-0.2h-6.6c-0.1,0-0.2,0.1-0.2,0.2v0.4c0,0.1,0.1,0.2,0.2,0.2h6.6
				c0.1,0,0.2-0.1,0.2-0.2V76.4z"/>
			<path class="st39" d="M172.3,81.2c0-0.8-0.6-1.4-1.4-1.4s-1.4,0.6-1.4,1.4c0,0.8,0.6,1.4,1.4,1.4S172.3,82,172.3,81.2z"/>
			<path class="st57" d="M171.7,81.3c-0.1,0-0.2-0.1-0.2-0.2c0-0.1,0.1-0.2,0.2-0.2c-0.1-0.4-0.4-0.6-0.8-0.6
				c-0.4,0-0.8,0.3-0.8,0.7c0.1,0,0.2,0.1,0.2,0.2c0,0.1-0.1,0.2-0.2,0.2c0.1,0.4,0.4,0.6,0.8,0.6C171.3,82.1,171.6,81.8,171.7,81.3
				z"/>
		</g>
	</g>
	<g>
		<g>
			<g>
				<g>
					<path id="XMLID_4_" class="st37" d="M188.6,12.6v7c0,0.9-0.7,1.6-1.6,1.6h-0.7v1.6V25c0,0.2-0.2,0.2-0.3,0.1l-4-3.9h-4.8
						c-0.9,0-1.6-0.7-1.6-1.6v-7c0-0.9,0.7-1.6,1.6-1.6h9.9C187.9,11,188.6,11.7,188.6,12.6z"/>
				</g>
				<g>
					<path id="XMLID_3_" class="st31" d="M137.7,13.2v7c0,0.9,0.7,1.6,1.6,1.6h0.7v1.6v2.2c0,0.2,0.2,0.2,0.3,0.1l4-3.9h19.2
						c0.9,0,1.6-0.7,1.6-1.6v-7c0-0.9-0.7-1.6-1.6-1.6h-24.3C138.4,11.6,137.7,12.3,137.7,13.2z"/>
					<g>
						<g>
							<g>
								<path class="st39" d="M156.8,19.7c2,0,3.9,0,5.9,0c2.6,0,5.1-2.3,5-5c-0.1-2.7-2.2-5-5-5c-2,0-3.9,0-5.9,0
									c-2.6,0-5.1,2.3-5,5C152,17.4,154,19.8,156.8,19.7L156.8,19.7z"/>
							</g>
						</g>
						<g>
							<g>
								<path class="st39" d="M147.1,19.7c2.7,0,5.3,0,8,0c2.6,0,5.1-2.3,5-5c-0.1-2.7-2.2-5-5-5c-2.7,0-5.3,0-8,0
									c-2.6,0-5.1,2.3-5,5C142.2,17.4,144.3,19.7,147.1,19.7L147.1,19.7z"/>
							</g>
						</g>
						<g>
							<g>
								<path class="st39" d="M140.6,19.7c1.5,0,3.1,0,4.6,0c2.6,0,5.1-2.3,5-5c-0.1-2.7-2.2-5-5-5c-1.5,0-3.1,0-4.6,0
									c-2.6,0-5.1,2.3-5,5C135.7,17.4,137.8,19.8,140.6,19.7L140.6,19.7z"/>
							</g>
						</g>
						<g>
							<g>
								<path class="st39" d="M145.2,21.7c5.9,0,11.8,0,17.8,0c6.4,0,6.4-10,0-10c-5.9,0-11.8,0-17.8,0
									C138.8,11.7,138.8,21.7,145.2,21.7L145.2,21.7z"/>
							</g>
						</g>
						<g>
							<g>
								<path class="st39" d="M140.6,21.7c0.9,0,1.8,0,2.7,0c1.3,0,2.6-0.6,3.5-1.5c0.9-0.9,1.5-2.3,1.5-3.5c-0.1-2.7-2.2-5-5-5
									c-0.9,0-1.8,0-2.7,0c-1.3,0-2.6,0.6-3.5,1.5c-0.9,0.9-1.5,2.3-1.5,3.5C135.7,19.4,137.8,21.7,140.6,21.7L140.6,21.7z"/>
							</g>
						</g>
						<g>
							<g>
								<path class="st39" d="M155.2,23.6c2.6,0,5.3,0,7.9,0c2.6,0,5.1-2.3,5-5c-0.1-2.7-2.2-5-5-5c-2.6,0-5.3,0-7.9,0
									c-2.6,0-5.1,2.3-5,5C150.4,21.3,152.4,23.7,155.2,23.6L155.2,23.6z"/>
							</g>
						</g>
						<g>
							<g>
								<path class="st39" d="M144.2,23.6c3.1,0,6.3,0,9.4,0c6.4,0.1,6.4-9.9,0-10c-3.1,0-6.3,0-9.4,0
									C137.7,13.7,137.7,23.7,144.2,23.6L144.2,23.6z"/>
							</g>
						</g>
					</g>
				</g>
			</g>
			<g>
				<g>
					<g>
						<g>
							<path class="st39" d="M186.7,15.6c0,0,0.1,0,0.1,0l0-1.1l-6.1,0c0,0.1-0.1,0.2-0.3,0.2c-0.2,0-0.3-0.1-0.3-0.2l-2.7,0l0,1
								c0.4,0.1,0.8,0.4,0.8,0.8c0,0.5-0.3,0.9-0.8,0.9l0,1.2l2.7,0c0-0.1,0.1-0.3,0.3-0.3c0.2,0,0.3,0.2,0.3,0.3l6,0l0-1.2
								c0,0,0,0,0,0c-0.5,0-0.9-0.3-0.9-0.8C185.8,16.1,186.2,15.6,186.7,15.6z"/>
						</g>
						<g>
							<line class="st34" x1="180.4" y1="14.7" x2="180.4" y2="15.7"/>
						</g>
						<g>
							<line class="st34" x1="180.4" y1="16.2" x2="180.4" y2="17.2"/>
						</g>
						<g>
							<line class="st34" x1="180.4" y1="17.6" x2="180.4" y2="18.2"/>
						</g>
						<g>
							
								<rect x="180.2" y="16.1" transform="matrix(7.918562e-03 -1 1 7.918562e-03 163.6446 197.8752)" class="st37" width="2.7" height="0.7"/>
						</g>
						<g>
							<line class="st34" x1="178.9" y1="15.2" x2="178.9" y2="16.6"/>
						</g>
						<g>
							<line class="st39" x1="178.9" y1="17.3" x2="178.9" y2="17.9"/>
						</g>
					</g>
				</g>
				<g>
					<path class="st37" d="M183.1,17.6c0,0,0,0.1,0,0.2c0,0,0,0,0.2,0l0.3,0.4c0,0,0.1,0,0.1-0.1l0-0.6l0.5-0.6l0.7,1c0,0,0,0,0.1,0
						c0,0,0.1-0.1,0-0.2l-0.4-1.4l0.5-0.5c0,0,0.2-0.3,0.1-0.4c0,0-0.2-0.1-0.4,0.2l-0.4,0.5l-1.5-0.2c0,0-0.1,0-0.1,0.1l1.1,0.7
						l-0.5,0.6l-0.6,0c0,0-0.1,0-0.1,0.1L183.1,17.6z"/>
				</g>
			</g>
		</g>
		<g>
			<g>
				<path class="st52" d="M200.8,41.9h-0.4v-0.4c0-0.1-0.1-0.3-0.3-0.3c-0.1,0-0.3,0.1-0.3,0.3v0.4h-0.4c-0.1,0-0.3,0.1-0.3,0.3
					c0,0.1,0.1,0.3,0.3,0.3h0.4v0.4c0,0.1,0.1,0.3,0.3,0.3c0.1,0,0.3-0.1,0.3-0.3v-0.4h0.4c0.1,0,0.3-0.1,0.3-0.3
					C201.1,42,201,41.9,200.8,41.9z"/>
				<path class="st52" d="M124.7,46.2h-0.4v-0.4c0-0.1-0.1-0.3-0.3-0.3c-0.1,0-0.3,0.1-0.3,0.3v0.4h-0.4c-0.1,0-0.3,0.1-0.3,0.3
					c0,0.1,0.1,0.3,0.3,0.3h0.4v0.4c0,0.1,0.1,0.3,0.3,0.3c0.1,0,0.3-0.1,0.3-0.3v-0.4h0.4c0.1,0,0.3-0.1,0.3-0.3
					C125,46.3,124.9,46.2,124.7,46.2z"/>
				<path class="st61" d="M123.4,40.8l-0.3,0.3l-0.3-0.3c-0.1-0.1-0.3-0.1-0.4,0c-0.1,0.1-0.1,0.3,0,0.4l0.3,0.3l-0.3,0.3
					c-0.1,0.1-0.1,0.3,0,0.4c0.1,0.1,0.3,0.1,0.4,0l0.3-0.3l0.3,0.3c0.1,0.1,0.3,0.1,0.4,0c0.1-0.1,0.1-0.3,0-0.4l-0.3-0.3l0.3-0.3
					c0.1-0.1,0.1-0.3,0-0.4C123.6,40.7,123.5,40.7,123.4,40.8z"/>
				<path class="st61" d="M200,37.4l-0.3,0.3l-0.3-0.3c-0.1-0.1-0.3-0.1-0.4,0c-0.1,0.1-0.1,0.3,0,0.4l0.3,0.3l-0.3,0.3
					c-0.1,0.1-0.1,0.3,0,0.4c0.1,0.1,0.3,0.1,0.4,0l0.3-0.3l0.3,0.3c0.1,0.1,0.3,0.1,0.4,0c0.1-0.1,0.1-0.3,0-0.4L200,38l0.3-0.3
					c0.1-0.1,0.1-0.3,0-0.4C200.2,37.3,200.1,37.3,200,37.4z"/>
				<path class="st37" d="M121.3,44.4c0,0.3-0.2,0.5-0.5,0.5c-0.3,0-0.5-0.2-0.5-0.5c0-0.3,0.2-0.5,0.5-0.5
					C121.1,43.9,121.3,44.1,121.3,44.4z"/>
				<path class="st52" d="M172.6,17l0.2,0.4l-0.4,0.2c-0.1,0.1-0.2,0.2-0.1,0.3c0.1,0.1,0.2,0.2,0.3,0.1l0.4-0.2l0.2,0.4
					c0.1,0.1,0.2,0.2,0.3,0.1c0.1-0.1,0.2-0.2,0.1-0.3l-0.2-0.4l0.4-0.2c0.1-0.1,0.2-0.2,0.1-0.3c-0.1-0.1-0.2-0.2-0.3-0.1l-0.4,0.2
					l-0.2-0.4c-0.1-0.1-0.2-0.2-0.3-0.1C172.6,16.7,172.6,16.9,172.6,17z"/>
				<path class="st61" d="M168.3,17.5l0.4,0.2l-0.2,0.4c-0.1,0.1,0,0.3,0.1,0.3c0.1,0.1,0.3,0,0.3-0.1l0.2-0.4l0.4,0.2
					c0.1,0.1,0.3,0,0.3-0.1c0.1-0.1,0-0.3-0.1-0.3l-0.4-0.2l0.2-0.4c0.1-0.1,0-0.3-0.1-0.3c-0.1-0.1-0.3,0-0.3,0.1l-0.2,0.4
					l-0.4-0.2c-0.1-0.1-0.3,0-0.3,0.1C168.1,17.3,168.2,17.5,168.3,17.5z"/>
				<path class="st37" d="M169.4,14c0.2-0.1,0.5,0,0.6,0.3c0.1,0.2,0,0.5-0.3,0.6c-0.2,0.1-0.5,0-0.6-0.3
					C169.1,14.3,169.2,14.1,169.4,14z"/>
				<path class="st37" d="M203.2,40.5c0,0.3-0.2,0.5-0.5,0.5c-0.3,0-0.5-0.2-0.5-0.5c0-0.3,0.2-0.5,0.5-0.5
					C203,40,203.2,40.2,203.2,40.5z"/>
				<path class="st52" d="M133.3,19h-0.4v-0.4c0-0.1-0.1-0.3-0.3-0.3c-0.1,0-0.3,0.1-0.3,0.3V19h-0.4c-0.1,0-0.3,0.1-0.3,0.3
					c0,0.1,0.1,0.3,0.3,0.3h0.4V20c0,0.1,0.1,0.3,0.3,0.3c0.1,0,0.3-0.1,0.3-0.3v-0.4h0.4c0.1,0,0.3-0.1,0.3-0.3
					C133.6,19.1,133.4,19,133.3,19z"/>
				<path class="st61" d="M132.4,14.5l-0.3,0.3l-0.3-0.3c-0.1-0.1-0.3-0.1-0.4,0c-0.1,0.1-0.1,0.3,0,0.4l0.3,0.3l-0.3,0.3
					c-0.1,0.1-0.1,0.3,0,0.4c0.1,0.1,0.3,0.1,0.4,0l0.3-0.3l0.3,0.3c0.1,0.1,0.3,0.1,0.4,0c0.1-0.1,0.1-0.3,0-0.4l-0.3-0.3l0.3-0.3
					c0.1-0.1,0.1-0.3,0-0.4C132.7,14.4,132.5,14.4,132.4,14.5z"/>
				<path class="st37" d="M135.7,17.6c0,0.3-0.2,0.5-0.5,0.5c-0.3,0-0.5-0.2-0.5-0.5c0-0.3,0.2-0.5,0.5-0.5
					C135.4,17.2,135.7,17.4,135.7,17.6z"/>
			</g>
		</g>
	</g>
</g>
</svg>
