<?xml version="1.0" encoding="utf-8"?>
<!-- Generator: Adobe Illustrator 24.0.1, SVG Export Plug-In . SVG Version: 6.00 Build 0)  -->
<svg version="1.1" id="Layer_1" xmlns="http://www.w3.org/2000/svg" xmlns:xlink="http://www.w3.org/1999/xlink" x="0px" y="0px"
	 viewBox="0 0 149 56.3" style="enable-background:new 0 0 149 56.3;" xml:space="preserve">
<style type="text/css">
	.st0{fill:#1E79BE;}
	.st1{fill:#CB2027;}
	.st2{fill:#B5C2CB;}
	.st3{fill:#1B75BB;}
</style>
<g>
	<g>
		<path class="st0" d="M50.7,32.2c-1.1,0.5-2.5,0.8-4.2,0.8c-2.3,0-4-0.7-5.3-2c-1.3-1.3-1.9-3.1-1.9-5.3c0-2.4,0.7-4.3,2.2-5.7
			c1.5-1.5,3.4-2.2,5.7-2.2c1.4,0,2.7,0.2,3.6,0.5v3.2c-1-0.6-2.1-0.9-3.4-0.9c-1.4,0-2.5,0.4-3.4,1.3c-0.9,0.9-1.3,2.1-1.3,3.5
			c0,1.4,0.4,2.6,1.2,3.4s1.9,1.3,3.2,1.3c1.3,0,2.5-0.3,3.6-0.9V32.2z"/>
		<path class="st0" d="M63.1,32.7h-3.2v-6c0-1.5-0.6-2.3-1.7-2.3c-0.6,0-1,0.2-1.4,0.6c-0.4,0.4-0.5,1-0.5,1.6v6h-3.3V17.1h3.3v6.6
			h0c0.8-1.2,1.9-1.8,3.2-1.8c2.4,0,3.6,1.4,3.6,4.3V32.7z"/>
		<path class="st0" d="M75.1,28.4h-6.9c0.1,1.5,1.1,2.3,2.9,2.3c1.2,0,2.2-0.3,3.1-0.8v2.3c-1,0.5-2.2,0.8-3.8,0.8
			c-1.7,0-3-0.5-4-1.4c-0.9-0.9-1.4-2.3-1.4-4c0-1.8,0.5-3.1,1.5-4.2c1-1,2.3-1.5,3.7-1.5c1.5,0,2.7,0.5,3.6,1.4
			c0.8,0.9,1.3,2.2,1.3,3.7V28.4z M72.1,26.4c0-1.5-0.6-2.3-1.8-2.3c-0.5,0-1,0.2-1.4,0.6c-0.4,0.4-0.6,1-0.7,1.6H72.1z"/>
		<path class="st0" d="M85.8,32.7h-3.1v-1.5h0C82,32.4,80.9,33,79.6,33c-1,0-1.8-0.3-2.4-0.9c-0.6-0.6-0.9-1.4-0.9-2.3
			c0-2,1.2-3.2,3.6-3.5l2.9-0.4c0-1.2-0.6-1.7-1.9-1.7c-1.3,0-2.5,0.4-3.6,1.1v-2.5c0.5-0.2,1.1-0.4,1.9-0.6
			c0.8-0.2,1.5-0.3,2.1-0.3c3,0,4.5,1.5,4.5,4.5V32.7z M82.8,28.5v-0.7L80.8,28c-1.1,0.1-1.6,0.6-1.6,1.4c0,0.4,0.1,0.7,0.4,0.9
			c0.3,0.2,0.6,0.4,1,0.4c0.6,0,1.1-0.2,1.5-0.6C82.6,29.6,82.8,29.1,82.8,28.5z"/>
		<path class="st0" d="M91.7,31.5L91.7,31.5l0,6.1h-3.3V22.2h3.3v1.6h0c0.8-1.2,1.9-1.8,3.4-1.8c1.4,0,2.4,0.5,3.2,1.4
			c0.7,0.9,1.1,2.2,1.1,3.8c0,1.8-0.4,3.2-1.3,4.2c-0.9,1.1-2,1.6-3.5,1.6C93.3,33,92.4,32.5,91.7,31.5z M91.6,27.2V28
			c0,0.7,0.2,1.3,0.6,1.8c0.4,0.5,0.9,0.7,1.5,0.7c0.7,0,1.3-0.3,1.7-0.9c0.4-0.6,0.6-1.4,0.6-2.4c0-1.9-0.7-2.8-2.2-2.8
			c-0.7,0-1.2,0.3-1.6,0.8C91.8,25.7,91.6,26.4,91.6,27.2z"/>
		<path d="M43.9,39.9h-2.8v2h2.6v1.5h-2.6v3.1h-1.8v-8h4.6V39.9z"/>
		<path d="M46.8,44.5c0,0.2,0.1,0.4,0.2,0.6c0.1,0.1,0.3,0.2,0.5,0.2c0.1,0,0.2,0,0.3,0c0.1,0,0.2,0,0.3-0.1v1.2
			c-0.2,0.1-0.4,0.1-0.7,0.1c-0.2,0-0.5,0.1-0.7,0.1c-0.2,0-0.4,0-0.6-0.1c-0.2-0.1-0.4-0.2-0.5-0.3c-0.1-0.1-0.2-0.3-0.3-0.5
			c-0.1-0.2-0.1-0.4-0.1-0.7V38h1.8V44.5z"/>
		<path d="M49.6,39.9c-0.3,0-0.5-0.1-0.7-0.3s-0.3-0.4-0.3-0.7c0-0.3,0.1-0.5,0.3-0.6s0.4-0.3,0.7-0.3c0.3,0,0.5,0.1,0.7,0.3
			c0.2,0.2,0.3,0.4,0.3,0.6c0,0.3-0.1,0.5-0.3,0.7C50.2,39.8,49.9,39.9,49.6,39.9z M50.5,44.5c0,0.2,0.1,0.4,0.2,0.6
			c0.1,0.1,0.3,0.2,0.5,0.2c0.1,0,0.2,0,0.3,0c0.1,0,0.2,0,0.3-0.1v1.2c-0.2,0.1-0.4,0.1-0.7,0.1c-0.2,0-0.5,0.1-0.7,0.1
			c-0.2,0-0.4,0-0.6-0.1c-0.2-0.1-0.4-0.2-0.5-0.3c-0.1-0.1-0.2-0.3-0.3-0.5c-0.1-0.2-0.1-0.4-0.1-0.7v-4.2h1.8V44.5z"/>
		<path d="M58.1,45.8c0,1.1-0.3,1.9-0.9,2.5s-1.5,0.9-2.7,0.9c-0.8,0-1.4-0.1-1.8-0.3v-1.5c0.6,0.3,1.2,0.5,1.8,0.5
			c0.6,0,1.1-0.2,1.4-0.5c0.3-0.3,0.5-0.7,0.5-1.3v-0.5h0c-0.4,0.6-1,1-1.8,1c-0.7,0-1.3-0.3-1.7-0.8c-0.4-0.5-0.6-1.2-0.6-2.1
			c0-1,0.2-1.7,0.7-2.3c0.5-0.6,1.1-0.9,1.9-0.9c0.7,0,1.2,0.3,1.6,0.8h0v-0.7h1.8V45.8z M56.3,43.7v-0.5c0-0.4-0.1-0.7-0.3-0.9
			c-0.2-0.3-0.5-0.4-0.8-0.4c-0.4,0-0.7,0.2-0.9,0.5c-0.2,0.3-0.3,0.7-0.3,1.3c0,0.5,0.1,0.9,0.3,1.1s0.5,0.4,0.9,0.4
			c0.4,0,0.7-0.1,0.9-0.4C56.2,44.6,56.3,44.2,56.3,43.7z"/>
		<path d="M65,46.5h-1.8v-3.3c0-0.8-0.3-1.3-0.9-1.3c-0.3,0-0.6,0.1-0.8,0.4c-0.2,0.2-0.3,0.5-0.3,0.9v3.3h-1.8V38h1.8v3.6h0
			c0.4-0.7,1-1,1.8-1c1.3,0,1.9,0.8,1.9,2.3V46.5z"/>
		<path d="M69.9,46.4c-0.3,0.1-0.7,0.2-1.2,0.2c-1.2,0-1.9-0.6-1.9-1.9v-2.6h-0.9v-1.3h0.9v-1.2l1.8-0.5v1.7h1.3v1.3h-1.3v2.3
			c0,0.6,0.2,0.9,0.7,0.9c0.2,0,0.4-0.1,0.6-0.2V46.4z"/>
		<path d="M70.5,46.3v-1.4c0.3,0.2,0.6,0.3,0.9,0.4c0.3,0.1,0.6,0.1,0.8,0.1c0.3,0,0.6,0,0.7-0.1c0.2-0.1,0.3-0.2,0.3-0.4
			c0-0.1,0-0.2-0.1-0.3c-0.1-0.1-0.2-0.1-0.3-0.2c-0.1-0.1-0.3-0.1-0.4-0.2c-0.2,0-0.3-0.1-0.4-0.2c-0.2-0.1-0.4-0.2-0.6-0.3
			c-0.2-0.1-0.3-0.2-0.4-0.3c-0.1-0.1-0.2-0.3-0.3-0.5c-0.1-0.2-0.1-0.4-0.1-0.6c0-0.3,0.1-0.6,0.2-0.8c0.1-0.2,0.3-0.4,0.6-0.6
			c0.2-0.1,0.5-0.3,0.8-0.3c0.3-0.1,0.6-0.1,0.9-0.1c0.3,0,0.5,0,0.8,0.1c0.3,0,0.5,0.1,0.8,0.2v1.4c-0.2-0.1-0.5-0.2-0.7-0.3
			c-0.3-0.1-0.5-0.1-0.8-0.1c-0.1,0-0.2,0-0.3,0c-0.1,0-0.2,0.1-0.3,0.1c-0.1,0-0.1,0.1-0.2,0.2c0,0.1-0.1,0.1-0.1,0.2
			c0,0.1,0,0.2,0.1,0.3c0.1,0.1,0.2,0.1,0.3,0.2c0.1,0.1,0.2,0.1,0.4,0.1c0.1,0,0.3,0.1,0.4,0.1c0.2,0.1,0.4,0.2,0.6,0.3
			c0.2,0.1,0.4,0.2,0.5,0.3c0.1,0.1,0.2,0.3,0.3,0.5c0.1,0.2,0.1,0.4,0.1,0.6c0,0.3-0.1,0.6-0.2,0.9c-0.1,0.2-0.3,0.4-0.6,0.6
			c-0.2,0.2-0.5,0.3-0.8,0.3c-0.3,0.1-0.6,0.1-1,0.1C71.6,46.6,71,46.5,70.5,46.3z"/>
		<path class="st1" d="M80.7,39.9h-2.8v2h2.6v1.5h-2.6v3.1h-1.8v-8h4.6V39.9z"/>
		<path class="st1" d="M82.7,39.9c-0.3,0-0.5-0.1-0.7-0.3c-0.2-0.2-0.3-0.4-0.3-0.7c0-0.3,0.1-0.5,0.3-0.6c0.2-0.2,0.4-0.3,0.7-0.3
			c0.3,0,0.5,0.1,0.7,0.3c0.2,0.2,0.3,0.4,0.3,0.6c0,0.3-0.1,0.5-0.3,0.7C83.3,39.8,83,39.9,82.7,39.9z M83.6,44.5
			c0,0.2,0.1,0.4,0.2,0.6c0.1,0.1,0.3,0.2,0.5,0.2c0.1,0,0.2,0,0.3,0c0.1,0,0.2,0,0.3-0.1v1.2c-0.2,0.1-0.4,0.1-0.7,0.1
			c-0.2,0-0.5,0.1-0.7,0.1c-0.2,0-0.4,0-0.6-0.1c-0.2-0.1-0.4-0.2-0.5-0.3c-0.1-0.1-0.2-0.3-0.3-0.5c-0.1-0.2-0.1-0.4-0.1-0.7v-4.2
			h1.8V44.5z"/>
		<path class="st1" d="M89.3,42.4c-0.2-0.1-0.5-0.2-0.7-0.2c-0.4,0-0.7,0.1-0.9,0.4c-0.2,0.3-0.3,0.7-0.3,1.1v2.7h-1.8v-5.7h1.8v1.1
			h0c0.3-0.8,0.8-1.2,1.5-1.2c0.2,0,0.3,0,0.4,0.1V42.4z"/>
		<path class="st1" d="M89.8,46.3v-1.4c0.3,0.2,0.6,0.3,0.9,0.4c0.3,0.1,0.6,0.1,0.8,0.1c0.3,0,0.6,0,0.7-0.1
			c0.2-0.1,0.3-0.2,0.3-0.4c0-0.1,0-0.2-0.1-0.3c-0.1-0.1-0.2-0.1-0.3-0.2c-0.1-0.1-0.3-0.1-0.4-0.2c-0.2,0-0.3-0.1-0.4-0.2
			C91,44,90.8,44,90.6,43.9c-0.2-0.1-0.3-0.2-0.4-0.3c-0.1-0.1-0.2-0.3-0.3-0.5c-0.1-0.2-0.1-0.4-0.1-0.6c0-0.3,0.1-0.6,0.2-0.8
			c0.1-0.2,0.3-0.4,0.6-0.6c0.2-0.1,0.5-0.3,0.8-0.3c0.3-0.1,0.6-0.1,0.9-0.1c0.3,0,0.5,0,0.8,0.1c0.3,0,0.5,0.1,0.8,0.2v1.4
			c-0.2-0.1-0.5-0.2-0.7-0.3c-0.3-0.1-0.5-0.1-0.8-0.1c-0.1,0-0.2,0-0.3,0c-0.1,0-0.2,0.1-0.3,0.1c-0.1,0-0.1,0.1-0.2,0.2
			c0,0.1-0.1,0.1-0.1,0.2c0,0.1,0,0.2,0.1,0.3c0.1,0.1,0.2,0.1,0.3,0.2c0.1,0.1,0.2,0.1,0.4,0.1c0.1,0,0.3,0.1,0.4,0.1
			c0.2,0.1,0.4,0.2,0.6,0.3c0.2,0.1,0.4,0.2,0.5,0.3c0.1,0.1,0.2,0.3,0.3,0.5c0.1,0.2,0.1,0.4,0.1,0.6c0,0.3-0.1,0.6-0.2,0.9
			c-0.1,0.2-0.3,0.4-0.6,0.6c-0.2,0.2-0.5,0.3-0.8,0.3c-0.3,0.1-0.6,0.1-1,0.1C90.9,46.6,90.3,46.5,89.8,46.3z"/>
		<path class="st1" d="M98.7,46.4c-0.3,0.1-0.7,0.2-1.2,0.2c-1.2,0-1.9-0.6-1.9-1.9v-2.6h-0.9v-1.3h0.9v-1.2l1.8-0.5v1.7h1.3v1.3
			h-1.3v2.3c0,0.6,0.2,0.9,0.7,0.9c0.2,0,0.4-0.1,0.6-0.2V46.4z"/>
	</g>
	<path class="st2" d="M26.3,46.5c-5-8.7,4.1-22.6,19.7-32.4c2.7-1.7,7.9-5.4,11-6.9c-4.7,1.9-11.2,5.3-16.1,7.7
		c-16.8,8.4-26.9,22.3-22.5,31c2.6,5.1,9.5,7.3,18.3,6.6C31.9,51.8,28.2,49.8,26.3,46.5z"/>
	<g>
		<path class="st3" d="M34.2,25.7h1.3v-0.2c0.8,1.9,1.3,3.9,1.3,6h-6.4c0-0.3,0-0.6,0-0.9c-0.4,0.7-0.9,1.4-1.2,2.1h0
			c-0.1,2.9-0.5,5.7-1.2,8.1h-0.7c0,0.4,0.1,0.8,0.1,1.2h0.1c0,0.1-0.1,0.2-0.1,0.2c0.1,0.6,0.3,1.3,0.5,1.9
			c0.3-0.7,0.6-1.4,0.9-2.2h4.7c-1.2,1.7-2.8,3.2-4.6,4.3c0.2,0.3,0.5,0.7,0.8,0.9c4.9-3.3,8.2-8.8,8.2-15.2c0-3-0.7-5.8-2-8.3
			C35.4,24.5,34.8,25.1,34.2,25.7z M34.4,40.8h-5.1c0.7-2.5,1.1-5.3,1.2-8.1h6.4C36.7,35.7,35.8,38.5,34.4,40.8z"/>
		<path class="st3" d="M17.7,48.8c-2.5-0.9-4.4-3.4-5.7-6.7h3.2c0-0.4,0-0.8,0-1.2h-3.5c-0.8-2.5-1.2-5.3-1.2-8.1h7.1
			c0.2-0.4,0.4-0.8,0.7-1.2h-7.8c0-2,0.2-3.9,0.6-5.8h8.2V30c0.4-0.5,0.8-1.1,1.2-1.6v-2.7h2.4c0.4-0.4,0.8-0.8,1.2-1.2h-3.6v-9.4
			c3.1,0.3,5.5,2.9,6.9,6.5c0.3-0.3,0.7-0.5,1-0.8c-0.8-2-1.9-3.7-3.3-4.9c2.1,0.7,4,1.8,5.7,3.2c0.3-0.2,0.7-0.5,1.1-0.7
			c-3.1-2.7-7-4.4-11.4-4.5v0h-1.2v0C9.5,14.3,1.6,22.3,1.6,32.1C1.6,42,9.5,50,19.3,50.3C18.7,49.8,18.2,49.3,17.7,48.8z
			 M19.2,15.2v9.4h-7.9C12.6,19.5,15.3,15.6,19.2,15.2z M14.6,16c-1.1,0.9-2,2.2-2.8,3.8c-0.7,1.4-1.3,3-1.7,4.8H4.6
			C6.7,20.5,10.2,17.4,14.6,16z M4.1,25.7h5.7c-0.4,1.8-0.6,3.8-0.6,5.8H2.8C2.9,29.5,3.4,27.5,4.1,25.7z M2.8,32.7h6.4
			c0,2.8,0.4,5.6,1.2,8.1H5.2C3.8,38.5,3,35.7,2.8,32.7z M6,42.1h4.7c0.9,2.5,2.1,4.7,3.8,6.2C11.1,47.2,8.1,44.9,6,42.1z"/>
	</g>
	<g>
		<g>
			<path class="st1" d="M34.9,13.1c2.3-1.1,4.5-2.2,6.8-3.4c-1.4-1.3-2.7-2.5-4-3.8c0.2-0.3,0.4-0.6,0.7-0.9
				c0.1-0.1,0.3-0.1,0.5-0.1c2.6,0.7,5.2,1.3,7.8,2C46.9,7,47.2,7,47.5,6.9c2-1,4.1-2,6.1-3c0.7-0.3,1.4-0.5,2.2-0.3
				c0.6,0.1,0.8,0.5,0.5,1c-0.3,0.7-0.9,1.3-1.6,1.6C50,8.5,45.3,10.7,40.5,13c-0.4,0.2-0.9,0.3-1.4,0.3c-1.2,0-2.5,0-3.7,0
				c-0.2,0-0.3-0.1-0.5-0.1C34.9,13.1,34.9,13.1,34.9,13.1z"/>
			<path class="st1" d="M32,10.3c0.5-0.7,0.5-0.7,1.3-0.5c1,0.3,2,0.7,3.1,1c-0.5,0.3-0.9,0.5-1.4,0.7c-1,0.5-1,0.5-1.9-0.3
				C32.8,11,32.4,10.7,32,10.3z"/>
		</g>
	</g>
</g>
</svg>
