<?xml version="1.0" encoding="iso-8859-1"?>
<!-- Generator: Adobe Illustrator 18.0.0, SVG Export Plug-In . SVG Version: 6.00 Build 0)  -->
<!DOCTYPE svg PUBLIC "-//W3C//DTD SVG 1.1//EN" "http://www.w3.org/Graphics/SVG/1.1/DTD/svg11.dtd">
<svg version="1.1" id="Capa_1" xmlns="http://www.w3.org/2000/svg" xmlns:xlink="http://www.w3.org/1999/xlink" x="0px" y="0px"
	 viewBox="-49 141 512 512" style="enable-background:new -49 141 512 512;" xml:space="preserve">
<g style="display:none;">
	<path d="M420.28,364.688c-1.317-1.503-3.217-2.365-5.215-2.365H-1.065c-3.83,0.001-6.935,3.107-6.934,6.937
		c0,0.306,0.02,0.611,0.061,0.914l27.68,207.607v27.284c0,3.83,3.105,6.935,6.935,6.935h360.645c3.83,0,6.935-3.105,6.935-6.935
		V577.78l27.68-207.607C422.202,368.191,421.598,366.192,420.28,364.688z M345.71,570.387v-55.484h42.938l-7.4,55.484H345.71z
		 M32.753,570.387l-7.4-55.484H68.29v55.484H32.753z M82.161,514.903h27.742v55.484H82.161V514.903z M123.774,514.903h55.484v55.484
		h-55.484V514.903z M193.129,514.903h27.742v55.484h-27.742V514.903z M234.742,514.903h55.484v55.484h-55.484V514.903z
		 M304.097,514.903h27.742v55.484h-27.742V514.903z M23.508,501.032l-1.852-13.871h370.688l-1.852,13.871H23.508z M234.742,473.29
		v-97.097h55.484v97.097H234.742z M220.871,473.29h-27.742v-97.097h27.742V473.29z M179.258,473.29h-55.484v-97.097h55.484V473.29z
		 M109.903,473.29H82.161v-97.097h27.742V473.29z M304.097,473.29v-97.097h27.742v97.097H304.097z M68.29,376.194v97.097H19.804
		L6.863,376.194H68.29z M33.613,598.129v-13.871h346.774v13.871H33.613z M394.196,473.29H345.71v-97.097h61.428L394.196,473.29z"/>
	<path d="M33.613,265.226c22.982,0,41.613-18.631,41.613-41.613S56.595,182,33.613,182S-8,200.631-8,223.613
		C-7.977,246.586,10.64,265.203,33.613,265.226z M33.613,195.871c15.321,0,27.742,12.42,27.742,27.742s-12.42,27.742-27.742,27.742
		s-27.742-12.42-27.742-27.742S18.291,195.871,33.613,195.871z"/>
	<path d="M61.355,292.968c0,15.321,12.42,27.742,27.742,27.742s27.742-12.421,27.742-27.742s-12.42-27.742-27.742-27.742
		S61.355,277.646,61.355,292.968z M89.097,279.097c7.661,0,13.871,6.21,13.871,13.871s-6.21,13.871-13.871,13.871
		c-7.661,0-13.871-6.21-13.871-13.871S81.436,279.097,89.097,279.097z"/>
	<path d="M352.645,341.516c15.321,0,27.742-12.421,27.742-27.742s-12.42-27.742-27.742-27.742
		c-15.321,0-27.742,12.421-27.742,27.742S337.324,341.516,352.645,341.516z M352.645,299.903c7.661,0,13.871,6.21,13.871,13.871
		s-6.21,13.871-13.871,13.871c-7.661,0-13.871-6.21-13.871-13.871S344.984,299.903,352.645,299.903z"/>
	<path d="M380.387,265.226c22.982,0,41.613-18.631,41.613-41.613S403.369,182,380.387,182s-41.613,18.631-41.613,41.613
		C338.797,246.586,357.414,265.203,380.387,265.226z M380.387,195.871c15.321,0,27.742,12.42,27.742,27.742
		s-12.42,27.742-27.742,27.742c-15.321,0-27.742-12.42-27.742-27.742S365.066,195.871,380.387,195.871z"/>
	<path d="M181.29,346.42l9.807-9.807l-19.614-19.621c-3.891-3.908-6.082-9.195-6.096-14.71v-4.758
		c0.014-5.515,2.205-10.802,6.096-14.71l11.485-11.499c6.525-6.488,10.183-15.316,10.16-24.517v-4.758
		c0.023-9.201-3.636-18.029-10.16-24.517l-19.614-19.62l-9.807,9.807l19.614,19.62c3.891,3.908,6.082,9.195,6.096,14.71v4.758
		c-0.014,5.515-2.205,10.802-6.096,14.71l-11.485,11.499c-6.525,6.488-10.183,15.316-10.16,24.517v4.758
		c-0.023,9.201,3.636,18.029,10.16,24.517L181.29,346.42z"/>
	<path d="M250.645,346.42l9.807-9.807l-19.614-19.621c-3.891-3.908-6.082-9.195-6.096-14.71v-4.758
		c0.014-5.515,2.205-10.802,6.096-14.71l11.485-11.499c6.525-6.488,10.183-15.316,10.16-24.517v-4.758
		c0.023-9.201-3.636-18.029-10.16-24.517l-19.614-19.62l-9.807,9.807l19.614,19.62c3.891,3.908,6.082,9.195,6.096,14.71v4.758
		c-0.014,5.515-2.205,10.802-6.096,14.71l-11.485,11.499c-6.525,6.488-10.183,15.316-10.16,24.517v4.758
		c-0.023,9.201,3.636,18.029,10.16,24.517L250.645,346.42z"/>
</g>
<path d="M172.92,172.139c9.744,0,18.75,0,28.309,0c0,1.86,0,3.501,0,5.143c0,16.126,0.058,32.252-0.051,48.377
	c-0.021,3.046,0.638,4.827,3.697,6.388c10.87,5.547,17.701,14.596,20.225,26.508c0.696,3.287,2.019,4.488,5.036,5.338
	c62.33,17.558,104.468,57.07,124.397,118.478c30.251,93.212-21.282,192.843-114.264,223.363
	c-68.402,22.453-145.989-1.358-190.65-58.492c-26.95-34.477-39.758-73.673-38.595-117.319
	c2.08-78.051,56.995-146.627,132.685-165.977c2.986-0.763,4.568-1.99,5.208-5.225c2.417-12.222,9.548-21.111,20.479-26.832
	c2.748-1.438,3.623-3.042,3.598-6.027c-0.137-16.125-0.07-32.251-0.074-48.377C172.919,175.828,172.92,174.169,172.92,172.139z
	 M150.322,399.057c0,25.051,0,49.466,0,74.262c24.799,0,48.933,0,73.546,0c0-25.07,0-49.394,0-74.262
	C199.092,399.057,174.945,399.057,150.322,399.057z M150.525,390.029c24.676,0,48.542,0,73.279,0
	c-1.698-18.958-3.295-37.575-5.185-56.161c-0.128-1.26-2.45-3.273-3.771-3.289c-18.56-0.217-37.124-0.145-55.687-0.151
	c-2.557-0.001-3.748,0.996-3.966,3.799c-0.559,7.187-1.646,14.333-2.235,21.518C152.033,367.042,151.341,378.358,150.525,390.029z
	 M232.594,473.4c18.964-1.767,37.539-3.447,56.09-5.357c1.062-0.109,2.757-2.09,2.767-3.213c0.176-18.995,0.135-37.993,0.133-56.99
	c0-2.608-1.251-3.662-3.939-3.893c-12.06-1.038-24.094-2.377-36.154-3.425c-6.202-0.539-12.437-0.695-18.897-1.036
	C232.594,424.013,232.594,448.036,232.594,473.4z M146.374,540.707c-1.389-19.295-2.754-37.905-4.044-56.521
	c-0.205-2.965-2.198-2.69-4.217-2.848c-14.212-1.112-28.419-2.279-42.627-3.438c-3.878-0.316-7.754-0.664-12.947-1.111
	c3.65,17.446,7.005,33.926,10.682,50.335c0.356,1.589,2.508,3.533,4.167,3.947c9.947,2.482,19.963,4.714,30.017,6.724
	C133.641,539.041,139.985,539.746,146.374,540.707z M83.366,395.053c1.253,0.252,1.689,0.442,2.106,0.408
	c17.577-1.437,35.144-3.004,52.733-4.259c3.672-0.262,4.087-2.082,4.28-4.992c0.862-13.008,1.842-26.009,2.834-39.008
	c0.379-4.97,0.907-9.929,1.368-14.91c-1.038-0.134-1.509-0.313-1.929-0.231c-16.227,3.142-32.462,6.247-48.646,9.598
	c-1.184,0.245-2.513,2.147-2.891,3.522c-1.788,6.495-3.539,13.023-4.795,19.635C86.522,374.834,85.037,384.932,83.366,395.053z
	 M232.22,481.882c-1.593,19.632-3.168,39.051-4.855,59.845c17.276-3.732,33.721-7.214,50.106-10.956
	c1.335-0.305,2.925-2.222,3.276-3.663c2.392-9.808,4.655-19.656,6.611-29.56c1.321-6.687,2.071-13.487,3.117-20.509
	C270.66,478.686,251.635,480.268,232.22,481.882z M217.641,321.472c-2.784-13.92-5.424-27.595-8.388-41.2
	c-0.296-1.359-2.536-3.241-3.907-3.27c-12.247-0.253-24.502-0.126-36.754-0.155c-2.707-0.006-3.661,1.471-4.131,3.92
	c-1.76,9.179-3.738,18.316-5.49,27.496c-0.843,4.418-1.366,8.897-2.013,13.208C177.344,321.472,196.925,321.472,217.641,321.472z
	 M157.316,550.992c0,1.122-0.186,2.344,0.029,3.49c2.229,11.887,4.725,23.728,6.69,35.657c0.711,4.314,2.931,5.604,6.731,5.622
	c9.95,0.045,19.904,0.293,29.848,0.083c8.005-0.17,8.214-0.371,9.8-8.078c2.514-12.215,4.708-24.495,7.042-36.773
	C196.879,550.992,177.176,550.992,157.316,550.992z M73.341,467.131c0-20.953,0-40.921,0-61.927
	c-13.955,2.894-27.839,5.712-41.669,8.77c-0.985,0.218-2.242,2.184-2.257,3.352c-0.167,12.535-0.184,25.075,0.005,37.61
	c0.019,1.231,1.5,3.28,2.618,3.527C45.726,461.497,59.473,464.265,73.341,467.131z M300.576,467.153
	c13.684-2.816,27.19-5.504,40.625-8.505c1.34-0.299,3.191-2.493,3.218-3.839c0.25-12.391,0.094-24.789,0.193-37.184
	c0.022-2.752-1.331-3.746-3.723-4.242c-5.85-1.213-11.652-2.666-17.519-3.78c-7.596-1.442-15.236-2.647-22.794-3.943
	C300.576,426.346,300.576,446.359,300.576,467.153z M277.739,540.661c-2.034,0-2.755-0.109-3.434,0.016
	c-14.899,2.744-29.78,5.588-44.699,8.213c-2.925,0.515-4.204,1.611-4.325,4.66c-0.121,3.041-0.811,6.068-1.361,9.081
	c-1.829,10.031-3.706,20.053-5.584,30.179c0.633,0.099,1.091,0.297,1.491,0.214c13.881-2.884,27.079-7.686,39.621-14.278
	c0.888-0.467,1.812-1.299,2.215-2.19C266.96,564.874,272.164,553.151,277.739,540.661z M277.79,331.843
	c-5.607-12.596-10.779-24.329-16.104-35.993c-0.505-1.107-1.828-2.149-3.008-2.592c-12.299-4.615-24.639-9.124-36.995-13.583
	c-1.014-0.366-2.236-0.154-3.147-0.2c2.353,13.788,4.58,27.224,7.047,40.617c0.214,1.163,1.863,2.616,3.099,2.928
	c3.102,0.781,6.372,0.862,9.535,1.44C250.84,326.768,263.448,329.159,277.79,331.843z M342.498,468.009
	c-14.082,2.434-27.507,4.686-40.884,7.196c-1.101,0.207-2.45,2.064-2.692,3.342c-0.94,4.959-1.297,10.028-2.205,14.995
	c-1.998,10.938-4.199,21.838-6.34,32.877c0.472,0.037,0.964,0.229,1.31,0.081c11.247-4.815,22.489-9.643,33.7-14.54
	c0.927-0.405,1.95-1.146,2.398-2.007C334.657,496.743,339.623,482.867,342.498,468.009z M96.018,540.083
	c5.799,13.024,10.993,24.876,16.422,36.62c0.608,1.315,2.412,2.388,3.897,2.939c11.888,4.414,23.827,8.694,35.773,12.949
	c1.045,0.372,2.26,0.266,3.41,0.383c-2.44-13.968-4.699-27.545-7.353-41.046c-0.251-1.279-2.874-2.67-4.584-2.985
	c-7.98-1.47-16.056-2.415-24.039-3.867C112.228,543.745,104.987,542.005,96.018,540.083z M147.771,322.65
	c2.618-14.473,5.192-28.708,7.808-43.17c-0.906,0-1.506-0.1-2.061,0.015c-13.579,2.817-26.479,7.56-38.725,14.023
	c-1.47,0.776-2.738,2.495-3.441,4.07c-4.177,9.359-8.194,18.792-12.182,28.234c-0.789,1.868-1.218,3.889-1.903,6.132
	c8.864-1.858,17.046-3.739,25.294-5.257C130.831,325.175,139.167,324.015,147.771,322.65z M342.142,404.56
	c0.077-0.713,0.277-1.198,0.147-1.569c-4.566-13.116-9.091-26.248-13.856-39.292c-0.551-1.508-2.257-2.991-3.789-3.68
	c-10.461-4.701-21.011-9.203-31.559-13.707c-0.845-0.361-1.89-0.253-2.287-0.298c2.588,15.463,5.296,30.667,7.575,45.935
	c0.583,3.904,2.015,5.57,5.899,5.762c3.194,0.158,6.375,0.82,9.532,1.411C323.219,400.887,332.619,402.727,342.142,404.56z
	 M211.462,259.114c-1.516-10.272-13.023-18.784-25.309-18.445c-11.653,0.322-22.74,9.253-23.494,18.445
	C178.915,259.114,195.212,259.114,211.462,259.114z M55.308,346.838c10.205-3.787,19.385-7.041,28.412-10.674
	c1.793-0.722,3.633-2.641,4.369-4.448c3.339-8.209,6.298-16.572,9.369-24.89c0.324-0.878,0.483-1.816,0.938-3.579
	C81.049,315.197,67.183,329.234,55.308,346.838z M55.85,525.752c7.565,13.882,33.025,39.21,42.284,42.322
	c-3.484-9.668-6.954-19.427-10.568-29.131c-0.36-0.966-1.462-1.965-2.451-2.34C75.579,532.981,65.992,529.49,55.85,525.752z
	 M275.5,303.159c3.807,10.67,7.263,20.442,10.821,30.177c0.33,0.904,1.163,1.967,2.013,2.286c9.843,3.691,19.734,7.252,30.29,11.094
	C306.946,329.38,292.965,315.244,275.5,303.159z"/>
<path d="M-2.707,261.595c12.105-3.139,24.643-3.764,33.541-12.834c8.908-9.079,9.659-21.518,12.668-34.234
	c0.629,3.262,1.018,5.473,1.487,7.667c0.481,2.247,1.132,4.461,1.548,6.719c3.043,16.507,12.802,26.324,29.252,29.572
	c4.337,0.856,8.644,1.861,14.103,3.045c-5.622,1.253-10.102,2.345-14.621,3.242c-15.927,3.162-25.309,12.811-28.588,28.597
	c-0.995,4.791-2.031,9.573-3.18,14.974c-1.394-6.022-2.715-11.432-3.892-16.872c-3.267-15.097-12.997-23.428-27.685-26.635
	C7.292,263.826,2.664,262.786-2.707,261.595z"/>
<path d="M371.169,515.248c1.767,21.52,13.223,32.187,34.374,33.882c-20.97,1.754-32.602,12.29-34.01,33.459
	c-3.148-8.344-3.544-17.422-10.077-23.831c-6.665-6.537-15.665-7.213-24.571-9.87C357.773,547.444,369.383,536.668,371.169,515.248z
	"/>
<path d="M12.402,575.408c14.884-1.572,22.428-9.522,23.799-24.216c1.76,14.163,8.745,22.745,23.367,23.453
	c-5.691,2.724-12.179,4.169-16.066,8.152c-3.963,4.06-5.368,10.616-7.84,15.965C34.91,584.953,27.224,576.965,12.402,575.408z"/>
<path style="fill:#FFFFFF;" d="M150.322,399.057c24.623,0,48.77,0,73.546,0c0,24.868,0,49.193,0,74.262c-24.613,0-48.746,0-73.546,0
	C150.322,448.523,150.322,424.108,150.322,399.057z"/>
<path style="fill:#FFFFFF;" d="M232.594,473.4c0-25.363,0-49.387,0-73.915c6.46,0.342,12.695,0.498,18.897,1.036
	c12.059,1.048,24.094,2.387,36.154,3.425c2.688,0.231,3.939,1.285,3.939,3.893c0.002,18.997,0.043,37.995-0.133,56.99
	c-0.01,1.123-1.705,3.104-2.767,3.213C270.134,469.953,251.559,471.633,232.594,473.4z"/>
<path style="display:none;" d="M359.927,491.393c0,34.561-0.316,69.127,0.203,103.68c0.146,9.674-2.76,12.542-12.466,12.458
	c-51.228-0.442-102.463-0.405-153.692-0.024c-9.183,0.068-11.945-2.993-11.912-11.917c0.256-69.934,0.281-139.871-0.021-209.805
	c-0.041-9.568,3.073-12.69,12.669-12.62c51.229,0.373,102.463,0.357,153.693,0.012c9.233-0.062,11.806,3.171,11.7,12.096
	C359.678,420.642,359.927,456.019,359.927,491.393z M192.616,429.898c-2.128,18.331-1.943,18.559,14.631,18.575
	c14.59,0.014,29.179,0.014,43.769,0c16.556-0.016,17.976-1.892,13.676-18.575C241.021,429.898,217.233,429.898,192.616,429.898z
	 M192.216,418.998c25.176,0,49.552,0,73.835,0c1.156-17.133,1.156-17.158-13.844-17.188c-15.39-0.031-30.78-0.031-46.169,0
	C191.049,401.84,191.049,401.865,192.216,418.998z"/>
<path style="display:none;" d="M63.085,429.577c-0.712,4.685-2.026,9.368-2.043,14.055c-0.157,45.153-0.073,90.306-0.13,135.459
	c-0.006,4.453,0.018,9.011-0.872,13.335c-1.864,9.056-7.952,14.26-17.041,14.688c-9.734,0.458-16.303-4.745-18.761-14.122
	c-1.109-4.229-0.974-8.851-0.976-13.295c-0.051-85.425-0.037-170.85-0.043-256.275c0-3.253,0.418-6.617-0.286-9.719
	c-0.419-1.846-2.653-3.281-4.071-4.901c-1.574,1.568-4.035,2.904-4.521,4.757c-0.801,3.059-0.379,6.452-0.381,9.705
	c-0.018,34.17-0.088,68.34,0.027,102.51c0.027,8.04-1.993,14.651-10.347,17.325c-8.357,2.675-17.295-3.819-17.358-13.575
	c-0.267-41.895-0.619-83.806,0.282-125.685c0.394-18.306,16.796-32.686,36.087-33.075c28.463-0.574,56.956-0.598,85.418-0.007
	c21.315,0.443,36.179,16.318,36.846,37.7c0.025,0.813,0.092,1.636,0.005,2.439c-3.936,36.621,2.859,70.852,22.124,102.537
	c5.165,8.494,5.858,17.32-4.53,22.947c-7.904,4.282-15.277,0.16-20.597-11.029c-7.151-15.039-15.57-29.683-20.747-45.385
	c-3.685-11.178-3.288-23.8-4.029-35.82c-0.599-9.727,0.088-19.531-0.419-29.269c-0.109-2.089-2.902-4.039-4.458-6.053
	c-1.472,1.986-3.7,3.789-4.232,6.001c-0.741,3.079-0.225,6.464-0.225,9.718c-0.002,84.611,0,169.223-0.008,253.834
	c0,3.66,0.304,7.377-0.212,10.969c-1.509,10.506-7.283,17.181-18.281,17.831c-10.112,0.597-18.359-6.93-19.014-18.201
	c-0.73-12.57-0.292-25.209-0.299-37.818c-0.02-36.203,0.069-72.407-0.11-108.61c-0.021-4.324-1.437-8.64-2.207-12.96
	C66.145,429.586,64.615,429.582,63.085,429.577z"/>
<path style="display:none;" d="M318.701,270.577c13.421-0.001,26.845-0.183,40.262,0.046c16.045,0.274,28.061,7.429,35.059,22.076
	c8.227,17.22,16.684,34.362,23.969,51.98c2.049,4.955,2.062,12.173,0.033,17.136c-6.907,16.893-15.246,33.197-22.83,49.82
	c-3.986,8.737-10.5,13.198-19.463,9.226c-9.73-4.312-10.324-12.581-5.826-21.56c2.001-3.994,3.227-8.512,5.817-12.051
	c17.321-23.667,15.203-46.922-1.23-69.803c-2.473-3.443-6.476-5.787-9.771-8.64c-1.597,4.169-4.317,8.27-4.573,12.52
	c-0.658,10.941-0.574,21.964-0.107,32.924c0.323,7.57-2.806,9.976-9.998,9.889c-21.145-0.255-42.3-0.324-63.442,0.034
	c-7.818,0.132-10.987-2.452-10.666-10.519c0.485-12.181,0.416-24.41-0.128-36.588c-0.126-2.826-3.118-5.525-4.792-8.282
	c-1.437,2.85-4.004,5.656-4.115,8.556c-0.469,12.183-0.661,24.416-0.073,36.589c0.528,10.924-6.434,10.365-13.589,10.113
	c-6.958-0.245-15.42,2.296-15.061-9.884c0.456-15.441-0.417-30.932,0.304-46.353c1.042-22.274,16.365-36.706,38.737-37.178
	C291.04,270.341,304.873,270.578,318.701,270.577z"/>
<path style="display:none;" d="M98.289,223.374c0.348,17.824-13.963,32.599-31.939,32.972
	c-18.194,0.377-32.915-13.321-33.598-31.263c-0.696-18.291,14.007-33.51,32.497-33.637
	C83.282,191.321,97.939,205.486,98.289,223.374z"/>
<path style="display:none;" d="M317.911,256.371c-18.131-0.018-32.401-14.126-32.55-32.181
	c-0.152-18.527,14.598-33.07,33.217-32.749c18.164,0.313,31.953,14.535,31.812,32.81
	C350.248,242.447,336.15,256.389,317.911,256.371z"/>
</svg>
