<?xml version="1.0" encoding="iso-8859-1"?>
<!-- Generator: Adobe Illustrator 18.0.0, SVG Export Plug-In . SVG Version: 6.00 Build 0)  -->
<!DOCTYPE svg PUBLIC "-//W3C//DTD SVG 1.1//EN" "http://www.w3.org/Graphics/SVG/1.1/DTD/svg11.dtd">
<svg version="1.1" id="Capa_1" xmlns="http://www.w3.org/2000/svg" xmlns:xlink="http://www.w3.org/1999/xlink" x="0px" y="0px"
	 viewBox="-49 141 512 512" style="enable-background:new -49 141 512 512;" xml:space="preserve">
<g style="display:none;">
	<path d="M420.28,364.688c-1.317-1.503-3.217-2.365-5.215-2.365H-1.065c-3.83,0.001-6.935,3.107-6.934,6.937
		c0,0.306,0.02,0.611,0.061,0.914l27.68,207.607v27.284c0,3.83,3.105,6.935,6.935,6.935h360.645c3.83,0,6.935-3.105,6.935-6.935
		V577.78l27.68-207.607C422.202,368.191,421.598,366.192,420.28,364.688z M345.71,570.387v-55.484h42.938l-7.4,55.484H345.71z
		 M32.753,570.387l-7.4-55.484H68.29v55.484H32.753z M82.161,514.903h27.742v55.484H82.161V514.903z M123.774,514.903h55.484v55.484
		h-55.484V514.903z M193.129,514.903h27.742v55.484h-27.742V514.903z M234.742,514.903h55.484v55.484h-55.484V514.903z
		 M304.097,514.903h27.742v55.484h-27.742V514.903z M23.508,501.032l-1.852-13.871h370.688l-1.852,13.871H23.508z M234.742,473.29
		v-97.097h55.484v97.097H234.742z M220.871,473.29h-27.742v-97.097h27.742V473.29z M179.258,473.29h-55.484v-97.097h55.484V473.29z
		 M109.903,473.29H82.161v-97.097h27.742V473.29z M304.097,473.29v-97.097h27.742v97.097H304.097z M68.29,376.194v97.097H19.804
		L6.863,376.194H68.29z M33.613,598.129v-13.871h346.774v13.871H33.613z M394.196,473.29H345.71v-97.097h61.428L394.196,473.29z"/>
	<path d="M33.613,265.226c22.982,0,41.613-18.631,41.613-41.613S56.595,182,33.613,182S-8,200.631-8,223.613
		C-7.977,246.586,10.64,265.203,33.613,265.226z M33.613,195.871c15.321,0,27.742,12.42,27.742,27.742s-12.42,27.742-27.742,27.742
		s-27.742-12.42-27.742-27.742S18.291,195.871,33.613,195.871z"/>
	<path d="M61.355,292.968c0,15.321,12.42,27.742,27.742,27.742s27.742-12.421,27.742-27.742s-12.42-27.742-27.742-27.742
		S61.355,277.646,61.355,292.968z M89.097,279.097c7.661,0,13.871,6.21,13.871,13.871s-6.21,13.871-13.871,13.871
		c-7.661,0-13.871-6.21-13.871-13.871S81.436,279.097,89.097,279.097z"/>
	<path d="M352.645,341.516c15.321,0,27.742-12.421,27.742-27.742s-12.42-27.742-27.742-27.742
		c-15.321,0-27.742,12.421-27.742,27.742S337.324,341.516,352.645,341.516z M352.645,299.903c7.661,0,13.871,6.21,13.871,13.871
		s-6.21,13.871-13.871,13.871c-7.661,0-13.871-6.21-13.871-13.871S344.984,299.903,352.645,299.903z"/>
	<path d="M380.387,265.226c22.982,0,41.613-18.631,41.613-41.613S403.369,182,380.387,182s-41.613,18.631-41.613,41.613
		C338.797,246.586,357.414,265.203,380.387,265.226z M380.387,195.871c15.321,0,27.742,12.42,27.742,27.742
		s-12.42,27.742-27.742,27.742c-15.321,0-27.742-12.42-27.742-27.742S365.066,195.871,380.387,195.871z"/>
	<path d="M181.29,346.42l9.807-9.807l-19.614-19.621c-3.891-3.908-6.082-9.195-6.096-14.71v-4.758
		c0.014-5.515,2.205-10.802,6.096-14.71l11.485-11.499c6.525-6.488,10.183-15.316,10.16-24.517v-4.758
		c0.023-9.201-3.636-18.029-10.16-24.517l-19.614-19.62l-9.807,9.807l19.614,19.62c3.891,3.908,6.082,9.195,6.096,14.71v4.758
		c-0.014,5.515-2.205,10.802-6.096,14.71l-11.485,11.499c-6.525,6.488-10.183,15.316-10.16,24.517v4.758
		c-0.023,9.201,3.636,18.029,10.16,24.517L181.29,346.42z"/>
	<path d="M250.645,346.42l9.807-9.807l-19.614-19.621c-3.891-3.908-6.082-9.195-6.096-14.71v-4.758
		c0.014-5.515,2.205-10.802,6.096-14.71l11.485-11.499c6.525-6.488,10.183-15.316,10.16-24.517v-4.758
		c0.023-9.201-3.636-18.029-10.16-24.517l-19.614-19.62l-9.807,9.807l19.614,19.62c3.891,3.908,6.082,9.195,6.096,14.71v4.758
		c-0.014,5.515-2.205,10.802-6.096,14.71l-11.485,11.499c-6.525,6.488-10.183,15.316-10.16,24.517v4.758
		c-0.023,9.201,3.636,18.029,10.16,24.517L250.645,346.42z"/>
</g>
<path style="display:none;" d="M172.92,172.139c9.744,0,18.75,0,28.309,0c0,1.86,0,3.501,0,5.143
	c0,16.126,0.058,32.252-0.051,48.377c-0.021,3.046,0.638,4.827,3.697,6.388c10.87,5.547,17.701,14.596,20.225,26.508
	c0.696,3.287,2.019,4.488,5.036,5.338c62.33,17.558,104.468,57.07,124.397,118.478c30.251,93.212-21.282,192.843-114.264,223.363
	c-68.402,22.453-145.989-1.358-190.65-58.492c-26.95-34.477-39.758-73.673-38.595-117.319
	c2.08-78.051,56.995-146.627,132.685-165.977c2.986-0.763,4.568-1.99,5.208-5.225c2.417-12.222,9.548-21.111,20.479-26.832
	c2.748-1.438,3.623-3.042,3.598-6.027c-0.137-16.125-0.07-32.251-0.074-48.377C172.919,175.828,172.92,174.169,172.92,172.139z
	 M150.322,399.057c0,25.051,0,49.466,0,74.262c24.799,0,48.933,0,73.546,0c0-25.07,0-49.394,0-74.262
	C199.092,399.057,174.945,399.057,150.322,399.057z M150.525,390.029c24.676,0,48.542,0,73.279,0
	c-1.698-18.958-3.295-37.575-5.185-56.161c-0.128-1.26-2.45-3.273-3.771-3.289c-18.56-0.217-37.124-0.145-55.687-0.151
	c-2.557-0.001-3.748,0.996-3.966,3.799c-0.559,7.187-1.646,14.333-2.235,21.518C152.033,367.042,151.341,378.358,150.525,390.029z
	 M232.594,473.4c18.964-1.767,37.539-3.447,56.09-5.357c1.062-0.109,2.757-2.09,2.767-3.213c0.176-18.995,0.135-37.993,0.133-56.99
	c0-2.608-1.251-3.662-3.939-3.893c-12.06-1.038-24.094-2.377-36.154-3.425c-6.202-0.539-12.437-0.695-18.897-1.036
	C232.594,424.013,232.594,448.036,232.594,473.4z M146.374,540.707c-1.389-19.295-2.754-37.905-4.044-56.521
	c-0.205-2.965-2.198-2.69-4.217-2.848c-14.212-1.112-28.419-2.279-42.627-3.438c-3.878-0.316-7.754-0.664-12.947-1.111
	c3.65,17.446,7.005,33.926,10.682,50.335c0.356,1.589,2.508,3.533,4.167,3.947c9.947,2.482,19.963,4.714,30.017,6.724
	C133.641,539.041,139.985,539.746,146.374,540.707z M83.366,395.053c1.253,0.252,1.689,0.442,2.106,0.408
	c17.577-1.437,35.144-3.004,52.733-4.259c3.672-0.262,4.087-2.082,4.28-4.992c0.862-13.008,1.842-26.009,2.834-39.008
	c0.379-4.97,0.907-9.929,1.368-14.91c-1.038-0.134-1.509-0.313-1.929-0.231c-16.227,3.142-32.462,6.247-48.646,9.598
	c-1.184,0.245-2.513,2.147-2.891,3.522c-1.788,6.495-3.539,13.023-4.795,19.635C86.522,374.834,85.037,384.932,83.366,395.053z
	 M232.22,481.882c-1.593,19.632-3.168,39.051-4.855,59.845c17.276-3.732,33.721-7.214,50.106-10.956
	c1.335-0.305,2.925-2.222,3.276-3.663c2.392-9.808,4.655-19.656,6.611-29.56c1.321-6.687,2.071-13.487,3.117-20.509
	C270.66,478.686,251.635,480.268,232.22,481.882z M217.641,321.472c-2.784-13.92-5.424-27.595-8.388-41.2
	c-0.296-1.359-2.536-3.241-3.907-3.27c-12.247-0.253-24.502-0.126-36.754-0.155c-2.707-0.006-3.661,1.471-4.131,3.92
	c-1.76,9.179-3.738,18.316-5.49,27.496c-0.843,4.418-1.366,8.897-2.013,13.208C177.344,321.472,196.925,321.472,217.641,321.472z
	 M157.316,550.992c0,1.122-0.186,2.344,0.029,3.49c2.229,11.887,4.725,23.728,6.69,35.657c0.711,4.314,2.931,5.604,6.731,5.622
	c9.95,0.045,19.904,0.293,29.848,0.083c8.005-0.17,8.214-0.371,9.8-8.078c2.514-12.215,4.708-24.495,7.042-36.773
	C196.879,550.992,177.176,550.992,157.316,550.992z M73.341,467.131c0-20.953,0-40.921,0-61.927
	c-13.955,2.894-27.839,5.712-41.669,8.77c-0.985,0.218-2.242,2.184-2.257,3.352c-0.167,12.535-0.184,25.075,0.005,37.61
	c0.019,1.231,1.5,3.28,2.618,3.527C45.726,461.497,59.473,464.265,73.341,467.131z M300.576,467.153
	c13.684-2.816,27.19-5.504,40.625-8.505c1.34-0.299,3.191-2.493,3.218-3.839c0.25-12.391,0.094-24.789,0.193-37.184
	c0.022-2.752-1.331-3.746-3.723-4.242c-5.85-1.213-11.652-2.666-17.519-3.78c-7.596-1.442-15.236-2.647-22.794-3.943
	C300.576,426.346,300.576,446.359,300.576,467.153z M277.739,540.661c-2.034,0-2.755-0.109-3.434,0.016
	c-14.899,2.744-29.78,5.588-44.699,8.213c-2.925,0.515-4.204,1.611-4.325,4.66c-0.121,3.041-0.811,6.068-1.361,9.081
	c-1.829,10.031-3.706,20.053-5.584,30.179c0.633,0.099,1.091,0.297,1.491,0.214c13.881-2.884,27.079-7.686,39.621-14.278
	c0.888-0.467,1.812-1.299,2.215-2.19C266.96,564.874,272.164,553.151,277.739,540.661z M277.79,331.843
	c-5.607-12.596-10.779-24.329-16.104-35.993c-0.505-1.107-1.828-2.149-3.008-2.592c-12.299-4.615-24.639-9.124-36.995-13.583
	c-1.014-0.366-2.236-0.154-3.147-0.2c2.353,13.788,4.58,27.224,7.047,40.617c0.214,1.163,1.863,2.616,3.099,2.928
	c3.102,0.781,6.372,0.862,9.535,1.44C250.84,326.768,263.448,329.159,277.79,331.843z M342.498,468.009
	c-14.082,2.434-27.507,4.686-40.884,7.196c-1.101,0.207-2.45,2.064-2.692,3.342c-0.94,4.959-1.297,10.028-2.205,14.995
	c-1.998,10.938-4.199,21.838-6.34,32.877c0.472,0.037,0.964,0.229,1.31,0.081c11.247-4.815,22.489-9.643,33.7-14.54
	c0.927-0.405,1.95-1.146,2.398-2.007C334.657,496.743,339.623,482.867,342.498,468.009z M96.018,540.083
	c5.799,13.024,10.993,24.876,16.422,36.62c0.608,1.315,2.412,2.388,3.897,2.939c11.888,4.414,23.827,8.694,35.773,12.949
	c1.045,0.372,2.26,0.266,3.41,0.383c-2.44-13.968-4.699-27.545-7.353-41.046c-0.251-1.279-2.874-2.67-4.584-2.985
	c-7.98-1.47-16.056-2.415-24.039-3.867C112.228,543.745,104.987,542.005,96.018,540.083z M147.771,322.65
	c2.618-14.473,5.192-28.708,7.808-43.17c-0.906,0-1.506-0.1-2.061,0.015c-13.579,2.817-26.479,7.56-38.725,14.023
	c-1.47,0.776-2.738,2.495-3.441,4.07c-4.177,9.359-8.194,18.792-12.182,28.234c-0.789,1.868-1.218,3.889-1.903,6.132
	c8.864-1.858,17.046-3.739,25.294-5.257C130.831,325.175,139.167,324.015,147.771,322.65z M342.142,404.56
	c0.077-0.713,0.277-1.198,0.147-1.569c-4.566-13.116-9.091-26.248-13.856-39.292c-0.551-1.508-2.257-2.991-3.789-3.68
	c-10.461-4.701-21.011-9.203-31.559-13.707c-0.845-0.361-1.89-0.253-2.287-0.298c2.588,15.463,5.296,30.667,7.575,45.935
	c0.583,3.904,2.015,5.57,5.899,5.762c3.194,0.158,6.375,0.82,9.532,1.411C323.219,400.887,332.619,402.727,342.142,404.56z
	 M211.462,259.114c-1.516-10.272-13.023-18.784-25.309-18.445c-11.653,0.322-22.74,9.253-23.494,18.445
	C178.915,259.114,195.212,259.114,211.462,259.114z M55.308,346.838c10.205-3.787,19.385-7.041,28.412-10.674
	c1.793-0.722,3.633-2.641,4.369-4.448c3.339-8.209,6.298-16.572,9.369-24.89c0.324-0.878,0.483-1.816,0.938-3.579
	C81.049,315.197,67.183,329.234,55.308,346.838z M55.85,525.752c7.565,13.882,33.025,39.21,42.284,42.322
	c-3.484-9.668-6.954-19.427-10.568-29.131c-0.36-0.966-1.462-1.965-2.451-2.34C75.579,532.981,65.992,529.49,55.85,525.752z
	 M275.5,303.159c3.807,10.67,7.263,20.442,10.821,30.177c0.33,0.904,1.163,1.967,2.013,2.286c9.843,3.691,19.734,7.252,30.29,11.094
	C306.946,329.38,292.965,315.244,275.5,303.159z"/>
<path style="display:none;" d="M-2.707,261.595c12.105-3.139,24.643-3.764,33.541-12.834c8.908-9.079,9.659-21.518,12.668-34.234
	c0.629,3.262,1.018,5.473,1.487,7.667c0.481,2.247,1.132,4.461,1.548,6.719c3.043,16.507,12.802,26.324,29.252,29.572
	c4.337,0.856,8.644,1.861,14.103,3.045c-5.622,1.253-10.102,2.345-14.621,3.242c-15.927,3.162-25.309,12.811-28.588,28.597
	c-0.995,4.791-2.031,9.573-3.18,14.974c-1.394-6.022-2.715-11.432-3.892-16.872c-3.267-15.097-12.997-23.428-27.685-26.635
	C7.292,263.826,2.664,262.786-2.707,261.595z"/>
<path style="display:none;" d="M371.169,515.248c1.767,21.52,13.223,32.187,34.374,33.882c-20.97,1.754-32.602,12.29-34.01,33.459
	c-3.148-8.344-3.544-17.422-10.077-23.831c-6.665-6.537-15.665-7.213-24.571-9.87C357.773,547.444,369.383,536.668,371.169,515.248z
	"/>
<path style="display:none;" d="M12.402,575.408c14.884-1.572,22.428-9.522,23.799-24.216c1.76,14.163,8.745,22.745,23.367,23.453
	c-5.691,2.724-12.179,4.169-16.066,8.152c-3.963,4.06-5.368,10.616-7.84,15.965C34.91,584.953,27.224,576.965,12.402,575.408z"/>
<path style="display:none;fill:#FFFFFF;" d="M150.322,399.057c24.623,0,48.77,0,73.546,0c0,24.868,0,49.193,0,74.262
	c-24.613,0-48.746,0-73.546,0C150.322,448.523,150.322,424.108,150.322,399.057z"/>
<path style="display:none;fill:#FFFFFF;" d="M232.594,473.4c0-25.363,0-49.387,0-73.915c6.46,0.342,12.695,0.498,18.897,1.036
	c12.059,1.048,24.094,2.387,36.154,3.425c2.688,0.231,3.939,1.285,3.939,3.893c0.002,18.997,0.043,37.995-0.133,56.99
	c-0.01,1.123-1.705,3.104-2.767,3.213C270.134,469.953,251.559,471.633,232.594,473.4z"/>
<path style="display:none;" d="M359.927,491.393c0,34.561-0.316,69.127,0.203,103.68c0.146,9.674-2.76,12.542-12.466,12.458
	c-51.228-0.442-102.463-0.405-153.692-0.024c-9.183,0.068-11.945-2.993-11.912-11.917c0.256-69.934,0.281-139.871-0.021-209.805
	c-0.041-9.568,3.073-12.69,12.669-12.62c51.229,0.373,102.463,0.357,153.693,0.012c9.233-0.062,11.806,3.171,11.7,12.096
	C359.678,420.642,359.927,456.019,359.927,491.393z M192.616,429.898c-2.128,18.331-1.943,18.559,14.631,18.575
	c14.59,0.014,29.179,0.014,43.769,0c16.556-0.016,17.976-1.892,13.676-18.575C241.021,429.898,217.233,429.898,192.616,429.898z
	 M192.216,418.998c25.176,0,49.552,0,73.835,0c1.156-17.133,1.156-17.158-13.844-17.188c-15.39-0.031-30.78-0.031-46.169,0
	C191.049,401.84,191.049,401.865,192.216,418.998z"/>
<path style="display:none;" d="M63.085,429.577c-0.712,4.685-2.026,9.368-2.043,14.055c-0.157,45.153-0.073,90.306-0.13,135.459
	c-0.006,4.453,0.018,9.011-0.872,13.335c-1.864,9.056-7.952,14.26-17.041,14.688c-9.734,0.458-16.303-4.745-18.761-14.122
	c-1.109-4.229-0.974-8.851-0.976-13.295c-0.051-85.425-0.037-170.85-0.043-256.275c0-3.253,0.418-6.617-0.286-9.719
	c-0.419-1.846-2.653-3.281-4.071-4.901c-1.574,1.568-4.035,2.904-4.521,4.757c-0.801,3.059-0.379,6.452-0.381,9.705
	c-0.018,34.17-0.088,68.34,0.027,102.51c0.027,8.04-1.993,14.651-10.347,17.325c-8.357,2.675-17.295-3.819-17.358-13.575
	c-0.267-41.895-0.619-83.806,0.282-125.685c0.394-18.306,16.796-32.686,36.087-33.075c28.463-0.574,56.956-0.598,85.418-0.007
	c21.315,0.443,36.179,16.318,36.846,37.7c0.025,0.813,0.092,1.636,0.005,2.439c-3.936,36.621,2.859,70.852,22.124,102.537
	c5.165,8.494,5.858,17.32-4.53,22.947c-7.904,4.282-15.277,0.16-20.597-11.029c-7.151-15.039-15.57-29.683-20.747-45.385
	c-3.685-11.178-3.288-23.8-4.029-35.82c-0.599-9.727,0.088-19.531-0.419-29.269c-0.109-2.089-2.902-4.039-4.458-6.053
	c-1.472,1.986-3.7,3.789-4.232,6.001c-0.741,3.079-0.225,6.464-0.225,9.718c-0.002,84.611,0,169.223-0.008,253.834
	c0,3.66,0.304,7.377-0.212,10.969c-1.509,10.506-7.283,17.181-18.281,17.831c-10.112,0.597-18.359-6.93-19.014-18.201
	c-0.73-12.57-0.292-25.209-0.299-37.818c-0.02-36.203,0.069-72.407-0.11-108.61c-0.021-4.324-1.437-8.64-2.207-12.96
	C66.145,429.586,64.615,429.582,63.085,429.577z"/>
<path style="display:none;" d="M318.701,270.577c13.421-0.001,26.845-0.183,40.262,0.046c16.045,0.274,28.061,7.429,35.059,22.076
	c8.227,17.22,16.684,34.362,23.969,51.98c2.049,4.955,2.062,12.173,0.033,17.136c-6.907,16.893-15.246,33.197-22.83,49.82
	c-3.986,8.737-10.5,13.198-19.463,9.226c-9.73-4.312-10.324-12.581-5.826-21.56c2.001-3.994,3.227-8.512,5.817-12.051
	c17.321-23.667,15.203-46.922-1.23-69.803c-2.473-3.443-6.476-5.787-9.771-8.64c-1.597,4.169-4.317,8.27-4.573,12.52
	c-0.658,10.941-0.574,21.964-0.107,32.924c0.323,7.57-2.806,9.976-9.998,9.889c-21.145-0.255-42.3-0.324-63.442,0.034
	c-7.818,0.132-10.987-2.452-10.666-10.519c0.485-12.181,0.416-24.41-0.128-36.588c-0.126-2.826-3.118-5.525-4.792-8.282
	c-1.437,2.85-4.004,5.656-4.115,8.556c-0.469,12.183-0.661,24.416-0.073,36.589c0.528,10.924-6.434,10.365-13.589,10.113
	c-6.958-0.245-15.42,2.296-15.061-9.884c0.456-15.441-0.417-30.932,0.304-46.353c1.042-22.274,16.365-36.706,38.737-37.178
	C291.04,270.341,304.873,270.578,318.701,270.577z"/>
<path style="display:none;" d="M98.289,223.374c0.348,17.824-13.963,32.599-31.939,32.972
	c-18.194,0.377-32.915-13.321-33.598-31.263c-0.696-18.291,14.007-33.51,32.497-33.637
	C83.282,191.321,97.939,205.486,98.289,223.374z"/>
<path style="display:none;" d="M317.911,256.371c-18.131-0.018-32.401-14.126-32.55-32.181
	c-0.152-18.527,14.598-33.07,33.217-32.749c18.164,0.313,31.953,14.535,31.812,32.81
	C350.248,242.447,336.15,256.389,317.911,256.371z"/>
<g style="display:none;">
	<path style="display:inline;fill:#050505;" d="M226.853,297.246H65.375c-11.477,0-20.777,9.308-20.777,20.777v266.859
		c0,11.467,9.3,20.768,20.777,20.768h161.478c11.477,0,20.777-9.3,20.777-20.768V318.024
		C247.63,306.547,238.33,297.246,226.853,297.246L226.853,297.246z M73.303,335.468c0-2.898,2.347-5.246,5.246-5.246h135.151
		c2.898,0,5.246,2.348,5.246,5.246v196.617c0,2.898-2.348,5.246-5.246,5.246H78.549c-2.9,0-5.246-2.348-5.246-5.246V335.468z
		 M112.143,574.165c0,2.787-2.257,5.046-5.044,5.046H71.275c-2.787,0-5.044-2.259-5.044-5.046v-8.844
		c0-2.787,2.257-5.046,5.044-5.046h35.823c2.787,0,5.044,2.259,5.044,5.046V574.165z M146.125,583.95
		c-7.854,0-14.205-6.357-14.205-14.203s6.351-14.211,14.205-14.211c7.839,0,14.211,6.364,14.211,14.211
		S153.972,583.95,146.125,583.95L146.125,583.95z M226.004,574.165c0,2.787-2.266,5.046-5.054,5.046h-35.814
		c-2.787,0-5.046-2.259-5.046-5.046v-8.844c0-2.787,2.259-5.046,5.046-5.046h35.822c2.787,0,5.046,2.259,5.046,5.046V574.165z
		 M226.004,574.165"/>
	<path style="display:inline;fill:#050505;" d="M232.971,229.283c-8.033,0-14.554,6.513-14.554,14.554
		c0,8.041,6.521,14.562,14.554,14.562c16.193,0,31.418,6.305,42.865,17.751c11.446,11.452,17.751,26.67,17.751,42.855
		c0,8.041,6.521,14.554,14.554,14.554c8.039,0,14.56-6.513,14.56-14.554c0.008-23.957-9.329-46.486-26.275-63.44
		C279.472,238.614,256.945,229.283,232.971,229.283L232.971,229.283z M232.971,229.283"/>
	<path style="display:inline;fill:#050505;" d="M232.978,169.154c-8.033,0-14.554,6.513-14.554,14.554
		c0,8.039,6.521,14.56,14.554,14.56c66.584,0,120.754,54.17,120.754,120.738c0,8.041,6.521,14.562,14.554,14.562
		c8.041,0,14.562-6.521,14.562-14.562C382.84,236.378,315.614,169.154,232.978,169.154L232.978,169.154z M232.978,169.154"/>
</g>
<path style="display:none;" d="M7.498,377.741l21.464,58.971l26.728-9.668v146.514c0,20.762,16.724,37.653,37.486,37.653
	c3.673,0,243.242,0,251.022,0c20.762,0,37.653-16.891,37.653-37.653v-189.94c-8.065,0-207.016,0-207.016,0l207.952-75.689
	l-21.463-58.971c-7.101-19.51-28.751-29.607-48.261-22.504l-39.462,14.363c0.064-0.386,0.13-0.771,0.185-1.161
	c2.588-18.197-5.032-35.765-20.381-46.993c-14.511-10.616-33.081-12.82-49.673-5.898c-16.593,6.922-28.09,21.67-30.746,39.388
	l-5.638,36.363l-29.155-25.772c-13.471-11.908-31.758-15.817-48.918-10.452c-37.781,11.806-48.119,60.212-18.823,86.505
	c0.526,0.472,1.063,0.927,1.606,1.376l-42.057,15.307C10.448,336.597,0.379,358.184,7.498,377.741z M356.917,408.72v164.838
	c0,6.921-5.798,12.551-12.718,12.551h-87.858V408.72H356.917z M231.406,408.72v177.389h-25.27V408.72H231.406z M181.201,586.109
	H93.176c-6.921,0-12.551-5.63-12.551-12.551V417.908l25.242-9.187h75.334V586.109z M185.495,353.025l-17.171-47.176l23.589-8.586
	l17.171,47.176C200.834,347.442,193.745,350.022,185.495,353.025z M321.649,250.042c6.501-2.366,13.72,0.998,16.086,7.501
	l12.879,35.382l-117.942,42.927l-17.171-47.177L321.649,250.042z M213.396,209.933c8.336-3.477,17.761-2.442,25.188,2.991
	c16.865,12.337,12.821,35.97-6.412,42.973c-3.224,1.173-24.241,8.823-25.257,9.192l-15.434,5.617l6.321-40.769
	C199.153,220.921,204.983,213.443,213.396,209.933z M87.22,294.115c-15.097-13.549-9.343-37.961,9.544-43.864
	c8.592-2.684,17.887-0.815,24.805,5.3l32.533,28.76c-9.438,3.436-31.757,11.559-40.809,14.853
	C104.182,302.478,94.435,300.592,87.22,294.115z M38.588,353.068l106.147-38.634l17.171,47.176L43.965,404.538l-12.878-35.382
	C28.714,362.64,32.068,355.442,38.588,353.068z"/>
<g style="display:none;">
	<path style="display:inline;" d="M281.196,376.825c-2.633,4.043-4.034,8.813-4.034,13.634c0,8.007,3.937,15.672,10.44,20.344
		c6.591,4.736,15.307,5.974,22.96,3.262c7.439-2.637,13.339-8.819,15.616-16.377c2.341-7.77,0.698-16.398-4.34-22.761
		c-4.994-6.304-12.856-9.87-20.889-9.477C292.984,365.844,285.539,370.14,281.196,376.825L281.196,376.825z M281.196,376.825"/>
	<g style="display:inline;">
		<defs>
			<rect id="SVGID_1_" x="64.873" y="182" width="284.253" height="424"/>
		</defs>
		<clipPath id="SVGID_2_">
			<use xlink:href="#SVGID_1_"  style="overflow:visible;"/>
		</clipPath>
		<path style="clip-path:url(#SVGID_2_);" d="M124.008,291.777c5.949,3.198,12.658,4.872,19.414,4.872
			c16.047,0,30.966-9.693,37.494-24.354c6.616-14.851,3.621-32.693-7.436-44.596c-11.053-11.889-28.579-16.187-43.878-10.715
			c-15.046,5.378-25.841,19.481-27.083,35.411C101.268,268.471,109.803,284.134,124.008,291.777L124.008,291.777z M124.008,291.777"
			/>
		<path style="clip-path:url(#SVGID_2_);" d="M194.818,256.666c7.833,7.068,18.151,11.032,28.705,11.032
			c16.03,0,31.046-9.248,38.271-23.559c7.326-14.5,5.648-32.42-4.222-45.318c-9.832-12.853-26.474-19.152-42.365-16.031
			c-15.591,3.063-28.524,14.961-32.897,30.235C177.849,228.624,182.78,245.803,194.818,256.666L194.818,256.666z M194.818,256.666"
			/>
		<path style="clip-path:url(#SVGID_2_);" d="M334.407,483.64c0.419,3.892,3.925,6.845,7.826,6.616
			c3.853-0.22,6.962-3.498,6.993-7.352c0.021-2.214-0.013-4.407-0.089-6.616c-0.119-5.18-1.167-10.542-2.675-15.485
			c-1.297-4.259-2.97-8.404-5.096-12.321c-5.197-9.575-12.625-17.889-21.54-24.146c-2.083-1.462-4.293-2.992-6.676-3.912
			c-6.769-3.317-14.885-3.355-21.688-0.11c-1.825,0.642-3.507,1.72-5.12,2.764c-2.011,1.297-3.938,2.72-5.796,4.229
			c-4.323,3.507-8.244,7.529-11.632,11.949c-5.937,7.732-10.322,16.807-12.308,26.377c-1.188,5.734-1.576,11.43-1.529,17.273
			c0.025,3.912,3.223,7.199,7.128,7.361c3.857,0.16,7.271-2.788,7.689-6.625c0.874-8.243,2.839-16.355,7.356-23.428v8.031
			l-16.534,66.791c-0.743,2.883-1.233,5.86,4.386,5.86h13.736l2.553,55.772c0.22,4.563,4.107,8.285,8.682,8.281
			c4.537-0.004,8.391-3.671,8.64-8.201l3.089-55.852h0.925l2.548,55.772c0.224,4.563,4.107,8.285,8.682,8.281
			c4.537-0.004,8.391-3.671,8.644-8.201l3.085-55.852h13.44c1.47,0,2.851-0.65,3.786-1.783c0.938-1.137,1.317-2.615,1.031-4.09
			l-16.803-67.045v-7.618C331.699,467.259,333.553,475.544,334.407,483.64L334.407,483.64z M334.407,483.64"/>
		<path style="clip-path:url(#SVGID_2_);" d="M255.684,538.229l5.705-24.696l0.772-15.32c-7.115-1.792-12.278-8.172-12.328-15.692
			c-0.064-6.891,0.448-13.635,2.011-20.357c1.56-6.721,4.065-13.093,7.348-19.148c1.944-3.587,4.259-6.996,6.773-10.207
			c0.308-2.801,0.253-5.607,0.253-8.421v-71.553c3.626,7.813,6.165,15.992,8.227,24.341c4.457-10.871,14.019-16.376,27.24-18.561
			c-2.185-8.484-5.641-19.055-9.3-27.041c-4.673-10.187-10.339-19.853-17.416-28.57c-4.618-5.696-9.781-10.927-15.379-15.659
			c-2.73-2.268-5.574-4.423-8.539-6.375c-2.493-1.635-5.171-3.089-7.875-4.373c-28.118-13.36-50.44,8.345-50.994,8.835
			c-6,5.328-12,10.655-17.998,15.988c15.831,11.159,28.916,25.977,38.093,43.017c5.873,10.909,9.947,22.912,11.962,35.131
			c1.373,8.307,1.758,16.61,1.689,25.021c-0.096,11.45-9.797,20.995-21.248,20.897c-1.737-0.012-3.427-0.237-5.045-0.65
			c0,0,15.772,57.542,16.668,61.217c1.208,4.973,1.622,15.32-9.899,15.32H187.28l-1.462,25.833l2.633,63.073
			c0.355,7.82,6.993,14.217,14.83,14.221c7.804,0.009,14.433-6.304,14.826-14.095l5.337-105.67l4.407,105.539
			c0.355,7.825,6.997,14.221,14.83,14.226c7.807,0.009,14.432-6.304,14.826-14.095l2.319-45.902
			C253.778,544.03,255.684,538.229,255.684,538.229L255.684,538.229z M255.684,538.229"/>
		<path style="clip-path:url(#SVGID_2_);" d="M204.142,496.835c2.205,0,4.276-0.976,5.683-2.678
			c1.403-1.704,2.015-3.643,1.538-6.127l-28.368-102.877v-16.287c4.111,6.342,7.013,13.659,8.97,20.931
			c1.521,5.67,2.316,11.399,2.937,17.222c0.68,6.346,6.384,11.18,12.747,10.85c6.346-0.329,11.484-5.708,11.535-12.058
			c0.029-3.908,0-7.791-0.19-11.7c-0.262-5.366-1.098-10.731-2.188-15.988c-2.278-10.952-6.334-21.573-11.907-31.27
			c-5.577-9.713-12.625-18.561-20.75-26.263c-3.904-3.701-8.073-7.137-12.451-10.264c-3.351-2.39-6.862-4.774-10.618-6.481
			c-0.333-0.151-0.672-0.287-1.018-0.417c-11.087-5.43-24.388-5.497-35.529-0.177c-3.954,1.394-7.592,3.912-11.014,6.286
			c-4.331,3.008-8.442,6.33-12.33,9.892c-8.281,7.588-15.341,16.367-21.138,25.971c-2.902,4.812-5.387,9.916-7.47,15.131
			c-2.041,5.107-3.828,10.478-4.939,15.877c-1.108,5.388-1.919,10.741-2.442,16.22c-0.419,4.319-0.326,8.679-0.296,13.014
			c0.004,0.054,0.004,0.114,0.004,0.173c0.047,6.384,5.244,11.758,11.616,12.058c6.346,0.301,11.982-4.546,12.666-10.854
			c0.622-5.822,1.416-11.552,2.937-17.217c1.99-7.403,4.986-14.695,9.118-21.168v15.282L72.791,488.051
			c-0.422,2.172,0.14,4.394,1.538,6.097c1.407,1.707,3.477,2.687,5.692,2.687h23.678l4.327,95.39
			c0.367,7.458,6.692,13.546,14.166,13.571c7.462,0.022,13.817-5.987,14.222-13.436l5.238-95.526h1.188l4.327,95.395
			c0.368,7.454,6.696,13.546,14.167,13.567c7.461,0.022,13.816-5.987,14.226-13.436l5.235-95.526H204.142z M204.142,496.835"/>
	</g>
</g>
<g style="display:none;">
	<path style="display:inline;" d="M207.133,337.242c15.164,0,27.538-17.651,27.538-32.875c0-15.163-12.374-27.477-27.538-27.477
		c-15.224,0-27.538,12.314-27.538,27.477C179.596,319.592,191.909,337.242,207.133,337.242L207.133,337.242z M207.133,337.242"/>
	<path style="display:inline;" d="M174.44,389.315v-22.337c0.712-0.167,1.471-0.409,2.244-0.652v22.989h23.337l5.748-44.597h-0.061
		l-2.608-5.156c-20.198,1.001-42.171,8.886-43.171,9.235c-0.122,0.06-0.182,0.121-0.303,0.121c-0.774,0.348-1.426,0.834-2.077,1.304
		c-0.47,0.349-1.062,0.591-1.471,1.001c-0.531,0.47-0.834,1.122-1.243,1.714c-0.425,0.546-0.895,1.077-1.122,1.668
		c-0.242,0.591-0.304,1.243-0.485,1.835c-0.167,0.773-0.471,1.486-0.471,2.305c0,0.121-0.061,0.182-0.061,0.304l-0.061,30.615
		c1.077-0.167,2.078-0.348,3.139-0.348H174.44z M174.44,389.315"/>
	<path style="display:inline;" d="M242.495,350.571l2.077-0.819l1.835-3.503c-8.416-2.547-22.154-6.035-35.241-6.687l-2.548,5.156
		h-0.121l5.747,44.597h9.296l8.643-16.286l-0.47-2.199C229.879,362.308,234.382,353.771,242.495,350.571L242.495,350.571z
		 M242.495,350.571"/>
	<g style="display:inline;">
		<defs>
			<rect id="SVGID_3_" x="-5.16" y="260.362" width="422.16" height="303.276"/>
		</defs>
		<clipPath id="SVGID_4_">
			<use xlink:href="#SVGID_3_"  style="overflow:visible;"/>
		</clipPath>
		<path style="clip-path:url(#SVGID_4_);" d="M351.598,324.99c16.301,0,29.509-18.833,29.509-35.134
			c0-16.286-13.208-29.494-29.509-29.494c-16.225,0-29.433,13.208-29.433,29.494C322.166,306.157,335.373,324.99,351.598,324.99
			L351.598,324.99z M351.598,324.99"/>
		<path style="clip-path:url(#SVGID_4_);" d="M407.644,399.262c-0.531,0-1.077,0.243-1.607,0.364l0.955-1.137
			c1.956-2.123,3.017-4.914,3.017-7.749l-0.121-42.352c0-0.121-0.06-0.243-0.06-0.304c0-0.879-0.288-1.653-0.47-2.487
			c-0.182-0.652-0.242-1.365-0.531-1.956c-0.304-0.713-0.774-1.183-1.183-1.774c-0.425-0.652-0.773-1.305-1.365-1.835
			c-0.425-0.471-1.016-0.713-1.547-1.062c-0.773-0.546-1.41-1.077-2.305-1.365c-0.061-0.06-0.121-0.121-0.242-0.181
			c-1.062-0.349-24.642-8.826-46.265-9.887l-2.775,5.504h-0.06l7.824,61.186l-9.311,16.286l-9.356-16.286l7.824-61.186h-0.06
			l-2.79-5.504c-20.85,1-43.475,8.886-46.022,9.766l-46.143,15.406l2.79-5.217c0.592-1.122,0.167-2.547-0.955-3.138
			c-1.122-0.592-2.547-0.182-3.2,1l-5.034,9.538l-3.367,1.077c-6.111,2.062-9.417,8.643-7.355,14.739
			c0.243,0.834,0.713,1.547,1.122,2.259l-8.582,16.286c-0.591,1.122-0.182,2.548,0.955,3.139c0.348,0.182,0.697,0.304,1.062,0.304
			c0.834,0,1.653-0.485,2.077-1.243l7.87-14.815c1.896,1.305,4.201,2.078,6.581,2.078c1.243,0,2.487-0.242,3.67-0.591l55.969-18.667
			c0.061-0.061,0.121-0.061,0.121-0.121c0.061,0,0.121,0,0.182,0c0.121-0.061,4.079-1.471,10.008-3.139v76.183l-30.449,6.157
			c-6.217,1.243-10.842,6.581-11.191,12.919l-4.974,90.74c-0.425,7.704,5.504,14.33,13.207,14.755c0.289,0,0.531,0,0.774,0
			c7.4,0,13.556-5.747,13.981-13.208l4.322-79.913l12.025-2.426v81.566c0,6.46,5.201,11.661,11.601,11.661h79.382
			c6.444,0,11.661-5.262,11.661-11.661V410.939C419.305,404.479,414.088,399.262,407.644,399.262L407.644,399.262z M384.246,356.197
			c0.819,0.243,1.592,0.485,2.366,0.713l0.06,29.387l-2.426,2.654V356.197z M396.029,531.293h-56.091v-61.777l56.091-13.147V531.293
			z M396.029,410.939v21.442l-11.782,2.775v-11.312l11.782-13.147C396.029,410.817,396.029,410.878,396.029,410.939L396.029,410.939
			z M396.029,410.939"/>
	</g>
	<path style="display:inline;" d="M62.546,324.99c16.286,0,29.494-18.833,29.494-35.134c0-16.286-13.208-29.494-29.494-29.494
		c-16.286,0-29.493,13.208-29.493,29.494C33.053,306.157,46.26,324.99,62.546,324.99L62.546,324.99z M62.546,324.99"/>
	<path style="display:inline;" d="M125.628,438.537l-30.449-6.157v-76.183c0.834,0.243,1.607,0.485,2.32,0.652v47.508
		c0,4.383,2.548,8.416,6.444,10.433l18.666,9.296c1.653,0.834,3.488,1.243,5.217,1.243c4.261,0,8.401-2.366,10.418-6.46
		c2.896-5.747,0.591-12.738-5.217-15.634l-12.191-6.096v-48.752c0-0.121-0.061-0.182-0.061-0.364c0-0.819-0.303-1.653-0.531-2.487
		c-0.121-0.652-0.182-1.304-0.485-1.895c-0.288-0.713-0.758-1.243-1.183-1.835c-0.47-0.591-0.833-1.304-1.365-1.774
		c-0.47-0.471-1.061-0.773-1.592-1.122c-0.713-0.485-1.426-1.016-2.26-1.365c-0.06,0-0.106-0.121-0.227-0.121
		c-1.076-0.41-24.642-8.886-46.325-9.948l-2.73,5.565h-0.061l7.824,61.186l-9.356,16.286l-9.296-16.286L61,333.042h-0.061
		l-2.775-5.565c-21.623,1.062-45.204,9.538-46.265,9.948c-0.121,0-0.182,0.121-0.304,0.121c-0.819,0.348-1.471,0.879-2.244,1.365
		c-0.531,0.409-1.122,0.652-1.547,1.061c-0.591,0.531-0.94,1.243-1.349,1.835c-0.425,0.591-0.895,1.122-1.183,1.835
		c-0.303,0.591-0.364,1.243-0.546,1.956c-0.167,0.773-0.47,1.608-0.47,2.426c0,0.121-0.061,0.243-0.061,0.304l-0.06,42.413
		c0,2.836,1.076,5.626,3.017,7.749l0.956,1.137c-0.531-0.121-1.001-0.364-1.592-0.364c-6.46,0-11.676,5.216-11.676,11.676V542.97
		c0,6.46,5.216,11.661,11.676,11.661h79.367c6.399,0,11.615-5.201,11.615-11.661v-81.566l12.01,2.426l4.337,79.913
		c0.41,7.46,6.566,13.208,13.981,13.208c0.227,0,0.47,0,0.758,0c7.704-0.425,13.633-6.991,13.208-14.755l-4.974-90.694
		C136.53,445.118,131.905,439.78,125.628,438.537L125.628,438.537z M27.533,356.91c0.773-0.227,1.547-0.47,2.366-0.713v32.754
		l-2.366-2.654V356.91z M29.898,423.843v11.312l-11.722-2.775v-21.442c0-0.061-0.06-0.121-0.06-0.242L29.898,423.843z
		 M74.207,531.293h-56.03v-74.924l56.03,13.147V531.293z M74.207,531.293"/>
	<path style="display:inline;" d="M258.372,395.35H155.773c-7.703,0-13.981,6.278-13.981,14.042c0,7.703,6.278,13.981,13.981,13.981
		h2.608V542.97c0,6.46,5.217,11.661,11.676,11.661h74.09c6.46,0,11.676-5.262,11.676-11.661V423.373h2.548
		c7.764,0,14.042-6.278,14.042-13.981C272.413,401.628,266.135,395.35,258.372,395.35L258.372,395.35z M258.372,395.35"/>
</g>
<path d="M-12.776,472.956c1.118-4.112,2.47-8.115,5.946-10.915c0.682-0.549,1.643-0.802,2.517-1.043
	c0.553-0.152,1.181-0.029,1.776-0.029c87.484,0,174.967-0.047,262.451,0.019c46.676,0.035,93.352,0.253,140.027,0.422
	c4.904,0.018,9.812,0.472,14.708,0.348c4.379-0.111,6.796,2.084,8.139,5.855c0.667,1.873,1.026,3.856,1.525,5.789
	c0,1.338,0,2.676,0,4.014c-0.759,2.464-1.308,5.02-2.333,7.367c-1.156,2.647-3.191,4.37-6.353,4.44
	c-6.083,0.134-12.163,0.513-18.246,0.545c-29.022,0.155-58.044,0.225-87.066,0.34c-0.953,0.004-1.905,0.158-2.857,0.241
	c-60.063,0-120.125,0-180.188,0c-0.803-0.084-1.605-0.239-2.408-0.241c-32.139-0.088-64.278-0.13-96.416-0.258
	c-10.241-0.041-20.482-0.446-30.722-0.406c-4.067,0.016-6.61-1.692-8.17-5.2c-0.863-1.94-1.559-3.956-2.33-5.937
	C-12.776,476.524-12.776,474.74-12.776,472.956z"/>
<path d="M424.313,318.636c-0.44,1.398-0.823,2.816-1.332,4.189c-1.447,3.907-3.899,6.135-8.453,6.124
	c-10.771-0.025-21.543,0.438-32.315,0.45c-128.178,0.137-256.356,0.218-384.534,0.401c-2.751,0.004-4.548-0.895-6.281-2.84
	c-2.49-2.795-3.342-6.203-4.175-9.662c0-1.487,0-2.973,0-4.46c0.783-2.297,1.342-4.703,2.402-6.864
	c1.525-3.109,3.868-4.787,7.751-4.781c19.841,0.031,39.682-0.317,59.523-0.345c84.128-0.118,168.256-0.17,252.384-0.257
	c0.879-0.001,1.757-0.157,2.635-0.241c35.086,0,70.172,0,105.258,0c3.741,3.207,6.144,7.207,7.136,12.042
	C424.313,314.474,424.313,316.555,424.313,318.636z"/>
<path style="fill:#FFFFFF;" d="M311.919,300.35c-0.878,0.084-1.757,0.24-2.635,0.241c-84.128,0.087-168.256,0.139-252.384,0.257
	c-19.841,0.028-39.682,0.376-59.523,0.345c-3.883-0.006-6.226,1.672-7.751,4.781c-1.06,2.161-1.619,4.567-2.402,6.864
	c0-4.163,0-8.326,0-12.488C95.455,300.35,203.687,300.35,311.919,300.35z"/>
<path style="fill:#FFFFFF;" d="M-12.776,478.308c0.771,1.982,1.467,3.997,2.33,5.937c1.561,3.507,4.103,5.215,8.17,5.2
	c10.24-0.04,20.481,0.365,30.722,0.406c32.139,0.129,64.277,0.17,96.416,0.258c0.803,0.002,1.606,0.157,2.408,0.241
	c-46.682,0-93.365,0-140.047,0C-12.776,486.324-12.776,482.316-12.776,478.308z"/>
<path style="fill:#FFFFFF;" d="M307.459,490.35c0.952-0.084,1.904-0.238,2.857-0.241c29.022-0.114,58.044-0.185,87.066-0.34
	c6.083-0.032,12.163-0.411,18.246-0.545c3.162-0.07,5.197-1.793,6.353-4.44c1.025-2.348,1.574-4.903,2.333-7.367
	c0,4.311,0,8.623,0,12.934C385.362,490.35,346.41,490.35,307.459,490.35z"/>
<path style="fill:#FFFFFF;" d="M424.313,312.392c-0.993-4.835-3.395-8.836-7.136-12.042c2.351,0,4.703,0,7.136,0
	C424.313,304.364,424.313,308.378,424.313,312.392z"/>
<path d="M184.258,430.911c0.595-4.417,1.092-8.355,1.663-12.283c0.576-3.964,1.298-7.909,1.778-11.884
	c0.094-0.776-0.432-1.825-1-2.45c-4.092-4.509-8.277-8.934-12.413-13.403c-1.002-1.083-1.934-2.231-3.288-3.801
	c2.803-0.573,5.198-1.111,7.612-1.545c4.598-0.825,9.204-1.608,13.814-2.372c1.598-0.265,2.625-1.068,3.328-2.567
	c2.925-6.244,5.935-12.449,8.925-18.662c0.311-0.646,0.703-1.253,1.244-2.207c0.798,1.538,1.467,2.744,2.061,3.985
	c2.593,5.417,5.236,10.813,7.708,16.285c0.933,2.065,2.344,3,4.513,3.347c5.857,0.937,11.692,2.01,17.533,3.048
	c0.855,0.152,1.69,0.412,2.983,0.733c-1.234,1.449-2.184,2.643-3.216,3.762c-3.978,4.312-7.923,8.657-12.01,12.864
	c-1.289,1.327-1.595,2.592-1.302,4.354c1.037,6.22,1.948,12.46,2.87,18.698c0.172,1.161,0.174,2.346,0.288,4.013
	c-1.491-0.714-2.665-1.23-3.797-1.825c-5.056-2.655-10.123-5.29-15.134-8.026c-1.727-0.943-3.214-0.985-4.975-0.018
	c-5.264,2.891-10.604,5.644-15.923,8.434C186.62,429.864,185.677,430.253,184.258,430.911z"/>
<path d="M262.058,386.909c4.763-0.816,8.963-1.58,13.178-2.243c3.3-0.519,6.636-0.826,9.919-1.432
	c0.726-0.134,1.548-1.008,1.895-1.744c3-6.378,5.9-12.803,8.836-19.212c0.366-0.799,0.768-1.582,1.294-2.661
	c0.403,0.672,0.715,1.111,0.946,1.59c3.252,6.753,6.522,13.497,9.709,20.281c0.57,1.213,1.25,1.727,2.621,1.916
	c6.617,0.914,13.213,1.984,19.815,3.009c0.651,0.101,1.292,0.267,2.366,0.493c-0.981,1.153-1.714,2.123-2.556,2.986
	c-4.567,4.681-9.199,9.299-13.701,14.041c-0.628,0.661-1.031,1.937-0.91,2.845c0.878,6.548,1.931,13.072,2.893,19.609
	c0.193,1.308,0.235,2.638,0.388,4.453c-2.626-1.297-4.911-2.32-7.094-3.526c-4.158-2.297-8.307-4.619-12.356-7.099
	c-1.417-0.868-2.414-0.803-3.803,0.007c-5.836,3.401-11.746,6.674-17.633,9.987c-0.633,0.356-1.29,0.67-2.421,1.254
	c0.484-3.228,0.883-6.027,1.328-8.819c0.806-5.058,1.709-10.103,2.399-15.177c0.127-0.931-0.292-2.217-0.925-2.923
	c-4.312-4.815-8.75-9.518-13.142-14.261C264.216,389.319,263.348,388.337,262.058,386.909z"/>
<path d="M389.224,360.008c2.835,6.162,5.727,11.623,7.865,17.366c1.621,4.356,4.014,6.361,8.748,6.637
	c5.234,0.305,10.413,1.552,15.614,2.403c0.696,0.114,1.378,0.318,2.472,0.576c-1.622,1.845-2.951,3.424-4.351,4.935
	c-3.788,4.088-7.54,8.213-11.45,12.182c-1.297,1.317-1.376,2.61-1.103,4.226c1.148,6.808,2.244,13.624,3.341,20.44
	c0.116,0.718,0.111,1.455,0.189,2.564c-0.96-0.477-1.669-0.793-2.343-1.17c-5.634-3.157-11.311-6.241-16.863-9.537
	c-1.809-1.074-3.143-1.216-5.004-0.076c-4.618,2.829-9.381,5.423-14.121,8.048c-1.399,0.775-2.916,1.338-4.994,2.275
	c0.717-5.26,1.319-9.95,2.007-14.628c0.443-3.01,0.957-6.012,1.545-8.998c0.299-1.522-0.04-2.59-1.19-3.72
	c-4.504-4.427-8.894-8.97-13.303-13.493c-0.869-0.891-1.637-1.881-2.769-3.195c2.769-0.467,5.137-0.898,7.515-1.261
	c4.917-0.752,9.83-1.535,14.763-2.157c1.386-0.175,2.04-0.783,2.601-1.964c2.707-5.696,5.475-11.364,8.264-17.021
	C387.307,363.126,388.124,361.896,389.224,360.008z"/>
<path d="M149.487,386.956c-1.444,1.677-2.602,3.107-3.849,4.456c-4.034,4.363-8.079,8.716-12.171,13.024
	c-0.888,0.935-1.22,1.773-0.984,3.135c1.25,7.238,2.351,14.502,3.495,21.758c0.091,0.574,0.114,1.159,0.2,2.065
	c-1.399-0.732-2.575-1.309-3.715-1.95c-5.496-3.094-11.006-6.165-16.454-9.341c-1.255-0.732-2.156-0.725-3.427,0.01
	c-5.52,3.195-11.114,6.263-16.696,9.35c-0.813,0.449-1.708,0.75-3.07,1.337c0.741-5.263,1.384-10.022,2.089-14.773
	c0.458-3.082,1.115-6.139,1.448-9.232c0.1-0.932-0.313-2.206-0.956-2.884c-4.798-5.07-9.716-10.026-14.583-15.031
	c-0.502-0.516-0.916-1.117-1.685-2.068c3.789-0.608,7.19-1.17,10.596-1.695c3.887-0.599,7.768-1.252,11.673-1.699
	c1.409-0.161,2.023-0.82,2.585-1.98c3.074-6.339,6.209-12.648,9.341-18.958c0.324-0.653,0.77-1.246,1.363-2.191
	c0.556,1.01,1.015,1.741,1.375,2.517c2.87,6.19,5.751,12.376,8.552,18.598c0.552,1.226,1.257,1.752,2.618,1.944
	c6.686,0.941,13.352,2.014,20.024,3.056C147.878,386.5,148.486,386.705,149.487,386.956z"/>
<path d="M22.796,359.313c2.166,4.511,4.084,8.509,6.004,12.505c0.835,1.738,1.984,3.395,2.452,5.226
	c1.327,5.187,4.771,6.867,9.793,7.2c5.016,0.332,9.983,1.418,14.968,2.191c0.626,0.097,1.235,0.305,2.226,0.556
	c-1.88,2.055-3.475,3.896-5.175,5.635c-3.581,3.666-7.18,7.316-10.853,10.889c-1.114,1.083-1.506,2.054-1.233,3.679
	c1.17,6.95,2.139,13.933,3.165,20.907c0.106,0.723,0.102,1.463,0.181,2.683c-1.932-0.895-3.613-1.553-5.178-2.421
	c-4.866-2.698-9.709-5.439-14.51-8.25c-1.174-0.687-2.054-0.669-3.234,0.009c-5.982,3.437-12.017,6.78-18.039,10.147
	c-0.631,0.353-1.294,0.648-2.321,1.159c0.834-5.432,1.604-10.469,2.381-15.505c0.418-2.713,0.711-5.456,1.324-8.124
	c0.352-1.533-0.097-2.504-1.078-3.548c-4.425-4.705-8.806-9.452-13.198-14.188c-0.799-0.861-1.572-1.746-2.726-3.03
	c2.737-0.55,5.059-1.103,7.411-1.472c4.984-0.781,9.975-1.526,14.98-2.15c1.365-0.17,2.032-0.695,2.586-1.939
	C15.948,374.229,19.275,367.029,22.796,359.313z"/>
</svg>
