<?xml version="1.0" encoding="utf-8"?>
<!-- Generator: Adobe Illustrator 18.0.0, SVG Export Plug-In . SVG Version: 6.00 Build 0)  -->
<!DOCTYPE svg PUBLIC "-//W3C//DTD SVG 1.1//EN" "http://www.w3.org/Graphics/SVG/1.1/DTD/svg11.dtd">
<svg version="1.1" id="Layer_1" xmlns="http://www.w3.org/2000/svg" xmlns:xlink="http://www.w3.org/1999/xlink" x="0px" y="0px"
	 viewBox="0 0 612 511" enable-background="new 0 0 612 511" xml:space="preserve">
<g>
	<path d="M575.6,89.8c0,93.2,0,186.5,0,279.7c-0.9,2.7-1.4,5.6-2.6,8.2c-5.7,12-15.4,17.9-28.7,17.9c-55.6,0-111.3,0-166.9,0
		c-1.1,0-2.2,0-3.4,0c0,16.8,0,33.1,0,49.8c45.1,0,90,0,134.9,0c0,6.8,0,13.1,0,19.5c-132.8,0-265.4,0-398,0c0-6.6,0-13,0-19.6
		c45.1,0,90.1,0,135.2,0c0-16.6,0-33,0-49.7c-1.2,0-2.3,0-3.3,0c-30.3,0-60.7,0-91,0c-25.4,0-50.8,0-76.1,0
		c-10.9,0-19.8-4.1-25.8-13.2c-2.5-3.8-3.6-8.5-5.3-12.8c0-93.2,0-186.5,0-279.7c1.3-3.6,2-7.6,3.9-10.9
		c6.2-10.7,15.8-15.4,28.1-15.4c155.7,0.1,311.4,0,467.1,0c1.2,0,2.3,0,3.5,0.1c10.6,0.6,18.8,5.5,24.2,14.6
		C573.3,81.8,574.2,86,575.6,89.8z M310,84.9c-27.4,0-54.7,0-82.1,0c-50.6,0-101.2,0-151.8,0.1c-2.2,0-4.7,0.5-6.7,1.6
		c-3.3,1.9-3.9,5.3-3.9,8.9c0,89.3,0,178.7,0,268c0,7.7,3.1,10.9,10.8,10.9c155.7,0,311.5,0,467.2,0c7.7,0,10.8-3.1,10.8-10.9
		c0-89.2,0-178.3,0.1-267.5c0-6.4-3-11.2-11.2-11.2C465.6,85,387.8,84.9,310,84.9z"/>
</g>
<g>
	<path d="M300.9,101.2c3.8,0,7.7,0,11.5,0c0.6,0.1,1.1,0.2,1.7,0.2c6.8,0.3,13.6,1.2,20.2,2.8c32,7.4,57.8,24.4,77,51
		c13.1,18.2,20.8,38.6,23.1,60.9c0.3,2.6,0.5,5.3,0.8,7.9c0,3.8,0,7.7,0,11.5c-0.1,0.5-0.2,1-0.2,1.5c-0.4,7.3-1.3,14.4-3,21.5
		c-8,33.3-26.3,59.6-54.7,78.6c-17.2,11.5-36.3,18.2-56.9,20.4c-2.6,0.3-5.3,0.5-7.9,0.8c-3.8,0-7.7,0-11.5,0
		c-0.5-0.1-1-0.2-1.5-0.2c-12.7-0.7-25.1-3.2-37.1-7.7c-27.8-10.4-49.7-28.3-65.3-53.6c-10.1-16.3-16.1-34.1-18.1-53.2
		c-0.3-2.7-0.5-5.4-0.8-8.1c0-3.8,0-7.7,0-11.5c0.2-1.7,0.3-3.5,0.5-5.2c1-12.6,3.8-24.8,8.6-36.6c11.6-28.5,30.9-50.3,57.8-65.3
		c14.9-8.3,30.9-13.2,47.8-15C295.5,101.7,298.2,101.5,300.9,101.2z M371,151c-39.5-33.2-104.3-32.1-142.5,13.7
		c-35.6,42.7-27,99.3-0.4,129.3C275.7,246.4,323.3,198.7,371,151z M385.5,165.5c-47.7,47.7-95.3,95.4-143,143
		c32.9,28.3,90.2,33.9,131.5-2.5C416.8,268.3,418.7,205.6,385.5,165.5z"/>
</g>
<g>
	<path d="M124.7,256.3v28.9h-22.8V183c16.4,0,32,0,48.2,0c26.1,0,39.1,16.9,39.1,36.6c0,20.4-13.1,36.4-39.1,36.6H124.7z
		 M124.7,235.4h25.4c10.9,0,16.4-7.2,16.4-15.3s-5.5-15.5-16.4-15.5h-25.4V235.4z"/>
	<path d="M253.3,287.6c-32.7,0-55.2-20.3-55.2-53.6s22.5-53.6,55.2-53.6s55.2,20.3,55.2,53.6S286,287.6,253.3,287.6z M253.3,200.9
		c-19.4,0-32.8,14.6-32.8,33.1c0,19.1,13.4,33,32.8,33c19.9,0,32.8-14,32.8-33C286.2,215.4,273.2,200.9,253.3,200.9z"/>
	<path d="M416.1,285.2h-25.3l-26.1-33.6h-16.5v33.6h-22.8V183c16.6,0,32,0,48.5,0c24.7,0,37.8,16.5,37.8,34.5
		c-0.1,13.3-4.1,25.1-23.7,32.1l28,33.9V285.2z M348.2,202.5v29.8h26c10.5,0,15-7.9,15-14.3c-0.1-7-4.7-15.5-15.3-15.5H348.2z"/>
	<path d="M502.4,249.4l-1.5-32.1V183h22.9v102.2h-19.6l-50.8-65.4l0.9,33.6v31.8h-23.1V183h19.6L502.4,249.4z"/>
</g>
</svg>
