<?xml version="1.0" encoding="utf-8"?>
<!-- Generator: Adobe Illustrator 18.0.0, SVG Export Plug-In . SVG Version: 6.00 Build 0)  -->
<!DOCTYPE svg PUBLIC "-//W3C//DTD SVG 1.1//EN" "http://www.w3.org/Graphics/SVG/1.1/DTD/svg11.dtd">
<svg version="1.1" id="Layer_1" xmlns="http://www.w3.org/2000/svg" xmlns:xlink="http://www.w3.org/1999/xlink" x="0px" y="0px"
	 viewBox="0 0 552 504" enable-background="new 0 0 552 504" xml:space="preserve">
<g display="none">
	<path display="inline" fill="#0B050C" d="M128.2,122c1.2-0.3,2.4-1,3.2-1.9c1.9-1.9,2.2-4.6,1-7c-1.1-2.2-3.3-4.1-5.8-4.2
		c-5.6-0.1-8.2,7.5-5.1,11.6C123.3,122.7,126,123,128.2,122L128.2,122z"/>
	<path display="inline" fill="#0B050C" d="M159.4,121.6c2.1,1.3,4.6,1.3,6.7,0c1.4-0.9,2.4-2.3,2.7-3.8c0.2-0.4,0.3-0.8,0.4-1.2
		c0.6-2.1,0-4.4-1.6-6c-2-1.9-4.9-2.2-7.3-1C156.1,111.6,155.4,119,159.4,121.6L159.4,121.6z"/>
	<path display="inline" fill="#0B050C" d="M145.8,131.5c2.2,0.1,5.6-0.9,6.1-3.3c0.3-1.8-1.1-3.7-3.1-3.1c-1.2,0.4-2.3,1.3-3.4,0.9
		c-1-0.4-1.6-1-2.7-0.9c-1,0.1-2.1,0.8-2.2,1.9C140.5,129.7,143.5,131.4,145.8,131.5L145.8,131.5z"/>
	<path display="inline" fill="#0B050C" d="M131.6,137.6c-0.1,0.1-0.2,0.3-0.3,0.4c-4.5,10.1,26.9,14.8,29.3,1.1
		c0.3-1.9-1.1-3.5-3.1-3.1c-1.4,0.3-2,0.8-3,1.7c-2.2,2-4.1,3-7.2,3.5c-5.6,1-8.4-1.3-12.7-4C133.6,136.7,132.3,136.9,131.6,137.6
		L131.6,137.6z"/>
	<path display="inline" fill="#0B050C" d="M120.1,398.8c1-7.8,2.7-15.3,4.2-23.1c0.7-3.7,1.8-7.8,1.4-11.6c-0.1-1.1-0.4-2.1-0.8-3
		c-1.3-2.6-3.7-2.3-2.5-5.8c0.6-1.8,2.2-3.3,3.5-4.6c3.3-3.1,7.4-7.4,12.3-6.6c3.9,0.6,6.5,2.6,7.2,6.2c0.7,3.9,0.6,7.2,0.3,11.1
		c-0.8,9.3-1.3,18.6-2.9,27.8c-0.8,4.7-1.6,10.1-3.6,14.5c-1.5,3.4-2.9,7.9-7.1,8.9c-2.9,0.7-7.6-0.8-10.1-2
		c-2.3-1.1-2.3-1.3-2.8-3.6C118.5,404.3,119.8,401.4,120.1,398.8L120.1,398.8z M128.8,327.5c0.5-3.3,5.2-4.8,8-4.8
		c0.7,0,1.8,0.7,2.7,1.9c1.5,1.9,2.4,4,0.7,6.2c-0.7,1-3.3,3.2-4.5,3.5c-1.3,0.3-3.8-0.4-5.4-0.7
		C129.2,331.8,128.5,329.8,128.8,327.5L128.8,327.5z M117.4,417.9c6.7,3.2,14.5,5,21,0.9c7.5-4.8,9.8-13.7,11.6-21.9
		c2.4-10.5,3.2-21.3,4-32c0.5-6.8,2.2-16.6-2.3-22.5c-1.8-2.4-4.5-4.2-7.4-5.4c0.4-0.4,0.7-0.7,1.1-1.1c6.1-6.3,1.8-16.2-5.4-19.3
		c-3.1-1.3-7-0.4-10,0.9c-3.9,1.7-6.7,4-7.9,8c-1,3.5-0.7,7,1.3,10.2c0.6,0.9,1.3,2,2.1,2.9c-5.7,3.4-11.3,9.4-11.3,15.9
		c-0.6,1.9-0.6,3.9,0.5,5.9c0.7,1.2,1.7,1.9,2.6,2.9c2.1,2.5,1.6,4.6,0.6,7.8c-1.5,4.8-3.6,9.6-4.6,14.6c-0.9,4.3-1.3,8.5-2.1,12.8
		C109.9,406.2,109.3,414.1,117.4,417.9L117.4,417.9z"/>
	<g display="inline">
		<path fill="#0B050C" d="M280.4,94.2c-1.9,1.1-3.3,3.4-3.4,5.7c0,1.4,0.7,2.6,1.7,3.5c0.7,1.2,1.7,2.3,3.1,2.7
			c3.8,1.1,6.6-2.6,6.8-6c0.1-1.8-0.5-3.6-1.7-4.9C285.3,93.2,282.5,93,280.4,94.2L280.4,94.2z"/>
		<path fill="#0B050C" d="M483,444.3c0,2.7-0.3,5.1-0.7,7.7c-0.8,5.6-1.9,10.7-8.4,11.7c-5.7,0.9-12.2-0.3-18-0.5
			c-6.1-0.2-12.3-0.9-18.4-1.1c-13.6-0.6-27.7-0.4-41.3,0.5c-14.1,0.9-28.6,0.2-42.8-0.5c-53.6-2.7-107.3,0.8-160.9,0.3
			c-7.2-0.1-14.2,1.3-21.4,0.6c-7.9-0.8-15.8-0.4-23.8-0.4c-15.8,0.1-31.8-0.5-47.6,0.2c-7,0.3-13.9,1.2-20.9,0.8
			c-3.6-0.2-7.2-0.6-10.7-0.9c-3.3-0.3-7.1-0.1-10.3-1c-5.5-1.6-5-11.2-5-16.1c0-0.8,0-1.5,0-2.3c3.7,1.5,8.2,1.9,11.8,1.9
			c7.8,0,15.5-0.5,23.2-0.1c27.9,1.2,56.1,0,84-0.6c12.2-0.2,24.4-0.5,36.7-0.7c13.4-0.3,26.6-1,40-1.3c15.3-0.3,30.7-0.5,45.9-0.5
			c7.2,0,14.5,0,21.7,0c28,0,55.9-0.6,83.8-0.5c7,0,13.9-0.8,21-0.8c6.9,0.1,13.8-0.1,20.7,0.1c6.2,0.1,12.3,0.6,18.5,0.7
			c4,0.1,8,0,12,0.1C474.9,441.4,483.2,440.6,483,444.3L483,444.3z M50.8,314.6c0-1.6,0-3.1,0-4.7c12.8-0.1,25.5-1.1,38.3-1.2
			c13.9-0.1,27.9,2.1,41.8,1.8c29.1-0.5,58.2,0.6,87.2-1.3c-0.3,3.2-0.3,6.4-0.4,9.6c-0.2,5.2-0.8,10.4-1,15.6
			c-0.2,5.4-0.1,10.7-0.6,16c-0.4,4.8-0.9,9.7-0.9,14.5c0,9.6-1.1,19.1-0.6,28.7c0.4,9.2,1.2,18.4,1.8,27.6c0.1,1.9,0.2,4,0.1,5.9
			c-0.2,0.8-0.2,1.3-0.1,1.4c-0.7,0.3-1.4,0.5-2.2,0.5c-2.1,0.6-4.2,1-6.2,1.5c-2.4,0.5-4.8,1.7-7.2,2c-4.6,0.6-9.8,0-14.5-0.1
			c-4.3-0.1-8.4,0.5-12.6,0.9c-0.9,0.1-1.9,0.2-2.8,0.3c-6.3-0.1-12.8-0.4-19.1,0.1c-5.8,0.4-11.7,0-17.5,0.4
			c-5.3,0.4-10.6,1.1-16,1c-12.7-0.2-25.4-0.7-38-0.9c-5.7-0.1-11.7,0.5-17.4,0.1c-1.8-0.1-6-0.5-7.3-1.9c-1.5-1.5-1.3-4.8-1.6-6.7
			c-1.7-11.9-4-23.9-4.3-36.1C49.1,364.8,50.8,339.7,50.8,314.6L50.8,314.6z M52.4,273.6c2-6.3,5.6-7.9,11.8-9.4
			c2.6-0.7,5.1-1,7.8-1.2c3.5-0.2,7.1-1.1,10.6-1.2c5.6-0.2,11.2-0.5,16.8-1.1c6.2-0.6,12.2-0.6,18.4-0.6c12.9,0,25.6,0.5,38.4,1.4
			c12.1,0.8,24.2,0.7,36.3,1.1c5.7,0.2,11.5,1,17.3,1.4c6.3,0.4,12.6,0.2,18.9,0.4c5.8,0.2,13.5,0.5,14.2,7.6c0.5,5.5-1,11.5-1.7,17
			c-0.6,4.8,0.3,8.4-5.5,9.6c-5.3,1.1-11.5,0.3-16.9,0.6c-29.2,2-58.5,0.8-87.7,1.3c-13.9,0.2-27.8-2-41.8-1.8
			c-12.8,0.1-25.5,1.1-38.3,1.2c0-1.7,0-3.5,0-5.2C50.8,287.5,50.2,280.4,52.4,273.6L52.4,273.6z M85.4,247.7
			c1.3-5.3,3.1-10.4,4.3-15.7c2.4-10.5,5.3-20.9,7.2-31.5c1.7-9.8,3.1-21.2,10.7-28.4c1.1-1,2.2-2.1,3.3-3.1c2.7,3.7,6.7,6.1,11.1,8
			c4,1.8,8.6,3.2,13.2,4.2c-1.6,11.3-2.3,22.6-2.4,34c0,7.7-0.1,15.3-0.1,23c0,3.6-0.4,8.4,0.7,12.2c-3.8-0.1-7.7,0-11.5,0
			c-2,0-3.9,0-5.9-0.1c-0.1-5.7-0.4-11.3,0.3-17c0.4-3.2,1.5-7.3,0.7-10.4c-0.3-1.4-2.7-1.5-2.9,0c0.1-0.6-0.9,1.8-1.1,2.3
			c-1.1,2.7-1.7,5.8-2.3,8.7c-1.1,5.4-1.4,10.8-1.5,16.3c-2.5,0-5.1,0.1-7.6,0.4c-5.7,0.7-11.3,1.1-17,1.4
			C84.9,250.5,85.1,249,85.4,247.7L85.4,247.7z M101.2,129.8c-0.4-1.6-0.6-3.2-0.8-4.7c4.3-1.4,9.1-6.6,11.1-9c3.2-3.8,5-8,6.8-12.6
			c1.2-3.1,2.9-6.7,1.6-9.9c6.4,4.7,13.6,5.2,21.9,5.2c5,0,9.6,0.2,14.5-1.1c2.5-0.7,5.1-1,7.5-2.1c1.8-0.8,3.4-1.8,5.1-2.6
			c-0.6,3-0.4,6.2,1,9c0.7,3,2,5.8,3.5,8.2c2.6,4.2,5.6,8.6,10.7,9.4c-0.4,3.3-1,6.5-1.8,9.6c-2.4,8.5-7.1,16.8-15.3,20.8
			c-7.8,3.7-16.2,5.6-24.7,5.2c-8.9-0.3-18.1-1.7-26.1-5.8C107.8,145,103.4,138.9,101.2,129.8L101.2,129.8z M107.9,57.1
			c4,0.6,8.2,0.6,12,1c6.4,0.6,12.6-0.6,18.9-0.4c6.3,0.2,12.7-0.6,19.1-0.6c6.6,0,13.4,0.4,20,0c0,3.3,0,6.6,0,9.8
			c-3.7,0.1-7.5,0.6-11.2,0.6c-6.7,0-13.4,0-20.1,0c-3.1-0.3-6.2-0.5-9.4-0.6c-5.5,0-10.8-0.7-16.2-0.6c-3.8,0-8.9-0.7-13.2-0.2
			C107.9,63.1,107.9,60.1,107.9,57.1L107.9,57.1z M126,73.1c7.7,0.1,15.4,0,23.2,0c7.1,0,14.3,0,21.4-0.1c2.2,0,4.9,0.1,7.5-0.2
			c0,2,0,4-0.3,6c-0.2,1.3-0.4,1.9-0.7,2.3c-4.9-1-10-0.6-15.1-0.2c-4.7,0.1-9.3,0.3-14,0.6c-7.7,0.1-15.3,0.1-22.9,0.7
			c-5,0.4-10,0.2-15-0.3c-2.6-0.3-2,0.1-2.2-2.3c-0.2-2.4-0.1-5,0-7.5C113.4,74.1,120.5,73.1,126,73.1L126,73.1z M108.5,38.8
			c1.4-1.1,6.1-0.2,7.8-0.2c2.9,0,5.9,0.1,8.8,0c4.8-0.3,9.5-0.6,14.4-0.6c4.9,0,9.7,0.1,14.6,0.4c5.2,0.4,10.4-0.5,15.5,0.1
			c2.1,0.2,4.4,0.4,6.6,0.8c2.5,0.4,1.7,0,2,1.6c0.5,3.3,0.3,7.2,0.1,10.8c-6.3-0.3-12.8,0-19.1,0c-6.7,0-13.5,0.8-20.1,0.6
			c-6.2-0.2-12.4,1-18.6,0.5c-3.8-0.3-8.4-1.2-12.5-1C107.4,47.6,106.8,40.2,108.5,38.8L108.5,38.8z M143.7,175.6
			c-6.2-0.8-13.6-2.5-19.3-5.1c-2.7-1.2-6.3-3.1-8.3-5c-0.3-0.3-0.5-0.5-0.7-0.7c0.8-0.8,1.6-1.6,2.3-2.4c0.4-0.5,1-1,1.5-1.6
			c13.3,4.9,28.7,5.6,42.1,1.6c2.9-0.9,5.9-1.9,8.7-3.2c0.8,1,1.7,1.9,2.6,2.7c1.5,1.4,3,2.4,4.6,3.4c-0.9,1.2-1.8,2.5-3.2,3.5
			c-2.9,2.2-6.5,3.7-9.9,5C157.5,176.2,150.7,176.5,143.7,175.6L143.7,175.6z M140,244.4c-0.5-3.6-0.3-7.3-0.3-10.9
			c-0.1-13.8-1.3-27.8,0.2-41.5c0.4-3.1,0.6-6.4,0.5-9.6c2.1,0.3,4.1,0.6,6.1,0.7c1.4,0.1,2.7,0.1,4,0.2c-1,5.3-0.5,11.3-0.5,16.4
			c-0.1,7.2,0,14.4-0.2,21.6c-0.2,6,0.5,11.8,0.5,17.8c0,3.6-0.5,8.5,0.3,12.5c-2.6-0.1-7,0.4-9.4-0.7
			C139.2,249.8,140.2,246.2,140,244.4L140,244.4z M182.8,170.1c0.1,0.1,0.1,0.2,0.2,0.3c5.2,7.6,5.7,17.1,7.5,25.9
			c1.9,9.9,4.4,19.9,5.9,29.9c0.8,5,1.8,10,2.5,15c0.6,3.9,0.6,8,1.4,11.9c-5.2-0.2-10.4-0.3-15.6-0.6c-0.7,0-1.5-0.1-2.2-0.1
			c-0.6-5-1.7-10.2-2.5-15c-1-5.3-1.6-10.7-3.1-15.9c-0.8-2.5-4.7-2.1-4.7,0.6c0.1,10,1,19.9,1.2,29.9c-5.1-0.1-10.1-0.2-15.2-0.4
			c0.6-3.8-0.6-8.3-0.6-11.9c-0.1-6.2-0.9-12.3-0.8-18.6c0.1-6.8,0-13.6-0.1-20.4c0-5.5,0.6-12.1-0.6-17.8c5-0.6,9.8-1.9,14.7-4
			C175.3,176.9,180.3,174.4,182.8,170.1L182.8,170.1z M249.4,419.8c-3-1.3-7.9-2.5-6.2-6.8c1.2-3.2,4.8-4.4,8-4.3
			c3.3,0.1,6.4,1.1,9.5,2.1c2.7,0.9,5.1,2.3,7.8,3.2c6.7,2.2,13.5,3.9,20.3,5.8c1.2,0.4,2.5,0.7,3.5,1.6c2.2,2,0.5,4.1-1.3,5.6
			c-8.2,6.6-18.6,0.5-27.3-2.1C258.7,423.3,254.1,421.8,249.4,419.8L249.4,419.8z M262,398.2c1-1.7,2.4-3.3,3.2-5.1
			c1.1-2.3,1.7-4.9,2.5-7.3c1.6-5,3.2-10,4.7-15c2.6-8.8,4.9-17.7,7-26.6c0.9-3.8,1-7.6,1.8-11.5c1-4.4,2.1-8.9,3.5-13.2
			c1.6-5.1,3.2-10.3,4.4-15.5c0.6-2.4,1.5-5,2-7.6c5.4,1.8,10.7,3.2,16.5,3.9c5.3,0.6,10.7,1.6,15.8,0.9c0.3,0,0.6,0,0.9,0.1
			c6,0.4,12.5,0.3,18.5-0.5c2.4-0.3,5-0.7,7.5-1.2c-0.9,1.8-1.7,3.6-2.5,5.4c-1.7,4.1-3.6,7.5-5.8,11.3c-2.1,3.6-4.4,7.4-6.3,11.2
			c-2.4,4.6-5,8.7-7.8,13c-10.4,16.2-15.7,35.5-22.4,53.3c-1.8,4.7-4.3,9.1-6,13.9c-0.4,1.2-0.6,3.5-1.4,4.4
			c-1.3,1.4-3.8,0.1-5.9-0.2c-4.5-0.7-9.1-0.7-13.4-2.2c-4.2-1.5-8.4-3.3-12.6-4.7c-1.4-0.5-5.8-1.7-6-3.3
			C260,400.7,261.5,399,262,398.2L262,398.2z M284,268.6c0.4-6.8,1.6-13.6,2.4-20.4c1.7-14.2,4.6-28.7,7.9-42.6
			c2.7-11.1,5.3-22.8,6.1-34.3c3.3,0.4,6.9-0.3,9.6-0.9c7.3-1.6,16.1-2.9,22.2-7.4c1-0.7,1.7-1.5,2.4-2.4c0.2,0.5,0.4,1,0.5,1.5
			c1.3,3.6,3.5,7.2,5.4,10.5c1.8,3.1,3.6,6.2,5.2,9.4c-6.6-2.6-14.1-3.1-20.9-0.9c-10.2,3.4-13.9,14.4-11.1,22.9
			c1.2,3.6,4.4,7.2,7.4,10.4c1.3,1.4,2.5,2.8,3.6,4.3c2,3.1,4.1,6,6.4,9c3.1,4.2,5.9,8.8,9.3,12.8c3.9,4.6,8,9.2,10.6,14.7
			c3,6.2,4.8,12.2,6.2,18.8c0.6,2.8,1.9,5.2,3.7,6.9c-2.1,2.1-3.2,5-6.2,6.4c-3.1,1.5-6.4,2.3-9.8,2.9c-2.9,0.5-5.5,0.1-8.4,0.3
			c-7.4,0.7-14.9,0.3-22.3-0.3c-8.3-0.6-16.8-2-24.4-5.6C283.3,281.7,283.5,275.1,284,268.6L284,268.6z M299.3,154.3
			c9.6,2.1,20.6,1.1,29.4-3.5c0.1,4.4-2.6,6.9-7.5,8.5c-4.4,1.5-9.6,2.8-14.2,3.7c-0.7,0.1-5.6,1-6.5,0.4c-1.4-0.9-0.6-2.9-0.6-4.1
			C299.9,157.5,299.9,155.8,299.3,154.3L299.3,154.3z M285.6,141.1c-0.5-0.2-0.9-0.5-1.4-0.7c0.4-0.1,0.8-0.1,1.1-0.2
			c5.6-1.4,9.1-4.5,12.7-8.6c1.9-2.3,0.1-5.8-2.9-5.1c-1.5,0.4-2.3,1.1-3.5,2.1c-1.7,1.5-3.3,2.7-5.4,3.8c-2.2,1.1-4.4,1.9-7,1.6
			c-1.4-0.1-2.5-0.5-3.6-0.6c-0.7-0.9-1.4-1.9-2.1-3c-2.3-3.8-3.2-8.2-7.7-10c-2-0.8-4.4-0.4-6.3-1.2c-4.5-1.8,0.1-4.7,2.3-5.9
			c4.2-2.3,7.7-1.8,7.9-7.6c0.3-6.1-0.4-11.4,1.8-17.4c2.4-6.6,7-10.7,12.7-14.4c4.4-2.9,9.4-5.4,14.3-7.3c1.5-0.6,3.2-0.8,4.8-1.2
			c-2.7,3.2-4.4,7.4-4.5,11.5c-0.1,2.5,0.6,5,1.6,7.3c1,2.3,4.5,4.9,4.8,7c0,0.4,0,0.8-0.2,1.2c-0.4,0.7-0.8,1.5-1,2.3
			c-0.8,1.5-1.7,3-1.9,4c-0.7,3.4,0.2,7,2.2,9.9c5.5,7.9,14.4-3.7,20.8-4.1c8.7-0.5,10.1,12.4,1.9,13.4c-3.3,0.4-5.3-1.1-8.3-2.3
			c-2.9-1.1-5.4,3.3-3,5.2c4.3,3.7,10.4,5.1,15.8,2.6c3.1-1.4,5.2-4.3,6.3-7.5c2,1.1,3.9,1,5.5,0.1c-0.2,0.9-0.4,1.9-0.7,2.8
			c-2.8,10.7-10.2,21-20.7,25.6C310.8,149.2,296.1,146.4,285.6,141.1L285.6,141.1z M353.3,198.8c5.6,5.6,9.8,12.5,15.5,18
			c4.6,4.5,7.6,12.1,11.6,17.6c2.4,3.3,4.5,6.5,6.1,10.3c1.8,4.1,4.6,8.3,5.3,12.7c1.4,8.9-6.3,16.8-14.6,18.4
			c-1.9,0.3-4.7,0.8-6.7,0.4c-2.8-0.6-3.1-2.6-3.5-5c-0.8-4.6-2-8.7-3.9-13c-3.1-7.1-7-13.9-12.1-19.8c-5.2-6-10.1-12.5-15.4-18.3
			c-2.9-3.2-5.2-7.1-7.9-10.5c-1.3-1.7-3-3.1-4.6-4.6c0,0,0,0,0-0.1c-0.9-1.4-1.3-2.8-2-4.1c-0.3-2.4-0.6-3.2,0.5-5.7
			c1.6-3.9,5.1-5.4,9.1-5.9C340,188.1,346.9,192.3,353.3,198.8L353.3,198.8z M394.9,273.8c1.1-1.5,2.2-3,3-4.6
			c1.7,1.6,3.6,3.8,4.5,6c0.4,1,0.9,3.4,0.8,4.3c-0.2,2.5-1,2.2-2.6,3.6c-1.8,1.6-1.5,3.2-2.6,4.9c-1.9,3.1-5.3,1.5-8.1,2.9
			c-1.9,0.9-3.6,5.3-5.6,3.9c-1.5-1.1-1.7-3.9-3.7-5.1c-1.7-1.1-3.4-0.6-5.2-1.1c-0.5,0-1,0-1.5,0c0-1.5,0.4-2.9,1.2-4.2
			c0-0.1,0-0.1,0.1-0.1C382.8,283.4,390.5,279.5,394.9,273.8L394.9,273.8z M409,285.8c0.1-0.1,0.2-0.3,0.2-0.4c1,2.1,2.2,4,3.2,6.1
			c1.5,3.4,3.2,7.2,5.2,10.5c-4.6,2.8-8.9,6.4-12.8,9.7c-2.5,2.1-5,4.1-7.3,6.1c-3.1-4.8-5.8-10-9-14.8c-0.1-0.2-0.3-0.4-0.5-0.7
			c1.5-0.8,2.8-2.2,4.1-3.6c2.8-2.9,7.9-1.9,11-5.1c1.3-1.3,1.1-3.2,2-4.4C406,288,407.9,287.3,409,285.8L409,285.8z M411.8,272.2
			c3.1,0.2,5,4.7,6.5,7.2c2,3.3,4.8,6.8,6.2,10.3c0.6,1.5,1.4,3.7,1.6,5.3c0.1,1,0,1.9-0.4,2.7c-0.7,0.4-1.5,0.7-2.2,1.1
			c-0.1,0-0.2,0.1-0.4,0.2c-1.9-3.1-3.5-6.7-5.1-9.9c-1.9-3.8-4.2-6.5-6.8-9.8c-0.1-0.1-0.2-0.2-0.3-0.3c0-2.1-0.4-4.3-1.2-6.4
			C410.4,272.3,411.1,272.1,411.8,272.2L411.8,272.2z M376.9,295.9c1.8,1.8,2.3,5.2,5.2,6.6c0.1,0,0.2,0.1,0.2,0.1
			c0.9,2.4,2.1,4.6,3.4,7c1.4,2.4,3.1,4.7,4.4,7.1c0.7,1.4,1.4,2.8,2.1,4.1c-0.4,0.2-0.8,0.4-1.2,0.6c-0.2,0-0.4,0.1-0.5,0.1
			c-4.1,0.8-6.7-7.3-8.7-10.5C379.5,307,374.2,300.7,376.9,295.9L376.9,295.9z M337,421c2.7-0.6,5.4-0.6,8.5-0.8
			c8-0.4,16.1-0.9,24.1-1.3c2.1-0.1,8.5-1.4,10.3,0.1c1.4,1,1.4,5.8,1.3,7.5c-0.1,2,0.2,3.4,0.7,4.7c-9.8,0.2-19.6,0.4-29.4,0.4
			c-8.6,0-17.2,0-25.8,0c-1-3.7,3-7,5.7-8.7C334,421.9,335.5,421.3,337,421L337,421z M329,358.2c0.5-1.1,0.9-2.1,1.4-3.2
			c2.6-5.4,6.2-10.5,9.5-15.5c3.3-4.8,5.8-10.4,8.5-15.6c2.3-4.6,5.3-8.5,6.9-13.4c0.1-0.3,0.2-0.6,0.3-0.9
			c0.1,3.7,0.4,7.4,0.7,11.1c0.8,10.9,1.5,21.4,3.4,32.2c1.9,10.4,4.3,20.7,7.1,30.9c1.2,4.3,2.6,8.6,4.2,12.8
			c1.2,3.2,3.2,6.2,3.6,9.7c0.4,3.8-4.3,4.9-7.5,4.9c-6.4,0.1-13.2,0-19.4,0.4c-1.3,0.1-5.1,0.2-6-0.6c-1.1-1-0.8-3.6-1-5
			c-0.4-2.4-0.8-4.8-1.2-7.3c-0.8-4.6-1.8-9.1-3.1-13.6c-1.4-4.8-2.3-9.7-3.5-14.5c-0.6-2.3-1.1-4.6-1.7-6.9
			C330.7,361.9,329.7,360.1,329,358.2L329,358.2z M303.6,420.4c1.3-1,2.4-2.5,3.3-4.6c3.9-9.5,7.3-19.2,11.5-28.6
			c2.1-4.7,3.7-9.7,5.4-14.6c3.5,13.9,9.1,27.4,9.7,41.9c-1.5,0.5-2.8,1.1-3.8,1.6c-5.9,3.1-10.3,8.9-10.5,15.5c-6,0-12.1,0-18.1,0
			c-0.8,0-1.6,0-2.4,0C301.6,428.3,304.3,424,303.6,420.4L303.6,420.4z M390.9,425c-0.1-3.7-1.8-9.2-4.7-12.7c0.4-1,0.5-2,0.1-3
			c-3.1-9.4-7.2-18.4-9.8-28c-2.9-10.9-5.6-21.7-8-32.8c-2.4-11.3-3.6-22.8-4.7-34.4c-0.5-4.9-1.4-9.7-1.6-14.7c0-1-0.1-2-0.2-3
			c0.2-0.6,0.4-1.1,0.6-1.7c2.1-1.6,4.1-3.7,5.3-6.2c0,0.6,0.1,1.1,0.2,1.7c0.6,2.6,2,3.5,3.9,4c-2.7,3.5-2.4,6.9,0.2,11.8
			c2.2,4.2,4.8,8.2,7.2,12.2c1.6,2.8,2.8,6.3,5.5,8.3c0.2,0.1,0.3,0.2,0.5,0.3c-1.8,2.4-2.8,5.2-3,8.6c-0.3,6.3,3.4,11.5,5.9,17
			c5.3,11.8,11.3,22.7,17.3,34.1c3.2,6,6.7,11.6,10.2,17.4c3.5,5.7,6.5,14,11.7,18.3c3.6,3,8.1,3.5,12.8,2.7c0.5,2.1,1.6,4,3.2,5.5
			c-0.6,0-1.2,0-1.8,0c-16.9-0.3-33.8,0.2-50.7,0.6C391.3,429,391,426.8,390.9,425L390.9,425z M457.8,426.7c-2.7,1.4-5.4,1-8.1-0.5
			c-1.4-0.7-2.3-1.9-3.2-3.1c5.2-2,10.3-5,14.2-7.5C462.5,419.7,462.7,424.2,457.8,426.7L457.8,426.7z M432.3,305.3
			c1.4-0.7,2.7-1.1,3.8-0.8c1.5,0.5,2.3,3.3,3,4.5c1.1,1.9,2.4,3.8,3.7,5.7c3.5,4.9,5.8,10.2,8.8,15.3c5.3,9.2,11.4,17.9,17.3,26.7
			c5.2,7.8,11.7,18.7,11.1,28.5c-0.6,8.4-12.1,13.8-18.2,18c-4.2,2.9-8.5,5.8-13.1,8.2c-3.4,1.7-11.1,5.7-14.8,3.2
			c-2.9-2-5-7.7-6.8-10.7c-3.1-5.1-6.5-10-9.6-15.2c-9-15.1-15.6-29.6-23.2-45.4c-1.9-3.9-5-7.6-1.7-11.9c1-1.3,2.3-2.5,3.7-3.6
			c3.1-1.4,5.6-3.3,8.5-5.4c2.8-2,6.6-4.1,9.7-6.1c4-2.5,7.9-6.1,12.2-7.9C428.3,307.9,430.3,306.4,432.3,305.3L432.3,305.3z
			 M484.6,431.8c-6.4-0.9-13.1-0.7-19.6-0.8c2.7-2.4,4-5.3,5-9.3c0.8-3.4,0-7.5-2-10.6c8.7-5.4,18.9-11.7,21.4-21.6
			c1.7-6.7-0.8-13.9-2.8-20.2c-2.1-6.6-5.5-12.7-9.4-18.4c-4.3-6.2-8.6-12.5-12.6-18.9c-4.2-6.7-7.3-14.2-11.7-20.7
			c-3.8-5.6-6.3-12.2-12.2-15.8c-3-1.9-5.7-1.8-8.3-0.9c-0.2-2.2-0.9-4.3-1.7-6.6c-1-2.7-2.9-5-4.4-7.4c-2.3-3.6-4.3-7.4-7-10.8
			c-4.3-5.4-7.7-4.5-12.2-2.3c-1.4-1.8-3.2-3.2-5.1-4c-0.6-0.2-1.2-0.2-1.7,0c0.4-1.4,0.6-2.8,0.6-4.4c0.3-6-2.8-11.2-5.2-16.4
			c-2.6-5.8-5.7-10.6-9.2-15.9c-3.2-4.7-5.5-10-9-14.5c-3-3.8-6.3-7.2-9.2-11.2c-2.7-3.7-5.9-7.2-9.3-10.3c-0.2-3.1-1.8-5.9-3.1-8.8
			c-1.9-4.4-4.1-8.7-6.6-12.7c-2.3-3.7-4.8-7.4-6.6-11.5c-1.2-2.7-2.5-5-4.9-6.5c0-2-0.2-4-0.5-5.9c0-0.2-0.1-0.3-0.2-0.5
			c14.4-13.3,18.5-36.1,14.8-54.8c-3.6-18.4-19.9-31.4-37.9-34.8c-6.9-1.3-13.2-0.8-19.7,1.6c-6.2,2.3-11.3,5.7-16.9,9.2
			c-3.7,2.4-6.4,5.5-8.4,9.3c-2.2,2.7-4,5.7-5.3,9.1c-1.4,3.7-2.7,7.8-2.9,11.8c-0.1,1.9,0,3.9,0,5.7c0,0.1-0.1,1.2-0.1,2.1
			c-6.8,2.8-14.2,10-9.9,17.3c2.2,3.7,5.8,3.9,9.6,4.2c5.8,0.5,7.2,9.1,10.5,13.3c4.5,5.8,11,9.7,17.8,12.2c1.9,0.7,3.1,0.7,3.9,2.5
			c0.8,1.7,1.2,3.9,1.4,5.8c0.6,4.4-0.1,8.3-1.4,12.4c-1.5,4.5-1.7,9.6-2.9,14.2c-2.1,8.4-4.4,16.8-6.3,25.2
			c-3.7,16.2-6.3,32.7-8.8,49.1c-1,6.9-2.6,16.5,0.2,23c2.3,5.2,6.3,9.1,11.4,11.3c-1.3,2.8-2.7,5.6-3.6,8.6
			c-1.7,5.5-4,10.7-6.2,16.1c-4.4,10.6-7,22-9.3,33.2c-2.3,11.5-4.7,23.3-8.2,34.5c-1.3,4.3-3.5,8.5-4.4,12.8
			c-0.1,0.6-0.2,1.2-0.2,1.7c-0.1,0-0.1,0-0.2,0c-6.5-1.2-15.3,1.6-17.3,8.6c-2.2,7.3,3.2,14.5,9.2,17.8c2.7,1.5,5.6,2.7,8.4,3.8
			c-5.7,0-11.3-0.1-17,0.5c-3.4,0.3-6.7,0.4-10.1,0.3c0.1-0.2,0.1-0.4,0.2-0.6c1.3-6.4-0.3-14.3-0.7-20.8c-0.8-16.1-2-32.4-0.6-48.5
			c0.8-9.6,0.6-19.1,0.8-28.8c0.1-8.4,0.7-16.4-0.8-24.5c8.8,0,18.9-0.3,23.1-8.1c2.2-4.1,1.7-9.3,2.4-13.8c0.9-5.8,2-12.2,1.1-18
			c-0.8-5.1-3.6-8.9-7.9-11.7c-6-3.9-13.9-2.7-20.7-3.3c-4.6-0.4-9.3-0.6-14-0.8c1.1-8.8-2.5-18.7-3.6-27.3
			c-1.4-10.8-4.3-21.8-6.4-32.5c-1.8-9.1-2.6-18.6-7.7-26.5c-2.4-3.7-5.5-7.6-9.6-9.5c-2-1-3.7-1.5-5.5-2.7c1.4-1,2.7-2.1,3.8-3.3
			c5.4-5.6,9.1-14.2,10.9-21.6c3.5-14.3,4.4-35.1-6.7-46.5c0.4-1.4,0.6-2.9,0.8-4.5c0.8-6.3,0.4-12.8,0.4-19.2
			c0-6.3-0.1-12.7,0.3-19c0.3-4.1-1.2-7-5.1-8.8c-4.4-2-10.4-2.2-15.2-2.2c-6.7,0-13.3-0.6-19.9-0.5c-6,0-12.3-0.4-18.3,0.2
			c-6.8,0.7-14.3-0.7-21,0.7c-11,2.2-7.9,18.3-7.9,26.3c0,7.4,0,14.7,0,22.1c0,3.1,0.1,6.6,2,9.1c-0.6,0.4-1.2,0.9-1.9,1.8
			c-2.4,2.8-4,6-4.8,9.6c-1.7,7.6-2.6,15.7-2.8,23.5c-0.2,6.3,1.9,14.6,4.7,20.2c3.4,6.7,9.8,11.9,16.4,15.3
			c-0.6,0.5-1.2,1.1-1.8,1.6c-3.7,3.2-7.7,6.4-11,10c-6.8,7.2-9.4,19.2-11.4,28.7c-2.5,11.5-5.7,22.9-8.9,34.2
			c-1.5,5.5-3.3,10.8-4.5,16.4c-0.3,1.5-0.5,3-0.3,4.3c-1,0.2-2,0.3-3.1,0.4c-3.6,0.2-6.8,0.5-10.4,1.2c-5.1,1-10.5,2.6-14.1,6.5
			c-4,4.4-5.7,11.3-6.4,17.1c-0.9,6.8-0.4,13.9-0.4,20.7c0,8.2-0.1,16.3,0,24.5c0.2,13.8-1.2,27.6-1.2,41.5c0,14.7,0,29.1,1.8,43.7
			c0.7,6,1,11.6,2.4,17.4c0.5,2.1,0.7,4.2,1.1,6.2c-0.1,10.5-2.4,21.5,1.8,31.1c2.1,4.9,5.5,6.4,10.6,7.3c6.9,1.1,14,1.4,20.9,2
			c6.6,0.6,13.3-0.1,19.9-0.5c7.5-0.5,15.1,0,22.6,0c15,0,30.3-0.7,45.3,0.1c7.1,0.4,13.3,0.8,20.4,0.1c7.7-0.7,15.6,0,23.3,0
			c14.6,0,29.2-0.5,43.8-0.5c13.8,0,27.4-0.8,41.2-0.6c7.5,0.1,15.1,0.1,22.6,0.1c7,0,14,0.7,21,0.7c15.1-0.1,30.2,1.1,45.4,1.1
			c15.3,0,30.7-0.6,46-0.6c12.8,0,25.6,1.5,38.3,1.9c6.7,0.2,12.5-0.5,18.1-4.6c4.3-3.1,6-9.1,7-14.1c0.9-4.5,0.9-9.6,0.7-14.3
			C493.5,435.7,490.3,432.6,484.6,431.8L484.6,431.8z"/>
		<path fill="#0B050C" d="M510.2,139.9c-0.1,2.5-0.4,8.6-3.5,9.8c-3.2,1.2-9.2-0.1-12.5-0.3c-4.5-0.3-8.8-0.6-13.3-0.6
			c-8.5,0-16.8,0-25.2,0.4c-6.4,0.3-16.6-0.1-21.7,3.6c-5.3,3.8-5.1,11.1-4.9,16.2c0.2,7.1,0.6,14-1.7,20.9c-0.7,2.1-2.8,7-6.1,5.7
			c-2.7-1.1-5.4-5.6-7.1-7.5c-4.3-4.6-8.6-9.4-12.7-14.1c-2.1-2.4-3.6-5.8-5.4-8.4c-1.8-2.6-3.6-5.1-5.6-7.6
			c-3.3-3.9-6.3-8-9.3-12.1c-2.2-3-5-5.7-6.9-8.9c-2.2-3.7,1.4-6.7,3.7-10c2-2.9,4.1-5.7,6.3-8.5c1.8-2,3.5-4.2,5.2-6.3
			c2-2.5,3.3-5.1,5.5-7.5c2.1-2.2,4.1-4.6,6-6.9c4.3-5.2,8.7-10.4,13.3-15.4c1.7-1.9,4.4-6.4,7.1-7.5c3.3-1.3,5.4,3.6,6.1,5.7
			c2.3,6.9,1.9,13.9,1.7,20.9c-0.1,5.1-0.4,12.4,4.9,16.2c5,3.6,15.3,3.2,21.7,3.6c8.4,0.4,16.8,0.4,25.2,0.4
			c4.5,0,8.8-0.2,13.3-0.6c3.4-0.2,9.4-1.5,12.5-0.3c3.1,1.1,3.3,7.2,3.5,9.7c0.1,1.6,0.1,3.1,0.1,4.7
			C510.3,136.8,510.3,138.3,510.2,139.9L510.2,139.9z M521.2,127.4c0-0.8-0.3-1.4-0.7-2c-0.4-2.1-1-4.1-1.8-6.2
			c-2.6-7-11.5-7.5-19.4-7.1c-9.8,0.4-19.3,1-29.1,1c-4.6,0-9,0-13.6-0.4c-2.4-0.2-4.8-0.5-7.2-0.7c-2-0.1-6.2,0.4-7.9-0.8
			c-2.6-1.9-1.6-7.2-1.6-9.6c0-4.2,0.4-8.6-0.2-12.8c-1-6.5-3.5-13.6-8.7-18.9c-12.3-12.7-27,10.8-32.9,17
			c-5.3,5.6-10.5,12-14.7,18.2c-2.8,3-5.5,6-8.1,9c-3.5,3.9-6.5,8-9.5,12.1c-2.5,3.4-4.9,7.2-3.5,11.2c1.2,3.7,4.6,7,7.2,10.2
			c3.3,4,6.2,8.3,9.4,12.3c1.5,1.9,3.1,3.9,4.8,5.7c4.1,6.1,9.2,12.3,14.4,17.8c5.9,6.2,20.6,29.7,32.9,17
			c5.1-5.3,7.6-12.3,8.7-18.9c0.7-4.2,0.2-8.6,0.2-12.8c0-2.4-1-7.8,1.6-9.6c1.7-1.2,5.9-0.7,7.9-0.8c2.4-0.2,4.8-0.5,7.2-0.7
			c4.6-0.3,9-0.4,13.6-0.4c9.8,0,19.3,0.5,29.1,1c7.9,0.3,16.8-0.2,19.4-7.1c0.8-2.1,1.4-4.2,1.8-6.2c0.4-0.6,0.7-1.2,0.7-2
			c0.1-2.6,0.2-5.2,0.2-7.8C521.4,132.6,521.3,130,521.2,127.4L521.2,127.4z"/>
	</g>
</g>
<g display="none">
	<path display="inline" fill="#0B050C" d="M103.5,117.5c1.1-0.3,2.2-0.9,3-1.8c1.8-1.8,2.1-4.4,1-6.6c-1-2-3.1-3.9-5.5-3.9
		c-5.2-0.1-7.7,7.1-4.8,10.9C98.8,118.2,101.4,118.5,103.5,117.5L103.5,117.5z"/>
	<path display="inline" fill="#0B050C" d="M132.8,117.2c1.9,1.2,4.3,1.3,6.3,0c1.3-0.8,2.2-2.1,2.6-3.6c0.2-0.4,0.3-0.7,0.4-1.1
		c0.5-2,0-4.2-1.5-5.6c-1.9-1.8-4.6-2-6.9-1C129.7,107.8,129,114.7,132.8,117.2L132.8,117.2z"/>
	<path display="inline" fill="#0B050C" d="M120,126.5c2,0.1,5.2-0.8,5.7-3.1c0.3-1.7-1.1-3.4-2.9-2.9c-1.1,0.3-2.1,1.2-3.2,0.8
		c-0.9-0.3-1.5-0.9-2.6-0.8c-0.9,0.1-2,0.7-2,1.8C115,124.8,117.8,126.4,120,126.5L120,126.5z"/>
	<path display="inline" fill="#0B050C" d="M106.7,132.3c-0.1,0.1-0.2,0.3-0.3,0.4c-4.3,9.5,25.3,13.9,27.5,1c0.3-1.8-1-3.3-2.9-2.9
		c-1.3,0.3-1.8,0.8-2.8,1.6c-2.1,1.8-3.9,2.8-6.8,3.3c-5.3,0.9-7.8-1.2-12-3.7C108.6,131.4,107.3,131.6,106.7,132.3L106.7,132.3z"/>
	<path display="inline" fill="#0B050C" d="M95.8,377.7c1-7.4,2.5-14.4,3.9-21.7c0.7-3.5,1.7-7.3,1.3-10.9c-0.1-1-0.3-2-0.8-2.9
		c-1.1-2.3-3.1-1.7-2.4-4.7c0.5-2.4,1.7-4.6,3.4-6.4c4.5-4.7,16.6-8,18.3,1c0.7,3.6,0.6,6.8,0.3,10.4c-0.8,8.7-1.2,17.5-2.8,26.1
		c-0.8,4.4-1.5,9.5-3.4,13.6c-1.4,3.1-2.8,7.4-6.6,8.3c-2.7,0.7-7.1-0.8-9.5-1.9c-2.2-1-2.2-1.2-2.7-3.3
		C94.4,382.9,95.5,380.2,95.8,377.7L95.8,377.7z M104,310.7c0.3-1.9,0.5-1.9,2.4-3c1.5-0.9,3.5-1.5,5.2-1.4c0.6,0,1.7,0.7,2.6,1.8
		c1.4,1.8,2.2,3.7,0.7,5.8c-0.7,0.9-3.1,3-4.2,3.3C106.5,318.1,103.4,314.9,104,310.7L104,310.7z M93.3,395.7
		c6.3,3,13.6,4.7,19.7,0.8c7.1-4.5,9.2-12.9,10.9-20.6c2.2-9.9,3-20,3.8-30.1c0.5-6.4,2.1-15.6-2.2-21.2c-1.7-2.3-4.2-4-7-5.1
		c0.4-0.3,0.7-0.7,1-1c5.7-5.9,1.7-15.2-5-18.2c-2.9-1.3-6.6-0.4-9.4,0.8c-3.7,1.6-6.3,3.7-7.4,7.5c-0.9,3.3-0.6,6.6,1.2,9.6
		c0.5,0.9,1.2,1.9,2,2.7c-5.4,3.2-10.6,8.8-10.6,14.9c-0.5,1.8-0.5,3.6,0.5,5.5c0.6,1.2,1.6,1.8,2.4,2.7c2,2.4,1.5,4.3,0.6,7.3
		c-1.4,4.6-3.3,9-4.3,13.7c-0.8,4-1.2,8-1.9,12C86.2,384.7,85.7,392.1,93.3,395.7L93.3,395.7z"/>
	<g display="inline">
		<defs>
			<rect id="SVGID_1_" x="20" y="30.3" width="512" height="420"/>
		</defs>
		<clipPath id="SVGID_2_">
			<use xlink:href="#SVGID_1_"  overflow="visible"/>
		</clipPath>
		<path clip-path="url(#SVGID_2_)" fill="#0B050C" d="M467.3,102.6c1.3-0.4,2.3-1.3,2.9-2.5c1-0.8,1.6-2,1.6-3.3
			c0-2.1-1.4-4.3-3.2-5.3c-2-1.1-4.6-0.9-6.2,0.8c-1.1,1.2-1.7,3-1.6,4.6C461.1,100.1,463.7,103.6,467.3,102.6L467.3,102.6z"/>
		<path clip-path="url(#SVGID_2_)" fill="#0B050C" d="M521.8,435.6c-1.5,4.1-9.8,3.4-13.6,3.8c-11.1,1.2-22.5,0-33.6,0
			c-10.5,0-20.9,0.7-31.3,0.7c-10.2,0-20.4-0.8-30.5-1.7c-4.1-0.4-8.4-0.7-12.8-0.8c-2-0.1-3.9-0.3-5.9-0.4
			c-12.8-0.6-26-0.4-38.8,0.4c-13.3,0.8-26.9,0.2-40.2-0.5c-50.4-2.5-100.8,0.8-151.3,0.2c-6.8-0.1-13.3,1.2-20.1,0.5
			c-7.5-0.8-14.9-0.4-22.3-0.4c-14.9,0.1-29.9-0.5-44.7,0.1c-6.5,0.3-13.1,1.2-19.6,0.7c-3.4-0.2-6.7-0.5-10.1-0.8
			c-3.1-0.3-6.6-0.1-9.6-1c-5.2-1.5-4.7-10.5-4.7-15.2c0-0.7,0-1.4,0-2.1c3.5,1.4,7.7,1.8,11.1,1.8c7.3,0,14.6-0.4,21.8-0.1
			c13.7,0.6,27.9,1.1,41.5-0.6c2.6,0.1,5.2,0.1,7.7,0.2c14.6,0.5,29.1-0.5,43.7-0.7c15.1-0.3,30.2-0.5,45.3-0.7
			c18.7-0.3,37.3-1,55.9-1c6.8,0,13.6,0,20.4,0c26.3,0,52.5-0.6,78.8-0.5c6.6,0,13.1-0.8,19.7-0.7c14.3,0.1,29.1-0.2,43.4,0.8
			c4.8,0.3,9.6,0.5,14.4,0.6c9.3,0.1,18.5,1.3,27.9,1.2c9.8-0.1,19.7,0.5,29.5,0.4c4.4,0,8.8-0.4,13.2-0.7
			c3.3-0.2,10.3-1.2,12.7,1.5C522,423.2,522.9,432.6,521.8,435.6L521.8,435.6z M30.7,298.6c0-1.5,0-2.9,0-4.4c12-0.1,24-1,36-1.1
			c13.1-0.1,26.2,2,39.2,1.7c27.3-0.5,54.7,0.6,82-1.2c-0.3,3-0.3,6-0.4,9.1c-0.1,4.9-0.8,9.8-0.9,14.7c-0.2,5.1-0.1,10-0.5,15.1
			c-0.4,4.5-0.8,9.1-0.9,13.6c0,9-1,18-0.6,27c0.4,8.9,0.5,18.2,1.8,26.9c0.3,2.2,1.4,4.8-0.1,6.8c-2,2.7-6.5,3-9.5,3.3
			c-11.1,1.1-22.3,0.8-33.4,0.6c-5.9-0.1-12-0.4-17.9,0.1c-5.5,0.4-11,0-16.5,0.4c-5,0.4-9.9,1.1-15,1c-11.9-0.2-23.8-0.7-35.7-0.8
			c-5.4-0.1-11,0.5-16.4,0.1c-1.6-0.1-5.6-0.5-6.9-1.7c-1.4-1.4-1.2-4.5-1.5-6.3c-1.6-11.2-3.8-22.5-4.1-33.9
			C29.1,345.8,30.7,322.2,30.7,298.6L30.7,298.6z M32.2,260c1.9-5.9,5.3-7.4,11.1-8.9c2.5-0.6,4.8-1,7.3-1.1c3.3-0.2,6.7-1.1,10-1.2
			c5.2-0.1,10.5-0.5,15.8-1c5.8-0.6,11.4-0.5,17.3-0.5c12.1,0,24.1,0.5,36.1,1.3c11.3,0.8,22.8,0.7,34.1,1c5.4,0.1,10.9,1,16.3,1.3
			c5.9,0.3,11.8,0.2,17.7,0.4c5.5,0.2,12.7,0.5,13.3,7.2c0.5,5.2-1,10.8-1.6,16c-0.6,4.5,0.3,7.9-5.2,9c-4.9,1-10.8,0.2-15.9,0.6
			c-27.4,1.8-55,0.8-82.5,1.2c-13.1,0.2-26.1-1.9-39.2-1.7c-12,0.1-24,1-36,1.1c0-1.6,0-3.2,0-4.9C30.7,273.2,30.2,266.4,32.2,260
			L32.2,260z M63.2,235.7c1.2-5,2.9-9.8,4.1-14.8c2.2-9.9,5-19.7,6.7-29.6c1.6-9.2,2.9-20,10-26.7c1-1,2.1-1.9,3.1-2.9
			c2.5,3.5,6.3,5.8,10.4,7.5c3.8,1.6,8.1,3,12.4,4c-1.5,10.6-2.2,21.2-2.3,31.9c0,7.2-0.1,14.4-0.1,21.6c0,3.4-0.4,7.9,0.7,11.5
			c-3.6-0.1-7.2,0-10.8,0c-1.8,0-3.7,0-5.6-0.1c-0.1-5.3-0.3-10.6,0.3-15.9c0.3-3,1.4-6.8,0.7-9.8c-0.3-1.3-2.5-1.4-2.7,0
			c0.1-0.6-0.8,1.7-1,2.2c-1,2.6-1.6,5.5-2.2,8.2c-1.1,5.1-1.3,10.1-1.5,15.3c-2.4,0-4.8,0.1-7.1,0.4c-5.3,0.7-10.7,1-16,1.3
			C62.7,238.4,62.9,236.9,63.2,235.7L63.2,235.7z M78.1,124.9c-0.3-1.5-0.6-3-0.7-4.4c4-1.3,8.6-6.2,10.4-8.4
			c3-3.6,4.7-7.5,6.4-11.8c1.1-2.9,2.7-6.3,1.5-9.3c6.1,4.4,12.8,4.9,20.6,4.8c4.7,0,9.1,0.2,13.6-1c2.4-0.6,4.8-0.9,7.1-1.9
			c1.7-0.7,3.2-1.6,4.8-2.4c-0.6,2.9-0.4,5.8,1,8.4c0.7,2.8,1.9,5.4,3.3,7.7c2.4,3.9,5.3,8.1,10,8.9c-0.3,3.1-0.9,6.1-1.7,9
			c-2.2,8-6.7,15.8-14.4,19.5c-7.3,3.5-15.2,5.2-23.3,4.9c-8.3-0.3-17-1.6-24.5-5.5C84.2,139.2,80.1,133.4,78.1,124.9L78.1,124.9z
			 M84.4,56.6c3.7,0.6,7.7,0.6,11.3,0.9c6,0.6,11.9-0.6,17.8-0.4c5.9,0.2,12-0.6,17.9-0.6c6.2,0,12.6,0.4,18.8,0c0,3.1,0,6.2,0,9.2
			c-3.5,0.1-7.1,0.6-10.5,0.6c-6.3,0-12.6,0-18.9,0c-2.9-0.2-5.9-0.5-8.8-0.5c-5.1,0-10.1-0.6-15.2-0.6c-3.6,0-8.4-0.7-12.4-0.2
			C84.4,62.2,84.4,59.4,84.4,56.6L84.4,56.6z M101.4,71.6c7.3,0,14.5,0,21.8,0c6.7,0,13.4,0,20.2-0.1c2.1,0,4.6,0.1,7-0.2
			c0,1.9,0,3.8-0.2,5.7c-0.2,1.2-0.4,1.8-0.7,2.2c-4.6-1-9.4-0.6-14.2-0.1c-4.4,0.1-8.8,0.3-13.2,0.5c-7.2,0.1-14.4,0.1-21.6,0.7
			c-4.7,0.4-9.4,0.2-14.1-0.3c-2.5-0.3-1.8,0-2-2.1c-0.2-2.3-0.1-4.7,0-7C89.6,72.5,96.2,71.6,101.4,71.6L101.4,71.6z M84.9,39.3
			c1.3-1.1,5.7-0.2,7.3-0.2c2.7,0,5.5,0.1,8.3,0c4.5-0.2,9-0.5,13.5-0.6c4.7,0,9.1,0.1,13.7,0.4c4.9,0.4,9.8-0.4,14.6,0.1
			c2,0.2,4.2,0.4,6.2,0.7c2.4,0.4,1.6,0,1.9,1.5c0.5,3.1,0.3,6.7,0.1,10.2c-6-0.3-12.1,0-18,0c-6.3,0-12.7,0.8-18.9,0.6
			c-5.8-0.2-11.6,1-17.5,0.5c-3.6-0.3-7.9-1.1-11.8-0.9C83.9,47.6,83.3,40.7,84.9,39.3L84.9,39.3z M118,168
			c-5.8-0.7-12.8-2.3-18.1-4.8c-2.5-1.2-5.9-2.9-7.8-4.7c-0.3-0.2-0.5-0.5-0.7-0.7c0.8-0.7,1.5-1.5,2.2-2.3c0.4-0.4,0.9-1,1.4-1.6
			c12.5,4.6,27,5.3,39.6,1.5c2.7-0.8,5.5-1.8,8.2-3c0.7,0.9,1.6,1.8,2.4,2.6c1.4,1.3,2.8,2.3,4.3,3.2c-0.9,1.2-1.7,2.4-3,3.3
			c-2.7,2-6.1,3.5-9.3,4.7C131,168.5,124.6,168.8,118,168L118,168z M114.5,232.6c-0.4-3.4-0.3-6.8-0.3-10.3c0-6.8-0.2-13.7-0.2-20.5
			c0-2.7,0.5-5.3,0.5-8c0.1-3.5-0.5-7-0.1-10.5c0.3-2.9,0.6-6,0.5-9c1.9,0.3,3.8,0.6,5.7,0.7c1.3,0.1,2.5,0.1,3.8,0.1
			c-0.9,5-0.5,10.6-0.5,15.4c-0.1,6.8,0,13.5-0.2,20.3c-0.2,5.6,0.5,11.1,0.5,16.7c0,3.4-0.4,7.9,0.3,11.7c-2.2-0.1-7,0.5-8.9-0.6
			C114,237.5,114.7,234.2,114.5,232.6L114.5,232.6z M154.8,162.8c0.1,0.1,0.1,0.2,0.2,0.3c4.9,7.1,5.4,16.1,7,24.3
			c1.8,9.3,4.1,18.7,5.5,28.1c0.7,4.7,1.7,9.4,2.4,14.1c0.5,3.7,0.6,7.5,1.3,11.2c-4.9-0.2-9.8-0.3-14.6-0.6c-0.7,0-1.4-0.1-2.1-0.1
			c-0.6-4.7-1.6-9.6-2.4-14.1c-0.9-5-1.5-10-3-14.9c-0.7-2.4-4.4-2-4.4,0.6c0.1,9.4,0.9,18.7,1.1,28.1c-4.8-0.1-9.5-0.2-14.3-0.3
			c0.5-3.6-0.5-7.8-0.6-11.2c-0.1-5.9-0.9-11.6-0.8-17.5c0.1-6.4,0-12.8-0.1-19.2c0-5.2,0.5-11.4-0.5-16.7c4.7-0.5,9.2-1.8,13.8-3.8
			C147.7,169.1,152.4,166.8,154.8,162.8L154.8,162.8z M316.4,401.9c-2.3,4-6.1,7.7-10.7,4.6c-4-2.7-3.9-6.8-3.5-10.9
			C306.5,398.1,311.5,400.6,316.4,401.9L316.4,401.9z M281.1,365c-0.6-9.2,5.5-19.5,10.4-26.8c5.5-8.3,11.2-16.4,16.2-25.1
			c2.8-4.8,5-9.8,8.3-14.4c2-2.8,3.8-5.6,5.3-8.7c1.5-0.9,2.4-1.1,4.4,0.1c1.9,1.1,3.2,1.9,5.2,2.7c4,1.6,7.8,5,11.5,7.4
			c2.9,1.9,6.5,3.8,9.2,5.7c2.8,2,5.1,3.8,8,5.1c1.3,1.1,2.5,2.2,3.5,3.4c3.1,4,0.1,7.5-1.6,11.2c-7.1,14.8-13.3,28.5-21.8,42.7
			c-2.9,4.8-6.1,9.4-9,14.3c-1.7,2.8-3.6,8.2-6.3,10.1c-3.4,2.4-10.7-1.4-13.9-3c-4.3-2.2-8.4-4.9-12.3-7.7
			C292.5,378,281.6,372.9,281.1,365L281.1,365z M331.7,280.2c0.2-1.5,1-3.7,1.5-5c1.3-3.3,3.9-6.6,5.8-9.7c1.4-2.4,3.2-6.6,6.1-6.8
			c0.7,0,1.3,0.1,1.9,0.4c-0.7,1.9-1.1,4-1.1,6c-0.1,0.1-0.2,0.2-0.3,0.3c-2.4,3.1-4.6,5.7-6.3,9.2c-1.5,3-3,6.4-4.8,9.3
			c-0.1,0-0.2-0.1-0.3-0.2c-0.7-0.3-1.4-0.6-2.1-1C331.8,282,331.6,281.2,331.7,280.2L331.7,280.2z M347.8,271.5
			c1,1.4,2.8,2,3.7,3.2c0.9,1.1,0.7,2.9,1.9,4.2c2.9,3,7.8,2,10.4,4.8c1.2,1.3,2.5,2.6,3.9,3.4c-0.2,0.3-0.3,0.5-0.4,0.7
			c-3.1,4.5-5.5,9.4-8.5,13.9c-2.2-1.9-4.6-3.7-6.9-5.7c-3.6-3.1-7.7-6.5-12-9.1c1.8-3.1,3.4-6.7,4.8-9.9c0.9-2,2-3.8,3-5.8
			C347.7,271.3,347.7,271.4,347.8,271.5L347.8,271.5z M354,261.5c0.9-2,2.7-4.1,4.3-5.6c0.8,1.5,1.8,2.9,2.8,4.3
			c4.1,5.3,11.3,9,18.5,9.9c0,0,0,0.1,0.1,0.1c0.8,1.2,1.1,2.5,1.1,3.9c-0.5,0-1,0-1.4,0c-1.7,0.5-3.3,0-4.9,1
			c-1.8,1.1-2,3.8-3.4,4.8c-1.9,1.3-3.5-2.7-5.3-3.6c-2.6-1.3-5.8,0.2-7.6-2.7c-1-1.6-0.8-3.1-2.4-4.6c-1.5-1.3-2.2-1.1-2.4-3.4
			C353.2,264.7,353.6,262.4,354,261.5L354,261.5z M364.1,244.8c0.7-4.2,3.3-8.1,4.9-12c1.5-3.5,3.5-6.6,5.7-9.7
			c3.7-5.2,6.6-12.3,10.9-16.5c5.3-5.1,9.3-11.6,14.5-16.9c6-6.1,12.5-10,21.4-8.9c3.7,0.5,7.1,1.8,8.6,5.5
			c2.3,5.5-2.7,9.7-5.8,13.6c-2.6,3.2-4.7,6.9-7.4,9.9c-5,5.5-9.6,11.6-14.5,17.2c-4.8,5.6-8.5,11.9-11.4,18.6
			c-1.7,4-2.9,7.9-3.6,12.2c-0.4,2.3-0.7,4.1-3.3,4.7c-1.9,0.4-4.5,0-6.3-0.4C370,260.7,362.8,253.2,364.1,244.8L364.1,244.8z
			 M412.2,165.2c1.8-3.1,3.8-6.5,5-9.9c0.2-0.4,0.3-0.9,0.5-1.4c0.6,0.8,1.4,1.6,2.3,2.2c5.8,4.3,14,5.4,20.9,6.9
			c2.5,0.6,5.9,1.2,9,0.8c0.8,10.9,3.3,21.8,5.8,32.3c3.1,13.1,5.9,26.7,7.5,40c0.7,6.4,1.8,12.7,2.2,19.1
			c0.4,6.1,0.6,12.4-5.7,15.3c-3.5,1.7-7.2,2.8-11,3.6c-3.3,0.7-6.9,0.5-10.3,0.8c-8.2,0.9-16.4,1.9-24.7,1.4
			c-4.9-0.3-10.6-1.3-15-3.4c-2.8-1.4-3.8-4-5.8-6c1.8-1.6,2.9-3.9,3.5-6.5c1.3-6.2,3-11.9,5.8-17.7c2.5-5.2,6.4-9.5,10-13.8
			c3.2-3.8,5.8-8.1,8.7-12c2.1-2.8,4.1-5.6,6-8.5c1.1-1.4,2.2-2.7,3.4-4c2.8-3,5.8-6.4,6.9-9.8c2.7-8-0.8-18.4-10.4-21.5
			c-6.3-2.1-13.4-1.6-19.6,0.9C408.8,171,410.5,168.1,412.2,165.2L412.2,165.2z M449.8,156.4c-0.8,0.5-5.5-0.3-6.1-0.4
			c-4.3-0.8-9.2-2-13.4-3.4c-4.6-1.5-7.1-3.9-7-8c8.2,4.3,18.6,5.3,27.6,3.3c-0.5,1.4-0.6,3-0.6,4.7
			C450.3,153.7,451.1,155.6,449.8,156.4L449.8,156.4z M410.1,114.5c-0.2-0.9-0.4-1.7-0.6-2.6c1.5,0.8,3.3,1,5.2-0.1
			c1,3,3,5.7,5.9,7.1c5.1,2.3,10.8,1,14.9-2.5c2.2-1.8-0.1-6-2.9-4.9c-2.8,1.1-4.6,2.5-7.8,2.1c-7.7-0.9-6.3-13.1,1.8-12.6
			c6,0.4,14.4,11.3,19.6,3.9c1.9-2.7,2.7-6.1,2.1-9.3c-0.2-1-1-2.4-1.8-3.8c-0.2-0.7-0.5-1.4-1-2.1c-0.1-0.4-0.2-0.8-0.1-1.2
			c0.3-2.1,3.6-4.5,4.5-6.6c0.9-2.1,1.6-4.5,1.5-6.8c-0.1-3.8-1.7-7.8-4.2-10.8c1.5,0.4,3,0.6,4.5,1.2c4.6,1.8,9.3,4.1,13.5,6.8
			c5.4,3.5,9.7,7.3,12,13.6c2,5.6,1.4,10.6,1.7,16.3c0.2,5.5,3.5,5,7.5,7.2c2.1,1.2,6.4,3.9,2.2,5.6c-1.8,0.7-4.1,0.3-5.9,1.1
			c-4.3,1.7-5.1,5.8-7.3,9.4c-0.6,1-1.3,1.9-2,2.8c-1.1,0.2-2.1,0.5-3.4,0.6c-2.4,0.2-4.5-0.5-6.5-1.5c-1.9-1-3.5-2.1-5-3.6
			c-1-0.9-1.9-1.7-3.3-2c-2.9-0.7-4.6,2.6-2.8,4.8c3.3,3.9,6.7,6.8,11.9,8.1c0.3,0.1,0.7,0.2,1.1,0.2c-0.4,0.2-0.8,0.5-1.3,0.7
			c-9.9,5-23.7,7.6-34.3,3C419.7,134.3,412.7,124.6,410.1,114.5L410.1,114.5z M394.1,334.6c1.8-10.1,2.4-20.1,3.2-30.3
			c0.3-3.4,0.5-6.9,0.6-10.4c0.1,0.3,0.2,0.6,0.3,0.9c1.6,4.6,4.3,8.3,6.5,12.6c2.5,4.9,4.8,10.1,7.9,14.6c3.2,4.7,6.5,9.5,9,14.5
			c0.5,1,0.9,2,1.4,3c-0.7,1.8-1.6,3.5-2.1,5.3c-0.5,2.2-1,4.3-1.6,6.5c-1.2,4.5-2,9.1-3.3,13.7c-2.4,8.1-3.6,16.3-4.9,24.5
			c-0.2,0-0.5-0.1-0.8-0.1c-1.7-0.1-3.3,0.5-5,0.4c-5.8-0.4-12.2-0.3-18.2-0.4c-2.8,0-5.3-1.3-7.7-2.8c2.7-7.7,5.9-15.1,8-23
			C390,354.1,392.3,344.5,394.1,334.6L394.1,334.6z M364.5,305c-0.4-0.2-0.7-0.4-1.1-0.6c0.7-1.2,1.3-2.5,2-3.8
			c1.2-2.3,2.9-4.4,4.1-6.7c1.3-2.3,2.4-4.3,3.2-6.6c0.1,0,0.1-0.1,0.2-0.1c2.8-1.3,3.2-4.4,4.9-6.2c2.5,4.5-2.4,10.5-4.7,14.2
			c-1.8,3-4.3,10.6-8.2,9.8C364.9,305.1,364.7,305,364.5,305L364.5,305z M370.3,392.1c-0.3,0.3-0.7,0.7-0.5,0.5
			c-1.2,1.5-1.6,3-2,4.9c-0.7,3.2-1.3,6.7-1.1,10c-14.9,0.3-29.8,0.8-44.7,0.9c1.3-1.8,2.5-4,2.8-6.1c2-0.4,3.8-1.2,5.5-2.6
			c4.9-4.1,7.7-11.9,11-17.2c3.3-5.4,6.7-10.7,9.6-16.3c5.6-10.7,11.3-21,16.3-32.1c2.3-5.2,5.8-10.1,5.5-16
			c-0.1-3.3-1.1-5.8-2.8-8.1c0.2-0.1,0.3-0.2,0.5-0.3c2.5-1.9,3.7-5.1,5.2-7.8c2.2-3.8,4.7-7.6,6.8-11.5c2.5-4.6,2.7-7.8,0.2-11.1
			c1.7-0.5,3.1-1.3,3.6-3.7c0.1-0.5,0.2-1,0.2-1.6c1.1,2.3,3,4.3,5,5.8c0.1,0.6,0.3,1.1,0.5,1.6c-0.1,0.9-0.2,1.9-0.2,2.8
			c-0.2,4.6-1,9.2-1.5,13.8c-1.1,10.8-2.2,21.6-4.4,32.3c-2.2,10.4-4.7,20.6-7.5,30.8c-2.4,9-6.3,17.4-9.2,26.3
			C368.6,389.1,369.2,390.9,370.3,392.1L370.3,392.1z M398.2,407.4c-7.7-0.1-15.3-0.1-23,0c0-1.8-0.3-3.6-0.3-5
			c0.1-3.6,0.1-4.4,3.8-4.5c4.4-0.2,8.8-0.3,13.3-0.2c5.4,0.1,10.9,0.5,16.3,1.2c4.2,0.5,10.3,0.2,12.8,4.1c0.9,1.4,1,3.2,1.2,5
			c-1.8,0-3.6,0.1-5.3,0.1c0,0,0,0,0,0C410.8,407.8,404.5,407.5,398.2,407.4L398.2,407.4z M421.3,392.3c-0.8-0.3-1.6-0.5-2.5-0.6
			c0.8-13.3,5.8-25.8,9.1-38.6c1.5,4.7,3.1,9.3,5.1,13.8c3.9,8.8,7.1,18,10.8,26.9c0.9,2.3,2.2,3.8,3.7,4.8
			c-0.1,2.1,0.2,4.2,0.6,5.9c0.3,1.4,0.6,2.9,1.2,4.3c-1.8-0.1-3.7-0.3-5.5-0.4c-3.1-0.2-6.1-0.1-9.1-0.2c-1,0-1.9-0.1-2.9-0.1
			C432,401.4,427.4,394.2,421.3,392.3L421.3,392.3z M464.7,303.1c3.3,10.6,5.2,21.7,7,32.6c1.6,9.5,2.8,20.1,6.6,29
			c1.9,4.5,5.3,8.2,7.7,12.4c0.4,0.6,1.3,1.7,1.6,2.6c-4.9,1.9-9.7,4.2-14.4,6.5c-1.3,0.6-2.6,1.3-3.9,1.9
			c-3.8,1.1-7.8,1.2-11.7,1.8c-1.9,0.3-4.3,1.5-5.5,0.2c-0.7-0.8-0.9-3-1.3-4.1c-1.7-4.4-4-8.6-5.7-13c-6.3-16.8-11.4-35-21.1-50.1
			c-2.6-4.1-5.1-7.9-7.3-12.3c-1.8-3.5-3.9-7.1-5.9-10.5c-2.1-3.6-3.8-6.8-5.5-10.6c-0.7-1.7-1.5-3.4-2.4-5.1
			c2.4,0.5,4.8,0.8,7.1,1.1c5.6,0.7,11.7,0.9,17.4,0.5c0.3,0,0.5,0,0.8,0c4.9,0.6,9.9-0.3,14.9-0.9c5.4-0.7,10.5-1.9,15.5-3.6
			c0.5,2.4,1.4,4.9,1.9,7.1C461.7,293.4,463.2,298.3,464.7,303.1L464.7,303.1z M494,386.9c4.6-1.7,12.5-2.5,13.8,3.7
			c0.8,3.5-2.3,5.9-5,7.3c-2.8,1.5-5.5,3.5-8.4,4.7c-8,3.4-17.1,5.3-25.7,6.4c-2.5,0.3-5.1,0.5-7.5-0.3c-2.7-1-6.5-6.1-3.9-8.8
			c1.2-1.3,4.2-1.4,5.8-1.6c0.9-0.1,1.9-0.3,2.9-0.6c5.7-1.1,10.6-3.5,15.3-6.4C485.5,389.7,489.8,388.5,494,386.9L494,386.9z
			 M531.8,428.7c-0.6-10-3.6-18.5-14.5-19.9c-5.9-0.7-11.9-0.5-18-0.2c0.5-0.2,1-0.3,1.5-0.5c8-2.8,17.7-8.1,16.2-18.1
			c-1.8-11.9-13.7-15.2-24-12.2c-0.9-3.8-2.8-7.6-4-11.3c-3.3-10.5-5.5-21.6-7.7-32.4c-2.2-10.5-4.6-21.3-8.7-31.2
			c-2.1-5-4.2-9.9-5.9-15.1c-0.9-2.9-2.2-5.4-3.4-8.1c4.8-2.1,8.6-5.7,10.7-10.6c2.7-6.1,1.2-15.1,0.2-21.6
			c-2.3-15.4-4.7-30.9-8.3-46.1c-1.8-7.9-4-15.8-5.9-23.7c-1.1-4.6-1.5-9.4-2.8-14c-1.1-3.9-1.3-7.7-0.4-11.7
			c0.4-1.7,0.9-3.7,1.8-5.2c0.9-1.5,1.6-1.6,3.3-2.3c6-2.4,11.7-5.9,15.7-11.1c3.1-4,4.4-12,9.9-12.5c3.6-0.3,7-0.5,9-4
			c4-6.8-3-13.6-9.3-16.2c0-0.9-0.1-1.8-0.1-1.9c0-1.8,0.1-3.6,0-5.4c-0.2-3.8-1.4-7.6-2.7-11.1c-1.2-3.1-2.9-6-5-8.5
			c-1.8-3.6-4.4-6.5-7.9-8.7c-5.2-3.3-10-6.5-15.9-8.6c-6.1-2.3-12-2.7-18.6-1.5c-16.9,3.2-32.2,15.4-35.6,32.7
			c-2,10.2-1.5,21,1.5,30.9c1.5,5,3.8,9.8,6.8,14.1c1.4,2,3.5,3.6,3.9,6.1c0.4,2.2,0.4,4.7-0.3,6.9c-0.5,1.8-1.8,2.7-2.7,4.2
			c-2.3,4-4.3,8.1-6.8,12.1c-2.4,3.8-4.4,7.9-6.2,12c-1.2,2.8-2.7,5.4-2.9,8.3c-3.2,3-6.2,6.3-8.8,9.7c-2.8,3.7-5.9,6.9-8.7,10.5
			c-3.3,4.3-5.5,9.2-8.5,13.7c-3.4,5-6.2,9.5-8.7,15c-2.2,4.9-5.1,9.8-4.9,15.4c0.1,1.4,0.3,2.8,0.6,4.1c-0.5-0.2-1.1-0.2-1.6,0
			c-1.8,0.8-3.5,2.1-4.8,3.7c-4.2-2.1-7.4-2.9-11.5,2.1c-2.5,3.1-4.4,6.7-6.6,10.1c-1.4,2.3-3.2,4.5-4.1,7c-0.8,2.1-1.4,4.1-1.6,6.2
			c-2.4-0.8-5-0.9-7.8,0.9c-5.5,3.4-7.9,9.6-11.5,14.9c-4.2,6.2-7,13.2-11,19.5c-3.8,6-7.8,11.9-11.8,17.7
			c-3.7,5.4-6.9,11.1-8.9,17.3c-1.9,6-4.3,12.7-2.7,19c2.8,10.9,15.7,17.3,24.3,22.9c0.2,0.2,0.5,0.3,0.8,0.5
			c-3.1,4.6-2.7,11.2,0.2,16.1c-10.5,0-21.1,0-31.6,0c-7.7,0-15.5-0.5-23.2,0c-3.5,0.3-6.7,0.8-10.2,0.5c-3.5-0.3-6.8-0.6-10.3-0.6
			c-5.5,0-10.9-0.1-16.3,0.4c-3.2,0.3-6.3,0.3-9.5,0.3c0.1-0.2,0.1-0.4,0.1-0.6c1.2-6-0.3-13.4-0.6-19.5
			c-0.7-15.2-1.8-30.4-0.6-45.6c0.8-9,0.6-18,0.7-27c0.1-7.9,0.7-15.4-0.7-23c8.2,0,17.8-0.2,21.7-7.6c2-3.8,1.6-8.7,2.3-12.9
			c0.9-5.5,1.9-11.4,1-17c-0.7-4.8-3.4-8.4-7.5-11c-5.7-3.6-13.1-2.5-19.5-3.1c-4.3-0.4-8.7-0.6-13.1-0.8c1.1-8.2-2.4-17.6-3.4-25.6
			c-1.3-10.2-4-20.5-6.1-30.6c-1.7-8.5-2.5-17.5-7.2-24.9c-2.3-3.5-5.2-7.1-9-8.9c-1.9-0.9-3.5-1.4-5.2-2.5c1.3-0.9,2.5-2,3.6-3.1
			c5.1-5.2,8.6-13.3,10.3-20.3c3.2-13.4,4.2-33-6.3-43.7c0.4-1.3,0.6-2.8,0.8-4.2c0.8-5.9,0.4-12.1,0.4-18c0-6-0.1-12,0.2-17.9
			c0.2-3.8-1.1-6.6-4.8-8.3c-4.1-1.9-9.8-2.1-14.3-2.1c-6.3,0-12.5-0.5-18.8-0.5c-5.7,0-11.6-0.4-17.2,0.2C97,31.3,90,30,83.7,31.2
			c-10.3,2.1-7.4,17.2-7.4,24.7c0,6.9,0,13.9,0,20.8c0,2.9,0.1,6.2,1.9,8.5c-0.6,0.4-1.1,0.9-1.8,1.6c-2.3,2.6-3.7,5.6-4.5,9.1
			c-1.6,7.2-2.5,14.7-2.7,22.1c-0.2,5.9,1.8,13.7,4.5,19c3.2,6.3,9.2,11.2,15.5,14.4c-0.6,0.5-1.1,1-1.7,1.5c-3.4,3-7.2,6-10.4,9.4
			c-6.4,6.8-8.8,18.1-10.7,26.9C64,200,61,210.7,58,221.3c-1.4,5.1-3.1,10.2-4.2,15.4c-0.3,1.5-0.5,2.8-0.3,4
			c-1,0.2-1.9,0.3-2.9,0.4c-3.4,0.2-6.4,0.5-9.8,1.2c-4.8,1-9.9,2.4-13.3,6.2c-3.8,4.2-5.3,10.6-6,16.1c-0.8,6.4-0.3,13-0.4,19.5
			c0,7.7-0.1,15.3,0,23c0.2,13-1.1,26-1.1,39c0,13.8,0,27.3,1.7,41c0.7,5.6,0.9,10.9,2.2,16.4c0.5,2,0.7,3.9,1,5.8
			c0,9.9-2.2,20.2,1.7,29.2c2,4.6,5.1,6,10,6.8c6.4,1.1,13.1,1.4,19.6,1.9c6.2,0.5,12.5-0.1,18.7-0.5c7-0.4,14.2,0,21.2,0
			c14.1,0,28.5-0.7,42.6,0.1c6.7,0.4,12.5,0.7,19.2,0.1c7.2-0.7,14.7,0,21.9,0c13.7,0,27.5-0.5,41.2-0.5c12.9,0,25.8-0.8,38.7-0.6
			c7.1,0.1,14.2,0.1,21.2,0.1c6.6,0,13.1,0.7,19.7,0.6c14.2-0.1,28.4,1.1,42.7,1.1c14.4,0,28.8-0.5,43.2-0.5c0.8,0,1.7,0,2.5,0
			c7.7,1,15.5,0.8,23.2,1.5c10.6,0.8,21.2,1.8,31.8,1.7c12.2-0.1,24.4-0.8,36.7-0.8c12.3,0,24,0.4,36.3-1.1
			c4.2-0.5,8.8-1.4,11.7-4.7C532.4,439.6,532.1,433.7,531.8,428.7L531.8,428.7z"/>
	</g>
	<path display="inline" fill="#0B050C" d="M203.1,141.5c0.4-3.6-0.2-4.5,3.7-5.9c3.4-1.3,6.5-1.2,10-0.7c4.1,0.6,8.5,0.2,12.6,0.5
		c9.1,0.6,18.2,0.4,27.2,0.4c8.3,0,16.8-0.2,25,0.6c5,0.5,11,1.8,12.7-4.1c1.9-6.7,2.7-13.9,3.7-20.8c1.1-7.1,0.3-14.6,0.8-21.8
		c0.1-1.5,0.4-3,0.5-4.5c0-0.2,0.1-0.8,0.3-1.5c0.9,0.8,1.7,1.5,2.7,2.2c6,4.8,12,9.8,16.8,15.7c2.5,3.1,4.5,6.3,6.6,9.6
		c2.2,3.5,4.8,6.5,7.2,9.8c2.7,3.7,4.8,7.6,7.6,11.2c2.9,3.6,4.8,7.7,6.7,11.8c3.1,6.6,6,9.4,3.6,16.6c-2.2,6.8-5.9,13.8-10.3,19.4
		c-2.8,3.6-4.9,7.6-7.6,11.2c-2.4,3.3-5,6.3-7.2,9.8c-2.1,3.3-4.1,6.5-6.6,9.6c-4.8,5.9-10.8,10.9-16.8,15.7
		c-0.9,0.7-1.8,1.5-2.7,2.2c-0.1-0.7-0.3-1.3-0.3-1.5c-0.1-1.5-0.4-3-0.5-4.5c-0.5-7.2,0.3-14.7-0.8-21.8
		c-1.1-6.9-1.8-14.1-3.7-20.8c-1-3.3-3.3-4.4-6-4.6c-2.5-0.8-5.4-1.2-7.9-1.3c-3.6-0.2-7.1-0.9-10.7-1c-8.2-0.2-16.4,0.3-24.5,0.8
		c-9,0.5-18,1.6-27,1.6c-2.6,0-5.2,0-7.8,0c-1.8,0-5.5,0.5-7.4-0.1c0-0.7,0-1.4,0-2.1c-0.1-1.5-0.4-3-0.6-4.5
		C201.4,159.6,202.3,150.4,203.1,141.5L203.1,141.5z M193.5,180.6c4,6.5,15.1,4.8,21.8,4.9c7.6,0,15.2-0.5,22.8-1.2
		c9.8,0,19.7,0.5,29.5,0.3c4.2-0.1,8.4-0.5,12.7-0.6c1.5,0,2.9-0.3,4.3-0.5c0.1,0,0.3,0,0.4,0c0.1,1.5,1.1,4.2,1.2,5
		c0.3,1.8,0.6,3.6,0.9,5.4c0.6,3.7,1.4,7.5,1.4,11.2c0.1,7.6,0.5,15,1,22.6c0.3,5.3,1,14.1,9.3,12.9c3.3-0.5,5.1-2.8,7.2-5
		c2.5-2.4,5.4-4.7,8.2-6.9c5.8-4.8,10.9-10,15.5-15.8c2.5-3.2,4.4-6.8,6.5-10.2c2-3.1,4.7-5.7,6.6-8.8c4.3-7.2,9.6-13.4,13.2-21
		c0.2-0.4,0.3-0.8,0.4-1.2c1.3-2.6,2.3-5.4,3.5-8c2.1-4.4,5.3-10,2.9-14.7c-2.8-5.5-6.3-11.2-9.9-16.2c-0.8-1.1-1.7-2.3-2.7-3.5
		c-2.5-3.7-5.1-7.3-7.4-11.1c-1.9-3.1-4.6-5.7-6.6-8.8c-2.2-3.4-4.1-7-6.5-10.2c-4.5-5.8-9.6-11.1-15.5-15.8
		c-2.7-2.2-5.6-4.5-8.2-6.9c-2.2-2.1-3.9-4.4-7.2-5c-8.3-1.3-8.9,7.6-9.3,12.9c-0.5,7.6-0.9,15-1,22.6c0,3.7-0.9,7.5-1.4,11.2
		c-0.3,1.8-0.5,3.6-0.9,5.4c-0.2,0.8-1.1,3.5-1.2,5c-0.2,0-0.3,0-0.4,0c-1.5-0.2-2.8-0.4-4.3-0.5c-4.3-0.1-8.4-0.5-12.7-0.6
		c-0.7,0-1.4,0-2.1,0c-2.9-0.4-5.8-0.4-7.2-0.5c-9.1-0.8-18.1-1-27.3-1.2c-8.8-0.1-17.3,0.1-26,0.8c-7.2,0.6-11,3.8-11.8,10.7
		c-0.9,8-1.4,15.8-1.5,23.9c0,3.9,0.2,7.5,0.5,11.4C192.3,175.2,191.9,178.1,193.5,180.6L193.5,180.6z"/>
</g>
<g display="none">
	<g display="inline">
		<defs>
			<rect id="SVGID_3_" x="68.1" y="22.5" width="436.2" height="460.2"/>
		</defs>
		<clipPath id="SVGID_4_">
			<use xlink:href="#SVGID_3_"  overflow="visible"/>
		</clipPath>
		<path clip-path="url(#SVGID_4_)" fill="#120A05" d="M396.4,387c75.1-3,108.5-37.2,108.5-79c0-36.3-25.2-66.9-81-76.3
			c0.2-13.5,0.3-26.6,0.3-38.7H68.1c0,79.6,0.1,195.1,71.6,250.3c-43.4,3.3-71.6,8.6-71.6,14.6c0,10.1,79.7,18.2,178,18.2
			c98.3,0,178-8.1,178-18.2c0-5.9-28.2-11.2-71.6-14.6C372,428.3,386.1,408.9,396.4,387L396.4,387z M422.5,266.3
			c31.3,7.2,36.9,22.6,36.6,42.5c-0.4,22.6-7,37.8-49.7,43.1C417.1,324.5,420.8,294.9,422.5,266.3L422.5,266.3z M111,220.6h55.7
			c-24.9,73.6,17.2,190.1,17.1,190.1C92.8,341,111,220.6,111,220.6L111,220.6z M111,220.6"/>
		<path clip-path="url(#SVGID_4_)" fill="#120A05" d="M275.2,145c7.1-64.2,148.7-32.1,119.2-115.3c-4.5-12.7-24.9-7.2-20.4,5.6
			c12.9,36.5-36.2,40.9-61.3,49.3c-30.1,10-55,26.8-58.6,60.4C252.6,158.5,273.7,158.4,275.2,145L275.2,145z M275.2,145"/>
	</g>
	<path display="inline" fill="#120A05" d="M375.7,100.2c-27.6,6.5-52.8,18.3-61.4,47.4c-3.9,13.1,16.5,18.6,20.4,5.6
		c9.5-32,51.6-32.6,78.5-40.4c28.9-8.4,45.4-28.3,41.4-59c-1.8-13.3-22.8-13.5-21.1,0C438.2,90.8,404.1,93.5,375.7,100.2
		L375.7,100.2z M375.7,100.2"/>
</g>
<g>
	<path fill="#0B050C" d="M476.3,424.2h-42.7h-71.1H177.6h-71.1H78.1V54.5h398.2V424.2L476.3,424.2z M426.5,452.7h-56.9v-14.2h56.9
		V452.7L426.5,452.7z M170.5,452.7h-56.9v-14.2h56.9V452.7L170.5,452.7z M483.4,40.3H71c-3.9,0-7.1,3.2-7.1,7.1v383.9
		c0,3.9,3.2,7.1,7.1,7.1h28.4v21.3c0,3.9,3.2,7.1,7.1,7.1h71.1c3.9,0,7.1-3.2,7.1-7.1v-21.3h170.6v21.3c0,3.9,3.2,7.1,7.1,7.1h71.1
		c3.9,0,7.1-3.2,7.1-7.1v-21.3h42.7c3.9,0,7.1-3.2,7.1-7.1V47.4C490.5,43.5,487.3,40.3,483.4,40.3L483.4,40.3z"/>
	<path fill="#0B050C" d="M106.5,82.9h312.8v28.4h-28.4c-3.9,0-7.1,3.2-7.1,7.1v71.1c0,3.9,3.2,7.1,7.1,7.1h28.4V218H398
		c-3.9,0-7.1,3.2-7.1,7.1v28.4c0,3.9,3.2,7.1,7.1,7.1h21.3V282h-28.4c-3.9,0-7.1,3.2-7.1,7.1v71.1c0,3.9,3.2,7.1,7.1,7.1h28.4v28.4
		H106.5V82.9L106.5,82.9z M440.7,146.9h-21.3v14.2h21.3v21.3h-14.2H398v-56.9h28.4h14.2V146.9L440.7,146.9z M419.4,246.5h-14.2
		v-14.2h14.2V246.5L419.4,246.5z M440.7,317.6h-21.3v14.2h21.3v21.3h-14.2H398v-56.9h28.4h14.2V317.6L440.7,317.6z M99.4,410h327.1
		c3.9,0,7.1-3.2,7.1-7.1v-35.5h14.2c3.9,0,7.1-3.2,7.1-7.1v-71.1c0-3.9-3.2-7.1-7.1-7.1h-14.2v-28.4v-28.4v-28.4h14.2
		c3.9,0,7.1-3.2,7.1-7.1v-71.1c0-3.9-3.2-7.1-7.1-7.1h-14.2V75.8c0-3.9-3.2-7.1-7.1-7.1H99.4c-3.9,0-7.1,3.2-7.1,7.1v327.1
		C92.3,406.8,95.5,410,99.4,410L99.4,410z"/>
	<path fill="#0B050C" d="M142.1,331.8v-128h135.1v128H142.1L142.1,331.8z M277.2,146.9v42.7H142.1v-42.7H277.2L277.2,146.9z
		 M284.3,132.7H135c-3.9,0-7.1,3.2-7.1,7.1v199.1c0,3.9,3.2,7.1,7.1,7.1h149.3c3.9,0,7.1-3.2,7.1-7.1V139.8
		C291.4,135.9,288.2,132.7,284.3,132.7L284.3,132.7z"/>
	<polygon fill="#0B050C" points="163.4,225.1 184.7,225.1 184.7,239.4 163.4,239.4 163.4,225.1 	"/>
	<polygon fill="#0B050C" points="199,225.1 220.3,225.1 220.3,239.4 199,239.4 199,225.1 	"/>
	<polygon fill="#0B050C" points="234.5,225.1 255.8,225.1 255.8,239.4 234.5,239.4 234.5,225.1 	"/>
	<polygon fill="#0B050C" points="163.4,260.7 184.7,260.7 184.7,274.9 163.4,274.9 163.4,260.7 	"/>
	<polygon fill="#0B050C" points="199,260.7 220.3,260.7 220.3,274.9 199,274.9 199,260.7 	"/>
	<polygon fill="#0B050C" points="234.5,260.7 255.8,260.7 255.8,274.9 234.5,274.9 234.5,260.7 	"/>
	<polygon fill="#0B050C" points="163.4,296.2 184.7,296.2 184.7,310.5 163.4,310.5 163.4,296.2 	"/>
	<polygon fill="#0B050C" points="199,296.2 220.3,296.2 220.3,310.5 199,310.5 199,296.2 	"/>
	<polygon fill="#0B050C" points="234.5,296.2 255.8,296.2 255.8,310.5 234.5,310.5 234.5,296.2 	"/>
</g>
<g display="none">
	<g display="inline">
		<defs>
			<rect id="SVGID_5_" x="42.7" y="21.3" width="461.3" height="461.3"/>
		</defs>
		<clipPath id="SVGID_6_">
			<use xlink:href="#SVGID_5_"  overflow="visible"/>
		</clipPath>
		<path clip-path="url(#SVGID_6_)" fill="#0B050C" d="M437.1,241.5l-46.8-46.8l-10.5,10.5l20.1,20.1v182.9h-52.1
			c-4.1,0-7.4,3.3-7.4,7.4v52.1h-67.2c12.4-16,9.4-39.1-6.6-51.5c-0.3-0.2-0.5-0.4-0.8-0.6c16.4-12,20-35.1,8-51.5
			c-2.2-3.1-4.9-5.8-8-8c16.5-12.1,20-35.4,7.9-51.9c-7-9.5-18.2-15.2-30-15.1h-96.7v-63.9l20.1-20.1l-10.5-10.5l-46.8,46.8l-49-49
			l67.5-67.5l71.4-13c4.9,32.3,36.1,57.2,73.8,57.2s68.9-25,73.8-57.2l71.4,13l67.5,67.5L437.1,241.5L437.1,241.5z M355.2,457.3
			v-34.1h34.1L355.2,457.3L355.2,457.3z M228.8,467.8H79.9c-12.3,0-22.3-10-22.3-22.3c0-12.3,10-22.3,22.3-22.3h163.7
			c12.3,0,22.3,10,22.3,22.3c0,12.3-10,22.3-22.3,22.3H228.8L228.8,467.8z M57.6,385.9c0-12.3,10-22.3,22.3-22.3h163.7
			c12.3,0,22.3,10,22.3,22.3c0,12.3-10,22.3-22.3,22.3H79.9C67.6,408.2,57.6,398.3,57.6,385.9L57.6,385.9z M57.6,326.4
			c0-12.3,10-22.3,22.3-22.3h163.7c12.3,0,22.3,10,22.3,22.3c0,12.3-10,22.3-22.3,22.3H79.9C67.6,348.7,57.6,338.7,57.6,326.4
			L57.6,326.4z M273.4,110.8l54.1,13.5c-11.2,19.1-32,30.6-54.1,30c-22.2,0.6-42.9-10.8-54.1-30L273.4,110.8L273.4,110.8z
			 M501.9,187.2l-74.4-74.4c-1.1-1.1-2.4-1.8-3.9-2.1l-81.8-14.9c-4-0.7-7.9,1.9-8.7,6c-0.1,0.4-0.1,0.9-0.1,1.3
			c0,2.4-0.2,4.7-0.6,7.1l-51.5-12.9V95c20.1-4.1,33.1-23.8,29-43.9C305.7,31,286.1,18,266,22.1c-17.3,3.5-29.8,18.8-29.8,36.4h14.9
			c0-12.3,10-22.3,22.3-22.3c12.3,0,22.3,10,22.3,22.3c0,12.3-10,22.3-22.3,22.3c-4.1,0-7.4,3.3-7.4,7.4v9.1l-51.5,12.9
			c-0.4-2.3-0.6-4.7-0.6-7.1c0-2.2-1-4.3-2.7-5.7c-1.7-1.4-3.9-2-6.1-1.6l-81.8,14.9c-1.5,0.3-2.9,1-3.9,2.1l-74.4,74.4
			c-2.9,2.9-2.9,7.6,0,10.5l59.5,59.5c2.9,2.9,7.6,2.9,10.5,0l17.1-17.1v49H79.9c-20.5-0.1-37.1,16.5-37.2,37c0,11.8,5.6,23,15.1,30
			c-16.4,12-20,35.1-8,51.5c2.2,3.1,4.9,5.8,8,8c-16.5,12.1-20,35.4-7.9,51.9c7,9.5,18.2,15.1,30,15.1h267.9c2,0,3.9-0.8,5.3-2.2
			l59.5-59.5c1.4-1.4,2.1-3.3,2.1-5.3h0.1V240.2l17.1,17.1c2.9,2.9,7.6,2.9,10.5,0l59.5-59.5C504.8,194.8,504.8,190.1,501.9,187.2
			L501.9,187.2z"/>
	</g>
	<polygon display="inline" fill="#0B050C" points="72.5,319 251.1,319 251.1,333.8 72.5,333.8 72.5,319 	"/>
	<polygon display="inline" fill="#0B050C" points="72.5,378.5 243.6,378.5 243.6,393.4 72.5,393.4 72.5,378.5 	"/>
	<polygon display="inline" fill="#0B050C" points="72.5,438 243.6,438 243.6,452.9 72.5,452.9 72.5,438 	"/>
</g>
<g display="none">
	<path display="inline" fill="#010002" d="M264,80c0,25.8-20.8,46.7-46.6,46.7c-26,0-46.9-20.9-46.9-46.7
		c0-25.8,20.9-46.7,46.9-46.7C243.2,33.3,264,54.2,264,80L264,80z M218.5,459c-62,0-112.3-50.3-112.3-112.3
		c0-41.7,23.1-77.9,57-97.2v-33.8c-51,21.5-86.9,72.1-86.9,131C76.2,425.2,140,489,218.5,489c52.1,0,97.3-28.5,122.1-70.4
		l-15.4-38.4C310.7,425.6,268.7,459,218.5,459L218.5,459z M427,390.6h-33.6c0,0-20.5-58.3-26.1-73.7c-3.7-10.3-13.4-17.7-24.9-17.7
		h-81.9v-57.4h77.7c10.3,0,18.7-8.3,18.7-18.5c0-10.4-8.5-18.8-18.7-18.8h-77.7c0,0-4.5-67.9-43.2-67.9c-26.4,0-35.5,21.5-35.5,47.9
		v120c0,26.4,21.5,47.9,47.9,47.9c0.7,0,1.5-0.4,2.2-0.4c0.7,0.2,1.3,0.4,2.2,0.4h100l33.2,83.2H427c12.3,0,22.4-10.1,22.4-22.6
		C449.4,400.7,439.5,390.6,427,390.6L427,390.6z M427,390.6"/>
</g>
<g display="none">
	<path display="inline" d="M280.4,24.8c-125,0-227.5,102.5-227.5,227.5s102.5,227.5,227.5,227.5s227.5-102.5,227.5-227.5
		S405.3,24.8,280.4,24.8L280.4,24.8z M280.4,453.1c-110.3,0-200.8-90.6-200.8-200.8c0-50.3,19.7-96.3,50.5-131.4l281.7,281.7
		C376.6,433.4,330.7,453.1,280.4,453.1L280.4,453.1z M430.7,383.7L148.9,102c35.2-30.8,81.1-50.5,131.4-50.5
		c110.3,0,200.8,90.6,200.8,200.8C481.2,302.6,461.5,348.5,430.7,383.7L430.7,383.7z M430.7,383.7"/>
	<path display="inline" d="M387,159h-80c-7.4,0-13.3-6-13.3-13.3s6-13.3,13.3-13.3h26.7v-26.7H307c-22,0-40,17.9-40,40
		c0,22,17.9,40,40,40h80c7.4,0,13.3,6,13.3,13.3v26.7h-90.1l53.3,53.3H427v-80C427,176.9,409.1,159,387,159L387,159z M387,159"/>
	<rect x="107.1" y="225.6" display="inline" width="80" height="53.3"/>
	<path display="inline" d="M213.7,242.2v36.8h36.8L213.7,242.2z M213.7,242.2"/>
</g>
<g display="none">
	<path display="inline" d="M72.5,304.1c-4.5,0-7.4,3-7.4,7.4v81.8c0,4.5,3,7.4,7.4,7.4h282.7c4.5,0,7.4-3,7.4-7.4v-81.8
		c0-4.5-3-7.4-7.4-7.4h-3.7c-9.7,0-18.6-6.7-21.6-16.4l-26-90c-3.7-8.2-11.9-12.6-20.1-12.6H143.9c-8.9,0-16.4,5.2-20.1,12.6l-26,90
		c-3,9.7-11.9,16.4-21.6,16.4H72.5L72.5,304.1z M355.2,415.7H72.5c-12.6,0-22.3-9.7-22.3-22.3v-81.8c0-12.6,9.7-22.3,22.3-22.3h3.7
		c3,0,6-2.2,7.4-5.2l26-90.8v-0.7c6-13.4,19.3-22.3,34.2-22.3h139.9c14.9,0,28.3,8.9,34.2,22.3v0.7l26,90.8c0.7,3,3.7,5.2,7.4,5.2
		h3.7c12.6,0,22.3,9.7,22.3,22.3v81.8C377.6,406,367.9,415.7,355.2,415.7L355.2,415.7z"/>
	<path display="inline" d="M87.4,415.7v37.2c0,4.5,3,7.4,7.4,7.4h14.9c4.5,0,7.4-3,7.4-7.4v-37.2H87.4L87.4,415.7z M109.7,475.2
		H94.8c-12.6,0-22.3-9.7-22.3-22.3v-44.6c0-4.5,3-7.4,7.4-7.4h44.6c4.5,0,7.4,3,7.4,7.4v44.6C132,465.5,122.4,475.2,109.7,475.2
		L109.7,475.2z"/>
	<path display="inline" d="M310.6,415.7v37.2c0,4.5,3,7.4,7.4,7.4h14.9c4.5,0,7.4-3,7.4-7.4v-37.2H310.6L310.6,415.7z M332.9,475.2
		H318c-12.6,0-22.3-9.7-22.3-22.3v-44.6c0-4.5,3-7.4,7.4-7.4h44.6c4.5,0,7.4,3,7.4,7.4v44.6C355.2,465.5,345.6,475.2,332.9,475.2
		L332.9,475.2z"/>
	<path display="inline" d="M117.2,333.8c-8.2,0-14.9,6.7-14.9,14.9c0,8.2,6.7,14.9,14.9,14.9s14.9-6.7,14.9-14.9
		C132,340.5,125.3,333.8,117.2,333.8L117.2,333.8z M117.2,378.5c-16.4,0-29.8-13.4-29.8-29.8s13.4-29.8,29.8-29.8
		s29.8,13.4,29.8,29.8S133.5,378.5,117.2,378.5L117.2,378.5z"/>
	<path display="inline" d="M310.6,333.8c-8.2,0-14.9,6.7-14.9,14.9c0,8.2,6.7,14.9,14.9,14.9c8.2,0,14.9-6.7,14.9-14.9
		C325.5,340.5,318.8,333.8,310.6,333.8L310.6,333.8z M310.6,378.5c-16.4,0-29.8-13.4-29.8-29.8s13.4-29.8,29.8-29.8
		c16.4,0,29.8,13.4,29.8,29.8S327,378.5,310.6,378.5L310.6,378.5z"/>
	<path display="inline" d="M228.8,371H199c-4.5,0-7.4-3-7.4-7.4s3-7.4,7.4-7.4h29.8c4.5,0,7.4,3,7.4,7.4S233.2,371,228.8,371
		L228.8,371z"/>
	<path display="inline" d="M243.6,341.3h-59.5c-4.5,0-7.4-3-7.4-7.4c0-4.5,3-7.4,7.4-7.4h59.5c4.5,0,7.4,3,7.4,7.4
		C251.1,338.3,248.1,341.3,243.6,341.3L243.6,341.3z"/>
	<path display="inline" d="M160.3,214.8l-17.9,59.5H286l-17.9-59.5H160.3L160.3,214.8z M286,289.2H142.5c-4.5,0-8.9-2.2-11.9-6
		c-3-3.7-3.7-8.9-2.2-13.4l17.9-59.5c2.2-6.7,7.4-10.4,14.1-10.4h107.9c6.7,0,12.6,4.5,14.1,10.4l17.9,59.5
		c1.5,4.5,0.7,9.7-2.2,13.4C295,287,290.5,289.2,286,289.2L286,289.2z"/>
	<path display="inline" d="M385,460.3h74.4v-14.9H385V460.3L385,460.3z M466.8,475.2h-89.3c-4.5,0-7.4-3-7.4-7.4V438
		c0-4.5,3-7.4,7.4-7.4h89.3c4.5,0,7.4,3,7.4,7.4v29.8C474.3,472.2,471.3,475.2,466.8,475.2L466.8,475.2z"/>
	<path display="inline" d="M407.3,430.5h29.8v-14.9h-29.8V430.5L407.3,430.5z M444.5,445.4h-44.6c-4.5,0-7.4-3-7.4-7.4v-29.8
		c0-4.5,3-7.4,7.4-7.4h44.6c4.5,0,7.4,3,7.4,7.4V438C452,442.4,449,445.4,444.5,445.4L444.5,445.4z"/>
	<path display="inline" d="M422.2,415.7c-4.5,0-7.4-3-7.4-7.4V162.7c0-4.5,3-7.4,7.4-7.4c4.5,0,7.4,3,7.4,7.4v245.5
		C429.6,412.7,426.7,415.7,422.2,415.7L422.2,415.7z"/>
	<path display="inline" d="M370.1,155.3h111.6V43.7H370.1V155.3L370.1,155.3z M489.2,170.1H362.7c-4.5,0-7.4-3-7.4-7.4V36.2
		c0-4.5,3-7.4,7.4-7.4h126.5c4.5,0,7.4,3,7.4,7.4v126.5C496.6,167.2,493.6,170.1,489.2,170.1L489.2,170.1z"/>
	<path display="inline" d="M414.8,140.4c-4.5,0-7.4-3-7.4-7.4V66c0-4.5,3-7.4,7.4-7.4c4.5,0,7.4,3,7.4,7.4v67
		C422.2,137.4,419.2,140.4,414.8,140.4L414.8,140.4z"/>
	<path display="inline" d="M422.2,103.2h7.4c8.2,0,14.9-6.7,14.9-14.9c0-8.2-6.7-14.9-14.9-14.9h-7.4V103.2L422.2,103.2z
		 M429.6,118.1h-14.9c-4.5,0-7.4-3-7.4-7.4V66c0-4.5,3-7.4,7.4-7.4h14.9c16.4,0,29.8,13.4,29.8,29.8
		C459.4,104.7,446,118.1,429.6,118.1L429.6,118.1z"/>
</g>
<g display="none">
	<path display="inline" d="M313.8,183.4c-12.8,22.8-37.4,32.9-52.9,22.8c-16.5-10-19.2-35.6-5.5-57.5c13.7-21.9,37.4-32.9,52.9-22.8
		C323.9,135.9,326.6,161.5,313.8,183.4L313.8,183.4z M175.9,208.1c18.2,4.5,38.4-11,45.7-36.5c7.3-25.6-2.8-49.3-21-54.8
		c-18.3-4.6-38.4,11-45.7,36.5C147.6,178.8,157.6,203.5,175.9,208.1L175.9,208.1z M403.3,303.9c-6.4-17.3-31.9-24.7-55.7-16.4
		c-24.7,9.1-39.3,31-32,48.4c6.4,17.3,32,24.7,55.7,16.5C396,344.1,410.6,322.2,403.3,303.9L403.3,303.9z M367.7,252.8
		c21-14.6,29.2-39.2,18.2-54.8c-10.9-15.6-37.4-15.6-58.4-0.9c-21,14.6-29.3,39.3-18.3,54.8C321.1,268.4,346.7,268.4,367.7,252.8
		L367.7,252.8z M139.4,250.1c-34.7,37.5,21,35.6,59.4,70.3c37.5,34.7,43.8,93.2,78.5,55.7c34.7-37.5,32-96.8-5.5-131.5
		C233.4,209.9,175,211.7,139.4,250.1L139.4,250.1z M479.1,251.9c0,116.9-95,211.9-211.9,211.9c-116.9,0-211-95-211-211.9
		c0-116.9,95-211,211-211C384.1,40.9,479.1,135,479.1,251.9L479.1,251.9z M442.6,251.9c0-95.9-78.5-174.4-175.3-174.4
		c-96.8,0-174.4,78.5-174.4,174.4c0,96.8,78.5,175.3,175.3,175.3C364.1,427.2,442.6,348.7,442.6,251.9L442.6,251.9z M442.6,251.9"/>
</g>
<g display="none">
	<path display="inline" fill="#0B050C" d="M62.1,318.1h7.3h102.8h88.1h102.8h29.4h29.4h51.4v18.1l-16.9,11.3h-12.5
		c-4.1,0-7.3,3.3-7.3,7.3v102.8H98.8V354.8c0-4.1-3.3-7.3-7.3-7.3H79l-16.9-11.3V318.1L62.1,318.1z M76.8,252h84.4h3.7v51.4H76.8
		V252L76.8,252z M179.6,303.4V252H231c1.6,0,3.1-0.5,4.4-1.5l17.6-13.2v66.1H179.6L179.6,303.4z M150.2,226.3c0-6.1,4.9-11,11-11
		h55.1c2,0,3.8-0.8,5.2-2.2l25.1-25.1c2.1-2.1,4.6-3.8,7.4-4.9l14.6-5.9c0.1,0,0.1,0.1,0.2,0.1c2,1.3,4.1,2.5,6.3,3.5
		c0.2,0.1,0.3,0.2,0.5,0.2c6.5,3,13.8,4.8,21.4,4.8c11.2,0,21.5-3.6,29.9-9.7c0.1-0.1,0.3-0.2,0.4-0.2l12.4,3.6
		c4,1.1,7.5,3.4,10.2,6.4h-8.9c-4.1,0-7.3,3.3-7.3,7.3v88.1c0,4.1,3.3,7.3,7.3,7.3h14.7v14.7h-88.1v-80.8c0-2.8-1.6-5.3-4.1-6.6
		c-2.5-1.2-5.5-1-7.7,0.7l-27.4,20.6h-56.3h-11C155.2,237.3,150.2,232.4,150.2,226.3L150.2,226.3z M297.1,97.8
		c20.2,0,36.7,16.5,36.7,36.7c0,11.8-5.7,22.2-14.4,29c-1,0.7-2,1.5-3,2.1c-0.6,0.4-1.3,0.7-1.9,1c-8.7,4.6-19.2,5.5-28.5,2.7
		c-0.3-0.1-0.6-0.2-0.9-0.3c-1.5-0.5-2.9-1.1-4.3-1.8c-0.8-0.4-1.6-0.8-2.4-1.3c-1-0.6-2-1.2-3-1.9c-9.1-6.7-15-17.4-15-29.5
		C260.3,114.3,276.8,97.8,297.1,97.8L297.1,97.8z M473.3,274h-51.4h-29.4h-29.4h-14.7v-73.4h13.6h111.2V274L473.3,274z M370.5,303.4
		v-14.7h14.7v14.7H370.5L370.5,303.4z M414.5,303.4h-14.7v-14.7h14.7V303.4L414.5,303.4z M50.7,346.2l22,14.7
		c1.2,0.8,2.6,1.2,4.1,1.2h7.3v102.8c0,4.1,3.3,7.3,7.3,7.3h352.4c4.1,0,7.3-3.3,7.3-7.3V362.1h7.3c1.4,0,2.9-0.4,4.1-1.2l22-14.7
		c2-1.4,3.3-3.7,3.3-6.1v-29.4c0-4.1-3.3-7.3-7.3-7.3h-51.4v-14.7h51.4c4.1,0,7.3-3.3,7.3-7.3v-88.1c0-4.1-3.3-7.3-7.3-7.3H367.2
		c-4.4-9.9-12.9-17.5-23.3-20.5l-4.8-1.4c5.9-8.4,9.4-18.5,9.4-29.5c0-28.3-23.1-51.4-51.4-51.4c-28.3,0-51.4,23.1-51.4,51.4
		c0,12,4.1,23,11,31.7l-8.2,3.3c-4.7,1.9-8.8,4.6-12.3,8.1l-23,23h-52c-14.2,0-25.7,11.5-25.7,25.7c0,4,1,7.7,2.6,11H69.4
		c-4.1,0-7.3,3.3-7.3,7.3v58.7h-7.3c-4.1,0-7.3,3.3-7.3,7.3v29.4C47.4,342.6,48.6,344.8,50.7,346.2L50.7,346.2z"/>
	<path display="inline" fill="#0B050C" d="M106.2,47v14.1h14.7V47c22.5,3.2,40.2,21,43.5,43.5h-14.1v14.7h14.1
		c-3.2,22.5-21,40.2-43.5,43.5v-14.1h-14.7v14.1c-22.5-3.2-40.2-21-43.5-43.5h14.1V90.4H62.7C65.9,68,83.7,50.2,106.2,47L106.2,47z
		 M113.5,163.9c36.4,0,66.1-29.6,66.1-66.1s-29.6-66.1-66.1-66.1S47.4,61.4,47.4,97.8S77.1,163.9,113.5,163.9L113.5,163.9z"/>
	<path display="inline" fill="#0B050C" d="M113.5,112.5c0.2,0,0.3,0,0.5,0c2.1-0.2,4.1-1.2,5.4-2.9l22-29.4l-11.7-8.8l-17,22.6
		l-8.7-8.7L93.6,95.6l14.7,14.7C109.7,111.7,111.5,112.5,113.5,112.5L113.5,112.5z"/>
</g>
<g display="none">
	<path display="inline" fill="#0B050C" d="M491.7,367.5L476,400.2h-43.7c-4.5-22.2-24.2-39-47.8-39s-43.2,16.8-47.8,39H207.9
		c-4.5-22.2-24.2-39-47.8-39s-43.2,16.8-47.8,39H86.2c-6.2,0-12.3-2.5-16.6-6.9c-4.4-4.4-6.9-10.4-6.9-16.6v-49c0-4.5,3-8.4,7.4-9.5
		l63.2-15.8c2.4-0.6,4.4-2,5.8-4l30.3-45.5c3.6-5.4,9.7-8.7,16.2-8.7h144.2c6.5,0,12.6,3.2,16.2,8.7l30.3,45.5
		c1.5,2.2,3.8,3.8,6.5,4.2l100.7,16.8c4.7,0.8,8.2,4.8,8.2,9.6V367.5L491.7,367.5z M384.5,439.3c-16.1,0-29.3-13.1-29.3-29.3
		c0-16.1,13.1-29.3,29.3-29.3c16.1,0,29.3,13.1,29.3,29.3C413.7,426.1,400.6,439.3,384.5,439.3L384.5,439.3z M160.1,439.3
		c-16.1,0-29.3-13.1-29.3-29.3c0-16.1,13.1-29.3,29.3-29.3s29.3,13.1,29.3,29.3C189.4,426.1,176.3,439.3,160.1,439.3L160.1,439.3z
		 M486.8,300.1L390.2,284l-28-42c-7.3-10.9-19.4-17.4-32.5-17.4H185.6c-13.1,0-25.2,6.5-32.5,17.4l-28.2,42.4l-59.6,14.9
		c-13,3.3-22.2,14.9-22.2,28.4v49c0,11.5,4.5,22.3,12.6,30.4c8,8,19.1,12.6,30.4,12.6h26.2c4.5,22.2,24.2,39,47.8,39
		s43.2-16.8,47.8-39h128.8c4.5,22.2,24.2,39,47.8,39s43.2-16.8,47.8-39H476c7.4,0,14.1-4.1,17.5-10.8l15.8-31.6
		c0.3-0.7,0.6-1.4,0.8-2.2l1-4.4c0.2-0.7,0.2-1.5,0.2-2.2V329C511.3,314.6,501,302.5,486.8,300.1L486.8,300.1z"/>
	<g display="inline">
		<defs>
			<rect id="SVGID_7_" x="43.1" y="68.6" width="468.1" height="390.1"/>
		</defs>
		<clipPath id="SVGID_8_">
			<use xlink:href="#SVGID_7_"  overflow="visible"/>
		</clipPath>
		<path clip-path="url(#SVGID_8_)" fill="#0B050C" d="M339.7,155.7c5,0,10-1.9,13.8-5.7c7.6-7.6,7.6-20,0-27.6
			c-7.6-7.6-20-7.6-27.6,0c-7.6,7.6-7.6,20,0,27.6C329.8,153.8,334.7,155.7,339.7,155.7L339.7,155.7z"/>
		<path clip-path="url(#SVGID_8_)" fill="#0B050C" d="M184.9,125.3h86.4c4.1,0,7.7-2.5,9.1-6.3c2.5-6.7,6.2-12.5,11-17.2
			c18.4-18.4,50.6-18.4,69,0c9.2,9.2,14.3,21.5,14.3,34.5c0,13-5.1,25.3-14.3,34.5c-18.4,18.4-50.5,18.4-69,0
			c-4.8-4.8-8.5-10.6-11-17.2c-1.4-3.8-5.1-6.3-9.1-6.3h-86.4l-10.9-10.9L184.9,125.3L184.9,125.3z M173.9,163.8
			c1.8,1.8,4.3,2.9,6.9,2.9h84.1c3.3,6.7,7.6,12.7,12.7,17.8c12.9,12.9,30,20,48.3,20c18.2,0,35.4-7.1,48.3-20
			c12.9-12.9,20-30,20-48.3c0-18.2-7.1-35.4-20-48.3c-25.8-25.8-70.8-25.8-96.5,0c-5.2,5.2-9.5,11.2-12.8,17.8h-84.1
			c-2.6,0-5.1,1-6.9,2.9l-20.7,20.7c-3.8,3.8-3.8,10,0,13.8L173.9,163.8L173.9,163.8z"/>
	</g>
	<path display="inline" fill="#0B050C" d="M186.2,302.7l10.4-19.5h122.5l12.1,19.5H186.2L186.2,302.7z M332.9,268.3
		c-1.8-2.9-4.9-4.6-8.3-4.6H190.8c-3.6,0-6.9,2-8.6,5.2l-20.9,39c-1.6,3-1.5,6.7,0.2,9.6c1.8,2.9,4.9,4.7,8.4,4.7h178.9
		c3.5,0,6.8-1.9,8.5-5c1.7-3.1,1.6-6.9-0.2-9.9L332.9,268.3L332.9,268.3z"/>
</g>
<g display="none">
	<g display="inline">
		<defs>
			<rect id="SVGID_9_" x="37.2" y="21.3" width="461.1" height="461.3"/>
		</defs>
		<clipPath id="SVGID_10_">
			<use xlink:href="#SVGID_9_"  overflow="visible"/>
		</clipPath>
		<path clip-path="url(#SVGID_10_)" fill="#0B050C" d="M486.4,413.6L305.5,232.7L94.1,21.3H77.6l-3.4,8.6
			c-8.9,22.6-12.7,45.8-11,66.9c1.9,24.1,11.1,45,26.5,60.4l165,165l21.8-21.8L429,470.9c15.2,15.2,41.3,16.1,57.4,0l0,0
			C502.2,455.1,502.2,429.4,486.4,413.6L486.4,413.6z"/>
		<path clip-path="url(#SVGID_10_)" fill="#0B050C" d="M49,413.1c-15.8,15.8-15.8,41.5,0,57.4c15,15,41,16.4,57.4,0l129.2-129.2
			l-57.4-57.4L49,413.1L49,413.1z"/>
	</g>
	<path display="inline" fill="#0B050C" d="M358.5,232.5c16.5-1,32-8,43.7-19.7l95.6-95.6l-19.1-19.1l-73.3,73.3l-19.1-19.1L459.6,79
		l-19.1-19.1l-73.3,73.3l-19.1-19.1l73.3-73.3l-19.1-19.1l-95.6,95.6C295,129,288,144.5,287,161c-0.2,4.2-1.2,8.3-2.8,12.2
		l62.1,62.1C350.2,233.7,354.4,232.8,358.5,232.5L358.5,232.5z"/>
</g>
<g display="none">
	<path display="inline" fill="#0B050C" d="M93.5,360.7c10.3-9.8,26.4-9.8,36.7,0c16.4,16.4,42.9,16.4,59.3,0
		c10.3-9.8,26.4-9.8,36.7,0c16.4,16.4,42.9,16.4,59.3,0c10.3-9.8,26.4-9.8,36.7,0c16.4,16.4,42.9,16.4,59.3,0
		c10.3-9.8,26.4-9.8,36.7,0c16.4,16.4,42.9,16.4,59.3,0l24-24l-11.3-11.3l-24,24c-10.1,10.1-26.5,10.1-36.7,0
		c-16.4-16.4-42.9-16.4-59.3,0c0,0,0,0,0,0c-10.3,9.8-26.4,9.8-36.7,0c-16.4-16.4-42.9-16.4-59.3,0c0,0,0,0,0,0
		c-10.3,9.8-26.4,9.8-36.7,0c-16.4-16.4-42.9-16.4-59.3,0c0,0,0,0,0,0c-10.1,10.1-26.5,10.1-36.7,0c-16.4-16.4-42.9-16.4-59.3,0
		c0,0,0,0,0,0l-24,24l11.3,11.3L93.5,360.7L93.5,360.7z"/>
	<path display="inline" fill="#0B050C" d="M93.5,408.7c10.3-9.8,26.4-9.8,36.7,0c16.4,16.4,42.9,16.4,59.3,0
		c10.3-9.8,26.4-9.8,36.7,0c16.4,16.4,42.9,16.4,59.3,0c10.3-9.8,26.4-9.8,36.7,0c16.4,16.4,42.9,16.4,59.3,0
		c10.3-9.8,26.4-9.8,36.7,0c16.4,16.4,42.9,16.4,59.3,0l24-24l-11.3-11.3l-24,24c-10.1,10.1-26.5,10.1-36.7,0
		c-16.4-16.4-42.9-16.4-59.3,0c0,0,0,0,0,0c-10.3,9.8-26.4,9.8-36.7,0c-16.4-16.4-42.9-16.4-59.3,0c0,0,0,0,0,0
		c-10.3,9.8-26.4,9.8-36.7,0c-16.4-16.4-42.9-16.4-59.3,0c0,0,0,0,0,0c-10.1,10.1-26.5,10.1-36.7,0c-16.4-16.4-42.9-16.4-59.3,0
		c0,0,0,0,0,0l-24,24l11.3,11.3L93.5,408.7L93.5,408.7z"/>
	<g display="inline">
		<defs>
			<rect id="SVGID_11_" x="58.2" y="21.5" width="443.3" height="459.2"/>
		</defs>
		<clipPath id="SVGID_12_">
			<use xlink:href="#SVGID_11_"  overflow="visible"/>
		</clipPath>
		<path clip-path="url(#SVGID_12_)" fill="#0B050C" d="M93.5,456.7c10.3-9.8,26.4-9.8,36.7,0c16.4,16.4,42.9,16.4,59.3,0
			c10.3-9.8,26.4-9.8,36.7,0c16.4,16.4,42.9,16.4,59.3,0c10.3-9.8,26.4-9.8,36.7,0c16.4,16.4,42.9,16.4,59.3,0
			c10.3-9.8,26.4-9.8,36.7,0c16.4,16.4,42.9,16.4,59.3,0l24-24l-11.3-11.3l-24,24c-10.1,10.1-26.5,10.1-36.7,0
			c-16.4-16.4-42.9-16.4-59.3,0c0,0,0,0,0,0c-10.3,9.8-26.4,9.8-36.7,0c-16.4-16.4-42.9-16.4-59.3,0c0,0,0,0,0,0
			c-10.3,9.8-26.4,9.8-36.7,0c-16.4-16.4-42.9-16.4-59.3,0c0,0,0,0,0,0c-10.1,10.1-26.5,10.1-36.7,0c-16.4-16.4-42.9-16.4-59.3,0
			c0,0,0,0,0,0l-24,24l11.3,11.3L93.5,456.7L93.5,456.7z"/>
		<path clip-path="url(#SVGID_12_)" fill="#0B050C" d="M149.5,330.9l125.1-125.1c3.1-3.1,3.1-8.2,0-11.3l-21.8-21.8
			c-18.5-18.6-18.5-48.6,0-67.2l64.7-64.7c4.7-4.5,12-4.5,16.7,0c4.6,4.6,4.6,12.1,0,16.7l-63.7,63.7c-9.9,9.9-9.9,26,0,35.9
			c0,0,0,0,0,0l107.7,107.7l72,72l11.3-11.3l-72-72L281.8,145.7c-3.7-3.7-3.7-9.6,0-13.3v0l63.7-63.7c10.8-10.9,10.8-28.4,0-39.3
			c-11-10.5-28.3-10.5-39.3,0l-64.7,64.7c-24.8,24.8-24.8,65,0,89.8l16.2,16.2L138.2,319.6L149.5,330.9L149.5,330.9z"/>
	</g>
	<path display="inline" fill="#0B050C" d="M391.9,131c17.7,0,32,14.3,32,32s-14.3,32-32,32c-17.7,0-32-14.3-32-32
		S374.2,131,391.9,131L391.9,131z M391.9,211c26.5,0,48-21.5,48-48c0-26.5-21.5-48-48-48c-26.5,0-48,21.5-48,48
		C343.9,189.5,365.4,211,391.9,211L391.9,211z"/>
	<path display="inline" fill="#0B050C" d="M350.2,281.4l-36,36l11.3,11.3l30.3-30.3l30.3,30.3l11.3-11.3l-36-36
		C358.4,278.3,353.3,278.3,350.2,281.4L350.2,281.4z"/>
</g>
<g display="none">
	<g display="inline">
		<defs>
			<rect id="SVGID_13_" x="39.7" y="34.8" width="469.9" height="431.2"/>
		</defs>
		<clipPath id="SVGID_14_">
			<use xlink:href="#SVGID_13_"  overflow="visible"/>
		</clipPath>
		<path clip-path="url(#SVGID_14_)" fill="#0B050C" d="M491.1,350l-90.7,69.7c-0.1,0-0.1,0.1-0.2,0.1c-7.5,6.2-16.6,10.2-26.2,11.8
			l-140.6,20.3c0,0-0.2,0-0.2,0c-4.2,0.7-8.6,0.4-13-0.8l-99.8-37.8V302.7h10.9c22.1,0,43.8,5.9,62.9,17c15.6,9.1,32.6,15,50.4,17.6
			c0.1,0,0.1,0,0.2,0l73.2,8.4c12.8,1.9,22.7,12.1,23.9,25l0.2,2l-149.6-22.7c-3.7-0.6-7.2,2-7.8,5.7c-0.6,3.7,2,7.2,5.7,7.8
			l158.4,24c0,0,0,0,0,0c0.2,0,0.4,0.1,0.6,0.1l27.4,1.5c1.5,0.1,3-0.3,4.2-1.1l91.8-61.4c6.8-4.5,16-2.8,20.6,4c0,0,0,0,0,0
			C497.5,336.8,496.5,345,491.1,350L491.1,350z M504.7,323c-8.8-12.9-26.5-16.4-39.5-7.6l-89.9,60.2l-19.2-1.1l-0.5-4.9
			c-1.9-19.2-16.6-34.6-35.7-37.3c-0.1,0-0.1,0-0.2,0l-73.2-8.4c-16.1-2.3-31.3-7.6-45.4-15.8c-21.2-12.4-45.3-18.9-69.8-18.9h-10.9
			v-12.9c0-8.2-6.7-14.9-14.9-14.9h-51c-8.2,0-14.9,6.7-14.9,14.9v96.6c0,3.8,3.1,6.9,6.9,6.9c3.8,0,6.9-3.1,6.9-6.9v-96.6
			c0-0.6,0.5-1.2,1.2-1.2h51c0.6,0,1.2,0.5,1.2,1.2l0,0v161.5l0,0c0,0.6-0.5,1.2-1.2,1.2h-51c-0.6,0-1.2-0.5-1.2-1.2v-19.9
			c0-3.8-3.1-6.9-6.9-6.9c-3.8,0-6.9,3.1-6.9,6.8v19.9c0,8.2,6.7,14.9,14.9,14.9h51c8.2,0,14.9-6.7,14.9-14.9v-9.7l95.3,36.1
			c0.2,0.1,0.4,0.1,0.6,0.2c4.2,1.2,8.4,1.8,12.5,1.8c2.2,0,4.4-0.2,6.6-0.5L376,445.1c0,0,0.1,0,0.1,0c12-1.9,23.3-7,32.7-14.6
			l90.8-69.8c0.1-0.1,0.3-0.2,0.4-0.3C510.7,350.9,512.7,334.8,504.7,323L504.7,323z"/>
		<path clip-path="url(#SVGID_14_)" fill="#0B050C" d="M436.7,124.3c-0.8,0.8-1.8,1-2.3,1c-0.5,0-1.5-0.1-2.3-1l-41.9-41.9
			c-0.8-0.8-1-1.8-1-2.3c0-0.5,0.1-1.5,1-2.3c0.8-0.8,1.8-1,2.3-1c0.5,0,1.5,0.1,2.3,1l41.9,41.9c0.8,0.8,1,1.8,1,2.3
			C437.7,122.5,437.6,123.5,436.7,124.3L436.7,124.3z M446.4,110l-41.9-41.9c-3.2-3.2-7.5-5-12-5c-4.5,0-8.8,1.8-12,5
			c-3.2,3.2-5,7.5-5,12c0,4.5,1.8,8.8,5,12l41.9,41.9c3.2,3.2,7.5,5,12,5c4.5,0,8.8-1.8,12-5C453,127.4,453,116.6,446.4,110
			L446.4,110z"/>
		<path clip-path="url(#SVGID_14_)" fill="#0B050C" d="M233.9,269l16.4-8.2c2.1-1,3.7-2.8,4.5-5l4.6-12.6l14.6-7.5
			c1.7-0.9,3-2.2,3.9-3.9l8.6-16.3l17.2-17.2c2.5-2.5,3.2-6,2.3-9.1l11.5-11.5l19.5,19.5l-11.5,11.5c-3.1-1-6.7-0.2-9.1,2.3
			L299,228.1l-16.3,8.6c-1.7,0.9-3,2.2-3.9,3.9l-7.5,14.6l-12.6,4.6c-2.2,0.8-4,2.4-5,4.5l-8.2,16.4l-14,2.4L233.9,269L233.9,269z
			 M225.9,297.7c0.5,0,1,0,1.5-0.1l22.6-3.8c2.9-0.5,5.3-2.3,6.6-4.9l8.5-16.9l12.5-4.6c2.2-0.8,3.9-2.3,5-4.4l7.7-14.9l15.7-8.2
			c0.8-0.4,1.6-1,2.2-1.6l15.2-15.2c0.9,0.3,1.8,0.4,2.7,0.4c2.4,0,4.7-0.9,6.4-2.7l14.2-14.2c6.8,5.3,15.1,8.1,23.4,8.1
			c8.1,0,16.3-2.6,23.2-7.9l22.8-17.7c3-2.3,3.5-6.6,1.2-9.6c-2.3-3-6.6-3.5-9.6-1.2L384.9,196c-9.6,7.4-23.3,6.6-31.9-2l-32.4-32.4
			c-8.6-8.6-9.5-22.3-2-31.9L374,57.8c4.2-5.5,10.6-8.9,17.5-9.3c6.9-0.4,13.7,2.1,18.6,7l48.8,48.8c4.9,4.9,7.4,11.7,7,18.6
			c-0.4,6.9-3.8,13.3-9.3,17.5l-13.2,10.2c-3,2.3-3.5,6.6-1.2,9.6c2.3,3,6.6,3.5,9.6,1.2l13.2-10.2c8.6-6.6,13.9-16.7,14.6-27.5
			c0.7-10.8-3.3-21.4-11-29.1l-48.8-48.8c-7.7-7.7-18.3-11.7-29.1-11c-10.8,0.7-20.9,6-27.5,14.6l-55.5,71.8
			c-10.7,13.8-10.4,33.1,0.2,46.5L293.6,182c-2.5,2.5-3.2,6-2.3,9.1l-15.2,15.2c-0.6,0.6-1.2,1.4-1.6,2.2l-8.2,15.7l-14.9,7.7
			c-2,1.1-3.6,2.8-4.4,5l-4.6,12.5l-16.9,8.5c-2.6,1.3-4.4,3.8-4.9,6.6l-3.8,22.6c-0.5,2.9,0.5,5.9,2.5,8
			C221.2,296.7,223.5,297.7,225.9,297.7L225.9,297.7z"/>
	</g>
</g>
<g display="none">
	<g display="inline">
		<defs>
			<rect id="SVGID_15_" x="63.9" y="33.7" width="428.8" height="448.6"/>
		</defs>
		<clipPath id="SVGID_16_">
			<use xlink:href="#SVGID_15_"  overflow="visible"/>
		</clipPath>
		<path clip-path="url(#SVGID_16_)" d="M136.4,53.5c2.9-2.9,2.9-7.5,0-10.4c-2.9-2.9-7.5-2.9-10.3,0c-82.9,82.9-82.9,217.8,0,300.6
			c1.4,1.4,3.3,2.1,5.2,2.1c1.9,0,3.7-0.7,5.1-2.1c2.9-2.9,2.9-7.5,0-10.3C59.2,256.3,59.2,130.7,136.4,53.5L136.4,53.5z
			 M136.4,53.5"/>
	</g>
	<path display="inline" d="M426.7,43.2c-2.9-2.9-7.5-2.9-10.4,0c-2.9,2.9-2.9,7.5,0,10.4c37.3,37.3,57.9,87,57.9,139.9
		c0,52.9-20.6,102.6-57.9,140c-2.9,2.9-2.9,7.5,0,10.3c1.4,1.4,3.3,2.1,5.2,2.1c1.9,0,3.8-0.7,5.2-2.1
		c40.1-40.1,62.2-93.5,62.2-150.3C488.9,136.6,466.8,83.2,426.7,43.2L426.7,43.2z M426.7,43.2"/>
	<path display="inline" d="M167.5,84.6c2.9-2.9,2.9-7.5,0-10.3c-2.9-2.9-7.5-2.9-10.4,0c-65.8,65.7-65.8,172.7,0,238.4
		c1.4,1.4,3.3,2.2,5.2,2.2c1.9,0,3.8-0.7,5.2-2.2c2.9-2.9,2.9-7.5,0-10.3C107.5,242.3,107.5,144.7,167.5,84.6L167.5,84.6z
		 M167.5,84.6"/>
	<path display="inline" d="M395.6,74.3c-2.9-2.9-7.5-2.9-10.3,0c-2.9,2.9-2.9,7.5,0,10.3c60,60,60,157.7,0,217.7
		c-2.9,2.9-2.9,7.5,0,10.3c1.4,1.4,3.3,2.2,5.2,2.2c1.9,0,3.8-0.7,5.2-2.2C461.3,247,461.3,140,395.6,74.3L395.6,74.3z M395.6,74.3"
		/>
	<path display="inline" d="M198.6,105.4c-2.9-2.9-7.5-2.9-10.3,0c-23.5,23.5-36.5,54.8-36.5,88.1c0,33.3,13,64.6,36.5,88.1
		c1.4,1.4,3.3,2.1,5.2,2.1c1.9,0,3.8-0.7,5.2-2.1c2.9-2.9,2.9-7.5,0-10.4c-42.9-42.9-42.9-112.6,0-155.5
		C201.5,112.9,201.5,108.2,198.6,105.4L198.6,105.4z M198.6,105.4"/>
	<path display="inline" d="M364.5,105.4c-2.9-2.9-7.5-2.9-10.3,0c-2.9,2.9-2.9,7.5,0,10.3c42.9,42.9,42.9,112.6,0,155.5
		c-2.9,2.9-2.9,7.5,0,10.3c1.4,1.4,3.3,2.1,5.2,2.1c1.9,0,3.8-0.7,5.2-2.1c23.5-23.5,36.5-54.8,36.5-88.1
		C400.9,160.1,388,128.8,364.5,105.4L364.5,105.4z M364.5,105.4"/>
	<path display="inline" d="M276.4,143.6c-28.3,0-51.3,23.1-51.3,51.3c0,25.8,19.2,47.1,44,50.7v220.5c0,4.1,3.3,7.3,7.3,7.3
		c4.1,0,7.3-3.3,7.3-7.3V245.7c24.8-3.6,44-24.9,44-50.7C327.7,166.7,304.7,143.6,276.4,143.6L276.4,143.6z M276.4,143.6"/>
</g>
</svg>
