<?xml version="1.0" encoding="utf-8"?>
<!-- Generator: Adobe Illustrator 18.0.0, SVG Export Plug-In . SVG Version: 6.00 Build 0)  -->
<!DOCTYPE svg PUBLIC "-//W3C//DTD SVG 1.1//EN" "http://www.w3.org/Graphics/SVG/1.1/DTD/svg11.dtd">
<svg version="1.1" id="Layer_1" xmlns="http://www.w3.org/2000/svg" xmlns:xlink="http://www.w3.org/1999/xlink" x="0px" y="0px"
	 viewBox="0 0 552 504" enable-background="new 0 0 552 504" xml:space="preserve">
<g display="none">
	<path display="inline" fill="#0B050C" d="M128.2,122c1.2-0.3,2.4-1,3.2-1.9c1.9-1.9,2.2-4.6,1-7c-1.1-2.2-3.3-4.1-5.8-4.2
		c-5.6-0.1-8.2,7.5-5.1,11.6C123.3,122.7,126,123,128.2,122L128.2,122z"/>
	<path display="inline" fill="#0B050C" d="M159.4,121.6c2.1,1.3,4.6,1.3,6.7,0c1.4-0.9,2.4-2.3,2.7-3.8c0.2-0.4,0.3-0.8,0.4-1.2
		c0.6-2.1,0-4.4-1.6-6c-2-1.9-4.9-2.2-7.3-1C156.1,111.6,155.4,119,159.4,121.6L159.4,121.6z"/>
	<path display="inline" fill="#0B050C" d="M145.8,131.5c2.2,0.1,5.6-0.9,6.1-3.3c0.3-1.8-1.1-3.7-3.1-3.1c-1.2,0.4-2.3,1.3-3.4,0.9
		c-1-0.4-1.6-1-2.7-0.9c-1,0.1-2.1,0.8-2.2,1.9C140.5,129.7,143.5,131.4,145.8,131.5L145.8,131.5z"/>
	<path display="inline" fill="#0B050C" d="M131.6,137.6c-0.1,0.1-0.2,0.3-0.3,0.4c-4.5,10.1,26.9,14.8,29.3,1.1
		c0.3-1.9-1.1-3.5-3.1-3.1c-1.4,0.3-2,0.8-3,1.7c-2.2,2-4.1,3-7.2,3.5c-5.6,1-8.4-1.3-12.7-4C133.6,136.7,132.3,136.9,131.6,137.6
		L131.6,137.6z"/>
	<path display="inline" fill="#0B050C" d="M120.1,398.8c1-7.8,2.7-15.3,4.2-23.1c0.7-3.7,1.8-7.8,1.4-11.6c-0.1-1.1-0.4-2.1-0.8-3
		c-1.3-2.6-3.7-2.3-2.5-5.8c0.6-1.8,2.2-3.3,3.5-4.6c3.3-3.1,7.4-7.4,12.3-6.6c3.9,0.6,6.5,2.6,7.2,6.2c0.7,3.9,0.6,7.2,0.3,11.1
		c-0.8,9.3-1.3,18.6-2.9,27.8c-0.8,4.7-1.6,10.1-3.6,14.5c-1.5,3.4-2.9,7.9-7.1,8.9c-2.9,0.7-7.6-0.8-10.1-2
		c-2.3-1.1-2.3-1.3-2.8-3.6C118.5,404.3,119.8,401.4,120.1,398.8L120.1,398.8z M128.8,327.5c0.5-3.3,5.2-4.8,8-4.8
		c0.7,0,1.8,0.7,2.7,1.9c1.5,1.9,2.4,4,0.7,6.2c-0.7,1-3.3,3.2-4.5,3.5c-1.3,0.3-3.8-0.4-5.4-0.7
		C129.2,331.8,128.5,329.8,128.8,327.5L128.8,327.5z M117.4,417.9c6.7,3.2,14.5,5,21,0.9c7.5-4.8,9.8-13.7,11.6-21.9
		c2.4-10.5,3.2-21.3,4-32c0.5-6.8,2.2-16.6-2.3-22.5c-1.8-2.4-4.5-4.2-7.4-5.4c0.4-0.4,0.7-0.7,1.1-1.1c6.1-6.3,1.8-16.2-5.4-19.3
		c-3.1-1.3-7-0.4-10,0.9c-3.9,1.7-6.7,4-7.9,8c-1,3.5-0.7,7,1.3,10.2c0.6,0.9,1.3,2,2.1,2.9c-5.7,3.4-11.3,9.4-11.3,15.9
		c-0.6,1.9-0.6,3.9,0.5,5.9c0.7,1.2,1.7,1.9,2.6,2.9c2.1,2.5,1.6,4.6,0.6,7.8c-1.5,4.8-3.6,9.6-4.6,14.6c-0.9,4.3-1.3,8.5-2.1,12.8
		C109.9,406.2,109.3,414.1,117.4,417.9L117.4,417.9z"/>
	<g display="inline">
		<path fill="#0B050C" d="M280.4,94.2c-1.9,1.1-3.3,3.4-3.4,5.7c0,1.4,0.7,2.6,1.7,3.5c0.7,1.2,1.7,2.3,3.1,2.7
			c3.8,1.1,6.6-2.6,6.8-6c0.1-1.8-0.5-3.6-1.7-4.9C285.3,93.2,282.5,93,280.4,94.2L280.4,94.2z"/>
		<path fill="#0B050C" d="M483,444.3c0,2.7-0.3,5.1-0.7,7.7c-0.8,5.6-1.9,10.7-8.4,11.7c-5.7,0.9-12.2-0.3-18-0.5
			c-6.1-0.2-12.3-0.9-18.4-1.1c-13.6-0.6-27.7-0.4-41.3,0.5c-14.1,0.9-28.6,0.2-42.8-0.5c-53.6-2.7-107.3,0.8-160.9,0.3
			c-7.2-0.1-14.2,1.3-21.4,0.6c-7.9-0.8-15.8-0.4-23.8-0.4c-15.8,0.1-31.8-0.5-47.6,0.2c-7,0.3-13.9,1.2-20.9,0.8
			c-3.6-0.2-7.2-0.6-10.7-0.9c-3.3-0.3-7.1-0.1-10.3-1c-5.5-1.6-5-11.2-5-16.1c0-0.8,0-1.5,0-2.3c3.7,1.5,8.2,1.9,11.8,1.9
			c7.8,0,15.5-0.5,23.2-0.1c27.9,1.2,56.1,0,84-0.6c12.2-0.2,24.4-0.5,36.7-0.7c13.4-0.3,26.6-1,40-1.3c15.3-0.3,30.7-0.5,45.9-0.5
			c7.2,0,14.5,0,21.7,0c28,0,55.9-0.6,83.8-0.5c7,0,13.9-0.8,21-0.8c6.9,0.1,13.8-0.1,20.7,0.1c6.2,0.1,12.3,0.6,18.5,0.7
			c4,0.1,8,0,12,0.1C474.9,441.4,483.2,440.6,483,444.3L483,444.3z M50.8,314.6c0-1.6,0-3.1,0-4.7c12.8-0.1,25.5-1.1,38.3-1.2
			c13.9-0.1,27.9,2.1,41.8,1.8c29.1-0.5,58.2,0.6,87.2-1.3c-0.3,3.2-0.3,6.4-0.4,9.6c-0.2,5.2-0.8,10.4-1,15.6
			c-0.2,5.4-0.1,10.7-0.6,16c-0.4,4.8-0.9,9.7-0.9,14.5c0,9.6-1.1,19.1-0.6,28.7c0.4,9.2,1.2,18.4,1.8,27.6c0.1,1.9,0.2,4,0.1,5.9
			c-0.2,0.8-0.2,1.3-0.1,1.4c-0.7,0.3-1.4,0.5-2.2,0.5c-2.1,0.6-4.2,1-6.2,1.5c-2.4,0.5-4.8,1.7-7.2,2c-4.6,0.6-9.8,0-14.5-0.1
			c-4.3-0.1-8.4,0.5-12.6,0.9c-0.9,0.1-1.9,0.2-2.8,0.3c-6.3-0.1-12.8-0.4-19.1,0.1c-5.8,0.4-11.7,0-17.5,0.4
			c-5.3,0.4-10.6,1.1-16,1c-12.7-0.2-25.4-0.7-38-0.9c-5.7-0.1-11.7,0.5-17.4,0.1c-1.8-0.1-6-0.5-7.3-1.9c-1.5-1.5-1.3-4.8-1.6-6.7
			c-1.7-11.9-4-23.9-4.3-36.1C49.1,364.8,50.8,339.7,50.8,314.6L50.8,314.6z M52.4,273.6c2-6.3,5.6-7.9,11.8-9.4
			c2.6-0.7,5.1-1,7.8-1.2c3.5-0.2,7.1-1.1,10.6-1.2c5.6-0.2,11.2-0.5,16.8-1.1c6.2-0.6,12.2-0.6,18.4-0.6c12.9,0,25.6,0.5,38.4,1.4
			c12.1,0.8,24.2,0.7,36.3,1.1c5.7,0.2,11.5,1,17.3,1.4c6.3,0.4,12.6,0.2,18.9,0.4c5.8,0.2,13.5,0.5,14.2,7.6c0.5,5.5-1,11.5-1.7,17
			c-0.6,4.8,0.3,8.4-5.5,9.6c-5.3,1.1-11.5,0.3-16.9,0.6c-29.2,2-58.5,0.8-87.7,1.3c-13.9,0.2-27.8-2-41.8-1.8
			c-12.8,0.1-25.5,1.1-38.3,1.2c0-1.7,0-3.5,0-5.2C50.8,287.5,50.2,280.4,52.4,273.6L52.4,273.6z M85.4,247.7
			c1.3-5.3,3.1-10.4,4.3-15.7c2.4-10.5,5.3-20.9,7.2-31.5c1.7-9.8,3.1-21.2,10.7-28.4c1.1-1,2.2-2.1,3.3-3.1c2.7,3.7,6.7,6.1,11.1,8
			c4,1.8,8.6,3.2,13.2,4.2c-1.6,11.3-2.3,22.6-2.4,34c0,7.7-0.1,15.3-0.1,23c0,3.6-0.4,8.4,0.7,12.2c-3.8-0.1-7.7,0-11.5,0
			c-2,0-3.9,0-5.9-0.1c-0.1-5.7-0.4-11.3,0.3-17c0.4-3.2,1.5-7.3,0.7-10.4c-0.3-1.4-2.7-1.5-2.9,0c0.1-0.6-0.9,1.8-1.1,2.3
			c-1.1,2.7-1.7,5.8-2.3,8.7c-1.1,5.4-1.4,10.8-1.5,16.3c-2.5,0-5.1,0.1-7.6,0.4c-5.7,0.7-11.3,1.1-17,1.4
			C84.9,250.5,85.1,249,85.4,247.7L85.4,247.7z M101.2,129.8c-0.4-1.6-0.6-3.2-0.8-4.7c4.3-1.4,9.1-6.6,11.1-9c3.2-3.8,5-8,6.8-12.6
			c1.2-3.1,2.9-6.7,1.6-9.9c6.4,4.7,13.6,5.2,21.9,5.2c5,0,9.6,0.2,14.5-1.1c2.5-0.7,5.1-1,7.5-2.1c1.8-0.8,3.4-1.8,5.1-2.6
			c-0.6,3-0.4,6.2,1,9c0.7,3,2,5.8,3.5,8.2c2.6,4.2,5.6,8.6,10.7,9.4c-0.4,3.3-1,6.5-1.8,9.6c-2.4,8.5-7.1,16.8-15.3,20.8
			c-7.8,3.7-16.2,5.6-24.7,5.2c-8.9-0.3-18.1-1.7-26.1-5.8C107.8,145,103.4,138.9,101.2,129.8L101.2,129.8z M107.9,57.1
			c4,0.6,8.2,0.6,12,1c6.4,0.6,12.6-0.6,18.9-0.4c6.3,0.2,12.7-0.6,19.1-0.6c6.6,0,13.4,0.4,20,0c0,3.3,0,6.6,0,9.8
			c-3.7,0.1-7.5,0.6-11.2,0.6c-6.7,0-13.4,0-20.1,0c-3.1-0.3-6.2-0.5-9.4-0.6c-5.5,0-10.8-0.7-16.2-0.6c-3.8,0-8.9-0.7-13.2-0.2
			C107.9,63.1,107.9,60.1,107.9,57.1L107.9,57.1z M126,73.1c7.7,0.1,15.4,0,23.2,0c7.1,0,14.3,0,21.4-0.1c2.2,0,4.9,0.1,7.5-0.2
			c0,2,0,4-0.3,6c-0.2,1.3-0.4,1.9-0.7,2.3c-4.9-1-10-0.6-15.1-0.2c-4.7,0.1-9.3,0.3-14,0.6c-7.7,0.1-15.3,0.1-22.9,0.7
			c-5,0.4-10,0.2-15-0.3c-2.6-0.3-2,0.1-2.2-2.3c-0.2-2.4-0.1-5,0-7.5C113.4,74.1,120.5,73.1,126,73.1L126,73.1z M108.5,38.8
			c1.4-1.1,6.1-0.2,7.8-0.2c2.9,0,5.9,0.1,8.8,0c4.8-0.3,9.5-0.6,14.4-0.6c4.9,0,9.7,0.1,14.6,0.4c5.2,0.4,10.4-0.5,15.5,0.1
			c2.1,0.2,4.4,0.4,6.6,0.8c2.5,0.4,1.7,0,2,1.6c0.5,3.3,0.3,7.2,0.1,10.8c-6.3-0.3-12.8,0-19.1,0c-6.7,0-13.5,0.8-20.1,0.6
			c-6.2-0.2-12.4,1-18.6,0.5c-3.8-0.3-8.4-1.2-12.5-1C107.4,47.6,106.8,40.2,108.5,38.8L108.5,38.8z M143.7,175.6
			c-6.2-0.8-13.6-2.5-19.3-5.1c-2.7-1.2-6.3-3.1-8.3-5c-0.3-0.3-0.5-0.5-0.7-0.7c0.8-0.8,1.6-1.6,2.3-2.4c0.4-0.5,1-1,1.5-1.6
			c13.3,4.9,28.7,5.6,42.1,1.6c2.9-0.9,5.9-1.9,8.7-3.2c0.8,1,1.7,1.9,2.6,2.7c1.5,1.4,3,2.4,4.6,3.4c-0.9,1.2-1.8,2.5-3.2,3.5
			c-2.9,2.2-6.5,3.7-9.9,5C157.5,176.2,150.7,176.5,143.7,175.6L143.7,175.6z M140,244.4c-0.5-3.6-0.3-7.3-0.3-10.9
			c-0.1-13.8-1.3-27.8,0.2-41.5c0.4-3.1,0.6-6.4,0.5-9.6c2.1,0.3,4.1,0.6,6.1,0.7c1.4,0.1,2.7,0.1,4,0.2c-1,5.3-0.5,11.3-0.5,16.4
			c-0.1,7.2,0,14.4-0.2,21.6c-0.2,6,0.5,11.8,0.5,17.8c0,3.6-0.5,8.5,0.3,12.5c-2.6-0.1-7,0.4-9.4-0.7
			C139.2,249.8,140.2,246.2,140,244.4L140,244.4z M182.8,170.1c0.1,0.1,0.1,0.2,0.2,0.3c5.2,7.6,5.7,17.1,7.5,25.9
			c1.9,9.9,4.4,19.9,5.9,29.9c0.8,5,1.8,10,2.5,15c0.6,3.9,0.6,8,1.4,11.9c-5.2-0.2-10.4-0.3-15.6-0.6c-0.7,0-1.5-0.1-2.2-0.1
			c-0.6-5-1.7-10.2-2.5-15c-1-5.3-1.6-10.7-3.1-15.9c-0.8-2.5-4.7-2.1-4.7,0.6c0.1,10,1,19.9,1.2,29.9c-5.1-0.1-10.1-0.2-15.2-0.4
			c0.6-3.8-0.6-8.3-0.6-11.9c-0.1-6.2-0.9-12.3-0.8-18.6c0.1-6.8,0-13.6-0.1-20.4c0-5.5,0.6-12.1-0.6-17.8c5-0.6,9.8-1.9,14.7-4
			C175.3,176.9,180.3,174.4,182.8,170.1L182.8,170.1z M249.4,419.8c-3-1.3-7.9-2.5-6.2-6.8c1.2-3.2,4.8-4.4,8-4.3
			c3.3,0.1,6.4,1.1,9.5,2.1c2.7,0.9,5.1,2.3,7.8,3.2c6.7,2.2,13.5,3.9,20.3,5.8c1.2,0.4,2.5,0.7,3.5,1.6c2.2,2,0.5,4.1-1.3,5.6
			c-8.2,6.6-18.6,0.5-27.3-2.1C258.7,423.3,254.1,421.8,249.4,419.8L249.4,419.8z M262,398.2c1-1.7,2.4-3.3,3.2-5.1
			c1.1-2.3,1.7-4.9,2.5-7.3c1.6-5,3.2-10,4.7-15c2.6-8.8,4.9-17.7,7-26.6c0.9-3.8,1-7.6,1.8-11.5c1-4.4,2.1-8.9,3.5-13.2
			c1.6-5.1,3.2-10.3,4.4-15.5c0.6-2.4,1.5-5,2-7.6c5.4,1.8,10.7,3.2,16.5,3.9c5.3,0.6,10.7,1.6,15.8,0.9c0.3,0,0.6,0,0.9,0.1
			c6,0.4,12.5,0.3,18.5-0.5c2.4-0.3,5-0.7,7.5-1.2c-0.9,1.8-1.7,3.6-2.5,5.4c-1.7,4.1-3.6,7.5-5.8,11.3c-2.1,3.6-4.4,7.4-6.3,11.2
			c-2.4,4.6-5,8.7-7.8,13c-10.4,16.2-15.7,35.5-22.4,53.3c-1.8,4.7-4.3,9.1-6,13.9c-0.4,1.2-0.6,3.5-1.4,4.4
			c-1.3,1.4-3.8,0.1-5.9-0.2c-4.5-0.7-9.1-0.7-13.4-2.2c-4.2-1.5-8.4-3.3-12.6-4.7c-1.4-0.5-5.8-1.7-6-3.3
			C260,400.7,261.5,399,262,398.2L262,398.2z M284,268.6c0.4-6.8,1.6-13.6,2.4-20.4c1.7-14.2,4.6-28.7,7.9-42.6
			c2.7-11.1,5.3-22.8,6.1-34.3c3.3,0.4,6.9-0.3,9.6-0.9c7.3-1.6,16.1-2.9,22.2-7.4c1-0.7,1.7-1.5,2.4-2.4c0.2,0.5,0.4,1,0.5,1.5
			c1.3,3.6,3.5,7.2,5.4,10.5c1.8,3.1,3.6,6.2,5.2,9.4c-6.6-2.6-14.1-3.1-20.9-0.9c-10.2,3.4-13.9,14.4-11.1,22.9
			c1.2,3.6,4.4,7.2,7.4,10.4c1.3,1.4,2.5,2.8,3.6,4.3c2,3.1,4.1,6,6.4,9c3.1,4.2,5.9,8.8,9.3,12.8c3.9,4.6,8,9.2,10.6,14.7
			c3,6.2,4.8,12.2,6.2,18.8c0.6,2.8,1.9,5.2,3.7,6.9c-2.1,2.1-3.2,5-6.2,6.4c-3.1,1.5-6.4,2.3-9.8,2.9c-2.9,0.5-5.5,0.1-8.4,0.3
			c-7.4,0.7-14.9,0.3-22.3-0.3c-8.3-0.6-16.8-2-24.4-5.6C283.3,281.7,283.5,275.1,284,268.6L284,268.6z M299.3,154.3
			c9.6,2.1,20.6,1.1,29.4-3.5c0.1,4.4-2.6,6.9-7.5,8.5c-4.4,1.5-9.6,2.8-14.2,3.7c-0.7,0.1-5.6,1-6.5,0.4c-1.4-0.9-0.6-2.9-0.6-4.1
			C299.9,157.5,299.9,155.8,299.3,154.3L299.3,154.3z M285.6,141.1c-0.5-0.2-0.9-0.5-1.4-0.7c0.4-0.1,0.8-0.1,1.1-0.2
			c5.6-1.4,9.1-4.5,12.7-8.6c1.9-2.3,0.1-5.8-2.9-5.1c-1.5,0.4-2.3,1.1-3.5,2.1c-1.7,1.5-3.3,2.7-5.4,3.8c-2.2,1.1-4.4,1.9-7,1.6
			c-1.4-0.1-2.5-0.5-3.6-0.6c-0.7-0.9-1.4-1.9-2.1-3c-2.3-3.8-3.2-8.2-7.7-10c-2-0.8-4.4-0.4-6.3-1.2c-4.5-1.8,0.1-4.7,2.3-5.9
			c4.2-2.3,7.7-1.8,7.9-7.6c0.3-6.1-0.4-11.4,1.8-17.4c2.4-6.6,7-10.7,12.7-14.4c4.4-2.9,9.4-5.4,14.3-7.3c1.5-0.6,3.2-0.8,4.8-1.2
			c-2.7,3.2-4.4,7.4-4.5,11.5c-0.1,2.5,0.6,5,1.6,7.3c1,2.3,4.5,4.9,4.8,7c0,0.4,0,0.8-0.2,1.2c-0.4,0.7-0.8,1.5-1,2.3
			c-0.8,1.5-1.7,3-1.9,4c-0.7,3.4,0.2,7,2.2,9.9c5.5,7.9,14.4-3.7,20.8-4.1c8.7-0.5,10.1,12.4,1.9,13.4c-3.3,0.4-5.3-1.1-8.3-2.3
			c-2.9-1.1-5.4,3.3-3,5.2c4.3,3.7,10.4,5.1,15.8,2.6c3.1-1.4,5.2-4.3,6.3-7.5c2,1.1,3.9,1,5.5,0.1c-0.2,0.9-0.4,1.9-0.7,2.8
			c-2.8,10.7-10.2,21-20.7,25.6C310.8,149.2,296.1,146.4,285.6,141.1L285.6,141.1z M353.3,198.8c5.6,5.6,9.8,12.5,15.5,18
			c4.6,4.5,7.6,12.1,11.6,17.6c2.4,3.3,4.5,6.5,6.1,10.3c1.8,4.1,4.6,8.3,5.3,12.7c1.4,8.9-6.3,16.8-14.6,18.4
			c-1.9,0.3-4.7,0.8-6.7,0.4c-2.8-0.6-3.1-2.6-3.5-5c-0.8-4.6-2-8.7-3.9-13c-3.1-7.1-7-13.9-12.1-19.8c-5.2-6-10.1-12.5-15.4-18.3
			c-2.9-3.2-5.2-7.1-7.9-10.5c-1.3-1.7-3-3.1-4.6-4.6c0,0,0,0,0-0.1c-0.9-1.4-1.3-2.8-2-4.1c-0.3-2.4-0.6-3.2,0.5-5.7
			c1.6-3.9,5.1-5.4,9.1-5.9C340,188.1,346.9,192.3,353.3,198.8L353.3,198.8z M394.9,273.8c1.1-1.5,2.2-3,3-4.6
			c1.7,1.6,3.6,3.8,4.5,6c0.4,1,0.9,3.4,0.8,4.3c-0.2,2.5-1,2.2-2.6,3.6c-1.8,1.6-1.5,3.2-2.6,4.9c-1.9,3.1-5.3,1.5-8.1,2.9
			c-1.9,0.9-3.6,5.3-5.6,3.9c-1.5-1.1-1.7-3.9-3.7-5.1c-1.7-1.1-3.4-0.6-5.2-1.1c-0.5,0-1,0-1.5,0c0-1.5,0.4-2.9,1.2-4.2
			c0-0.1,0-0.1,0.1-0.1C382.8,283.4,390.5,279.5,394.9,273.8L394.9,273.8z M409,285.8c0.1-0.1,0.2-0.3,0.2-0.4c1,2.1,2.2,4,3.2,6.1
			c1.5,3.4,3.2,7.2,5.2,10.5c-4.6,2.8-8.9,6.4-12.8,9.7c-2.5,2.1-5,4.1-7.3,6.1c-3.1-4.8-5.8-10-9-14.8c-0.1-0.2-0.3-0.4-0.5-0.7
			c1.5-0.8,2.8-2.2,4.1-3.6c2.8-2.9,7.9-1.9,11-5.1c1.3-1.3,1.1-3.2,2-4.4C406,288,407.9,287.3,409,285.8L409,285.8z M411.8,272.2
			c3.1,0.2,5,4.7,6.5,7.2c2,3.3,4.8,6.8,6.2,10.3c0.6,1.5,1.4,3.7,1.6,5.3c0.1,1,0,1.9-0.4,2.7c-0.7,0.4-1.5,0.7-2.2,1.1
			c-0.1,0-0.2,0.1-0.4,0.2c-1.9-3.1-3.5-6.7-5.1-9.9c-1.9-3.8-4.2-6.5-6.8-9.8c-0.1-0.1-0.2-0.2-0.3-0.3c0-2.1-0.4-4.3-1.2-6.4
			C410.4,272.3,411.1,272.1,411.8,272.2L411.8,272.2z M376.9,295.9c1.8,1.8,2.3,5.2,5.2,6.6c0.1,0,0.2,0.1,0.2,0.1
			c0.9,2.4,2.1,4.6,3.4,7c1.4,2.4,3.1,4.7,4.4,7.1c0.7,1.4,1.4,2.8,2.1,4.1c-0.4,0.2-0.8,0.4-1.2,0.6c-0.2,0-0.4,0.1-0.5,0.1
			c-4.1,0.8-6.7-7.3-8.7-10.5C379.5,307,374.2,300.7,376.9,295.9L376.9,295.9z M337,421c2.7-0.6,5.4-0.6,8.5-0.8
			c8-0.4,16.1-0.9,24.1-1.3c2.1-0.1,8.5-1.4,10.3,0.1c1.4,1,1.4,5.8,1.3,7.5c-0.1,2,0.2,3.4,0.7,4.7c-9.8,0.2-19.6,0.4-29.4,0.4
			c-8.6,0-17.2,0-25.8,0c-1-3.7,3-7,5.7-8.7C334,421.9,335.5,421.3,337,421L337,421z M329,358.2c0.5-1.1,0.9-2.1,1.4-3.2
			c2.6-5.4,6.2-10.5,9.5-15.5c3.3-4.8,5.8-10.4,8.5-15.6c2.3-4.6,5.3-8.5,6.9-13.4c0.1-0.3,0.2-0.6,0.3-0.9
			c0.1,3.7,0.4,7.4,0.7,11.1c0.8,10.9,1.5,21.4,3.4,32.2c1.9,10.4,4.3,20.7,7.1,30.9c1.2,4.3,2.6,8.6,4.2,12.8
			c1.2,3.2,3.2,6.2,3.6,9.7c0.4,3.8-4.3,4.9-7.5,4.9c-6.4,0.1-13.2,0-19.4,0.4c-1.3,0.1-5.1,0.2-6-0.6c-1.1-1-0.8-3.6-1-5
			c-0.4-2.4-0.8-4.8-1.2-7.3c-0.8-4.6-1.8-9.1-3.1-13.6c-1.4-4.8-2.3-9.7-3.5-14.5c-0.6-2.3-1.1-4.6-1.7-6.9
			C330.7,361.9,329.7,360.1,329,358.2L329,358.2z M303.6,420.4c1.3-1,2.4-2.5,3.3-4.6c3.9-9.5,7.3-19.2,11.5-28.6
			c2.1-4.7,3.7-9.7,5.4-14.6c3.5,13.9,9.1,27.4,9.7,41.9c-1.5,0.5-2.8,1.1-3.8,1.6c-5.9,3.1-10.3,8.9-10.5,15.5c-6,0-12.1,0-18.1,0
			c-0.8,0-1.6,0-2.4,0C301.6,428.3,304.3,424,303.6,420.4L303.6,420.4z M390.9,425c-0.1-3.7-1.8-9.2-4.7-12.7c0.4-1,0.5-2,0.1-3
			c-3.1-9.4-7.2-18.4-9.8-28c-2.9-10.9-5.6-21.7-8-32.8c-2.4-11.3-3.6-22.8-4.7-34.4c-0.5-4.9-1.4-9.7-1.6-14.7c0-1-0.1-2-0.2-3
			c0.2-0.6,0.4-1.1,0.6-1.7c2.1-1.6,4.1-3.7,5.3-6.2c0,0.6,0.1,1.1,0.2,1.7c0.6,2.6,2,3.5,3.9,4c-2.7,3.5-2.4,6.9,0.2,11.8
			c2.2,4.2,4.8,8.2,7.2,12.2c1.6,2.8,2.8,6.3,5.5,8.3c0.2,0.1,0.3,0.2,0.5,0.3c-1.8,2.4-2.8,5.2-3,8.6c-0.3,6.3,3.4,11.5,5.9,17
			c5.3,11.8,11.3,22.7,17.3,34.1c3.2,6,6.7,11.6,10.2,17.4c3.5,5.7,6.5,14,11.7,18.3c3.6,3,8.1,3.5,12.8,2.7c0.5,2.1,1.6,4,3.2,5.5
			c-0.6,0-1.2,0-1.8,0c-16.9-0.3-33.8,0.2-50.7,0.6C391.3,429,391,426.8,390.9,425L390.9,425z M457.8,426.7c-2.7,1.4-5.4,1-8.1-0.5
			c-1.4-0.7-2.3-1.9-3.2-3.1c5.2-2,10.3-5,14.2-7.5C462.5,419.7,462.7,424.2,457.8,426.7L457.8,426.7z M432.3,305.3
			c1.4-0.7,2.7-1.1,3.8-0.8c1.5,0.5,2.3,3.3,3,4.5c1.1,1.9,2.4,3.8,3.7,5.7c3.5,4.9,5.8,10.2,8.8,15.3c5.3,9.2,11.4,17.9,17.3,26.7
			c5.2,7.8,11.7,18.7,11.1,28.5c-0.6,8.4-12.1,13.8-18.2,18c-4.2,2.9-8.5,5.8-13.1,8.2c-3.4,1.7-11.1,5.7-14.8,3.2
			c-2.9-2-5-7.7-6.8-10.7c-3.1-5.1-6.5-10-9.6-15.2c-9-15.1-15.6-29.6-23.2-45.4c-1.9-3.9-5-7.6-1.7-11.9c1-1.3,2.3-2.5,3.7-3.6
			c3.1-1.4,5.6-3.3,8.5-5.4c2.8-2,6.6-4.1,9.7-6.1c4-2.5,7.9-6.1,12.2-7.9C428.3,307.9,430.3,306.4,432.3,305.3L432.3,305.3z
			 M484.6,431.8c-6.4-0.9-13.1-0.7-19.6-0.8c2.7-2.4,4-5.3,5-9.3c0.8-3.4,0-7.5-2-10.6c8.7-5.4,18.9-11.7,21.4-21.6
			c1.7-6.7-0.8-13.9-2.8-20.2c-2.1-6.6-5.5-12.7-9.4-18.4c-4.3-6.2-8.6-12.5-12.6-18.9c-4.2-6.7-7.3-14.2-11.7-20.7
			c-3.8-5.6-6.3-12.2-12.2-15.8c-3-1.9-5.7-1.8-8.3-0.9c-0.2-2.2-0.9-4.3-1.7-6.6c-1-2.7-2.9-5-4.4-7.4c-2.3-3.6-4.3-7.4-7-10.8
			c-4.3-5.4-7.7-4.5-12.2-2.3c-1.4-1.8-3.2-3.2-5.1-4c-0.6-0.2-1.2-0.2-1.7,0c0.4-1.4,0.6-2.8,0.6-4.4c0.3-6-2.8-11.2-5.2-16.4
			c-2.6-5.8-5.7-10.6-9.2-15.9c-3.2-4.7-5.5-10-9-14.5c-3-3.8-6.3-7.2-9.2-11.2c-2.7-3.7-5.9-7.2-9.3-10.3c-0.2-3.1-1.8-5.9-3.1-8.8
			c-1.9-4.4-4.1-8.7-6.6-12.7c-2.3-3.7-4.8-7.4-6.6-11.5c-1.2-2.7-2.5-5-4.9-6.5c0-2-0.2-4-0.5-5.9c0-0.2-0.1-0.3-0.2-0.5
			c14.4-13.3,18.5-36.1,14.8-54.8c-3.6-18.4-19.9-31.4-37.9-34.8c-6.9-1.3-13.2-0.8-19.7,1.6c-6.2,2.3-11.3,5.7-16.9,9.2
			c-3.7,2.4-6.4,5.5-8.4,9.3c-2.2,2.7-4,5.7-5.3,9.1c-1.4,3.7-2.7,7.8-2.9,11.8c-0.1,1.9,0,3.9,0,5.7c0,0.1-0.1,1.2-0.1,2.1
			c-6.8,2.8-14.2,10-9.9,17.3c2.2,3.7,5.8,3.9,9.6,4.2c5.8,0.5,7.2,9.1,10.5,13.3c4.5,5.8,11,9.7,17.8,12.2c1.9,0.7,3.1,0.7,3.9,2.5
			c0.8,1.7,1.2,3.9,1.4,5.8c0.6,4.4-0.1,8.3-1.4,12.4c-1.5,4.5-1.7,9.6-2.9,14.2c-2.1,8.4-4.4,16.8-6.3,25.2
			c-3.7,16.2-6.3,32.7-8.8,49.1c-1,6.9-2.6,16.5,0.2,23c2.3,5.2,6.3,9.1,11.4,11.3c-1.3,2.8-2.7,5.6-3.6,8.6
			c-1.7,5.5-4,10.7-6.2,16.1c-4.4,10.6-7,22-9.3,33.2c-2.3,11.5-4.7,23.3-8.2,34.5c-1.3,4.3-3.5,8.5-4.4,12.8
			c-0.1,0.6-0.2,1.2-0.2,1.7c-0.1,0-0.1,0-0.2,0c-6.5-1.2-15.3,1.6-17.3,8.6c-2.2,7.3,3.2,14.5,9.2,17.8c2.7,1.5,5.6,2.7,8.4,3.8
			c-5.7,0-11.3-0.1-17,0.5c-3.4,0.3-6.7,0.4-10.1,0.3c0.1-0.2,0.1-0.4,0.2-0.6c1.3-6.4-0.3-14.3-0.7-20.8c-0.8-16.1-2-32.4-0.6-48.5
			c0.8-9.6,0.6-19.1,0.8-28.8c0.1-8.4,0.7-16.4-0.8-24.5c8.8,0,18.9-0.3,23.1-8.1c2.2-4.1,1.7-9.3,2.4-13.8c0.9-5.8,2-12.2,1.1-18
			c-0.8-5.1-3.6-8.9-7.9-11.7c-6-3.9-13.9-2.7-20.7-3.3c-4.6-0.4-9.3-0.6-14-0.8c1.1-8.8-2.5-18.7-3.6-27.3
			c-1.4-10.8-4.3-21.8-6.4-32.5c-1.8-9.1-2.6-18.6-7.7-26.5c-2.4-3.7-5.5-7.6-9.6-9.5c-2-1-3.7-1.5-5.5-2.7c1.4-1,2.7-2.1,3.8-3.3
			c5.4-5.6,9.1-14.2,10.9-21.6c3.5-14.3,4.4-35.1-6.7-46.5c0.4-1.4,0.6-2.9,0.8-4.5c0.8-6.3,0.4-12.8,0.4-19.2
			c0-6.3-0.1-12.7,0.3-19c0.3-4.1-1.2-7-5.1-8.8c-4.4-2-10.4-2.2-15.2-2.2c-6.7,0-13.3-0.6-19.9-0.5c-6,0-12.3-0.4-18.3,0.2
			c-6.8,0.7-14.3-0.7-21,0.7c-11,2.2-7.9,18.3-7.9,26.3c0,7.4,0,14.7,0,22.1c0,3.1,0.1,6.6,2,9.1c-0.6,0.4-1.2,0.9-1.9,1.8
			c-2.4,2.8-4,6-4.8,9.6c-1.7,7.6-2.6,15.7-2.8,23.5c-0.2,6.3,1.9,14.6,4.7,20.2c3.4,6.7,9.8,11.9,16.4,15.3
			c-0.6,0.5-1.2,1.1-1.8,1.6c-3.7,3.2-7.7,6.4-11,10c-6.8,7.2-9.4,19.2-11.4,28.7c-2.5,11.5-5.7,22.9-8.9,34.2
			c-1.5,5.5-3.3,10.8-4.5,16.4c-0.3,1.5-0.5,3-0.3,4.3c-1,0.2-2,0.3-3.1,0.4c-3.6,0.2-6.8,0.5-10.4,1.2c-5.1,1-10.5,2.6-14.1,6.5
			c-4,4.4-5.7,11.3-6.4,17.1c-0.9,6.8-0.4,13.9-0.4,20.7c0,8.2-0.1,16.3,0,24.5c0.2,13.8-1.2,27.6-1.2,41.5c0,14.7,0,29.1,1.8,43.7
			c0.7,6,1,11.6,2.4,17.4c0.5,2.1,0.7,4.2,1.1,6.2c-0.1,10.5-2.4,21.5,1.8,31.1c2.1,4.9,5.5,6.4,10.6,7.3c6.9,1.1,14,1.4,20.9,2
			c6.6,0.6,13.3-0.1,19.9-0.5c7.5-0.5,15.1,0,22.6,0c15,0,30.3-0.7,45.3,0.1c7.1,0.4,13.3,0.8,20.4,0.1c7.7-0.7,15.6,0,23.3,0
			c14.6,0,29.2-0.5,43.8-0.5c13.8,0,27.4-0.8,41.2-0.6c7.5,0.1,15.1,0.1,22.6,0.1c7,0,14,0.7,21,0.7c15.1-0.1,30.2,1.1,45.4,1.1
			c15.3,0,30.7-0.6,46-0.6c12.8,0,25.6,1.5,38.3,1.9c6.7,0.2,12.5-0.5,18.1-4.6c4.3-3.1,6-9.1,7-14.1c0.9-4.5,0.9-9.6,0.7-14.3
			C493.5,435.7,490.3,432.6,484.6,431.8L484.6,431.8z"/>
		<path fill="#0B050C" d="M510.2,139.9c-0.1,2.5-0.4,8.6-3.5,9.8c-3.2,1.2-9.2-0.1-12.5-0.3c-4.5-0.3-8.8-0.6-13.3-0.6
			c-8.5,0-16.8,0-25.2,0.4c-6.4,0.3-16.6-0.1-21.7,3.6c-5.3,3.8-5.1,11.1-4.9,16.2c0.2,7.1,0.6,14-1.7,20.9c-0.7,2.1-2.8,7-6.1,5.7
			c-2.7-1.1-5.4-5.6-7.1-7.5c-4.3-4.6-8.6-9.4-12.7-14.1c-2.1-2.4-3.6-5.8-5.4-8.4c-1.8-2.6-3.6-5.1-5.6-7.6
			c-3.3-3.9-6.3-8-9.3-12.1c-2.2-3-5-5.7-6.9-8.9c-2.2-3.7,1.4-6.7,3.7-10c2-2.9,4.1-5.7,6.3-8.5c1.8-2,3.5-4.2,5.2-6.3
			c2-2.5,3.3-5.1,5.5-7.5c2.1-2.2,4.1-4.6,6-6.9c4.3-5.2,8.7-10.4,13.3-15.4c1.7-1.9,4.4-6.4,7.1-7.5c3.3-1.3,5.4,3.6,6.1,5.7
			c2.3,6.9,1.9,13.9,1.7,20.9c-0.1,5.1-0.4,12.4,4.9,16.2c5,3.6,15.3,3.2,21.7,3.6c8.4,0.4,16.8,0.4,25.2,0.4
			c4.5,0,8.8-0.2,13.3-0.6c3.4-0.2,9.4-1.5,12.5-0.3c3.1,1.1,3.3,7.2,3.5,9.7c0.1,1.6,0.1,3.1,0.1,4.7
			C510.3,136.8,510.3,138.3,510.2,139.9L510.2,139.9z M521.2,127.4c0-0.8-0.3-1.4-0.7-2c-0.4-2.1-1-4.1-1.8-6.2
			c-2.6-7-11.5-7.5-19.4-7.1c-9.8,0.4-19.3,1-29.1,1c-4.6,0-9,0-13.6-0.4c-2.4-0.2-4.8-0.5-7.2-0.7c-2-0.1-6.2,0.4-7.9-0.8
			c-2.6-1.9-1.6-7.2-1.6-9.6c0-4.2,0.4-8.6-0.2-12.8c-1-6.5-3.5-13.6-8.7-18.9c-12.3-12.7-27,10.8-32.9,17
			c-5.3,5.6-10.5,12-14.7,18.2c-2.8,3-5.5,6-8.1,9c-3.5,3.9-6.5,8-9.5,12.1c-2.5,3.4-4.9,7.2-3.5,11.2c1.2,3.7,4.6,7,7.2,10.2
			c3.3,4,6.2,8.3,9.4,12.3c1.5,1.9,3.1,3.9,4.8,5.7c4.1,6.1,9.2,12.3,14.4,17.8c5.9,6.2,20.6,29.7,32.9,17
			c5.1-5.3,7.6-12.3,8.7-18.9c0.7-4.2,0.2-8.6,0.2-12.8c0-2.4-1-7.8,1.6-9.6c1.7-1.2,5.9-0.7,7.9-0.8c2.4-0.2,4.8-0.5,7.2-0.7
			c4.6-0.3,9-0.4,13.6-0.4c9.8,0,19.3,0.5,29.1,1c7.9,0.3,16.8-0.2,19.4-7.1c0.8-2.1,1.4-4.2,1.8-6.2c0.4-0.6,0.7-1.2,0.7-2
			c0.1-2.6,0.2-5.2,0.2-7.8C521.4,132.6,521.3,130,521.2,127.4L521.2,127.4z"/>
	</g>
</g>
<g display="none">
	<path display="inline" fill="#0B050C" d="M103.5,117.5c1.1-0.3,2.2-0.9,3-1.8c1.8-1.8,2.1-4.4,1-6.6c-1-2-3.1-3.9-5.5-3.9
		c-5.2-0.1-7.7,7.1-4.8,10.9C98.8,118.2,101.4,118.5,103.5,117.5L103.5,117.5z"/>
	<path display="inline" fill="#0B050C" d="M132.8,117.2c1.9,1.2,4.3,1.3,6.3,0c1.3-0.8,2.2-2.1,2.6-3.6c0.2-0.4,0.3-0.7,0.4-1.1
		c0.5-2,0-4.2-1.5-5.6c-1.9-1.8-4.6-2-6.9-1C129.7,107.8,129,114.7,132.8,117.2L132.8,117.2z"/>
	<path display="inline" fill="#0B050C" d="M120,126.5c2,0.1,5.2-0.8,5.7-3.1c0.3-1.7-1.1-3.4-2.9-2.9c-1.1,0.3-2.1,1.2-3.2,0.8
		c-0.9-0.3-1.5-0.9-2.6-0.8c-0.9,0.1-2,0.7-2,1.8C115,124.8,117.8,126.4,120,126.5L120,126.5z"/>
	<path display="inline" fill="#0B050C" d="M106.7,132.3c-0.1,0.1-0.2,0.3-0.3,0.4c-4.3,9.5,25.3,13.9,27.5,1c0.3-1.8-1-3.3-2.9-2.9
		c-1.3,0.3-1.8,0.8-2.8,1.6c-2.1,1.8-3.9,2.8-6.8,3.3c-5.3,0.9-7.8-1.2-12-3.7C108.6,131.4,107.3,131.6,106.7,132.3L106.7,132.3z"/>
	<path display="inline" fill="#0B050C" d="M95.8,377.7c1-7.4,2.5-14.4,3.9-21.7c0.7-3.5,1.7-7.3,1.3-10.9c-0.1-1-0.3-2-0.8-2.9
		c-1.1-2.3-3.1-1.7-2.4-4.7c0.5-2.4,1.7-4.6,3.4-6.4c4.5-4.7,16.6-8,18.3,1c0.7,3.6,0.6,6.8,0.3,10.4c-0.8,8.7-1.2,17.5-2.8,26.1
		c-0.8,4.4-1.5,9.5-3.4,13.6c-1.4,3.1-2.8,7.4-6.6,8.3c-2.7,0.7-7.1-0.8-9.5-1.9c-2.2-1-2.2-1.2-2.7-3.3
		C94.4,382.9,95.5,380.2,95.8,377.7L95.8,377.7z M104,310.7c0.3-1.9,0.5-1.9,2.4-3c1.5-0.9,3.5-1.5,5.2-1.4c0.6,0,1.7,0.7,2.6,1.8
		c1.4,1.8,2.2,3.7,0.7,5.8c-0.7,0.9-3.1,3-4.2,3.3C106.5,318.1,103.4,314.9,104,310.7L104,310.7z M93.3,395.7
		c6.3,3,13.6,4.7,19.7,0.8c7.1-4.5,9.2-12.9,10.9-20.6c2.2-9.9,3-20,3.8-30.1c0.5-6.4,2.1-15.6-2.2-21.2c-1.7-2.3-4.2-4-7-5.1
		c0.4-0.3,0.7-0.7,1-1c5.7-5.9,1.7-15.2-5-18.2c-2.9-1.3-6.6-0.4-9.4,0.8c-3.7,1.6-6.3,3.7-7.4,7.5c-0.9,3.3-0.6,6.6,1.2,9.6
		c0.5,0.9,1.2,1.9,2,2.7c-5.4,3.2-10.6,8.8-10.6,14.9c-0.5,1.8-0.5,3.6,0.5,5.5c0.6,1.2,1.6,1.8,2.4,2.7c2,2.4,1.5,4.3,0.6,7.3
		c-1.4,4.6-3.3,9-4.3,13.7c-0.8,4-1.2,8-1.9,12C86.2,384.7,85.7,392.1,93.3,395.7L93.3,395.7z"/>
	<g display="inline">
		<defs>
			<rect id="SVGID_1_" x="20" y="30.3" width="512" height="420"/>
		</defs>
		<clipPath id="SVGID_2_">
			<use xlink:href="#SVGID_1_"  overflow="visible"/>
		</clipPath>
		<path clip-path="url(#SVGID_2_)" fill="#0B050C" d="M467.3,102.6c1.3-0.4,2.3-1.3,2.9-2.5c1-0.8,1.6-2,1.6-3.3
			c0-2.1-1.4-4.3-3.2-5.3c-2-1.1-4.6-0.9-6.2,0.8c-1.1,1.2-1.7,3-1.6,4.6C461.1,100.1,463.7,103.6,467.3,102.6L467.3,102.6z"/>
		<path clip-path="url(#SVGID_2_)" fill="#0B050C" d="M521.8,435.6c-1.5,4.1-9.8,3.4-13.6,3.8c-11.1,1.2-22.5,0-33.6,0
			c-10.5,0-20.9,0.7-31.3,0.7c-10.2,0-20.4-0.8-30.5-1.7c-4.1-0.4-8.4-0.7-12.8-0.8c-2-0.1-3.9-0.3-5.9-0.4
			c-12.8-0.6-26-0.4-38.8,0.4c-13.3,0.8-26.9,0.2-40.2-0.5c-50.4-2.5-100.8,0.8-151.3,0.2c-6.8-0.1-13.3,1.2-20.1,0.5
			c-7.5-0.8-14.9-0.4-22.3-0.4c-14.9,0.1-29.9-0.5-44.7,0.1c-6.5,0.3-13.1,1.2-19.6,0.7c-3.4-0.2-6.7-0.5-10.1-0.8
			c-3.1-0.3-6.6-0.1-9.6-1c-5.2-1.5-4.7-10.5-4.7-15.2c0-0.7,0-1.4,0-2.1c3.5,1.4,7.7,1.8,11.1,1.8c7.3,0,14.6-0.4,21.8-0.1
			c13.7,0.6,27.9,1.1,41.5-0.6c2.6,0.1,5.2,0.1,7.7,0.2c14.6,0.5,29.1-0.5,43.7-0.7c15.1-0.3,30.2-0.5,45.3-0.7
			c18.7-0.3,37.3-1,55.9-1c6.8,0,13.6,0,20.4,0c26.3,0,52.5-0.6,78.8-0.5c6.6,0,13.1-0.8,19.7-0.7c14.3,0.1,29.1-0.2,43.4,0.8
			c4.8,0.3,9.6,0.5,14.4,0.6c9.3,0.1,18.5,1.3,27.9,1.2c9.8-0.1,19.7,0.5,29.5,0.4c4.4,0,8.8-0.4,13.2-0.7
			c3.3-0.2,10.3-1.2,12.7,1.5C522,423.2,522.9,432.6,521.8,435.6L521.8,435.6z M30.7,298.6c0-1.5,0-2.9,0-4.4c12-0.1,24-1,36-1.1
			c13.1-0.1,26.2,2,39.2,1.7c27.3-0.5,54.7,0.6,82-1.2c-0.3,3-0.3,6-0.4,9.1c-0.1,4.9-0.8,9.8-0.9,14.7c-0.2,5.1-0.1,10-0.5,15.1
			c-0.4,4.5-0.8,9.1-0.9,13.6c0,9-1,18-0.6,27c0.4,8.9,0.5,18.2,1.8,26.9c0.3,2.2,1.4,4.8-0.1,6.8c-2,2.7-6.5,3-9.5,3.3
			c-11.1,1.1-22.3,0.8-33.4,0.6c-5.9-0.1-12-0.4-17.9,0.1c-5.5,0.4-11,0-16.5,0.4c-5,0.4-9.9,1.1-15,1c-11.9-0.2-23.8-0.7-35.7-0.8
			c-5.4-0.1-11,0.5-16.4,0.1c-1.6-0.1-5.6-0.5-6.9-1.7c-1.4-1.4-1.2-4.5-1.5-6.3c-1.6-11.2-3.8-22.5-4.1-33.9
			C29.1,345.8,30.7,322.2,30.7,298.6L30.7,298.6z M32.2,260c1.9-5.9,5.3-7.4,11.1-8.9c2.5-0.6,4.8-1,7.3-1.1c3.3-0.2,6.7-1.1,10-1.2
			c5.2-0.1,10.5-0.5,15.8-1c5.8-0.6,11.4-0.5,17.3-0.5c12.1,0,24.1,0.5,36.1,1.3c11.3,0.8,22.8,0.7,34.1,1c5.4,0.1,10.9,1,16.3,1.3
			c5.9,0.3,11.8,0.2,17.7,0.4c5.5,0.2,12.7,0.5,13.3,7.2c0.5,5.2-1,10.8-1.6,16c-0.6,4.5,0.3,7.9-5.2,9c-4.9,1-10.8,0.2-15.9,0.6
			c-27.4,1.8-55,0.8-82.5,1.2c-13.1,0.2-26.1-1.9-39.2-1.7c-12,0.1-24,1-36,1.1c0-1.6,0-3.2,0-4.9C30.7,273.2,30.2,266.4,32.2,260
			L32.2,260z M63.2,235.7c1.2-5,2.9-9.8,4.1-14.8c2.2-9.9,5-19.7,6.7-29.6c1.6-9.2,2.9-20,10-26.7c1-1,2.1-1.9,3.1-2.9
			c2.5,3.5,6.3,5.8,10.4,7.5c3.8,1.6,8.1,3,12.4,4c-1.5,10.6-2.2,21.2-2.3,31.9c0,7.2-0.1,14.4-0.1,21.6c0,3.4-0.4,7.9,0.7,11.5
			c-3.6-0.1-7.2,0-10.8,0c-1.8,0-3.7,0-5.6-0.1c-0.1-5.3-0.3-10.6,0.3-15.9c0.3-3,1.4-6.8,0.7-9.8c-0.3-1.3-2.5-1.4-2.7,0
			c0.1-0.6-0.8,1.7-1,2.2c-1,2.6-1.6,5.5-2.2,8.2c-1.1,5.1-1.3,10.1-1.5,15.3c-2.4,0-4.8,0.1-7.1,0.4c-5.3,0.7-10.7,1-16,1.3
			C62.7,238.4,62.9,236.9,63.2,235.7L63.2,235.7z M78.1,124.9c-0.3-1.5-0.6-3-0.7-4.4c4-1.3,8.6-6.2,10.4-8.4
			c3-3.6,4.7-7.5,6.4-11.8c1.1-2.9,2.7-6.3,1.5-9.3c6.1,4.4,12.8,4.9,20.6,4.8c4.7,0,9.1,0.2,13.6-1c2.4-0.6,4.8-0.9,7.1-1.9
			c1.7-0.7,3.2-1.6,4.8-2.4c-0.6,2.9-0.4,5.8,1,8.4c0.7,2.8,1.9,5.4,3.3,7.7c2.4,3.9,5.3,8.1,10,8.9c-0.3,3.1-0.9,6.1-1.7,9
			c-2.2,8-6.7,15.8-14.4,19.5c-7.3,3.5-15.2,5.2-23.3,4.9c-8.3-0.3-17-1.6-24.5-5.5C84.2,139.2,80.1,133.4,78.1,124.9L78.1,124.9z
			 M84.4,56.6c3.7,0.6,7.7,0.6,11.3,0.9c6,0.6,11.9-0.6,17.8-0.4c5.9,0.2,12-0.6,17.9-0.6c6.2,0,12.6,0.4,18.8,0c0,3.1,0,6.2,0,9.2
			c-3.5,0.1-7.1,0.6-10.5,0.6c-6.3,0-12.6,0-18.9,0c-2.9-0.2-5.9-0.5-8.8-0.5c-5.1,0-10.1-0.6-15.2-0.6c-3.6,0-8.4-0.7-12.4-0.2
			C84.4,62.2,84.4,59.4,84.4,56.6L84.4,56.6z M101.4,71.6c7.3,0,14.5,0,21.8,0c6.7,0,13.4,0,20.2-0.1c2.1,0,4.6,0.1,7-0.2
			c0,1.9,0,3.8-0.2,5.7c-0.2,1.2-0.4,1.8-0.7,2.2c-4.6-1-9.4-0.6-14.2-0.1c-4.4,0.1-8.8,0.3-13.2,0.5c-7.2,0.1-14.4,0.1-21.6,0.7
			c-4.7,0.4-9.4,0.2-14.1-0.3c-2.5-0.3-1.8,0-2-2.1c-0.2-2.3-0.1-4.7,0-7C89.6,72.5,96.2,71.6,101.4,71.6L101.4,71.6z M84.9,39.3
			c1.3-1.1,5.7-0.2,7.3-0.2c2.7,0,5.5,0.1,8.3,0c4.5-0.2,9-0.5,13.5-0.6c4.7,0,9.1,0.1,13.7,0.4c4.9,0.4,9.8-0.4,14.6,0.1
			c2,0.2,4.2,0.4,6.2,0.7c2.4,0.4,1.6,0,1.9,1.5c0.5,3.1,0.3,6.7,0.1,10.2c-6-0.3-12.1,0-18,0c-6.3,0-12.7,0.8-18.9,0.6
			c-5.8-0.2-11.6,1-17.5,0.5c-3.6-0.3-7.9-1.1-11.8-0.9C83.9,47.6,83.3,40.7,84.9,39.3L84.9,39.3z M118,168
			c-5.8-0.7-12.8-2.3-18.1-4.8c-2.5-1.2-5.9-2.9-7.8-4.7c-0.3-0.2-0.5-0.5-0.7-0.7c0.8-0.7,1.5-1.5,2.2-2.3c0.4-0.4,0.9-1,1.4-1.6
			c12.5,4.6,27,5.3,39.6,1.5c2.7-0.8,5.5-1.8,8.2-3c0.7,0.9,1.6,1.8,2.4,2.6c1.4,1.3,2.8,2.3,4.3,3.2c-0.9,1.2-1.7,2.4-3,3.3
			c-2.7,2-6.1,3.5-9.3,4.7C131,168.5,124.6,168.8,118,168L118,168z M114.5,232.6c-0.4-3.4-0.3-6.8-0.3-10.3c0-6.8-0.2-13.7-0.2-20.5
			c0-2.7,0.5-5.3,0.5-8c0.1-3.5-0.5-7-0.1-10.5c0.3-2.9,0.6-6,0.5-9c1.9,0.3,3.8,0.6,5.7,0.7c1.3,0.1,2.5,0.1,3.8,0.1
			c-0.9,5-0.5,10.6-0.5,15.4c-0.1,6.8,0,13.5-0.2,20.3c-0.2,5.6,0.5,11.1,0.5,16.7c0,3.4-0.4,7.9,0.3,11.7c-2.2-0.1-7,0.5-8.9-0.6
			C114,237.5,114.7,234.2,114.5,232.6L114.5,232.6z M154.8,162.8c0.1,0.1,0.1,0.2,0.2,0.3c4.9,7.1,5.4,16.1,7,24.3
			c1.8,9.3,4.1,18.7,5.5,28.1c0.7,4.7,1.7,9.4,2.4,14.1c0.5,3.7,0.6,7.5,1.3,11.2c-4.9-0.2-9.8-0.3-14.6-0.6c-0.7,0-1.4-0.1-2.1-0.1
			c-0.6-4.7-1.6-9.6-2.4-14.1c-0.9-5-1.5-10-3-14.9c-0.7-2.4-4.4-2-4.4,0.6c0.1,9.4,0.9,18.7,1.1,28.1c-4.8-0.1-9.5-0.2-14.3-0.3
			c0.5-3.6-0.5-7.8-0.6-11.2c-0.1-5.9-0.9-11.6-0.8-17.5c0.1-6.4,0-12.8-0.1-19.2c0-5.2,0.5-11.4-0.5-16.7c4.7-0.5,9.2-1.8,13.8-3.8
			C147.7,169.1,152.4,166.8,154.8,162.8L154.8,162.8z M316.4,401.9c-2.3,4-6.1,7.7-10.7,4.6c-4-2.7-3.9-6.8-3.5-10.9
			C306.5,398.1,311.5,400.6,316.4,401.9L316.4,401.9z M281.1,365c-0.6-9.2,5.5-19.5,10.4-26.8c5.5-8.3,11.2-16.4,16.2-25.1
			c2.8-4.8,5-9.8,8.3-14.4c2-2.8,3.8-5.6,5.3-8.7c1.5-0.9,2.4-1.1,4.4,0.1c1.9,1.1,3.2,1.9,5.2,2.7c4,1.6,7.8,5,11.5,7.4
			c2.9,1.9,6.5,3.8,9.2,5.7c2.8,2,5.1,3.8,8,5.1c1.3,1.1,2.5,2.2,3.5,3.4c3.1,4,0.1,7.5-1.6,11.2c-7.1,14.8-13.3,28.5-21.8,42.7
			c-2.9,4.8-6.1,9.4-9,14.3c-1.7,2.8-3.6,8.2-6.3,10.1c-3.4,2.4-10.7-1.4-13.9-3c-4.3-2.2-8.4-4.9-12.3-7.7
			C292.5,378,281.6,372.9,281.1,365L281.1,365z M331.7,280.2c0.2-1.5,1-3.7,1.5-5c1.3-3.3,3.9-6.6,5.8-9.7c1.4-2.4,3.2-6.6,6.1-6.8
			c0.7,0,1.3,0.1,1.9,0.4c-0.7,1.9-1.1,4-1.1,6c-0.1,0.1-0.2,0.2-0.3,0.3c-2.4,3.1-4.6,5.7-6.3,9.2c-1.5,3-3,6.4-4.8,9.3
			c-0.1,0-0.2-0.1-0.3-0.2c-0.7-0.3-1.4-0.6-2.1-1C331.8,282,331.6,281.2,331.7,280.2L331.7,280.2z M347.8,271.5
			c1,1.4,2.8,2,3.7,3.2c0.9,1.1,0.7,2.9,1.9,4.2c2.9,3,7.8,2,10.4,4.8c1.2,1.3,2.5,2.6,3.9,3.4c-0.2,0.3-0.3,0.5-0.4,0.7
			c-3.1,4.5-5.5,9.4-8.5,13.9c-2.2-1.9-4.6-3.7-6.9-5.7c-3.6-3.1-7.7-6.5-12-9.1c1.8-3.1,3.4-6.7,4.8-9.9c0.9-2,2-3.8,3-5.8
			C347.7,271.3,347.7,271.4,347.8,271.5L347.8,271.5z M354,261.5c0.9-2,2.7-4.1,4.3-5.6c0.8,1.5,1.8,2.9,2.8,4.3
			c4.1,5.3,11.3,9,18.5,9.9c0,0,0,0.1,0.1,0.1c0.8,1.2,1.1,2.5,1.1,3.9c-0.5,0-1,0-1.4,0c-1.7,0.5-3.3,0-4.9,1
			c-1.8,1.1-2,3.8-3.4,4.8c-1.9,1.3-3.5-2.7-5.3-3.6c-2.6-1.3-5.8,0.2-7.6-2.7c-1-1.6-0.8-3.1-2.4-4.6c-1.5-1.3-2.2-1.1-2.4-3.4
			C353.2,264.7,353.6,262.4,354,261.5L354,261.5z M364.1,244.8c0.7-4.2,3.3-8.1,4.9-12c1.5-3.5,3.5-6.6,5.7-9.7
			c3.7-5.2,6.6-12.3,10.9-16.5c5.3-5.1,9.3-11.6,14.5-16.9c6-6.1,12.5-10,21.4-8.9c3.7,0.5,7.1,1.8,8.6,5.5
			c2.3,5.5-2.7,9.7-5.8,13.6c-2.6,3.2-4.7,6.9-7.4,9.9c-5,5.5-9.6,11.6-14.5,17.2c-4.8,5.6-8.5,11.9-11.4,18.6
			c-1.7,4-2.9,7.9-3.6,12.2c-0.4,2.3-0.7,4.1-3.3,4.7c-1.9,0.4-4.5,0-6.3-0.4C370,260.7,362.8,253.2,364.1,244.8L364.1,244.8z
			 M412.2,165.2c1.8-3.1,3.8-6.5,5-9.9c0.2-0.4,0.3-0.9,0.5-1.4c0.6,0.8,1.4,1.6,2.3,2.2c5.8,4.3,14,5.4,20.9,6.9
			c2.5,0.6,5.9,1.2,9,0.8c0.8,10.9,3.3,21.8,5.8,32.3c3.1,13.1,5.9,26.7,7.5,40c0.7,6.4,1.8,12.7,2.2,19.1
			c0.4,6.1,0.6,12.4-5.7,15.3c-3.5,1.7-7.2,2.8-11,3.6c-3.3,0.7-6.9,0.5-10.3,0.8c-8.2,0.9-16.4,1.9-24.7,1.4
			c-4.9-0.3-10.6-1.3-15-3.4c-2.8-1.4-3.8-4-5.8-6c1.8-1.6,2.9-3.9,3.5-6.5c1.3-6.2,3-11.9,5.8-17.7c2.5-5.2,6.4-9.5,10-13.8
			c3.2-3.8,5.8-8.1,8.7-12c2.1-2.8,4.1-5.6,6-8.5c1.1-1.4,2.2-2.7,3.4-4c2.8-3,5.8-6.4,6.9-9.8c2.7-8-0.8-18.4-10.4-21.5
			c-6.3-2.1-13.4-1.6-19.6,0.9C408.8,171,410.5,168.1,412.2,165.2L412.2,165.2z M449.8,156.4c-0.8,0.5-5.5-0.3-6.1-0.4
			c-4.3-0.8-9.2-2-13.4-3.4c-4.6-1.5-7.1-3.9-7-8c8.2,4.3,18.6,5.3,27.6,3.3c-0.5,1.4-0.6,3-0.6,4.7
			C450.3,153.7,451.1,155.6,449.8,156.4L449.8,156.4z M410.1,114.5c-0.2-0.9-0.4-1.7-0.6-2.6c1.5,0.8,3.3,1,5.2-0.1
			c1,3,3,5.7,5.9,7.1c5.1,2.3,10.8,1,14.9-2.5c2.2-1.8-0.1-6-2.9-4.9c-2.8,1.1-4.6,2.5-7.8,2.1c-7.7-0.9-6.3-13.1,1.8-12.6
			c6,0.4,14.4,11.3,19.6,3.9c1.9-2.7,2.7-6.1,2.1-9.3c-0.2-1-1-2.4-1.8-3.8c-0.2-0.7-0.5-1.4-1-2.1c-0.1-0.4-0.2-0.8-0.1-1.2
			c0.3-2.1,3.6-4.5,4.5-6.6c0.9-2.1,1.6-4.5,1.5-6.8c-0.1-3.8-1.7-7.8-4.2-10.8c1.5,0.4,3,0.6,4.5,1.2c4.6,1.8,9.3,4.1,13.5,6.8
			c5.4,3.5,9.7,7.3,12,13.6c2,5.6,1.4,10.6,1.7,16.3c0.2,5.5,3.5,5,7.5,7.2c2.1,1.2,6.4,3.9,2.2,5.6c-1.8,0.7-4.1,0.3-5.9,1.1
			c-4.3,1.7-5.1,5.8-7.3,9.4c-0.6,1-1.3,1.9-2,2.8c-1.1,0.2-2.1,0.5-3.4,0.6c-2.4,0.2-4.5-0.5-6.5-1.5c-1.9-1-3.5-2.1-5-3.6
			c-1-0.9-1.9-1.7-3.3-2c-2.9-0.7-4.6,2.6-2.8,4.8c3.3,3.9,6.7,6.8,11.9,8.1c0.3,0.1,0.7,0.2,1.1,0.2c-0.4,0.2-0.8,0.5-1.3,0.7
			c-9.9,5-23.7,7.6-34.3,3C419.7,134.3,412.7,124.6,410.1,114.5L410.1,114.5z M394.1,334.6c1.8-10.1,2.4-20.1,3.2-30.3
			c0.3-3.4,0.5-6.9,0.6-10.4c0.1,0.3,0.2,0.6,0.3,0.9c1.6,4.6,4.3,8.3,6.5,12.6c2.5,4.9,4.8,10.1,7.9,14.6c3.2,4.7,6.5,9.5,9,14.5
			c0.5,1,0.9,2,1.4,3c-0.7,1.8-1.6,3.5-2.1,5.3c-0.5,2.2-1,4.3-1.6,6.5c-1.2,4.5-2,9.1-3.3,13.7c-2.4,8.1-3.6,16.3-4.9,24.5
			c-0.2,0-0.5-0.1-0.8-0.1c-1.7-0.1-3.3,0.5-5,0.4c-5.8-0.4-12.2-0.3-18.2-0.4c-2.8,0-5.3-1.3-7.7-2.8c2.7-7.7,5.9-15.1,8-23
			C390,354.1,392.3,344.5,394.1,334.6L394.1,334.6z M364.5,305c-0.4-0.2-0.7-0.4-1.1-0.6c0.7-1.2,1.3-2.5,2-3.8
			c1.2-2.3,2.9-4.4,4.1-6.7c1.3-2.3,2.4-4.3,3.2-6.6c0.1,0,0.1-0.1,0.2-0.1c2.8-1.3,3.2-4.4,4.9-6.2c2.5,4.5-2.4,10.5-4.7,14.2
			c-1.8,3-4.3,10.6-8.2,9.8C364.9,305.1,364.7,305,364.5,305L364.5,305z M370.3,392.1c-0.3,0.3-0.7,0.7-0.5,0.5
			c-1.2,1.5-1.6,3-2,4.9c-0.7,3.2-1.3,6.7-1.1,10c-14.9,0.3-29.8,0.8-44.7,0.9c1.3-1.8,2.5-4,2.8-6.1c2-0.4,3.8-1.2,5.5-2.6
			c4.9-4.1,7.7-11.9,11-17.2c3.3-5.4,6.7-10.7,9.6-16.3c5.6-10.7,11.3-21,16.3-32.1c2.3-5.2,5.8-10.1,5.5-16
			c-0.1-3.3-1.1-5.8-2.8-8.1c0.2-0.1,0.3-0.2,0.5-0.3c2.5-1.9,3.7-5.1,5.2-7.8c2.2-3.8,4.7-7.6,6.8-11.5c2.5-4.6,2.7-7.8,0.2-11.1
			c1.7-0.5,3.1-1.3,3.6-3.7c0.1-0.5,0.2-1,0.2-1.6c1.1,2.3,3,4.3,5,5.8c0.1,0.6,0.3,1.1,0.5,1.6c-0.1,0.9-0.2,1.9-0.2,2.8
			c-0.2,4.6-1,9.2-1.5,13.8c-1.1,10.8-2.2,21.6-4.4,32.3c-2.2,10.4-4.7,20.6-7.5,30.8c-2.4,9-6.3,17.4-9.2,26.3
			C368.6,389.1,369.2,390.9,370.3,392.1L370.3,392.1z M398.2,407.4c-7.7-0.1-15.3-0.1-23,0c0-1.8-0.3-3.6-0.3-5
			c0.1-3.6,0.1-4.4,3.8-4.5c4.4-0.2,8.8-0.3,13.3-0.2c5.4,0.1,10.9,0.5,16.3,1.2c4.2,0.5,10.3,0.2,12.8,4.1c0.9,1.4,1,3.2,1.2,5
			c-1.8,0-3.6,0.1-5.3,0.1c0,0,0,0,0,0C410.8,407.8,404.5,407.5,398.2,407.4L398.2,407.4z M421.3,392.3c-0.8-0.3-1.6-0.5-2.5-0.6
			c0.8-13.3,5.8-25.8,9.1-38.6c1.5,4.7,3.1,9.3,5.1,13.8c3.9,8.8,7.1,18,10.8,26.9c0.9,2.3,2.2,3.8,3.7,4.8
			c-0.1,2.1,0.2,4.2,0.6,5.9c0.3,1.4,0.6,2.9,1.2,4.3c-1.8-0.1-3.7-0.3-5.5-0.4c-3.1-0.2-6.1-0.1-9.1-0.2c-1,0-1.9-0.1-2.9-0.1
			C432,401.4,427.4,394.2,421.3,392.3L421.3,392.3z M464.7,303.1c3.3,10.6,5.2,21.7,7,32.6c1.6,9.5,2.8,20.1,6.6,29
			c1.9,4.5,5.3,8.2,7.7,12.4c0.4,0.6,1.3,1.7,1.6,2.6c-4.9,1.9-9.7,4.2-14.4,6.5c-1.3,0.6-2.6,1.3-3.9,1.9
			c-3.8,1.1-7.8,1.2-11.7,1.8c-1.9,0.3-4.3,1.5-5.5,0.2c-0.7-0.8-0.9-3-1.3-4.1c-1.7-4.4-4-8.6-5.7-13c-6.3-16.8-11.4-35-21.1-50.1
			c-2.6-4.1-5.1-7.9-7.3-12.3c-1.8-3.5-3.9-7.1-5.9-10.5c-2.1-3.6-3.8-6.8-5.5-10.6c-0.7-1.7-1.5-3.4-2.4-5.1
			c2.4,0.5,4.8,0.8,7.1,1.1c5.6,0.7,11.7,0.9,17.4,0.5c0.3,0,0.5,0,0.8,0c4.9,0.6,9.9-0.3,14.9-0.9c5.4-0.7,10.5-1.9,15.5-3.6
			c0.5,2.4,1.4,4.9,1.9,7.1C461.7,293.4,463.2,298.3,464.7,303.1L464.7,303.1z M494,386.9c4.6-1.7,12.5-2.5,13.8,3.7
			c0.8,3.5-2.3,5.9-5,7.3c-2.8,1.5-5.5,3.5-8.4,4.7c-8,3.4-17.1,5.3-25.7,6.4c-2.5,0.3-5.1,0.5-7.5-0.3c-2.7-1-6.5-6.1-3.9-8.8
			c1.2-1.3,4.2-1.4,5.8-1.6c0.9-0.1,1.9-0.3,2.9-0.6c5.7-1.1,10.6-3.5,15.3-6.4C485.5,389.7,489.8,388.5,494,386.9L494,386.9z
			 M531.8,428.7c-0.6-10-3.6-18.5-14.5-19.9c-5.9-0.7-11.9-0.5-18-0.2c0.5-0.2,1-0.3,1.5-0.5c8-2.8,17.7-8.1,16.2-18.1
			c-1.8-11.9-13.7-15.2-24-12.2c-0.9-3.8-2.8-7.6-4-11.3c-3.3-10.5-5.5-21.6-7.7-32.4c-2.2-10.5-4.6-21.3-8.7-31.2
			c-2.1-5-4.2-9.9-5.9-15.1c-0.9-2.9-2.2-5.4-3.4-8.1c4.8-2.1,8.6-5.7,10.7-10.6c2.7-6.1,1.2-15.1,0.2-21.6
			c-2.3-15.4-4.7-30.9-8.3-46.1c-1.8-7.9-4-15.8-5.9-23.7c-1.1-4.6-1.5-9.4-2.8-14c-1.1-3.9-1.3-7.7-0.4-11.7
			c0.4-1.7,0.9-3.7,1.8-5.2c0.9-1.5,1.6-1.6,3.3-2.3c6-2.4,11.7-5.9,15.7-11.1c3.1-4,4.4-12,9.9-12.5c3.6-0.3,7-0.5,9-4
			c4-6.8-3-13.6-9.3-16.2c0-0.9-0.1-1.8-0.1-1.9c0-1.8,0.1-3.6,0-5.4c-0.2-3.8-1.4-7.6-2.7-11.1c-1.2-3.1-2.9-6-5-8.5
			c-1.8-3.6-4.4-6.5-7.9-8.7c-5.2-3.3-10-6.5-15.9-8.6c-6.1-2.3-12-2.7-18.6-1.5c-16.9,3.2-32.2,15.4-35.6,32.7
			c-2,10.2-1.5,21,1.5,30.9c1.5,5,3.8,9.8,6.8,14.1c1.4,2,3.5,3.6,3.9,6.1c0.4,2.2,0.4,4.7-0.3,6.9c-0.5,1.8-1.8,2.7-2.7,4.2
			c-2.3,4-4.3,8.1-6.8,12.1c-2.4,3.8-4.4,7.9-6.2,12c-1.2,2.8-2.7,5.4-2.9,8.3c-3.2,3-6.2,6.3-8.8,9.7c-2.8,3.7-5.9,6.9-8.7,10.5
			c-3.3,4.3-5.5,9.2-8.5,13.7c-3.4,5-6.2,9.5-8.7,15c-2.2,4.9-5.1,9.8-4.9,15.4c0.1,1.4,0.3,2.8,0.6,4.1c-0.5-0.2-1.1-0.2-1.6,0
			c-1.8,0.8-3.5,2.1-4.8,3.7c-4.2-2.1-7.4-2.9-11.5,2.1c-2.5,3.1-4.4,6.7-6.6,10.1c-1.4,2.3-3.2,4.5-4.1,7c-0.8,2.1-1.4,4.1-1.6,6.2
			c-2.4-0.8-5-0.9-7.8,0.9c-5.5,3.4-7.9,9.6-11.5,14.9c-4.2,6.2-7,13.2-11,19.5c-3.8,6-7.8,11.9-11.8,17.7
			c-3.7,5.4-6.9,11.1-8.9,17.3c-1.9,6-4.3,12.7-2.7,19c2.8,10.9,15.7,17.3,24.3,22.9c0.2,0.2,0.5,0.3,0.8,0.5
			c-3.1,4.6-2.7,11.2,0.2,16.1c-10.5,0-21.1,0-31.6,0c-7.7,0-15.5-0.5-23.2,0c-3.5,0.3-6.7,0.8-10.2,0.5c-3.5-0.3-6.8-0.6-10.3-0.6
			c-5.5,0-10.9-0.1-16.3,0.4c-3.2,0.3-6.3,0.3-9.5,0.3c0.1-0.2,0.1-0.4,0.1-0.6c1.2-6-0.3-13.4-0.6-19.5
			c-0.7-15.2-1.8-30.4-0.6-45.6c0.8-9,0.6-18,0.7-27c0.1-7.9,0.7-15.4-0.7-23c8.2,0,17.8-0.2,21.7-7.6c2-3.8,1.6-8.7,2.3-12.9
			c0.9-5.5,1.9-11.4,1-17c-0.7-4.8-3.4-8.4-7.5-11c-5.7-3.6-13.1-2.5-19.5-3.1c-4.3-0.4-8.7-0.6-13.1-0.8c1.1-8.2-2.4-17.6-3.4-25.6
			c-1.3-10.2-4-20.5-6.1-30.6c-1.7-8.5-2.5-17.5-7.2-24.9c-2.3-3.5-5.2-7.1-9-8.9c-1.9-0.9-3.5-1.4-5.2-2.5c1.3-0.9,2.5-2,3.6-3.1
			c5.1-5.2,8.6-13.3,10.3-20.3c3.2-13.4,4.2-33-6.3-43.7c0.4-1.3,0.6-2.8,0.8-4.2c0.8-5.9,0.4-12.1,0.4-18c0-6-0.1-12,0.2-17.9
			c0.2-3.8-1.1-6.6-4.8-8.3c-4.1-1.9-9.8-2.1-14.3-2.1c-6.3,0-12.5-0.5-18.8-0.5c-5.7,0-11.6-0.4-17.2,0.2C97,31.3,90,30,83.7,31.2
			c-10.3,2.1-7.4,17.2-7.4,24.7c0,6.9,0,13.9,0,20.8c0,2.9,0.1,6.2,1.9,8.5c-0.6,0.4-1.1,0.9-1.8,1.6c-2.3,2.6-3.7,5.6-4.5,9.1
			c-1.6,7.2-2.5,14.7-2.7,22.1c-0.2,5.9,1.8,13.7,4.5,19c3.2,6.3,9.2,11.2,15.5,14.4c-0.6,0.5-1.1,1-1.7,1.5c-3.4,3-7.2,6-10.4,9.4
			c-6.4,6.8-8.8,18.1-10.7,26.9C64,200,61,210.7,58,221.3c-1.4,5.1-3.1,10.2-4.2,15.4c-0.3,1.5-0.5,2.8-0.3,4
			c-1,0.2-1.9,0.3-2.9,0.4c-3.4,0.2-6.4,0.5-9.8,1.2c-4.8,1-9.9,2.4-13.3,6.2c-3.8,4.2-5.3,10.6-6,16.1c-0.8,6.4-0.3,13-0.4,19.5
			c0,7.7-0.1,15.3,0,23c0.2,13-1.1,26-1.1,39c0,13.8,0,27.3,1.7,41c0.7,5.6,0.9,10.9,2.2,16.4c0.5,2,0.7,3.9,1,5.8
			c0,9.9-2.2,20.2,1.7,29.2c2,4.6,5.1,6,10,6.8c6.4,1.1,13.1,1.4,19.6,1.9c6.2,0.5,12.5-0.1,18.7-0.5c7-0.4,14.2,0,21.2,0
			c14.1,0,28.5-0.7,42.6,0.1c6.7,0.4,12.5,0.7,19.2,0.1c7.2-0.7,14.7,0,21.9,0c13.7,0,27.5-0.5,41.2-0.5c12.9,0,25.8-0.8,38.7-0.6
			c7.1,0.1,14.2,0.1,21.2,0.1c6.6,0,13.1,0.7,19.7,0.6c14.2-0.1,28.4,1.1,42.7,1.1c14.4,0,28.8-0.5,43.2-0.5c0.8,0,1.7,0,2.5,0
			c7.7,1,15.5,0.8,23.2,1.5c10.6,0.8,21.2,1.8,31.8,1.7c12.2-0.1,24.4-0.8,36.7-0.8c12.3,0,24,0.4,36.3-1.1
			c4.2-0.5,8.8-1.4,11.7-4.7C532.4,439.6,532.1,433.7,531.8,428.7L531.8,428.7z"/>
	</g>
	<path display="inline" fill="#0B050C" d="M203.1,141.5c0.4-3.6-0.2-4.5,3.7-5.9c3.4-1.3,6.5-1.2,10-0.7c4.1,0.6,8.5,0.2,12.6,0.5
		c9.1,0.6,18.2,0.4,27.2,0.4c8.3,0,16.8-0.2,25,0.6c5,0.5,11,1.8,12.7-4.1c1.9-6.7,2.7-13.9,3.7-20.8c1.1-7.1,0.3-14.6,0.8-21.8
		c0.1-1.5,0.4-3,0.5-4.5c0-0.2,0.1-0.8,0.3-1.5c0.9,0.8,1.7,1.5,2.7,2.2c6,4.8,12,9.8,16.8,15.7c2.5,3.1,4.5,6.3,6.6,9.6
		c2.2,3.5,4.8,6.5,7.2,9.8c2.7,3.7,4.8,7.6,7.6,11.2c2.9,3.6,4.8,7.7,6.7,11.8c3.1,6.6,6,9.4,3.6,16.6c-2.2,6.8-5.9,13.8-10.3,19.4
		c-2.8,3.6-4.9,7.6-7.6,11.2c-2.4,3.3-5,6.3-7.2,9.8c-2.1,3.3-4.1,6.5-6.6,9.6c-4.8,5.9-10.8,10.9-16.8,15.7
		c-0.9,0.7-1.8,1.5-2.7,2.2c-0.1-0.7-0.3-1.3-0.3-1.5c-0.1-1.5-0.4-3-0.5-4.5c-0.5-7.2,0.3-14.7-0.8-21.8
		c-1.1-6.9-1.8-14.1-3.7-20.8c-1-3.3-3.3-4.4-6-4.6c-2.5-0.8-5.4-1.2-7.9-1.3c-3.6-0.2-7.1-0.9-10.7-1c-8.2-0.2-16.4,0.3-24.5,0.8
		c-9,0.5-18,1.6-27,1.6c-2.6,0-5.2,0-7.8,0c-1.8,0-5.5,0.5-7.4-0.1c0-0.7,0-1.4,0-2.1c-0.1-1.5-0.4-3-0.6-4.5
		C201.4,159.6,202.3,150.4,203.1,141.5L203.1,141.5z M193.5,180.6c4,6.5,15.1,4.8,21.8,4.9c7.6,0,15.2-0.5,22.8-1.2
		c9.8,0,19.7,0.5,29.5,0.3c4.2-0.1,8.4-0.5,12.7-0.6c1.5,0,2.9-0.3,4.3-0.5c0.1,0,0.3,0,0.4,0c0.1,1.5,1.1,4.2,1.2,5
		c0.3,1.8,0.6,3.6,0.9,5.4c0.6,3.7,1.4,7.5,1.4,11.2c0.1,7.6,0.5,15,1,22.6c0.3,5.3,1,14.1,9.3,12.9c3.3-0.5,5.1-2.8,7.2-5
		c2.5-2.4,5.4-4.7,8.2-6.9c5.8-4.8,10.9-10,15.5-15.8c2.5-3.2,4.4-6.8,6.5-10.2c2-3.1,4.7-5.7,6.6-8.8c4.3-7.2,9.6-13.4,13.2-21
		c0.2-0.4,0.3-0.8,0.4-1.2c1.3-2.6,2.3-5.4,3.5-8c2.1-4.4,5.3-10,2.9-14.7c-2.8-5.5-6.3-11.2-9.9-16.2c-0.8-1.1-1.7-2.3-2.7-3.5
		c-2.5-3.7-5.1-7.3-7.4-11.1c-1.9-3.1-4.6-5.7-6.6-8.8c-2.2-3.4-4.1-7-6.5-10.2c-4.5-5.8-9.6-11.1-15.5-15.8
		c-2.7-2.2-5.6-4.5-8.2-6.9c-2.2-2.1-3.9-4.4-7.2-5c-8.3-1.3-8.9,7.6-9.3,12.9c-0.5,7.6-0.9,15-1,22.6c0,3.7-0.9,7.5-1.4,11.2
		c-0.3,1.8-0.5,3.6-0.9,5.4c-0.2,0.8-1.1,3.5-1.2,5c-0.2,0-0.3,0-0.4,0c-1.5-0.2-2.8-0.4-4.3-0.5c-4.3-0.1-8.4-0.5-12.7-0.6
		c-0.7,0-1.4,0-2.1,0c-2.9-0.4-5.8-0.4-7.2-0.5c-9.1-0.8-18.1-1-27.3-1.2c-8.8-0.1-17.3,0.1-26,0.8c-7.2,0.6-11,3.8-11.8,10.7
		c-0.9,8-1.4,15.8-1.5,23.9c0,3.9,0.2,7.5,0.5,11.4C192.3,175.2,191.9,178.1,193.5,180.6L193.5,180.6z"/>
</g>
<g display="none">
	<g display="inline">
		<defs>
			<rect id="SVGID_3_" x="68.1" y="22.5" width="436.2" height="460.2"/>
		</defs>
		<clipPath id="SVGID_4_">
			<use xlink:href="#SVGID_3_"  overflow="visible"/>
		</clipPath>
		<path clip-path="url(#SVGID_4_)" fill="#120A05" d="M396.4,387c75.1-3,108.5-37.2,108.5-79c0-36.3-25.2-66.9-81-76.3
			c0.2-13.5,0.3-26.6,0.3-38.7H68.1c0,79.6,0.1,195.1,71.6,250.3c-43.4,3.3-71.6,8.6-71.6,14.6c0,10.1,79.7,18.2,178,18.2
			c98.3,0,178-8.1,178-18.2c0-5.9-28.2-11.2-71.6-14.6C372,428.3,386.1,408.9,396.4,387L396.4,387z M422.5,266.3
			c31.3,7.2,36.9,22.6,36.6,42.5c-0.4,22.6-7,37.8-49.7,43.1C417.1,324.5,420.8,294.9,422.5,266.3L422.5,266.3z M111,220.6h55.7
			c-24.9,73.6,17.2,190.1,17.1,190.1C92.8,341,111,220.6,111,220.6L111,220.6z M111,220.6"/>
		<path clip-path="url(#SVGID_4_)" fill="#120A05" d="M275.2,145c7.1-64.2,148.7-32.1,119.2-115.3c-4.5-12.7-24.9-7.2-20.4,5.6
			c12.9,36.5-36.2,40.9-61.3,49.3c-30.1,10-55,26.8-58.6,60.4C252.6,158.5,273.7,158.4,275.2,145L275.2,145z M275.2,145"/>
	</g>
	<path display="inline" fill="#120A05" d="M375.7,100.2c-27.6,6.5-52.8,18.3-61.4,47.4c-3.9,13.1,16.5,18.6,20.4,5.6
		c9.5-32,51.6-32.6,78.5-40.4c28.9-8.4,45.4-28.3,41.4-59c-1.8-13.3-22.8-13.5-21.1,0C438.2,90.8,404.1,93.5,375.7,100.2
		L375.7,100.2z M375.7,100.2"/>
</g>
<g display="none">
	<path display="inline" fill="#0B050C" d="M476.3,424.2h-42.7h-71.1H177.6h-71.1H78.1V54.5h398.2V424.2L476.3,424.2z M426.5,452.7
		h-56.9v-14.2h56.9V452.7L426.5,452.7z M170.5,452.7h-56.9v-14.2h56.9V452.7L170.5,452.7z M483.4,40.3H71c-3.9,0-7.1,3.2-7.1,7.1
		v383.9c0,3.9,3.2,7.1,7.1,7.1h28.4v21.3c0,3.9,3.2,7.1,7.1,7.1h71.1c3.9,0,7.1-3.2,7.1-7.1v-21.3h170.6v21.3c0,3.9,3.2,7.1,7.1,7.1
		h71.1c3.9,0,7.1-3.2,7.1-7.1v-21.3h42.7c3.9,0,7.1-3.2,7.1-7.1V47.4C490.5,43.5,487.3,40.3,483.4,40.3L483.4,40.3z"/>
	<path display="inline" fill="#0B050C" d="M106.5,82.9h312.8v28.4h-28.4c-3.9,0-7.1,3.2-7.1,7.1v71.1c0,3.9,3.2,7.1,7.1,7.1h28.4
		V218H398c-3.9,0-7.1,3.2-7.1,7.1v28.4c0,3.9,3.2,7.1,7.1,7.1h21.3V282h-28.4c-3.9,0-7.1,3.2-7.1,7.1v71.1c0,3.9,3.2,7.1,7.1,7.1
		h28.4v28.4H106.5V82.9L106.5,82.9z M440.7,146.9h-21.3v14.2h21.3v21.3h-14.2H398v-56.9h28.4h14.2V146.9L440.7,146.9z M419.4,246.5
		h-14.2v-14.2h14.2V246.5L419.4,246.5z M440.7,317.6h-21.3v14.2h21.3v21.3h-14.2H398v-56.9h28.4h14.2V317.6L440.7,317.6z M99.4,410
		h327.1c3.9,0,7.1-3.2,7.1-7.1v-35.5h14.2c3.9,0,7.1-3.2,7.1-7.1v-71.1c0-3.9-3.2-7.1-7.1-7.1h-14.2v-28.4v-28.4v-28.4h14.2
		c3.9,0,7.1-3.2,7.1-7.1v-71.1c0-3.9-3.2-7.1-7.1-7.1h-14.2V75.8c0-3.9-3.2-7.1-7.1-7.1H99.4c-3.9,0-7.1,3.2-7.1,7.1v327.1
		C92.3,406.8,95.5,410,99.4,410L99.4,410z"/>
	<path display="inline" fill="#0B050C" d="M142.1,331.8v-128h135.1v128H142.1L142.1,331.8z M277.2,146.9v42.7H142.1v-42.7H277.2
		L277.2,146.9z M284.3,132.7H135c-3.9,0-7.1,3.2-7.1,7.1v199.1c0,3.9,3.2,7.1,7.1,7.1h149.3c3.9,0,7.1-3.2,7.1-7.1V139.8
		C291.4,135.9,288.2,132.7,284.3,132.7L284.3,132.7z"/>
	<polygon display="inline" fill="#0B050C" points="163.4,225.1 184.7,225.1 184.7,239.4 163.4,239.4 163.4,225.1 	"/>
	<polygon display="inline" fill="#0B050C" points="199,225.1 220.3,225.1 220.3,239.4 199,239.4 199,225.1 	"/>
	<polygon display="inline" fill="#0B050C" points="234.5,225.1 255.8,225.1 255.8,239.4 234.5,239.4 234.5,225.1 	"/>
	<polygon display="inline" fill="#0B050C" points="163.4,260.7 184.7,260.7 184.7,274.9 163.4,274.9 163.4,260.7 	"/>
	<polygon display="inline" fill="#0B050C" points="199,260.7 220.3,260.7 220.3,274.9 199,274.9 199,260.7 	"/>
	<polygon display="inline" fill="#0B050C" points="234.5,260.7 255.8,260.7 255.8,274.9 234.5,274.9 234.5,260.7 	"/>
	<polygon display="inline" fill="#0B050C" points="163.4,296.2 184.7,296.2 184.7,310.5 163.4,310.5 163.4,296.2 	"/>
	<polygon display="inline" fill="#0B050C" points="199,296.2 220.3,296.2 220.3,310.5 199,310.5 199,296.2 	"/>
	<polygon display="inline" fill="#0B050C" points="234.5,296.2 255.8,296.2 255.8,310.5 234.5,310.5 234.5,296.2 	"/>
</g>
<g display="none">
	<g display="inline">
		<defs>
			<rect id="SVGID_5_" x="42.7" y="21.3" width="461.3" height="461.3"/>
		</defs>
		<clipPath id="SVGID_6_">
			<use xlink:href="#SVGID_5_"  overflow="visible"/>
		</clipPath>
		<path clip-path="url(#SVGID_6_)" fill="#0B050C" d="M437.1,241.5l-46.8-46.8l-10.5,10.5l20.1,20.1v182.9h-52.1
			c-4.1,0-7.4,3.3-7.4,7.4v52.1h-67.2c12.4-16,9.4-39.1-6.6-51.5c-0.3-0.2-0.5-0.4-0.8-0.6c16.4-12,20-35.1,8-51.5
			c-2.2-3.1-4.9-5.8-8-8c16.5-12.1,20-35.4,7.9-51.9c-7-9.5-18.2-15.2-30-15.1h-96.7v-63.9l20.1-20.1l-10.5-10.5l-46.8,46.8l-49-49
			l67.5-67.5l71.4-13c4.9,32.3,36.1,57.2,73.8,57.2s68.9-25,73.8-57.2l71.4,13l67.5,67.5L437.1,241.5L437.1,241.5z M355.2,457.3
			v-34.1h34.1L355.2,457.3L355.2,457.3z M228.8,467.8H79.9c-12.3,0-22.3-10-22.3-22.3c0-12.3,10-22.3,22.3-22.3h163.7
			c12.3,0,22.3,10,22.3,22.3c0,12.3-10,22.3-22.3,22.3H228.8L228.8,467.8z M57.6,385.9c0-12.3,10-22.3,22.3-22.3h163.7
			c12.3,0,22.3,10,22.3,22.3c0,12.3-10,22.3-22.3,22.3H79.9C67.6,408.2,57.6,398.3,57.6,385.9L57.6,385.9z M57.6,326.4
			c0-12.3,10-22.3,22.3-22.3h163.7c12.3,0,22.3,10,22.3,22.3c0,12.3-10,22.3-22.3,22.3H79.9C67.6,348.7,57.6,338.7,57.6,326.4
			L57.6,326.4z M273.4,110.8l54.1,13.5c-11.2,19.1-32,30.6-54.1,30c-22.2,0.6-42.9-10.8-54.1-30L273.4,110.8L273.4,110.8z
			 M501.9,187.2l-74.4-74.4c-1.1-1.1-2.4-1.8-3.9-2.1l-81.8-14.9c-4-0.7-7.9,1.9-8.7,6c-0.1,0.4-0.1,0.9-0.1,1.3
			c0,2.4-0.2,4.7-0.6,7.1l-51.5-12.9V95c20.1-4.1,33.1-23.8,29-43.9C305.7,31,286.1,18,266,22.1c-17.3,3.5-29.8,18.8-29.8,36.4h14.9
			c0-12.3,10-22.3,22.3-22.3c12.3,0,22.3,10,22.3,22.3c0,12.3-10,22.3-22.3,22.3c-4.1,0-7.4,3.3-7.4,7.4v9.1l-51.5,12.9
			c-0.4-2.3-0.6-4.7-0.6-7.1c0-2.2-1-4.3-2.7-5.7c-1.7-1.4-3.9-2-6.1-1.6l-81.8,14.9c-1.5,0.3-2.9,1-3.9,2.1l-74.4,74.4
			c-2.9,2.9-2.9,7.6,0,10.5l59.5,59.5c2.9,2.9,7.6,2.9,10.5,0l17.1-17.1v49H79.9c-20.5-0.1-37.1,16.5-37.2,37c0,11.8,5.6,23,15.1,30
			c-16.4,12-20,35.1-8,51.5c2.2,3.1,4.9,5.8,8,8c-16.5,12.1-20,35.4-7.9,51.9c7,9.5,18.2,15.1,30,15.1h267.9c2,0,3.9-0.8,5.3-2.2
			l59.5-59.5c1.4-1.4,2.1-3.3,2.1-5.3h0.1V240.2l17.1,17.1c2.9,2.9,7.6,2.9,10.5,0l59.5-59.5C504.8,194.8,504.8,190.1,501.9,187.2
			L501.9,187.2z"/>
	</g>
	<polygon display="inline" fill="#0B050C" points="72.5,319 251.1,319 251.1,333.8 72.5,333.8 72.5,319 	"/>
	<polygon display="inline" fill="#0B050C" points="72.5,378.5 243.6,378.5 243.6,393.4 72.5,393.4 72.5,378.5 	"/>
	<polygon display="inline" fill="#0B050C" points="72.5,438 243.6,438 243.6,452.9 72.5,452.9 72.5,438 	"/>
</g>
<g display="none">
	<path display="inline" fill="#010002" d="M264.2,89.3c0,23.8-19.1,43.1-42.9,43.1c-23.9,0-43.2-19.3-43.2-43.1
		c0-23.8,19.3-43,43.2-43C245,46.3,264.2,65.5,264.2,89.3L264.2,89.3z M222.2,438.4c-57.1,0-103.4-46.3-103.4-103.4
		c0-38.4,21.3-71.7,52.5-89.5v-31.1c-47,19.8-80.1,66.4-80.1,120.6c0,72.3,58.8,131,131,131c48,0,89.7-26.2,112.5-64.9l-14.2-35.4
		C307.2,407.7,268.5,438.4,222.2,438.4L222.2,438.4z M414.3,375.4h-31c0,0-18.9-53.7-24.1-67.9c-3.4-9.4-12.3-16.3-22.9-16.3h-75.4
		v-52.9h71.6c9.4,0,17.2-7.7,17.2-17.1c0-9.6-7.8-17.3-17.2-17.3h-71.6c0,0-4.1-62.6-39.8-62.6c-24.3,0-32.7,19.8-32.7,44.1V296
		c0,24.3,19.8,44.1,44.1,44.1c0.7,0,1.4-0.4,2.1-0.4c0.7,0.1,1.2,0.4,2,0.4h92.1l30.6,76.7h54.9c11.3,0,20.6-9.3,20.6-20.8
		C435,384.7,425.8,375.4,414.3,375.4L414.3,375.4z M414.3,375.4"/>
</g>
<g display="none">
	<path display="inline" d="M280.4,33.6c-120.1,0-218.7,98.6-218.7,218.7S160.2,471,280.4,471s218.7-98.6,218.7-218.7
		S400.5,33.6,280.4,33.6L280.4,33.6z M280.4,445.3c-106,0-193.1-87.1-193.1-193.1c0-48.4,19-92.5,48.6-126.4l270.9,270.9
		C372.9,426.4,328.8,445.3,280.4,445.3L280.4,445.3z M424.9,378.6L154,107.8c33.8-29.6,78-48.6,126.4-48.6
		c106,0,193.1,87.1,193.1,193.1C473.4,300.7,454.5,344.8,424.9,378.6L424.9,378.6z M424.9,378.6"/>
	<path display="inline" d="M382.9,162.6H306c-7.1,0-12.8-5.7-12.8-12.8s5.7-12.8,12.8-12.8h25.6v-25.6H306
		c-21.2,0-38.4,17.2-38.4,38.4c0,21.2,17.2,38.4,38.4,38.4h76.9c7.1,0,12.8,5.7,12.8,12.8v25.6h-86.6l51.3,51.3h61V201
		C421.3,179.8,404.1,162.6,382.9,162.6L382.9,162.6z M382.9,162.6"/>
	<rect x="113.8" y="226.6" display="inline" width="76.9" height="51.3"/>
	<path display="inline" d="M216.3,242.6v35.3h35.3L216.3,242.6z M216.3,242.6"/>
</g>
<g display="none">
	<path display="inline" d="M80.6,302c-4.3,0-7.1,2.9-7.1,7.1v78.5c0,4.3,2.9,7.1,7.1,7.1h271.3c4.3,0,7.1-2.9,7.1-7.1v-78.5
		c0-4.3-2.9-7.1-7.1-7.1h-3.6c-9.3,0-17.8-6.4-20.7-15.7l-25-86.4c-3.6-7.9-11.4-12.1-19.3-12.1H149.2c-8.6,0-15.7,5-19.3,12.1
		l-25,86.4C102,295.5,93.5,302,84.2,302H80.6L80.6,302z M351.9,409.1H80.6c-12.1,0-21.4-9.3-21.4-21.4v-78.5
		c0-12.1,9.3-21.4,21.4-21.4h3.6c2.9,0,5.7-2.1,7.1-5l25-87.1v-0.7c5.7-12.9,18.6-21.4,32.8-21.4h134.2c14.3,0,27.1,8.6,32.8,21.4
		v0.7l25,87.1c0.7,2.9,3.6,5,7.1,5h3.6c12.1,0,21.4,9.3,21.4,21.4v78.5C373.4,399.8,364.1,409.1,351.9,409.1L351.9,409.1z"/>
	<path display="inline" d="M94.9,409.1v35.7c0,4.3,2.9,7.1,7.1,7.1h14.3c4.3,0,7.1-2.9,7.1-7.1v-35.7H94.9L94.9,409.1z M116.3,466.2
		H102c-12.1,0-21.4-9.3-21.4-21.4v-42.8c0-4.3,2.9-7.1,7.1-7.1h42.8c4.3,0,7.1,2.9,7.1,7.1v42.8
		C137.7,456.9,128.5,466.2,116.3,466.2L116.3,466.2z"/>
	<path display="inline" d="M309.1,409.1v35.7c0,4.3,2.9,7.1,7.1,7.1h14.3c4.3,0,7.1-2.9,7.1-7.1v-35.7H309.1L309.1,409.1z
		 M330.5,466.2h-14.3c-12.1,0-21.4-9.3-21.4-21.4v-42.8c0-4.3,2.9-7.1,7.1-7.1h42.8c4.3,0,7.1,2.9,7.1,7.1v42.8
		C351.9,456.9,342.7,466.2,330.5,466.2L330.5,466.2z"/>
	<path display="inline" d="M123.5,330.5c-7.9,0-14.3,6.4-14.3,14.3s6.4,14.3,14.3,14.3s14.3-6.4,14.3-14.3S131.3,330.5,123.5,330.5
		L123.5,330.5z M123.5,373.4c-15.7,0-28.6-12.9-28.6-28.6c0-15.7,12.9-28.6,28.6-28.6s28.6,12.9,28.6,28.6
		C152,360.5,139.2,373.4,123.5,373.4L123.5,373.4z"/>
	<path display="inline" d="M309.1,330.5c-7.9,0-14.3,6.4-14.3,14.3s6.4,14.3,14.3,14.3c7.9,0,14.3-6.4,14.3-14.3
		S316.9,330.5,309.1,330.5L309.1,330.5z M309.1,373.4c-15.7,0-28.6-12.9-28.6-28.6c0-15.7,12.9-28.6,28.6-28.6
		c15.7,0,28.6,12.9,28.6,28.6C337.7,360.5,324.8,373.4,309.1,373.4L309.1,373.4z"/>
	<path display="inline" d="M230.6,366.2H202c-4.3,0-7.1-2.9-7.1-7.1c0-4.3,2.9-7.1,7.1-7.1h28.6c4.3,0,7.1,2.9,7.1,7.1
		C237.7,363.4,234.8,366.2,230.6,366.2L230.6,366.2z"/>
	<path display="inline" d="M244.8,337.7h-57.1c-4.3,0-7.1-2.9-7.1-7.1c0-4.3,2.9-7.1,7.1-7.1h57.1c4.3,0,7.1,2.9,7.1,7.1
		C252,334.8,249.1,337.7,244.8,337.7L244.8,337.7z"/>
	<path display="inline" d="M164.9,216.3l-17.1,57.1h137.8l-17.1-57.1H164.9L164.9,216.3z M285.5,287.7H147.7
		c-4.3,0-8.6-2.1-11.4-5.7c-2.9-3.6-3.6-8.6-2.1-12.9l17.1-57.1c2.1-6.4,7.1-10,13.6-10h103.5c6.4,0,12.1,4.3,13.6,10l17.1,57.1
		c1.4,4.3,0.7,9.3-2.1,12.9C294.1,285.5,289.8,287.7,285.5,287.7L285.5,287.7z"/>
	<path display="inline" d="M380.5,451.9h71.4v-14.3h-71.4V451.9L380.5,451.9z M459,466.2h-85.7c-4.3,0-7.1-2.9-7.1-7.1v-28.6
		c0-4.3,2.9-7.1,7.1-7.1H459c4.3,0,7.1,2.9,7.1,7.1V459C466.2,463.3,463.3,466.2,459,466.2L459,466.2z"/>
	<path display="inline" d="M401.9,423.3h28.6v-14.3h-28.6V423.3L401.9,423.3z M437.6,437.6h-42.8c-4.3,0-7.1-2.9-7.1-7.1v-28.6
		c0-4.3,2.9-7.1,7.1-7.1h42.8c4.3,0,7.1,2.9,7.1,7.1v28.6C444.8,434.8,441.9,437.6,437.6,437.6L437.6,437.6z"/>
	<path display="inline" d="M416.2,409.1c-4.3,0-7.1-2.9-7.1-7.1V166.3c0-4.3,2.9-7.1,7.1-7.1c4.3,0,7.1,2.9,7.1,7.1v235.6
		C423.3,406.2,420.5,409.1,416.2,409.1L416.2,409.1z"/>
	<path display="inline" d="M366.2,159.2h107.1V52.1H366.2V159.2L366.2,159.2z M480.5,173.4H359.1c-4.3,0-7.1-2.9-7.1-7.1V44.9
		c0-4.3,2.9-7.1,7.1-7.1h121.4c4.3,0,7.1,2.9,7.1,7.1v121.4C487.6,170.6,484.7,173.4,480.5,173.4L480.5,173.4z"/>
	<path display="inline" d="M409.1,144.9c-4.3,0-7.1-2.9-7.1-7.1V73.5c0-4.3,2.9-7.1,7.1-7.1c4.3,0,7.1,2.9,7.1,7.1v64.3
		C416.2,142,413.3,144.9,409.1,144.9L409.1,144.9z"/>
	<path display="inline" d="M416.2,109.2h7.1c7.9,0,14.3-6.4,14.3-14.3c0-7.9-6.4-14.3-14.3-14.3h-7.1V109.2L416.2,109.2z
		 M423.3,123.5h-14.3c-4.3,0-7.1-2.9-7.1-7.1V73.5c0-4.3,2.9-7.1,7.1-7.1h14.3c15.7,0,28.6,12.9,28.6,28.6
		C451.9,110.6,439,123.5,423.3,123.5L423.3,123.5z"/>
</g>
<g display="none">
	<path display="inline" d="M313.8,183.4c-12.8,22.8-37.4,32.9-52.9,22.8c-16.5-10-19.2-35.6-5.5-57.5c13.7-21.9,37.4-32.9,52.9-22.8
		C323.9,135.9,326.6,161.5,313.8,183.4L313.8,183.4z M175.9,208.1c18.2,4.5,38.4-11,45.7-36.5c7.3-25.6-2.8-49.3-21-54.8
		c-18.3-4.6-38.4,11-45.7,36.5C147.6,178.8,157.6,203.5,175.9,208.1L175.9,208.1z M403.3,303.9c-6.4-17.3-31.9-24.7-55.7-16.4
		c-24.7,9.1-39.3,31-32,48.4c6.4,17.3,32,24.7,55.7,16.5C396,344.1,410.6,322.2,403.3,303.9L403.3,303.9z M367.7,252.8
		c21-14.6,29.2-39.2,18.2-54.8c-10.9-15.6-37.4-15.6-58.4-0.9c-21,14.6-29.3,39.3-18.3,54.8C321.1,268.4,346.7,268.4,367.7,252.8
		L367.7,252.8z M139.4,250.1c-34.7,37.5,21,35.6,59.4,70.3c37.5,34.7,43.8,93.2,78.5,55.7c34.7-37.5,32-96.8-5.5-131.5
		C233.4,209.9,175,211.7,139.4,250.1L139.4,250.1z M479.1,251.9c0,116.9-95,211.9-211.9,211.9c-116.9,0-211-95-211-211.9
		c0-116.9,95-211,211-211C384.1,40.9,479.1,135,479.1,251.9L479.1,251.9z M442.6,251.9c0-95.9-78.5-174.4-175.3-174.4
		c-96.8,0-174.4,78.5-174.4,174.4c0,96.8,78.5,175.3,175.3,175.3C364.1,427.2,442.6,348.7,442.6,251.9L442.6,251.9z M442.6,251.9"/>
</g>
<g display="none">
	<path display="inline" fill="#0B050C" d="M77.5,313.1h6.8h95.1h81.5H356h27.2h27.2h47.5v16.7l-15.6,10.4h-11.5
		c-3.8,0-6.8,3-6.8,6.8v95.1H111.5v-95.1c0-3.7-3-6.8-6.8-6.8H93.1l-15.6-10.4V313.1L77.5,313.1z M91.1,252h78.1h3.4v47.5H91.1V252
		L91.1,252z M186.2,299.5V252h47.5c1.5,0,2.9-0.5,4.1-1.4l16.3-12.2v61.1H186.2L186.2,299.5z M159,228.2c0-5.6,4.6-10.2,10.2-10.2
		h50.9c1.8,0,3.5-0.7,4.8-2l23.2-23.2c1.9-2,4.3-3.5,6.8-4.5l13.5-5.4c0.1,0,0.1,0.1,0.2,0.1c1.9,1.2,3.8,2.3,5.9,3.3
		c0.1,0.1,0.3,0.1,0.4,0.2c6,2.8,12.7,4.4,19.8,4.4c10.3,0,19.9-3.3,27.7-9c0.1-0.1,0.3-0.1,0.4-0.2l11.5,3.3c3.7,1,6.9,3.1,9.4,5.9
		h-8.2c-3.8,0-6.8,3-6.8,6.8v81.5c0,3.7,3,6.8,6.8,6.8h13.6v13.6h-81.5v-74.7c0-2.6-1.5-4.9-3.8-6.1c-2.3-1.1-5.1-0.9-7.1,0.6
		l-25.4,19h-52.1h-10.2C163.6,238.4,159,233.8,159,228.2L159,228.2z M294.9,109.3c18.7,0,34,15.2,34,34c0,10.9-5.3,20.6-13.3,26.8
		c-0.9,0.7-1.8,1.4-2.8,2c-0.6,0.4-1.2,0.6-1.8,1c-8.1,4.3-17.7,5.1-26.4,2.5c-0.3-0.1-0.6-0.2-0.8-0.3c-1.4-0.5-2.7-1.1-4-1.7
		c-0.7-0.4-1.5-0.8-2.2-1.2c-0.9-0.6-1.9-1.1-2.7-1.8c-8.4-6.2-13.9-16.1-13.9-27.3C260.9,124.6,276.1,109.3,294.9,109.3
		L294.9,109.3z M457.9,272.4h-47.5h-27.2H356h-13.6v-67.9H355h102.9V272.4L457.9,272.4z M362.8,299.5V286h13.6v13.6H362.8
		L362.8,299.5z M403.5,299.5H390V286h13.6V299.5L403.5,299.5z M66.9,339.2l20.4,13.6c1.1,0.7,2.4,1.1,3.8,1.1h6.8V449
		c0,3.7,3,6.8,6.8,6.8h326c3.8,0,6.8-3,6.8-6.8v-95.1h6.8c1.3,0,2.7-0.4,3.8-1.1l20.4-13.6c1.9-1.3,3-3.4,3-5.7v-27.2
		c0-3.7-3-6.8-6.8-6.8h-47.5V286h47.5c3.8,0,6.8-3,6.8-6.8v-81.5c0-3.7-3-6.8-6.8-6.8H359.8c-4-9.1-11.9-16.2-21.6-19l-4.4-1.3
		c5.5-7.7,8.7-17.2,8.7-27.3c0-26.2-21.3-47.5-47.5-47.5c-26.2,0-47.5,21.3-47.5,47.5c0,11.1,3.8,21.3,10.2,29.4l-7.6,3
		c-4.3,1.7-8.1,4.3-11.4,7.5l-21.2,21.2h-48.1c-13.1,0-23.8,10.7-23.8,23.8c0,3.7,0.9,7.1,2.4,10.2H84.3c-3.8,0-6.8,3-6.8,6.8v54.3
		h-6.8c-3.8,0-6.8,3-6.8,6.8v27.2C63.9,335.8,65,337.9,66.9,339.2L66.9,339.2z"/>
	<path display="inline" fill="#0B050C" d="M118.3,62.3v13h13.6v-13c20.8,3,37.2,19.4,40.2,40.2h-13v13.6h13
		c-3,20.8-19.4,37.2-40.2,40.2v-13h-13.6v13c-20.8-3-37.2-19.4-40.2-40.2h13v-13.6H78C81,81.8,97.5,65.3,118.3,62.3L118.3,62.3z
		 M125,170.5c33.7,0,61.1-27.4,61.1-61.1S158.8,48.2,125,48.2s-61.1,27.4-61.1,61.1S91.3,170.5,125,170.5L125,170.5z"/>
	<path display="inline" fill="#0B050C" d="M125,122.9c0.2,0,0.3,0,0.5,0c2-0.1,3.8-1.1,5-2.7L150.9,93L140,84.9l-15.7,20.9l-8-8.1
		l-9.6,9.6l13.6,13.6C121.5,122.2,123.2,122.9,125,122.9L125,122.9z"/>
</g>
<g display="none">
	<path display="inline" fill="#0B050C" d="M491.7,367.5L476,400.2h-43.7c-4.5-22.2-24.2-39-47.8-39s-43.2,16.8-47.8,39H207.9
		c-4.5-22.2-24.2-39-47.8-39s-43.2,16.8-47.8,39H86.2c-6.2,0-12.3-2.5-16.6-6.9c-4.4-4.4-6.9-10.4-6.9-16.6v-49c0-4.5,3-8.4,7.4-9.5
		l63.2-15.8c2.4-0.6,4.4-2,5.8-4l30.3-45.5c3.6-5.4,9.7-8.7,16.2-8.7h144.2c6.5,0,12.6,3.2,16.2,8.7l30.3,45.5
		c1.5,2.2,3.8,3.8,6.5,4.2l100.7,16.8c4.7,0.8,8.2,4.8,8.2,9.6V367.5L491.7,367.5z M384.5,439.3c-16.1,0-29.3-13.1-29.3-29.3
		c0-16.1,13.1-29.3,29.3-29.3c16.1,0,29.3,13.1,29.3,29.3C413.7,426.1,400.6,439.3,384.5,439.3L384.5,439.3z M160.1,439.3
		c-16.1,0-29.3-13.1-29.3-29.3c0-16.1,13.1-29.3,29.3-29.3s29.3,13.1,29.3,29.3C189.4,426.1,176.3,439.3,160.1,439.3L160.1,439.3z
		 M486.8,300.1L390.2,284l-28-42c-7.3-10.9-19.4-17.4-32.5-17.4H185.6c-13.1,0-25.2,6.5-32.5,17.4l-28.2,42.4l-59.6,14.9
		c-13,3.3-22.2,14.9-22.2,28.4v49c0,11.5,4.5,22.3,12.6,30.4c8,8,19.1,12.6,30.4,12.6h26.2c4.5,22.2,24.2,39,47.8,39
		s43.2-16.8,47.8-39h128.8c4.5,22.2,24.2,39,47.8,39s43.2-16.8,47.8-39H476c7.4,0,14.1-4.1,17.5-10.8l15.8-31.6
		c0.3-0.7,0.6-1.4,0.8-2.2l1-4.4c0.2-0.7,0.2-1.5,0.2-2.2V329C511.3,314.6,501,302.5,486.8,300.1L486.8,300.1z"/>
	<g display="inline">
		<defs>
			<rect id="SVGID_7_" x="43.1" y="68.6" width="468.1" height="390.1"/>
		</defs>
		<clipPath id="SVGID_8_">
			<use xlink:href="#SVGID_7_"  overflow="visible"/>
		</clipPath>
		<path clip-path="url(#SVGID_8_)" fill="#0B050C" d="M339.7,155.7c5,0,10-1.9,13.8-5.7c7.6-7.6,7.6-20,0-27.6
			c-7.6-7.6-20-7.6-27.6,0c-7.6,7.6-7.6,20,0,27.6C329.8,153.8,334.7,155.7,339.7,155.7L339.7,155.7z"/>
		<path clip-path="url(#SVGID_8_)" fill="#0B050C" d="M184.9,125.3h86.4c4.1,0,7.7-2.5,9.1-6.3c2.5-6.7,6.2-12.5,11-17.2
			c18.4-18.4,50.6-18.4,69,0c9.2,9.2,14.3,21.5,14.3,34.5c0,13-5.1,25.3-14.3,34.5c-18.4,18.4-50.5,18.4-69,0
			c-4.8-4.8-8.5-10.6-11-17.2c-1.4-3.8-5.1-6.3-9.1-6.3h-86.4l-10.9-10.9L184.9,125.3L184.9,125.3z M173.9,163.8
			c1.8,1.8,4.3,2.9,6.9,2.9h84.1c3.3,6.7,7.6,12.7,12.7,17.8c12.9,12.9,30,20,48.3,20c18.2,0,35.4-7.1,48.3-20
			c12.9-12.9,20-30,20-48.3c0-18.2-7.1-35.4-20-48.3c-25.8-25.8-70.8-25.8-96.5,0c-5.2,5.2-9.5,11.2-12.8,17.8h-84.1
			c-2.6,0-5.1,1-6.9,2.9l-20.7,20.7c-3.8,3.8-3.8,10,0,13.8L173.9,163.8L173.9,163.8z"/>
	</g>
	<path display="inline" fill="#0B050C" d="M186.2,302.7l10.4-19.5h122.5l12.1,19.5H186.2L186.2,302.7z M332.9,268.3
		c-1.8-2.9-4.9-4.6-8.3-4.6H190.8c-3.6,0-6.9,2-8.6,5.2l-20.9,39c-1.6,3-1.5,6.7,0.2,9.6c1.8,2.9,4.9,4.7,8.4,4.7h178.9
		c3.5,0,6.8-1.9,8.5-5c1.7-3.1,1.6-6.9-0.2-9.9L332.9,268.3L332.9,268.3z"/>
</g>
<g display="none">
	<g display="inline">
		<defs>
			<rect id="SVGID_9_" x="61.4" y="45.6" width="412.6" height="412.8"/>
		</defs>
		<clipPath id="SVGID_10_">
			<use xlink:href="#SVGID_9_"  overflow="visible"/>
		</clipPath>
		<path clip-path="url(#SVGID_10_)" fill="#0B050C" d="M463.4,396.6L301.5,234.7L112.4,45.6H97.6l-3,7.7c-8,20.2-11.4,40.9-9.8,59.9
			c1.7,21.6,9.9,40.2,23.7,54l147.6,147.6l19.5-19.5L412,447.9c13.6,13.6,36.9,14.4,51.3,0l0,0C477.5,433.8,477.5,410.7,463.4,396.6
			L463.4,396.6z"/>
		<path clip-path="url(#SVGID_10_)" fill="#0B050C" d="M72,396.2c-14.2,14.2-14.2,37.2,0,51.3c13.4,13.4,36.7,14.6,51.3,0L239,331.9
			l-51.3-51.3L72,396.2L72,396.2z"/>
	</g>
	<path display="inline" fill="#0B050C" d="M349,234.6c14.8-0.9,28.7-7.1,39.1-17.6l85.6-85.6l-17.1-17.1L391,179.9l-17.1-17.1
		l65.6-65.6l-17.1-17.1l-65.6,65.6l-17.1-17.1L405.2,63l-17.1-17.1l-85.6,85.6c-10.5,10.5-16.7,24.4-17.6,39.1
		c-0.2,3.7-1.1,7.4-2.5,10.9l55.6,55.6C341.6,235.6,345.2,234.8,349,234.6L349,234.6z"/>
</g>
<g>
	<path fill="#0B050C" d="M84.4,366.1c10.8-10.3,27.7-10.3,38.5,0c17.2,17.2,45,17.2,62.2,0c10.8-10.3,27.7-10.3,38.5,0
		c17.2,17.2,45,17.2,62.2,0c10.8-10.3,27.7-10.3,38.5,0c17.2,17.2,45,17.2,62.2,0c10.8-10.3,27.7-10.3,38.5,0
		c17.2,17.2,45,17.2,62.2,0l25.2-25.2L500.5,329l-25.2,25.2c-10.6,10.6-27.9,10.6-38.5,0c-17.2-17.2-45-17.2-62.2,0c0,0,0,0,0,0
		c-10.8,10.3-27.7,10.3-38.5,0c-17.2-17.2-45-17.2-62.2,0c0,0,0,0,0,0c-10.8,10.3-27.7,10.3-38.5,0c-17.2-17.2-45-17.2-62.2,0
		c0,0,0,0,0,0c-10.6,10.6-27.9,10.6-38.5,0c-17.2-17.2-45-17.2-62.2,0c0,0,0,0,0,0l-25.2,25.2l11.9,11.9L84.4,366.1L84.4,366.1z"/>
	<path fill="#0B050C" d="M84.4,416.4c10.8-10.3,27.7-10.3,38.5,0c17.2,17.2,45,17.2,62.2,0c10.8-10.3,27.7-10.3,38.5,0
		c17.2,17.2,45,17.2,62.2,0c10.8-10.3,27.7-10.3,38.5,0c17.2,17.2,45,17.2,62.2,0c10.8-10.3,27.7-10.3,38.5,0
		c17.2,17.2,45,17.2,62.2,0l25.2-25.2l-11.9-11.9l-25.2,25.2c-10.6,10.6-27.9,10.6-38.5,0c-17.2-17.2-45-17.2-62.2,0c0,0,0,0,0,0
		c-10.8,10.3-27.7,10.3-38.5,0c-17.2-17.2-45-17.2-62.2,0c0,0,0,0,0,0c-10.8,10.3-27.7,10.3-38.5,0c-17.2-17.2-45-17.2-62.2,0
		c0,0,0,0,0,0c-10.6,10.6-27.9,10.6-38.5,0c-17.2-17.2-45-17.2-62.2,0c0,0,0,0,0,0l-25.2,25.2l11.9,11.9L84.4,416.4L84.4,416.4z"/>
	<g>
		<defs>
			<rect id="SVGID_11_" x="47.3" y="10.3" width="465.1" height="481.7"/>
		</defs>
		<clipPath id="SVGID_12_">
			<use xlink:href="#SVGID_11_"  overflow="visible"/>
		</clipPath>
		<path clip-path="url(#SVGID_12_)" fill="#0B050C" d="M84.4,466.8c10.8-10.3,27.7-10.3,38.5,0c17.2,17.2,45,17.2,62.2,0
			c10.8-10.3,27.7-10.3,38.5,0c17.2,17.2,45,17.2,62.2,0c10.8-10.3,27.7-10.3,38.5,0c17.2,17.2,45,17.2,62.2,0
			c10.8-10.3,27.7-10.3,38.5,0c17.2,17.2,45,17.2,62.2,0l25.2-25.2l-11.9-11.9l-25.2,25.2c-10.6,10.6-27.9,10.6-38.5,0
			c-17.2-17.2-45-17.2-62.2,0c0,0,0,0,0,0c-10.8,10.3-27.7,10.3-38.5,0c-17.2-17.2-45-17.2-62.2,0c0,0,0,0,0,0
			c-10.8,10.3-27.7,10.3-38.5,0c-17.2-17.2-45-17.2-62.2,0c0,0,0,0,0,0c-10.6,10.6-27.9,10.6-38.5,0c-17.2-17.2-45-17.2-62.2,0
			c0,0,0,0,0,0l-25.2,25.2L59.2,492L84.4,466.8L84.4,466.8z"/>
		<path clip-path="url(#SVGID_12_)" fill="#0B050C" d="M143.1,334.8l131.2-131.2c3.3-3.3,3.3-8.6,0-11.9l-22.9-22.9
			c-19.4-19.5-19.4-51,0-70.5l67.9-67.9c4.9-4.7,12.6-4.7,17.5,0c4.8,4.8,4.8,12.7,0,17.5l-66.8,66.8c-10.4,10.4-10.4,27.3,0,37.7
			c0,0,0,0,0,0l113,113l75.5,75.5l11.9-11.9l-75.5-75.5l-113-113c-3.9-3.9-3.9-10.1,0-14v0l66.8-66.8c11.4-11.4,11.4-29.8,0-41.2
			c-11.5-11-29.7-11-41.3,0l-67.9,67.9c-26,26-26,68.2,0,94.2l17,17L131.2,323L143.1,334.8L143.1,334.8z"/>
	</g>
	<path fill="#0B050C" d="M397.4,125.2c18.5,0,33.6,15,33.6,33.6s-15,33.6-33.6,33.6c-18.5,0-33.6-15-33.6-33.6
		S378.8,125.2,397.4,125.2L397.4,125.2z M397.4,209.1c27.8,0,50.4-22.5,50.4-50.4c0-27.8-22.5-50.4-50.4-50.4
		c-27.8,0-50.4,22.5-50.4,50.4C347,186.5,369.6,209.1,397.4,209.1L397.4,209.1z"/>
	<path fill="#0B050C" d="M353.7,282.9l-37.8,37.8l11.9,11.9l31.8-31.8l31.8,31.8l11.9-11.9l-37.8-37.8
		C362.2,279.6,356.9,279.6,353.7,282.9L353.7,282.9z"/>
</g>
<g>
	<path fill="#0B050C" d="M84.4,368.1c10.8-10.3,27.7-10.3,38.5,0c17.2,17.2,45,17.2,62.2,0c10.8-10.3,27.7-10.3,38.5,0
		c17.2,17.2,45,17.2,62.2,0c10.8-10.3,27.7-10.3,38.5,0c17.2,17.2,45,17.2,62.2,0c10.8-10.3,27.7-10.3,38.5,0
		c17.2,17.2,45,17.2,62.2,0l25.2-25.2L500.5,331l-25.2,25.2c-10.6,10.6-27.9,10.6-38.5,0c-17.2-17.2-45-17.2-62.2,0c0,0,0,0,0,0
		c-10.8,10.3-27.7,10.3-38.5,0c-17.2-17.2-45-17.2-62.2,0c0,0,0,0,0,0c-10.8,10.3-27.7,10.3-38.5,0c-17.2-17.2-45-17.2-62.2,0
		c0,0,0,0,0,0c-10.6,10.6-27.9,10.6-38.5,0c-17.2-17.2-45-17.2-62.2,0c0,0,0,0,0,0l-25.2,25.2l11.9,11.9L84.4,368.1L84.4,368.1z"/>
	<path fill="#0B050C" d="M84.4,418.4c10.8-10.3,27.7-10.3,38.5,0c17.2,17.2,45,17.2,62.2,0c10.8-10.3,27.7-10.3,38.5,0
		c17.2,17.2,45,17.2,62.2,0c10.8-10.3,27.7-10.3,38.5,0c17.2,17.2,45,17.2,62.2,0c10.8-10.3,27.7-10.3,38.5,0
		c17.2,17.2,45,17.2,62.2,0l25.2-25.2l-11.9-11.9l-25.2,25.2c-10.6,10.6-27.9,10.6-38.5,0c-17.2-17.2-45-17.2-62.2,0c0,0,0,0,0,0
		c-10.8,10.3-27.7,10.3-38.5,0c-17.2-17.2-45-17.2-62.2,0c0,0,0,0,0,0c-10.8,10.3-27.7,10.3-38.5,0c-17.2-17.2-45-17.2-62.2,0
		c0,0,0,0,0,0c-10.6,10.6-27.9,10.6-38.5,0c-17.2-17.2-45-17.2-62.2,0c0,0,0,0,0,0l-25.2,25.2l11.9,11.9L84.4,418.4L84.4,418.4z"/>
	<g>
		<defs>
			<rect id="SVGID_13_" x="47.3" y="12.3" width="465.1" height="481.7"/>
		</defs>
		<clipPath id="SVGID_14_">
			<use xlink:href="#SVGID_13_"  overflow="visible"/>
		</clipPath>
		<path clip-path="url(#SVGID_14_)" fill="#0B050C" d="M84.4,468.8c10.8-10.3,27.7-10.3,38.5,0c17.2,17.2,45,17.2,62.2,0
			c10.8-10.3,27.7-10.3,38.5,0c17.2,17.2,45,17.2,62.2,0c10.8-10.3,27.7-10.3,38.5,0c17.2,17.2,45,17.2,62.2,0
			c10.8-10.3,27.7-10.3,38.5,0c17.2,17.2,45,17.2,62.2,0l25.2-25.2l-11.9-11.9l-25.2,25.2c-10.6,10.6-27.9,10.6-38.5,0
			c-17.2-17.2-45-17.2-62.2,0c0,0,0,0,0,0c-10.8,10.3-27.7,10.3-38.5,0c-17.2-17.2-45-17.2-62.2,0c0,0,0,0,0,0
			c-10.8,10.3-27.7,10.3-38.5,0c-17.2-17.2-45-17.2-62.2,0c0,0,0,0,0,0c-10.6,10.6-27.9,10.6-38.5,0c-17.2-17.2-45-17.2-62.2,0
			c0,0,0,0,0,0l-25.2,25.2L59.2,494L84.4,468.8L84.4,468.8z"/>
		<path clip-path="url(#SVGID_14_)" fill="#0B050C" d="M143.1,336.8l131.2-131.2c3.3-3.3,3.3-8.6,0-11.9l-22.9-22.9
			c-19.4-19.5-19.4-51,0-70.5l67.9-67.9c4.9-4.7,12.6-4.7,17.5,0c4.8,4.8,4.8,12.7,0,17.5l-66.8,66.8c-10.4,10.4-10.4,27.3,0,37.7
			c0,0,0,0,0,0l113,113l75.5,75.5l11.9-11.9l-75.5-75.5l-113-113c-3.9-3.9-3.9-10.1,0-14v0l66.8-66.8c11.4-11.4,11.4-29.8,0-41.2
			c-11.5-11-29.7-11-41.3,0l-67.9,67.9c-26,26-26,68.2,0,94.2l17,17L131.2,325L143.1,336.8L143.1,336.8z"/>
	</g>
	<path fill="#0B050C" d="M397.4,127.2c18.5,0,33.6,15,33.6,33.6s-15,33.6-33.6,33.6c-18.5,0-33.6-15-33.6-33.6
		S378.8,127.2,397.4,127.2L397.4,127.2z M397.4,211.1c27.8,0,50.4-22.5,50.4-50.4c0-27.8-22.5-50.4-50.4-50.4
		c-27.8,0-50.4,22.5-50.4,50.4C347,188.5,369.6,211.1,397.4,211.1L397.4,211.1z"/>
	<path fill="#0B050C" d="M353.7,284.9l-37.8,37.8l11.9,11.9l31.8-31.8l31.8,31.8l11.9-11.9l-37.8-37.8
		C362.2,281.6,356.9,281.6,353.7,284.9L353.7,284.9z"/>
</g>
<g display="none">
	<g display="inline">
		<defs>
			<rect id="SVGID_15_" x="58.7" y="52.2" width="431.9" height="396.2"/>
		</defs>
		<clipPath id="SVGID_16_">
			<use xlink:href="#SVGID_15_"  overflow="visible"/>
		</clipPath>
		<path clip-path="url(#SVGID_16_)" fill="#0B050C" d="M473.6,341.9L390.2,406c0,0-0.1,0.1-0.1,0.1c-6.9,5.7-15.3,9.4-24.1,10.8
			l-129.2,18.6c0,0-0.1,0-0.2,0c-3.9,0.6-7.9,0.4-12-0.8L132.9,400V298.5h10c20.3,0,40.3,5.4,57.8,15.7
			c14.3,8.4,29.9,13.8,46.4,16.1c0.1,0,0.1,0,0.2,0l67.3,7.7c11.8,1.7,20.8,11.2,22,23l0.2,1.8L199.1,342c-3.4-0.5-6.6,1.8-7.2,5.3
			c-0.5,3.4,1.8,6.6,5.3,7.2l145.5,22.1c0,0,0,0,0,0c0.2,0,0.4,0,0.6,0.1l25.1,1.4c1.4,0.1,2.7-0.3,3.9-1.1l84.4-56.5
			c6.2-4.2,14.7-2.5,18.9,3.6c0,0,0,0,0,0C479.5,329.8,478.6,337.4,473.6,341.9L473.6,341.9z M486.1,317.1c-8.1-11.9-24.4-15-36.3-7
			l-82.6,55.3l-17.7-1l-0.5-4.5c-1.8-17.7-15.3-31.8-32.9-34.2c-0.1,0-0.1,0-0.2,0l-67.3-7.7c-14.8-2.1-28.8-7-41.7-14.5
			c-19.4-11.4-41.6-17.4-64.1-17.4h-10V274c0-7.5-6.1-13.7-13.7-13.7H72.4c-7.5,0-13.7,6.1-13.7,13.7v88.8c0,3.5,2.8,6.3,6.3,6.3
			c3.5,0,6.3-2.8,6.3-6.3V274c0-0.6,0.5-1.1,1.1-1.1h46.9c0.6,0,1.1,0.5,1.1,1.1l0,0v148.4l0,0c0,0.6-0.5,1.1-1.1,1.1H72.4
			c-0.6,0-1.1-0.5-1.1-1.1v-18.3c0-3.5-2.8-6.3-6.3-6.3c-3.5,0-6.3,2.8-6.3,6.3v18.3c0,7.5,6.1,13.7,13.7,13.7h46.9
			c7.5,0,13.7-6.1,13.7-13.7v-9l87.6,33.2c0.2,0.1,0.3,0.1,0.5,0.2c3.9,1.1,7.7,1.6,11.5,1.6c2,0,4.1-0.2,6.1-0.5l129.3-18.6
			c0,0,0.1,0,0.1,0c11-1.8,21.4-6.4,30-13.4l83.5-64.2c0.1-0.1,0.2-0.2,0.3-0.3C491.6,342.7,493.5,328,486.1,317.1L486.1,317.1z"/>
		<path clip-path="url(#SVGID_16_)" fill="#0B050C" d="M423.6,134.5c-0.8,0.8-1.7,0.9-2.1,0.9c-0.5,0-1.4-0.1-2.1-0.9L380.8,96
			c-0.8-0.8-0.9-1.7-0.9-2.1c0-0.5,0.1-1.4,0.9-2.1c0.8-0.8,1.7-0.9,2.1-0.9c0.5,0,1.4,0.1,2.1,0.9l38.5,38.5
			c0.8,0.8,0.9,1.7,0.9,2.1C424.5,132.8,424.4,133.7,423.6,134.5L423.6,134.5z M432.5,121.3L394,82.8c-2.9-2.9-6.9-4.6-11-4.6
			c-4.2,0-8.1,1.6-11,4.6c-2.9,2.9-4.6,6.9-4.6,11s1.6,8.1,4.6,11l38.5,38.5c2.9,2.9,6.9,4.6,11,4.6c4.2,0,8.1-1.6,11-4.6
			C438.6,137.3,438.6,127.4,432.5,121.3L432.5,121.3z"/>
		<path clip-path="url(#SVGID_16_)" fill="#0B050C" d="M237.2,267.5l15.1-7.6c1.9-1,3.4-2.6,4.1-4.6l4.2-11.6l13.4-6.9
			c1.5-0.8,2.8-2,3.6-3.5l7.9-15l15.8-15.8c2.3-2.3,3-5.5,2.1-8.4l10.6-10.6l17.9,17.9L321.2,212c-2.9-0.9-6.1-0.2-8.4,2.1
			L297,229.9l-15,7.9c-1.5,0.8-2.8,2-3.5,3.6l-6.9,13.4L260,259c-2,0.7-3.7,2.2-4.6,4.1l-7.6,15.1l-12.8,2.2L237.2,267.5
			L237.2,267.5z M229.9,293.8c0.5,0,0.9,0,1.4-0.1l20.8-3.5c2.6-0.4,4.9-2.1,6.1-4.5l7.8-15.5l11.5-4.2c2-0.7,3.6-2.1,4.6-4
			l7.1-13.7l14.4-7.6c0.7-0.4,1.4-0.9,2-1.5l14-14c0.8,0.2,1.6,0.4,2.5,0.4c2.2,0,4.3-0.9,5.9-2.5l13-13c6.3,4.9,13.9,7.4,21.5,7.4
			c7.5,0,15-2.4,21.3-7.3l21-16.2c2.8-2.1,3.3-6.1,1.1-8.8c-2.1-2.8-6.1-3.3-8.8-1.1l-21,16.2c-8.8,6.8-21.4,6-29.3-1.9l-29.8-29.8
			c-7.9-7.9-8.7-20.5-1.9-29.3l51-66c3.9-5,9.8-8.1,16.1-8.5c6.3-0.4,12.6,1.9,17.1,6.4l44.8,44.8c4.5,4.5,6.8,10.7,6.4,17.1
			c-0.4,6.3-3.5,12.2-8.5,16.1l-12.2,9.4c-2.8,2.1-3.3,6.1-1.1,8.8c2.1,2.8,6.1,3.3,8.8,1.1l12.2-9.4c7.9-6.1,12.8-15.3,13.4-25.3
			c0.6-10-3.1-19.7-10.1-26.8l-44.8-44.8c-7.1-7.1-16.8-10.7-26.8-10.1c-10,0.6-19.2,5.5-25.3,13.4l-51,66
			c-9.8,12.7-9.6,30.4,0.1,42.8l-13,13c-2.3,2.3-3,5.5-2.1,8.4l-14,14c-0.6,0.6-1.1,1.3-1.5,2l-7.6,14.4l-13.7,7.1
			c-1.9,1-3.3,2.6-4,4.6l-4.2,11.5l-15.5,7.8c-2.4,1.2-4.1,3.5-4.5,6.1l-3.5,20.8c-0.5,2.7,0.4,5.4,2.3,7.3
			C225.5,293,227.7,293.8,229.9,293.8L229.9,293.8z"/>
	</g>
</g>
<g display="none">
	<g display="inline">
		<defs>
			<rect id="SVGID_17_" x="75.1" y="45.4" width="406.3" height="425.1"/>
		</defs>
		<clipPath id="SVGID_18_">
			<use xlink:href="#SVGID_17_"  overflow="visible"/>
		</clipPath>
		<path clip-path="url(#SVGID_18_)" d="M143.8,64.2c2.7-2.7,2.7-7.1,0-9.8c-2.7-2.7-7.1-2.7-9.8,0c-78.6,78.6-78.6,206.4,0,284.9
			c1.4,1.4,3.1,2,4.9,2c1.8,0,3.5-0.7,4.9-2c2.7-2.7,2.7-7.1,0-9.8C70.7,256.4,70.7,137.4,143.8,64.2L143.8,64.2z M143.8,64.2"/>
	</g>
	<path display="inline" d="M418.9,54.4c-2.7-2.7-7.1-2.7-9.8,0c-2.7,2.7-2.7,7.1,0,9.8c35.4,35.3,54.9,82.5,54.9,132.6
		c0,50.2-19.5,97.2-54.9,132.6c-2.7,2.7-2.7,7.1,0,9.8c1.4,1.4,3.2,2,4.9,2c1.8,0,3.6-0.7,4.9-2c38-38,58.9-88.6,58.9-142.4
		C477.8,143,456.9,92.4,418.9,54.4L418.9,54.4z M418.9,54.4"/>
	<path display="inline" d="M173.3,93.7c2.7-2.7,2.7-7.1,0-9.8c-2.7-2.7-7.1-2.7-9.8,0c-62.3,62.3-62.3,163.6,0,225.9
		c1.4,1.4,3.1,2,4.9,2c1.8,0,3.6-0.7,4.9-2c2.7-2.7,2.7-7.1,0-9.8C116.5,243.1,116.5,150.6,173.3,93.7L173.3,93.7z M173.3,93.7"/>
	<path display="inline" d="M389.4,83.9c-2.7-2.7-7.1-2.7-9.8,0c-2.7,2.7-2.7,7.1,0,9.8c56.9,56.9,56.9,149.4,0,206.3
		c-2.7,2.7-2.7,7.1,0,9.8c1.4,1.4,3.1,2,4.9,2c1.8,0,3.6-0.7,4.9-2C451.7,247.5,451.7,146.2,389.4,83.9L389.4,83.9z M389.4,83.9"/>
	<path display="inline" d="M202.8,113.4c-2.7-2.7-7.1-2.7-9.8,0c-22.3,22.3-34.6,51.9-34.6,83.5c0,31.6,12.3,61.2,34.6,83.5
		c1.4,1.4,3.1,2,4.9,2c1.8,0,3.6-0.7,4.9-2c2.7-2.7,2.7-7.1,0-9.8c-40.6-40.6-40.6-106.7,0-147.3
		C205.5,120.5,205.5,116.1,202.8,113.4L202.8,113.4z M202.8,113.4"/>
	<path display="inline" d="M360,113.4c-2.7-2.7-7.1-2.7-9.8,0c-2.7,2.7-2.7,7.1,0,9.8c40.6,40.6,40.6,106.7,0,147.4
		c-2.7,2.7-2.7,7.1,0,9.8c1.4,1.4,3.1,2,4.9,2c1.8,0,3.6-0.7,4.9-2c22.3-22.3,34.6-51.9,34.6-83.5
		C394.5,165.3,382.2,135.6,360,113.4L360,113.4z M360,113.4"/>
	<path display="inline" d="M276.5,149.6c-26.8,0-48.6,21.8-48.6,48.6c0,24.5,18.1,44.7,41.7,48.1v208.9c0,3.9,3.1,7,6.9,7
		c3.9,0,6.9-3.1,6.9-7V246.3c23.5-3.4,41.7-23.6,41.7-48.1C325.1,171.5,303.3,149.6,276.5,149.6L276.5,149.6z M276.5,149.6"/>
</g>
<g display="none">
	<rect x="110.6" y="180" display="inline" width="25.4" height="12.7"/>
	<path display="inline" d="M447.4,154.5c10.5,0,19.1-8.6,19.1-19.1V71.9c0-10.5-8.6-19.1-19.1-19.1h-89c-10.5,0-19.1,8.6-19.1,19.1
		v63.5c0,10.5,8.6,19.1,19.1,19.1h19.1v12.7h-12.7V180h31.8v63.5h-26.2c-5.1-4.9-11.3-8.7-18.3-10.8c0-0.6,0-1.3,0-1.9
		c0-28-22.8-50.8-50.8-50.8c-17.4,0-33.6,9-42.8,23.5c-6.5-2.9-13.6-4.5-20.7-4.5c-21.1,0-40.1,13.3-47.5,32.8
		c-4.8,1-9.3,2.9-13.4,5.3h-47.1v-19.1h25.4c10.5,0,19.1-8.6,19.1-19.1V71.9c0-10.5-8.6-19.1-19.1-19.1H91.6
		c-10.5,0-19.1,8.6-19.1,19.1V199c0,10.5,8.6,19.1,19.1,19.1H117v31.8h46.3c-2.7,3.9-4.8,8.1-6.2,12.7h-27.4v69.9h-25.4
		c-10.5,0-19.1,8.6-19.1,19.1v57.2H72.5v19.1c0,10.5,8.6,19.1,19.1,19.1h101.7c10.5,0,19.1-8.6,19.1-19.1v-19.1h-12.7v-57.2
		c0-10.5-8.6-19.1-19.1-19.1h-38.1v-57.2h12.7c0,24.5,20,44.5,44.5,44.5h139.8c22.4,0,40.9-16.6,44-38.1h25.9v50.8h-44.5v114.4
		h101.7V332.5H422v-63.5h-38.7c-0.7-4.5-2-8.7-4-12.7h29.9V180h31.8v-12.7h-12.7v-12.7H447.4z M161.5,154.5H85.2V91h76.2V154.5z
		 M91.6,65.6h63.5c3.5,0,6.4,2.8,6.4,6.4v6.4H85.2v-6.4C85.2,68.4,88.1,65.6,91.6,65.6L91.6,65.6z M85.2,199v-31.8h76.2V199
		c0,3.5-2.8,6.4-6.4,6.4H91.6C88.1,205.4,85.2,202.5,85.2,199L85.2,199z M199.6,427.8c0,3.5-2.8,6.4-6.4,6.4H91.6
		c-3.5,0-6.4-2.8-6.4-6.4v-6.4h114.4V427.8z M186.9,351.5v57.2h-89v-57.2c0-3.5,2.8-6.4,6.4-6.4h76.2
		C184,345.2,186.9,348,186.9,351.5L186.9,351.5z M377.5,434.1V396h76.2v38.1H377.5z M453.8,383.3h-76.2v-38.1h76.2V383.3z
		 M339.4,307H199.6c-17.5,0-31.8-14.3-31.8-31.8c0-16.1,12-29.6,28-31.5l4.2-0.5l1.2-4c4.7-16.2,19.8-27.5,36.6-27.5
		c7,0,13.9,2,19.9,5.7l6.1,3.7l3-6.5c6.3-13.4,19.8-22,34.5-22c21,0,38.1,17.1,38.1,38.1c0,1.8-0.2,3.6-0.5,5.9l-1,6.3l6.3,1
		c15.4,2.3,26.9,15.8,26.9,31.4C371.2,292.8,356.9,307,339.4,307L339.4,307z M358.5,65.6h89c3.5,0,6.4,2.8,6.4,6.4v44.5H352.1V71.9
		C352.1,68.4,355,65.6,358.5,65.6L358.5,65.6z M352.1,135.5v-6.4h101.7v6.4c0,3.5-2.8,6.4-6.4,6.4h-89
		C355,141.8,352.1,139,352.1,135.5L352.1,135.5z M415.6,167.2h-25.4v-12.7h25.4V167.2z M415.6,167.2"/>
	<rect x="390.2" y="357.9" display="inline" width="12.7" height="12.7"/>
	<rect x="428.4" y="408.7" display="inline" width="12.7" height="12.7"/>
	<rect x="415.6" y="357.9" display="inline" width="25.4" height="12.7"/>
	<rect x="390.2" y="408.7" display="inline" width="25.4" height="12.7"/>
</g>
</svg>
